<svg xmlns="http://www.w3.org/2000/svg" xmlns:xlink="http://www.w3.org/1999/xlink" width="1366" zoomAndPan="magnify" viewBox="0 0 1024.5 576" height="768" preserveAspectRatio="xMidYMid meet" version="1.0"><defs><clipPath id="5b21ae988f"><path d="M 243.542969 19.609375 L 781 19.609375 L 781 556.390625 L 243.542969 556.390625 Z M 243.542969 19.609375 " clip-rule="nonzero"/></clipPath><clipPath id="e9053d28ee"><path d="M 512 19.609375 L 538.042969 41.628906 L 568.121094 25.472656 L 588.992188 52.398438 L 621.792969 42.8125 L 636.574219 73.460938 L 670.664062 70.867188 L 678.714844 103.902344 L 712.601562 108.410156 L 713.566406 142.390625 L 745.769531 153.804688 L 739.609375 187.242188 L 768.722656 205.0625 L 755.707031 236.496094 L 780.457031 259.945312 L 761.152344 288 L 780.457031 316.054688 L 755.707031 339.503906 L 768.722656 370.9375 L 739.609375 388.757812 L 745.769531 422.195312 L 713.566406 433.609375 L 712.601562 467.589844 L 678.714844 472.097656 L 670.664062 505.132812 L 636.574219 502.535156 L 621.792969 533.1875 L 588.992188 523.601562 L 568.121094 550.527344 L 538.042969 534.371094 L 512 556.390625 L 485.957031 534.371094 L 455.878906 550.527344 L 435.007812 523.601562 L 402.207031 533.1875 L 387.425781 502.535156 L 353.335938 505.132812 L 345.285156 472.097656 L 311.398438 467.589844 L 310.433594 433.609375 L 278.230469 422.195312 L 284.390625 388.757812 L 255.277344 370.9375 L 268.292969 339.503906 L 243.542969 316.054688 L 262.851562 288 L 243.542969 259.945312 L 268.292969 236.496094 L 255.277344 205.0625 L 284.390625 187.242188 L 278.230469 153.804688 L 310.433594 142.390625 L 311.398438 108.410156 L 345.285156 103.902344 L 353.335938 70.867188 L 387.425781 73.460938 L 402.207031 42.8125 L 435.007812 52.398438 L 455.878906 25.472656 L 485.957031 41.628906 Z M 512 19.609375 " clip-rule="nonzero"/></clipPath><clipPath id="8166a1d10b"><path d="M 0.542969 0.609375 L 537.578125 0.609375 L 537.578125 537.390625 L 0.542969 537.390625 Z M 0.542969 0.609375 " clip-rule="nonzero"/></clipPath><clipPath id="51d282d93d"><path d="M 269 0.609375 L 295.042969 22.628906 L 325.121094 6.472656 L 345.992188 33.398438 L 378.792969 23.8125 L 393.574219 54.460938 L 427.664062 51.867188 L 435.714844 84.902344 L 469.601562 89.410156 L 470.566406 123.390625 L 502.769531 134.804688 L 496.609375 168.242188 L 525.722656 186.0625 L 512.707031 217.496094 L 537.457031 240.945312 L 518.152344 269 L 537.457031 297.054688 L 512.707031 320.503906 L 525.722656 351.9375 L 496.609375 369.757812 L 502.769531 403.195312 L 470.566406 414.609375 L 469.601562 448.589844 L 435.714844 453.097656 L 427.664062 486.132812 L 393.574219 483.535156 L 378.792969 514.1875 L 345.992188 504.601562 L 325.121094 531.527344 L 295.042969 515.371094 L 269 537.390625 L 242.957031 515.371094 L 212.878906 531.527344 L 192.007812 504.601562 L 159.207031 514.1875 L 144.425781 483.535156 L 110.335938 486.132812 L 102.285156 453.097656 L 68.398438 448.589844 L 67.433594 414.609375 L 35.230469 403.195312 L 41.390625 369.757812 L 12.277344 351.9375 L 25.292969 320.503906 L 0.542969 297.054688 L 19.851562 269 L 0.542969 240.945312 L 25.292969 217.496094 L 12.277344 186.0625 L 41.390625 168.242188 L 35.230469 134.804688 L 67.433594 123.390625 L 68.398438 89.410156 L 102.285156 84.902344 L 110.335938 51.867188 L 144.425781 54.460938 L 159.207031 23.8125 L 192.007812 33.398438 L 212.878906 6.472656 L 242.957031 22.628906 Z M 269 0.609375 " clip-rule="nonzero"/></clipPath><clipPath id="17c97bfc33"><rect x="0" width="538" y="0" height="538"/></clipPath></defs><g clip-path="url(#5b21ae988f)"><g clip-path="url(#e9053d28ee)"><g transform="matrix(1, 0, 0, 1, 243, 19)"><g clip-path="url(#17c97bfc33)"><g clip-path="url(#8166a1d10b)"><g clip-path="url(#51d282d93d)"><path fill="#d8baf9" d="M 0.542969 0.609375 L 537.328125 0.609375 L 537.328125 537.390625 L 0.542969 537.390625 Z M 0.542969 0.609375 " fill-opacity="1" fill-rule="nonzero"/></g></g></g></g></g></g></svg>