<svg xmlns="http://www.w3.org/2000/svg" xmlns:xlink="http://www.w3.org/1999/xlink" width="1366" zoomAndPan="magnify" viewBox="0 0 1024.5 576" height="768" preserveAspectRatio="xMidYMid meet" version="1.0"><defs><clipPath id="8bc88515d0"><path d="M 248.484375 23.941406 L 775.515625 23.941406 L 775.515625 553 L 248.484375 553 Z M 248.484375 23.941406 " clip-rule="nonzero"/></clipPath><clipPath id="d929c74394"><path d="M 512 23.941406 L 550.902344 80.835938 L 607.601562 41.925781 L 623.453125 109.121094 L 690.292969 93.453125 L 680.953125 161.871094 L 748.902344 171.554688 L 715.636719 231.960938 L 775.515625 265.695312 L 722.8125 309.925781 L 766.542969 363.152344 L 701.519531 385.238281 L 723.191406 450.765625 L 654.632812 447.71875 L 651.320312 516.699219 L 588.480469 488.9375 L 560.628906 552.058594 L 512 503.328125 L 463.371094 552.058594 L 435.519531 488.9375 L 372.683594 516.699219 L 369.367188 447.71875 L 300.808594 450.765625 L 322.480469 385.238281 L 257.457031 363.152344 L 301.1875 309.925781 L 248.484375 265.695312 L 308.363281 231.960938 L 275.097656 171.554688 L 343.046875 161.871094 L 333.710938 93.453125 L 400.546875 109.121094 L 416.398438 41.925781 L 473.097656 80.835938 Z M 512 23.941406 " clip-rule="nonzero"/></clipPath><clipPath id="c8752e086f"><path d="M 0.484375 0.941406 L 527.515625 0.941406 L 527.515625 529.109375 L 0.484375 529.109375 Z M 0.484375 0.941406 " clip-rule="nonzero"/></clipPath><clipPath id="1f3d15808e"><path d="M 264 0.941406 L 302.902344 57.835938 L 359.601562 18.925781 L 375.453125 86.121094 L 442.292969 70.453125 L 432.953125 138.871094 L 500.902344 148.554688 L 467.636719 208.960938 L 527.515625 242.695312 L 474.8125 286.925781 L 518.542969 340.152344 L 453.519531 362.238281 L 475.191406 427.765625 L 406.632812 424.71875 L 403.320312 493.699219 L 340.480469 465.9375 L 312.628906 529.058594 L 264 480.328125 L 215.371094 529.058594 L 187.519531 465.9375 L 124.683594 493.699219 L 121.367188 424.71875 L 52.808594 427.765625 L 74.480469 362.238281 L 9.457031 340.152344 L 53.1875 286.925781 L 0.484375 242.695312 L 60.363281 208.960938 L 27.097656 148.554688 L 95.046875 138.871094 L 85.710938 70.453125 L 152.546875 86.121094 L 168.398438 18.925781 L 225.097656 57.835938 Z M 264 0.941406 " clip-rule="nonzero"/></clipPath><clipPath id="b55da690c0"><rect x="0" width="528" y="0" height="530"/></clipPath></defs><g clip-path="url(#8bc88515d0)"><g clip-path="url(#d929c74394)"><g transform="matrix(1, 0, 0, 1, 248, 23)"><g clip-path="url(#b55da690c0)"><g clip-path="url(#c8752e086f)"><g clip-path="url(#1f3d15808e)"><path fill="#6800db" d="M 0.484375 0.941406 L 527.515625 0.941406 L 527.515625 530.035156 L 0.484375 530.035156 Z M 0.484375 0.941406 " fill-opacity="1" fill-rule="nonzero"/></g></g></g></g></g></g></svg>