<svg xmlns="http://www.w3.org/2000/svg" xmlns:xlink="http://www.w3.org/1999/xlink" width="1366" zoomAndPan="magnify" viewBox="0 0 1024.5 576" height="768" preserveAspectRatio="xMidYMid meet" version="1.0"><defs><clipPath id="c1d4cc835e"><path d="M 249 24 L 775 24 L 775 552 L 249 552 Z M 249 24 " clip-rule="nonzero"/></clipPath><clipPath id="23a72d78f3"><path d="M 362.476562 -6.101562 L 806.101562 138.480469 L 661.519531 582.101562 L 217.898438 437.523438 Z M 362.476562 -6.101562 " clip-rule="nonzero"/></clipPath><clipPath id="54779a4c5e"><path d="M 328.089844 188.449219 C 335.9375 208.171875 322.546875 249.355469 304.632812 260.753906 C 282.117188 275.082031 264.285156 296.992188 255.40625 324.234375 C 234.902344 387.152344 269.394531 454.304688 331.621094 474.585938 C 359.007812 483.511719 387.210938 482.046875 412.03125 472.339844 C 431.828125 464.597656 473.253906 478.09375 484.6875 496.019531 C 499.019531 518.488281 520.949219 536.289062 548.339844 545.214844 C 610.566406 565.496094 677.992188 531.558594 698.5 468.644531 C 707.445312 441.199219 705.699219 412.722656 695.699219 387.722656 C 687.839844 368.082031 701.085938 327.433594 718.996094 316.171875 C 741.839844 301.808594 760.082031 279.6875 769.125 251.9375 C 789.453125 189.566406 755.148438 121.871094 692.917969 101.589844 C 665.765625 92.742188 637.921875 94.085938 613.3125 103.507812 C 593.277344 111.175781 550.316406 97.015625 538.644531 79.015625 C 524.386719 57.023438 502.734375 39.609375 475.660156 30.785156 C 413.429688 10.503906 345.828125 44.984375 325.5 107.355469 C 316.5 134.96875 318.144531 163.445312 328.089844 188.449219 Z M 328.089844 188.449219 " clip-rule="nonzero"/></clipPath><clipPath id="d09831bb47"><path d="M 0 0 L 526 0 L 526 528 L 0 528 Z M 0 0 " clip-rule="nonzero"/></clipPath><clipPath id="ccd4b69421"><path d="M 113.476562 -30.101562 L 557.101562 114.480469 L 412.519531 558.101562 L -31.101562 413.523438 Z M 113.476562 -30.101562 " clip-rule="nonzero"/></clipPath><clipPath id="d6ca417819"><path d="M 79.089844 164.449219 C 86.9375 184.171875 73.546875 225.355469 55.632812 236.753906 C 33.117188 251.082031 15.285156 272.992188 6.40625 300.234375 C -14.097656 363.152344 20.394531 430.304688 82.621094 450.585938 C 110.007812 459.511719 138.210938 458.046875 163.03125 448.339844 C 182.828125 440.597656 224.253906 454.09375 235.6875 472.019531 C 250.019531 494.488281 271.949219 512.289062 299.339844 521.214844 C 361.566406 541.496094 428.992188 507.558594 449.5 444.644531 C 458.445312 417.199219 456.699219 388.722656 446.699219 363.722656 C 438.839844 344.082031 452.085938 303.433594 469.996094 292.171875 C 492.839844 277.808594 511.082031 255.6875 520.125 227.9375 C 540.453125 165.566406 506.148438 97.871094 443.917969 77.589844 C 416.765625 68.742188 388.921875 70.085938 364.3125 79.507812 C 344.277344 87.175781 301.316406 73.015625 289.644531 55.015625 C 275.386719 33.023438 253.734375 15.609375 226.660156 6.785156 C 164.429688 -13.496094 96.828125 20.984375 76.5 83.355469 C 67.5 110.96875 69.144531 139.445312 79.089844 164.449219 Z M 79.089844 164.449219 " clip-rule="nonzero"/></clipPath><clipPath id="7a4d870f48"><rect x="0" width="526" y="0" height="528"/></clipPath></defs><g clip-path="url(#c1d4cc835e)"><g clip-path="url(#23a72d78f3)"><g clip-path="url(#54779a4c5e)"><g transform="matrix(1, 0, 0, 1, 249, 24)"><g clip-path="url(#7a4d870f48)"><g clip-path="url(#d09831bb47)"><g clip-path="url(#ccd4b69421)"><g clip-path="url(#d6ca417819)"><path fill="#faf8ff" d="M 113.476562 -30.101562 L 557.101562 114.480469 L 412.519531 558.101562 L -31.101562 413.523438 Z M 113.476562 -30.101562 " fill-opacity="1" fill-rule="nonzero"/></g></g></g></g></g></g></g></g></svg>