<svg xmlns="http://www.w3.org/2000/svg" xmlns:xlink="http://www.w3.org/1999/xlink" width="60" zoomAndPan="magnify" viewBox="482 257 60 60" height="60" preserveAspectRatio="xMidYMid meet" version="1.0"><defs><clipPath id="f55f9e4b21"><path d="M 506 267 L 524 267 L 524 280 L 506 280 Z M 506 267 " clip-rule="nonzero"/></clipPath><clipPath id="b23b3d5dda"><path d="M 498.792969 264.386719 L 533.359375 271.21875 L 525.367188 311.664062 L 490.800781 304.835938 Z M 498.792969 264.386719 " clip-rule="nonzero"/></clipPath><clipPath id="fb63c8697b"><path d="M 498.792969 264.386719 L 533.359375 271.21875 L 525.367188 311.664062 L 490.800781 304.835938 Z M 498.792969 264.386719 " clip-rule="nonzero"/></clipPath><clipPath id="40689bd867"><path d="M 492 278 L 527 278 L 527 310 L 492 310 Z M 492 278 " clip-rule="nonzero"/></clipPath><clipPath id="6c418fb217"><path d="M 498.792969 264.386719 L 533.359375 271.21875 L 525.367188 311.664062 L 490.800781 304.835938 Z M 498.792969 264.386719 " clip-rule="nonzero"/></clipPath><clipPath id="11ed25b3dd"><path d="M 498.792969 264.386719 L 533.359375 271.21875 L 525.367188 311.664062 L 490.800781 304.835938 Z M 498.792969 264.386719 " clip-rule="nonzero"/></clipPath></defs><g clip-path="url(#f55f9e4b21)"><g clip-path="url(#b23b3d5dda)"><g clip-path="url(#fb63c8697b)"><path fill="#d8baf9" d="M 510.195312 277.640625 C 512.722656 277.824219 515.191406 278.3125 517.550781 279.09375 L 523.183594 273.921875 C 523.453125 273.609375 523.421875 272.972656 522.859375 272.652344 L 520.71875 271.285156 L 518.546875 274.054688 C 518.40625 274.234375 518.046875 274.476562 517.632812 274.1875 C 517.359375 273.976562 517.339844 273.550781 517.550781 273.277344 L 520.332031 269.796875 C 520.554688 269.472656 520.300781 268.636719 519.390625 268.457031 L 512.535156 267.105469 C 511.628906 266.925781 511.097656 267.5 511.167969 267.933594 L 512.519531 272.234375 C 512.609375 272.566406 512.429688 272.949219 512.097656 273.039062 C 511.875 273.101562 511.421875 273.011719 511.289062 272.617188 L 510.234375 269.214844 L 507.726562 269.714844 C 507.234375 269.828125 506.78125 270.261719 506.941406 270.765625 Z M 510.195312 277.640625 " fill-opacity="1" fill-rule="nonzero"/></g></g></g><g clip-path="url(#40689bd867)"><g clip-path="url(#6c418fb217)"><g clip-path="url(#11ed25b3dd)"><path fill="#d8baf9" d="M 526.574219 302.347656 C 527.324219 291.394531 518.132812 280.9375 517.34375 280.414062 C 516.980469 280.132812 515.328125 279.753906 513.714844 279.433594 C 512.101562 279.117188 510.417969 278.886719 509.984375 278.960938 C 509.058594 279.144531 496.578125 285.320312 493.105469 295.734375 C 492.226562 298.335938 492.359375 300.5625 493.414062 302.394531 C 495.324219 305.707031 499.761719 306.582031 499.8125 306.59375 L 516.242188 309.839844 C 516.292969 309.847656 520.738281 310.675781 523.757812 308.390625 C 525.425781 307.097656 526.347656 305.078125 526.574219 302.347656 Z M 514.5 292.945312 C 514.855469 293.015625 515.007812 293.308594 514.945312 293.609375 C 514.886719 293.910156 514.59375 294.0625 514.292969 294.003906 L 507.132812 292.589844 C 506.953125 292.972656 506.875 293.375 506.792969 293.78125 C 506.714844 294.183594 506.6875 294.597656 506.65625 295.007812 L 513.863281 296.433594 C 514.21875 296.503906 514.410156 296.855469 514.351562 297.15625 C 514.28125 297.511719 513.929688 297.703125 513.625 297.644531 L 506.769531 296.289062 C 507.199219 298.625 508.988281 300.445312 511.296875 300.953125 C 512.152344 301.121094 513 301.082031 513.824219 300.878906 C 514.15625 300.785156 514.539062 300.964844 514.621094 301.347656 C 514.714844 301.679688 514.53125 302.0625 514.148438 302.144531 C 513.152344 302.421875 512.042969 302.464844 511.035156 302.265625 C 508.074219 301.625 505.839844 299.140625 505.441406 296.128906 L 503.421875 295.730469 C 503.070312 295.664062 502.878906 295.308594 502.9375 295.007812 C 503.007812 294.65625 503.359375 294.460938 503.664062 294.523438 L 505.328125 294.851562 C 505.335938 294.015625 505.492188 293.207031 505.804688 292.429688 L 504.089844 292.09375 C 503.738281 292.023438 503.546875 291.671875 503.605469 291.367188 C 503.664062 291.066406 504.027344 290.824219 504.328125 290.882812 L 506.347656 291.28125 C 507.859375 288.648438 510.871094 287.199219 513.855469 287.738281 C 514.914062 287.945312 515.921875 288.40625 516.730469 289.089844 C 517 289.300781 517.074219 289.734375 516.863281 290.007812 C 516.652344 290.28125 516.21875 290.351562 515.945312 290.140625 C 515.269531 289.589844 514.453125 289.21875 513.59375 289.046875 C 511.265625 288.640625 508.980469 289.601562 507.65625 291.539062 Z M 514.5 292.945312 " fill-opacity="1" fill-rule="nonzero"/></g></g></g></svg>