<svg xmlns="http://www.w3.org/2000/svg" xmlns:xlink="http://www.w3.org/1999/xlink" width="60" zoomAndPan="magnify" viewBox="482 257 60 60" height="60" preserveAspectRatio="xMidYMid meet" version="1.0"><defs><clipPath id="25e8f8c3c2"><path d="M 522 303 L 524 303 L 524 306 L 522 306 Z M 522 303 " clip-rule="nonzero"/></clipPath><clipPath id="3a7f7da912"><path d="M 488.527344 267.34375 L 533.464844 265.367188 L 535.375 308.804688 L 490.441406 310.78125 Z M 488.527344 267.34375 " clip-rule="nonzero"/></clipPath><clipPath id="9d50579615"><path d="M 488.527344 267.34375 L 533.464844 265.367188 L 535.375 308.804688 L 490.441406 310.78125 Z M 488.527344 267.34375 " clip-rule="nonzero"/></clipPath><clipPath id="c3f913c8b8"><path d="M 491 266 L 534 266 L 534 309 L 491 309 Z M 491 266 " clip-rule="nonzero"/></clipPath><clipPath id="f16f4bee8e"><path d="M 488.527344 267.34375 L 533.464844 265.367188 L 535.375 308.804688 L 490.441406 310.78125 Z M 488.527344 267.34375 " clip-rule="nonzero"/></clipPath><clipPath id="3faabcc400"><path d="M 488.527344 267.34375 L 533.464844 265.367188 L 535.375 308.804688 L 490.441406 310.78125 Z M 488.527344 267.34375 " clip-rule="nonzero"/></clipPath><clipPath id="3bf1d26cb8"><path d="M 518 289 L 532 289 L 532 308 L 518 308 Z M 518 289 " clip-rule="nonzero"/></clipPath><clipPath id="b9dc7d46b8"><path d="M 488.527344 267.34375 L 533.464844 265.367188 L 535.375 308.804688 L 490.441406 310.78125 Z M 488.527344 267.34375 " clip-rule="nonzero"/></clipPath><clipPath id="722293a3e0"><path d="M 488.527344 267.34375 L 533.464844 265.367188 L 535.375 308.804688 L 490.441406 310.78125 Z M 488.527344 267.34375 " clip-rule="nonzero"/></clipPath></defs><g clip-path="url(#25e8f8c3c2)"><g clip-path="url(#3a7f7da912)"><g clip-path="url(#9d50579615)"><path fill="#d8baf9" d="M 522.449219 305.472656 C 522.972656 305.175781 523.476562 304.863281 523.972656 304.527344 L 523.46875 303.667969 Z M 522.449219 305.472656 " fill-opacity="1" fill-rule="nonzero"/></g></g></g><g clip-path="url(#c3f913c8b8)"><g clip-path="url(#f16f4bee8e)"><g clip-path="url(#3faabcc400)"><path fill="#d8baf9" d="M 513.90625 306.28125 L 513.570312 298.605469 L 518.082031 298.40625 L 517.867188 296.65625 L 513.492188 296.851562 L 513.105469 288.070312 L 516.75 287.910156 L 516.53125 286.160156 L 513.03125 286.3125 L 512.644531 277.535156 L 520.859375 277.171875 C 521.878906 279.992188 522.484375 282.898438 522.679688 285.890625 L 517.464844 286.117188 L 519.675781 287.78125 L 522.753906 287.644531 C 522.765625 288.472656 522.757812 289.28125 522.714844 290.074219 L 524.378906 291.332031 C 524.492188 290.078125 524.535156 288.824219 524.511719 287.566406 L 531.367188 287.265625 C 531.367188 290.058594 530.777344 292.71875 529.601562 295.253906 L 531.039062 296.332031 C 531.234375 295.925781 531.417969 295.515625 531.585938 295.097656 C 531.753906 294.679688 531.910156 294.257812 532.054688 293.832031 C 532.195312 293.402344 532.324219 292.972656 532.4375 292.539062 C 532.550781 292.101562 532.652344 291.664062 532.738281 291.21875 C 532.824219 290.777344 532.894531 290.332031 532.953125 289.886719 C 533.011719 289.441406 533.054688 288.992188 533.082031 288.542969 C 533.109375 288.09375 533.125 287.644531 533.125 287.191406 C 533.125 286.742188 533.109375 286.292969 533.078125 285.84375 C 533.046875 285.394531 533.003906 284.945312 532.945312 284.5 C 532.886719 284.050781 532.8125 283.609375 532.726562 283.167969 C 532.640625 282.726562 532.539062 282.285156 532.421875 281.851562 C 532.304688 281.414062 532.175781 280.984375 532.035156 280.558594 C 531.890625 280.128906 531.734375 279.707031 531.5625 279.292969 C 531.390625 278.875 531.207031 278.464844 531.011719 278.058594 C 530.8125 277.65625 530.601562 277.257812 530.378906 276.863281 C 530.15625 276.472656 529.921875 276.089844 529.675781 275.714844 C 529.425781 275.335938 529.167969 274.96875 528.894531 274.609375 C 528.625 274.25 528.339844 273.902344 528.046875 273.558594 C 527.753906 273.21875 527.449219 272.886719 527.132812 272.566406 C 526.816406 272.246094 526.492188 271.933594 526.15625 271.632812 C 525.820312 271.332031 525.476562 271.042969 525.121094 270.765625 C 524.765625 270.488281 524.402344 270.21875 524.03125 269.964844 C 523.660156 269.710938 523.28125 269.46875 522.894531 269.238281 C 522.507812 269.007812 522.113281 268.789062 521.710938 268.585938 C 521.3125 268.378906 520.902344 268.1875 520.492188 268.011719 C 520.078125 267.832031 519.65625 267.667969 519.234375 267.515625 C 518.808594 267.363281 518.382812 267.226562 517.949219 267.101562 C 517.515625 266.980469 517.078125 266.867188 516.636719 266.773438 C 516.199219 266.679688 515.753906 266.597656 515.308594 266.53125 C 514.863281 266.460938 514.417969 266.410156 513.96875 266.371094 C 513.519531 266.332031 513.070312 266.308594 512.621094 266.300781 C 512.167969 266.292969 511.71875 266.296875 511.269531 266.316406 C 510.519531 266.351562 509.773438 266.425781 509.035156 266.539062 C 508.292969 266.652344 507.558594 266.804688 506.835938 266.996094 C 506.109375 267.191406 505.398438 267.421875 504.699219 267.691406 C 503.996094 267.957031 503.3125 268.265625 502.648438 268.605469 C 501.980469 268.949219 501.332031 269.328125 500.707031 269.738281 C 500.078125 270.152344 499.476562 270.597656 498.898438 271.074219 C 498.320312 271.550781 497.769531 272.054688 497.242188 272.59375 C 496.71875 273.128906 496.226562 273.691406 495.761719 274.28125 C 495.296875 274.871094 494.867188 275.480469 494.46875 276.117188 C 494.070312 276.753906 493.707031 277.40625 493.378906 278.082031 C 493.050781 278.757812 492.761719 279.445312 492.507812 280.152344 C 492.253906 280.859375 492.039062 281.574219 491.863281 282.304688 C 491.6875 283.035156 491.550781 283.769531 491.453125 284.515625 C 491.355469 285.257812 491.296875 286.003906 491.28125 286.753906 C 491.261719 287.503906 491.285156 288.253906 491.351562 289 C 491.414062 289.746094 491.515625 290.488281 491.660156 291.222656 C 491.800781 291.960938 491.984375 292.6875 492.207031 293.402344 C 492.425781 294.121094 492.6875 294.824219 492.984375 295.511719 C 493.28125 296.199219 493.613281 296.871094 493.980469 297.523438 C 494.351562 298.175781 494.753906 298.808594 495.1875 299.417969 C 495.625 300.027344 496.09375 300.613281 496.59375 301.171875 C 497.09375 301.730469 497.621094 302.261719 498.175781 302.765625 C 498.734375 303.269531 499.316406 303.738281 499.921875 304.179688 C 500.53125 304.621094 501.160156 305.027344 501.808594 305.398438 C 502.460938 305.769531 503.128906 306.105469 503.816406 306.40625 C 504.503906 306.707031 505.207031 306.972656 505.921875 307.195312 C 506.636719 307.421875 507.359375 307.609375 508.097656 307.753906 C 508.832031 307.902344 509.574219 308.011719 510.320312 308.078125 C 511.066406 308.144531 511.816406 308.171875 512.566406 308.160156 C 513.316406 308.148438 514.0625 308.09375 514.804688 308 C 515.550781 307.910156 516.285156 307.777344 517.015625 307.605469 C 517.746094 307.433594 518.464844 307.222656 519.171875 306.972656 L 518.671875 303 C 518.105469 303.820312 517.410156 304.511719 516.589844 305.078125 C 515.769531 305.640625 514.875 306.042969 513.90625 306.28125 Z M 531.292969 285.511719 L 524.433594 285.8125 C 524.242188 282.824219 523.648438 279.917969 522.660156 277.09375 L 528.304688 276.84375 C 530.011719 279.488281 531.007812 282.378906 531.292969 285.511719 Z M 527.070312 275.140625 L 521.976562 275.363281 C 520.949219 272.851562 519.449219 270.667969 517.476562 268.804688 C 519.359375 269.347656 521.121094 270.160156 522.757812 271.238281 C 524.394531 272.320312 525.832031 273.621094 527.070312 275.140625 Z M 512.226562 268.105469 C 515.347656 268.441406 518.199219 271.230469 520.144531 275.445312 L 512.566406 275.777344 Z M 505.304688 269.339844 C 503.503906 271.367188 502.199219 273.679688 501.398438 276.269531 L 496.3125 276.492188 C 497.414062 274.871094 498.730469 273.449219 500.265625 272.230469 C 501.796875 271.011719 503.476562 270.046875 505.304688 269.339844 Z M 495.234375 278.300781 L 500.871094 278.050781 C 500.132812 280.953125 499.800781 283.898438 499.878906 286.894531 L 493.019531 287.195312 C 493.019531 284.046875 493.757812 281.082031 495.234375 278.300781 Z M 493.097656 288.949219 L 499.953125 288.648438 C 500.140625 291.636719 500.726562 294.542969 501.71875 297.367188 L 496.082031 297.617188 C 494.367188 294.976562 493.371094 292.085938 493.097656 288.949219 Z M 497.320312 299.320312 L 502.402344 299.097656 C 503.425781 301.613281 504.929688 303.800781 506.90625 305.664062 C 505.023438 305.121094 503.261719 304.304688 501.628906 303.226562 C 499.992188 302.144531 498.554688 300.839844 497.320312 299.320312 Z M 512.152344 306.355469 C 509.03125 306.027344 506.183594 303.234375 504.238281 299.015625 L 511.8125 298.683594 Z M 511.738281 296.925781 L 503.519531 297.289062 C 502.5 294.46875 501.898438 291.5625 501.710938 288.570312 L 511.351562 288.148438 Z M 511.273438 286.390625 L 501.632812 286.816406 C 501.558594 283.820312 501.90625 280.871094 502.667969 277.972656 L 510.886719 277.613281 Z M 510.808594 275.855469 L 503.234375 276.1875 C 504.800781 271.816406 507.394531 268.792969 510.472656 268.183594 Z M 510.808594 275.855469 " fill-opacity="1" fill-rule="nonzero"/></g></g></g><g clip-path="url(#3bf1d26cb8)"><g clip-path="url(#b9dc7d46b8)"><g clip-path="url(#722293a3e0)"><path fill="#d8baf9" d="M 518.691406 289.25 L 520.695312 305.003906 L 523.4375 300.132812 L 527.472656 307.046875 L 529.914062 305.617188 L 525.882812 298.714844 L 531.355469 298.773438 Z M 518.691406 289.25 " fill-opacity="1" fill-rule="nonzero"/></g></g></g></svg>