<svg xmlns="http://www.w3.org/2000/svg" xmlns:xlink="http://www.w3.org/1999/xlink" width="60" zoomAndPan="magnify" viewBox="482 257 60 60" height="60" preserveAspectRatio="xMidYMid meet" version="1.0"><defs><clipPath id="81c5dd7efa"><path d="M 493.582031 269.582031 L 530.3125 269.582031 L 530.3125 306.3125 L 493.582031 306.3125 Z M 493.582031 269.582031 " clip-rule="nonzero"/></clipPath></defs><path fill="#ffffff" d="M 494.15625 270.15625 L 529.832031 270.15625 L 529.832031 305.832031 L 494.15625 305.832031 Z M 494.15625 270.15625 " fill-opacity="1" fill-rule="nonzero"/><g clip-path="url(#81c5dd7efa)"><path fill="#d8baf9" d="M 493.582031 269.582031 L 493.582031 306.40625 L 530.40625 306.40625 L 530.40625 269.582031 Z M 529.257812 305.257812 L 494.734375 305.257812 L 494.734375 270.734375 L 529.257812 270.734375 Z M 502.179688 289.109375 C 501.363281 288.292969 502.582031 287.074219 503.398438 287.890625 L 508.542969 293.023438 L 520.570312 281.054688 C 520.902344 280.722656 521.453125 280.722656 521.789062 281.054688 C 522.121094 281.390625 522.121094 281.941406 521.777344 282.273438 L 509.152344 294.863281 C 508.839844 295.164062 508.335938 295.269531 507.933594 294.863281 Z M 502.179688 289.109375 " fill-opacity="1" fill-rule="evenodd"/></g></svg>