<svg xmlns="http://www.w3.org/2000/svg" xmlns:xlink="http://www.w3.org/1999/xlink" width="1366" zoomAndPan="magnify" viewBox="0 0 1024.5 576" height="768" preserveAspectRatio="xMidYMid meet" version="1.0"><defs><clipPath id="a5396e5774"><path d="M 493 280 L 503 280 L 503 291 L 493 291 Z M 493 280 " clip-rule="nonzero"/></clipPath><clipPath id="10e5613a31"><path d="M 492.976562 266.355469 L 532.558594 274.84375 L 525.167969 309.292969 L 485.585938 300.804688 Z M 492.976562 266.355469 " clip-rule="nonzero"/></clipPath><clipPath id="dab98d7e01"><path d="M 492.976562 266.355469 L 532.558594 274.84375 L 525.167969 309.292969 L 485.585938 300.804688 Z M 492.976562 266.355469 " clip-rule="nonzero"/></clipPath><clipPath id="7192cf68b2"><path d="M 493 289 L 504 289 L 504 300 L 493 300 Z M 493 289 " clip-rule="nonzero"/></clipPath><clipPath id="8af3ec0b89"><path d="M 492.976562 266.355469 L 532.558594 274.84375 L 525.167969 309.292969 L 485.585938 300.804688 Z M 492.976562 266.355469 " clip-rule="nonzero"/></clipPath><clipPath id="3f9ee80038"><path d="M 492.976562 266.355469 L 532.558594 274.84375 L 525.167969 309.292969 L 485.585938 300.804688 Z M 492.976562 266.355469 " clip-rule="nonzero"/></clipPath><clipPath id="04dfabc6e7"><path d="M 498 281 L 506 281 L 506 288 L 498 288 Z M 498 281 " clip-rule="nonzero"/></clipPath><clipPath id="1c6f2adc59"><path d="M 492.976562 266.355469 L 532.558594 274.84375 L 525.167969 309.292969 L 485.585938 300.804688 Z M 492.976562 266.355469 " clip-rule="nonzero"/></clipPath><clipPath id="0dbf8baa3d"><path d="M 492.976562 266.355469 L 532.558594 274.84375 L 525.167969 309.292969 L 485.585938 300.804688 Z M 492.976562 266.355469 " clip-rule="nonzero"/></clipPath><clipPath id="0227a25c2c"><path d="M 501 285 L 508 285 L 508 298 L 501 298 Z M 501 285 " clip-rule="nonzero"/></clipPath><clipPath id="cb55ef7c53"><path d="M 492.976562 266.355469 L 532.558594 274.84375 L 525.167969 309.292969 L 485.585938 300.804688 Z M 492.976562 266.355469 " clip-rule="nonzero"/></clipPath><clipPath id="cd1fbdbe3d"><path d="M 492.976562 266.355469 L 532.558594 274.84375 L 525.167969 309.292969 L 485.585938 300.804688 Z M 492.976562 266.355469 " clip-rule="nonzero"/></clipPath><clipPath id="2dfa8e91cb"><path d="M 491 283 L 495 283 L 495 287 L 491 287 Z M 491 283 " clip-rule="nonzero"/></clipPath><clipPath id="6bff01488a"><path d="M 492.976562 266.355469 L 532.558594 274.84375 L 525.167969 309.292969 L 485.585938 300.804688 Z M 492.976562 266.355469 " clip-rule="nonzero"/></clipPath><clipPath id="532563822d"><path d="M 492.976562 266.355469 L 532.558594 274.84375 L 525.167969 309.292969 L 485.585938 300.804688 Z M 492.976562 266.355469 " clip-rule="nonzero"/></clipPath><clipPath id="946fdac8e3"><path d="M 493 292 L 507 292 L 507 305 L 493 305 Z M 493 292 " clip-rule="nonzero"/></clipPath><clipPath id="96e64b7699"><path d="M 492.976562 266.355469 L 532.558594 274.84375 L 525.167969 309.292969 L 485.585938 300.804688 Z M 492.976562 266.355469 " clip-rule="nonzero"/></clipPath><clipPath id="f765d002ca"><path d="M 492.976562 266.355469 L 532.558594 274.84375 L 525.167969 309.292969 L 485.585938 300.804688 Z M 492.976562 266.355469 " clip-rule="nonzero"/></clipPath><clipPath id="2284fac982"><path d="M 499 298 L 502 298 L 502 303 L 499 303 Z M 499 298 " clip-rule="nonzero"/></clipPath><clipPath id="2937ff6511"><path d="M 492.976562 266.355469 L 532.558594 274.84375 L 525.167969 309.292969 L 485.585938 300.804688 Z M 492.976562 266.355469 " clip-rule="nonzero"/></clipPath><clipPath id="9ddcb09ae3"><path d="M 492.976562 266.355469 L 532.558594 274.84375 L 525.167969 309.292969 L 485.585938 300.804688 Z M 492.976562 266.355469 " clip-rule="nonzero"/></clipPath><clipPath id="a1e8efb808"><path d="M 491 289 L 497 289 L 497 295 L 491 295 Z M 491 289 " clip-rule="nonzero"/></clipPath><clipPath id="3f9d2866d2"><path d="M 492.976562 266.355469 L 532.558594 274.84375 L 525.167969 309.292969 L 485.585938 300.804688 Z M 492.976562 266.355469 " clip-rule="nonzero"/></clipPath><clipPath id="f3b60b0cab"><path d="M 492.976562 266.355469 L 532.558594 274.84375 L 525.167969 309.292969 L 485.585938 300.804688 Z M 492.976562 266.355469 " clip-rule="nonzero"/></clipPath><clipPath id="658721249f"><path d="M 488 279 L 499 279 L 499 290 L 488 290 Z M 488 279 " clip-rule="nonzero"/></clipPath><clipPath id="78a6f5010c"><path d="M 492.976562 266.355469 L 532.558594 274.84375 L 525.167969 309.292969 L 485.585938 300.804688 Z M 492.976562 266.355469 " clip-rule="nonzero"/></clipPath><clipPath id="27de40369c"><path d="M 492.976562 266.355469 L 532.558594 274.84375 L 525.167969 309.292969 L 485.585938 300.804688 Z M 492.976562 266.355469 " clip-rule="nonzero"/></clipPath><clipPath id="866df6b487"><path d="M 488 287 L 495 287 L 495 299 L 488 299 Z M 488 287 " clip-rule="nonzero"/></clipPath><clipPath id="9386a4380e"><path d="M 492.976562 266.355469 L 532.558594 274.84375 L 525.167969 309.292969 L 485.585938 300.804688 Z M 492.976562 266.355469 " clip-rule="nonzero"/></clipPath><clipPath id="a5da58631b"><path d="M 492.976562 266.355469 L 532.558594 274.84375 L 525.167969 309.292969 L 485.585938 300.804688 Z M 492.976562 266.355469 " clip-rule="nonzero"/></clipPath><clipPath id="8ee7a22297"><path d="M 492 275 L 500 275 L 500 282 L 492 282 Z M 492 275 " clip-rule="nonzero"/></clipPath><clipPath id="f6b617f386"><path d="M 492.976562 266.355469 L 532.558594 274.84375 L 525.167969 309.292969 L 485.585938 300.804688 Z M 492.976562 266.355469 " clip-rule="nonzero"/></clipPath><clipPath id="44f79fbae5"><path d="M 492.976562 266.355469 L 532.558594 274.84375 L 525.167969 309.292969 L 485.585938 300.804688 Z M 492.976562 266.355469 " clip-rule="nonzero"/></clipPath><clipPath id="11fafc53cf"><path d="M 495 271 L 505 271 L 505 277 L 495 277 Z M 495 271 " clip-rule="nonzero"/></clipPath><clipPath id="05852df535"><path d="M 492.976562 266.355469 L 532.558594 274.84375 L 525.167969 309.292969 L 485.585938 300.804688 Z M 492.976562 266.355469 " clip-rule="nonzero"/></clipPath><clipPath id="6928b56d1b"><path d="M 492.976562 266.355469 L 532.558594 274.84375 L 525.167969 309.292969 L 485.585938 300.804688 Z M 492.976562 266.355469 " clip-rule="nonzero"/></clipPath><clipPath id="c1cf858228"><path d="M 503 271 L 508 271 L 508 274 L 503 274 Z M 503 271 " clip-rule="nonzero"/></clipPath><clipPath id="d9de27feee"><path d="M 492.976562 266.355469 L 532.558594 274.84375 L 525.167969 309.292969 L 485.585938 300.804688 Z M 492.976562 266.355469 " clip-rule="nonzero"/></clipPath><clipPath id="15b94fa73a"><path d="M 492.976562 266.355469 L 532.558594 274.84375 L 525.167969 309.292969 L 485.585938 300.804688 Z M 492.976562 266.355469 " clip-rule="nonzero"/></clipPath><clipPath id="31c7a89aef"><path d="M 497 277 L 502 277 L 502 281 L 497 281 Z M 497 277 " clip-rule="nonzero"/></clipPath><clipPath id="a178c056c0"><path d="M 492.976562 266.355469 L 532.558594 274.84375 L 525.167969 309.292969 L 485.585938 300.804688 Z M 492.976562 266.355469 " clip-rule="nonzero"/></clipPath><clipPath id="d62285fbca"><path d="M 492.976562 266.355469 L 532.558594 274.84375 L 525.167969 309.292969 L 485.585938 300.804688 Z M 492.976562 266.355469 " clip-rule="nonzero"/></clipPath><clipPath id="df2b4961c6"><path d="M 500 276 L 508 276 L 508 284 L 500 284 Z M 500 276 " clip-rule="nonzero"/></clipPath><clipPath id="b87c190905"><path d="M 492.976562 266.355469 L 532.558594 274.84375 L 525.167969 309.292969 L 485.585938 300.804688 Z M 492.976562 266.355469 " clip-rule="nonzero"/></clipPath><clipPath id="78b8d91716"><path d="M 492.976562 266.355469 L 532.558594 274.84375 L 525.167969 309.292969 L 485.585938 300.804688 Z M 492.976562 266.355469 " clip-rule="nonzero"/></clipPath><clipPath id="440f3ea7c4"><path d="M 500 274 L 504 274 L 504 279 L 500 279 Z M 500 274 " clip-rule="nonzero"/></clipPath><clipPath id="3caac1b2be"><path d="M 492.976562 266.355469 L 532.558594 274.84375 L 525.167969 309.292969 L 485.585938 300.804688 Z M 492.976562 266.355469 " clip-rule="nonzero"/></clipPath><clipPath id="2e4a3a9aa1"><path d="M 492.976562 266.355469 L 532.558594 274.84375 L 525.167969 309.292969 L 485.585938 300.804688 Z M 492.976562 266.355469 " clip-rule="nonzero"/></clipPath><clipPath id="fa56809963"><path d="M 503 279 L 510 279 L 510 284 L 503 284 Z M 503 279 " clip-rule="nonzero"/></clipPath><clipPath id="955c015bc3"><path d="M 492.976562 266.355469 L 532.558594 274.84375 L 525.167969 309.292969 L 485.585938 300.804688 Z M 492.976562 266.355469 " clip-rule="nonzero"/></clipPath><clipPath id="87b3f2aa9e"><path d="M 492.976562 266.355469 L 532.558594 274.84375 L 525.167969 309.292969 L 485.585938 300.804688 Z M 492.976562 266.355469 " clip-rule="nonzero"/></clipPath><clipPath id="c875bdea53"><path d="M 505 273 L 511 273 L 511 279 L 505 279 Z M 505 273 " clip-rule="nonzero"/></clipPath><clipPath id="4f1d37e621"><path d="M 492.976562 266.355469 L 532.558594 274.84375 L 525.167969 309.292969 L 485.585938 300.804688 Z M 492.976562 266.355469 " clip-rule="nonzero"/></clipPath><clipPath id="a11d2e5572"><path d="M 492.976562 266.355469 L 532.558594 274.84375 L 525.167969 309.292969 L 485.585938 300.804688 Z M 492.976562 266.355469 " clip-rule="nonzero"/></clipPath><clipPath id="33b343f7a8"><path d="M 501 269 L 512 269 L 512 291 L 501 291 Z M 501 269 " clip-rule="nonzero"/></clipPath><clipPath id="c71d5e275a"><path d="M 492.976562 266.355469 L 532.558594 274.84375 L 525.167969 309.292969 L 485.585938 300.804688 Z M 492.976562 266.355469 " clip-rule="nonzero"/></clipPath><clipPath id="39817ae7c1"><path d="M 492.976562 266.355469 L 532.558594 274.84375 L 525.167969 309.292969 L 485.585938 300.804688 Z M 492.976562 266.355469 " clip-rule="nonzero"/></clipPath><clipPath id="f8d956f203"><path d="M 514 287 L 526 287 L 526 295 L 514 295 Z M 514 287 " clip-rule="nonzero"/></clipPath><clipPath id="5c93ed1052"><path d="M 492.976562 266.355469 L 532.558594 274.84375 L 525.167969 309.292969 L 485.585938 300.804688 Z M 492.976562 266.355469 " clip-rule="nonzero"/></clipPath><clipPath id="d626d663c5"><path d="M 492.976562 266.355469 L 532.558594 274.84375 L 525.167969 309.292969 L 485.585938 300.804688 Z M 492.976562 266.355469 " clip-rule="nonzero"/></clipPath><clipPath id="573bdf6091"><path d="M 510 293 L 522 293 L 522 303 L 510 303 Z M 510 293 " clip-rule="nonzero"/></clipPath><clipPath id="57ccfe45ba"><path d="M 492.976562 266.355469 L 532.558594 274.84375 L 525.167969 309.292969 L 485.585938 300.804688 Z M 492.976562 266.355469 " clip-rule="nonzero"/></clipPath><clipPath id="cf982ac37d"><path d="M 492.976562 266.355469 L 532.558594 274.84375 L 525.167969 309.292969 L 485.585938 300.804688 Z M 492.976562 266.355469 " clip-rule="nonzero"/></clipPath><clipPath id="d414e5bbbc"><path d="M 514 285 L 522 285 L 522 291 L 514 291 Z M 514 285 " clip-rule="nonzero"/></clipPath><clipPath id="a7cb5bc0b5"><path d="M 492.976562 266.355469 L 532.558594 274.84375 L 525.167969 309.292969 L 485.585938 300.804688 Z M 492.976562 266.355469 " clip-rule="nonzero"/></clipPath><clipPath id="3d806edf3d"><path d="M 492.976562 266.355469 L 532.558594 274.84375 L 525.167969 309.292969 L 485.585938 300.804688 Z M 492.976562 266.355469 " clip-rule="nonzero"/></clipPath><clipPath id="5235e8d128"><path d="M 508 288 L 517 288 L 517 299 L 508 299 Z M 508 288 " clip-rule="nonzero"/></clipPath><clipPath id="eb51f4b405"><path d="M 492.976562 266.355469 L 532.558594 274.84375 L 525.167969 309.292969 L 485.585938 300.804688 Z M 492.976562 266.355469 " clip-rule="nonzero"/></clipPath><clipPath id="dbb75d9bb0"><path d="M 492.976562 266.355469 L 532.558594 274.84375 L 525.167969 309.292969 L 485.585938 300.804688 Z M 492.976562 266.355469 " clip-rule="nonzero"/></clipPath><clipPath id="8329551cbf"><path d="M 522 290 L 527 290 L 527 293 L 522 293 Z M 522 290 " clip-rule="nonzero"/></clipPath><clipPath id="4cae8074da"><path d="M 492.976562 266.355469 L 532.558594 274.84375 L 525.167969 309.292969 L 485.585938 300.804688 Z M 492.976562 266.355469 " clip-rule="nonzero"/></clipPath><clipPath id="4b40d1bcdb"><path d="M 492.976562 266.355469 L 532.558594 274.84375 L 525.167969 309.292969 L 485.585938 300.804688 Z M 492.976562 266.355469 " clip-rule="nonzero"/></clipPath><clipPath id="d3183cd2b4"><path d="M 506 295 L 520 295 L 520 307 L 506 307 Z M 506 295 " clip-rule="nonzero"/></clipPath><clipPath id="33f58a98fb"><path d="M 492.976562 266.355469 L 532.558594 274.84375 L 525.167969 309.292969 L 485.585938 300.804688 Z M 492.976562 266.355469 " clip-rule="nonzero"/></clipPath><clipPath id="89eb053129"><path d="M 492.976562 266.355469 L 532.558594 274.84375 L 525.167969 309.292969 L 485.585938 300.804688 Z M 492.976562 266.355469 " clip-rule="nonzero"/></clipPath><clipPath id="557c9bbbae"><path d="M 510 301 L 514 301 L 514 305 L 510 305 Z M 510 301 " clip-rule="nonzero"/></clipPath><clipPath id="e081ca7db7"><path d="M 492.976562 266.355469 L 532.558594 274.84375 L 525.167969 309.292969 L 485.585938 300.804688 Z M 492.976562 266.355469 " clip-rule="nonzero"/></clipPath><clipPath id="2582e0dcbe"><path d="M 492.976562 266.355469 L 532.558594 274.84375 L 525.167969 309.292969 L 485.585938 300.804688 Z M 492.976562 266.355469 " clip-rule="nonzero"/></clipPath><clipPath id="0247ab3d93"><path d="M 518 296 L 525 296 L 525 300 L 518 300 Z M 518 296 " clip-rule="nonzero"/></clipPath><clipPath id="8bef8c3bb6"><path d="M 492.976562 266.355469 L 532.558594 274.84375 L 525.167969 309.292969 L 485.585938 300.804688 Z M 492.976562 266.355469 " clip-rule="nonzero"/></clipPath><clipPath id="54c2e87170"><path d="M 492.976562 266.355469 L 532.558594 274.84375 L 525.167969 309.292969 L 485.585938 300.804688 Z M 492.976562 266.355469 " clip-rule="nonzero"/></clipPath><clipPath id="39c4ce57a9"><path d="M 521 285 L 529 285 L 529 297 L 521 297 Z M 521 285 " clip-rule="nonzero"/></clipPath><clipPath id="39b2625f7e"><path d="M 492.976562 266.355469 L 532.558594 274.84375 L 525.167969 309.292969 L 485.585938 300.804688 Z M 492.976562 266.355469 " clip-rule="nonzero"/></clipPath><clipPath id="960e85fd4f"><path d="M 492.976562 266.355469 L 532.558594 274.84375 L 525.167969 309.292969 L 485.585938 300.804688 Z M 492.976562 266.355469 " clip-rule="nonzero"/></clipPath><clipPath id="0cbf15bb58"><path d="M 518 293 L 527 293 L 527 304 L 518 304 Z M 518 293 " clip-rule="nonzero"/></clipPath><clipPath id="92cdf69958"><path d="M 492.976562 266.355469 L 532.558594 274.84375 L 525.167969 309.292969 L 485.585938 300.804688 Z M 492.976562 266.355469 " clip-rule="nonzero"/></clipPath><clipPath id="66b250b2a5"><path d="M 492.976562 266.355469 L 532.558594 274.84375 L 525.167969 309.292969 L 485.585938 300.804688 Z M 492.976562 266.355469 " clip-rule="nonzero"/></clipPath><clipPath id="97a312c8d7"><path d="M 522 280 L 528 280 L 528 289 L 522 289 Z M 522 280 " clip-rule="nonzero"/></clipPath><clipPath id="1082e184ef"><path d="M 492.976562 266.355469 L 532.558594 274.84375 L 525.167969 309.292969 L 485.585938 300.804688 Z M 492.976562 266.355469 " clip-rule="nonzero"/></clipPath><clipPath id="90a2d515ff"><path d="M 492.976562 266.355469 L 532.558594 274.84375 L 525.167969 309.292969 L 485.585938 300.804688 Z M 492.976562 266.355469 " clip-rule="nonzero"/></clipPath><clipPath id="2b26faeb1d"><path d="M 518 275 L 527 275 L 527 283 L 518 283 Z M 518 275 " clip-rule="nonzero"/></clipPath><clipPath id="b86d6263bd"><path d="M 492.976562 266.355469 L 532.558594 274.84375 L 525.167969 309.292969 L 485.585938 300.804688 Z M 492.976562 266.355469 " clip-rule="nonzero"/></clipPath><clipPath id="061ca068ac"><path d="M 492.976562 266.355469 L 532.558594 274.84375 L 525.167969 309.292969 L 485.585938 300.804688 Z M 492.976562 266.355469 " clip-rule="nonzero"/></clipPath><clipPath id="f713f89ba6"><path d="M 516 273 L 521 273 L 521 278 L 516 278 Z M 516 273 " clip-rule="nonzero"/></clipPath><clipPath id="9e1d6c406e"><path d="M 492.976562 266.355469 L 532.558594 274.84375 L 525.167969 309.292969 L 485.585938 300.804688 Z M 492.976562 266.355469 " clip-rule="nonzero"/></clipPath><clipPath id="36183b13b4"><path d="M 492.976562 266.355469 L 532.558594 274.84375 L 525.167969 309.292969 L 485.585938 300.804688 Z M 492.976562 266.355469 " clip-rule="nonzero"/></clipPath><clipPath id="206c3fc900"><path d="M 518 282 L 524 282 L 524 285 L 518 285 Z M 518 282 " clip-rule="nonzero"/></clipPath><clipPath id="7ab84c6622"><path d="M 492.976562 266.355469 L 532.558594 274.84375 L 525.167969 309.292969 L 485.585938 300.804688 Z M 492.976562 266.355469 " clip-rule="nonzero"/></clipPath><clipPath id="cc12c59f45"><path d="M 492.976562 266.355469 L 532.558594 274.84375 L 525.167969 309.292969 L 485.585938 300.804688 Z M 492.976562 266.355469 " clip-rule="nonzero"/></clipPath><clipPath id="8448087a71"><path d="M 514 278 L 521 278 L 521 287 L 514 287 Z M 514 278 " clip-rule="nonzero"/></clipPath><clipPath id="29a90e134b"><path d="M 492.976562 266.355469 L 532.558594 274.84375 L 525.167969 309.292969 L 485.585938 300.804688 Z M 492.976562 266.355469 " clip-rule="nonzero"/></clipPath><clipPath id="f4920d9219"><path d="M 492.976562 266.355469 L 532.558594 274.84375 L 525.167969 309.292969 L 485.585938 300.804688 Z M 492.976562 266.355469 " clip-rule="nonzero"/></clipPath><clipPath id="b0aa7fe827"><path d="M 518 278 L 523 278 L 523 283 L 518 283 Z M 518 278 " clip-rule="nonzero"/></clipPath><clipPath id="57d828645c"><path d="M 492.976562 266.355469 L 532.558594 274.84375 L 525.167969 309.292969 L 485.585938 300.804688 Z M 492.976562 266.355469 " clip-rule="nonzero"/></clipPath><clipPath id="3cec17403c"><path d="M 492.976562 266.355469 L 532.558594 274.84375 L 525.167969 309.292969 L 485.585938 300.804688 Z M 492.976562 266.355469 " clip-rule="nonzero"/></clipPath><clipPath id="8e1e45e31f"><path d="M 510 281 L 518 281 L 518 285 L 510 285 Z M 510 281 " clip-rule="nonzero"/></clipPath><clipPath id="e6024e1713"><path d="M 492.976562 266.355469 L 532.558594 274.84375 L 525.167969 309.292969 L 485.585938 300.804688 Z M 492.976562 266.355469 " clip-rule="nonzero"/></clipPath><clipPath id="a691b6c60b"><path d="M 492.976562 266.355469 L 532.558594 274.84375 L 525.167969 309.292969 L 485.585938 300.804688 Z M 492.976562 266.355469 " clip-rule="nonzero"/></clipPath><clipPath id="a3cfcecf5d"><path d="M 511 275 L 518 275 L 518 279 L 511 279 Z M 511 275 " clip-rule="nonzero"/></clipPath><clipPath id="51654d778a"><path d="M 492.976562 266.355469 L 532.558594 274.84375 L 525.167969 309.292969 L 485.585938 300.804688 Z M 492.976562 266.355469 " clip-rule="nonzero"/></clipPath><clipPath id="76e5d58da2"><path d="M 492.976562 266.355469 L 532.558594 274.84375 L 525.167969 309.292969 L 485.585938 300.804688 Z M 492.976562 266.355469 " clip-rule="nonzero"/></clipPath><clipPath id="6e3ecc4aa6"><path d="M 509 271 L 523 271 L 523 292 L 509 292 Z M 509 271 " clip-rule="nonzero"/></clipPath><clipPath id="6c1da0aea3"><path d="M 492.976562 266.355469 L 532.558594 274.84375 L 525.167969 309.292969 L 485.585938 300.804688 Z M 492.976562 266.355469 " clip-rule="nonzero"/></clipPath><clipPath id="c201aaaf88"><path d="M 492.976562 266.355469 L 532.558594 274.84375 L 525.167969 309.292969 L 485.585938 300.804688 Z M 492.976562 266.355469 " clip-rule="nonzero"/></clipPath></defs><g clip-path="url(#a5396e5774)"><g clip-path="url(#10e5613a31)"><g clip-path="url(#dab98d7e01)"><path fill="#6800db" d="M 499.234375 290.597656 C 498.976562 290.539062 498.722656 290.46875 498.46875 290.386719 C 497.261719 289.980469 496.1875 289.253906 495.363281 288.289062 C 494.519531 287.296875 493.972656 286.089844 493.777344 284.796875 C 493.582031 283.503906 493.75 282.183594 494.261719 280.980469 C 494.386719 280.691406 494.722656 280.554688 495.015625 280.679688 C 495.304688 280.804688 495.441406 281.140625 495.316406 281.429688 C 494.449219 283.46875 494.8125 285.867188 496.238281 287.546875 C 497.089844 288.546875 498.230469 289.210938 499.46875 289.476562 C 500.28125 289.652344 501.132812 289.65625 501.972656 289.472656 C 502.28125 289.402344 502.589844 289.597656 502.65625 289.910156 C 502.722656 290.21875 502.527344 290.523438 502.21875 290.589844 C 501.234375 290.804688 500.214844 290.804688 499.234375 290.597656 Z M 499.234375 290.597656 " fill-opacity="1" fill-rule="nonzero"/></g></g></g><g clip-path="url(#7192cf68b2)"><g clip-path="url(#8af3ec0b89)"><g clip-path="url(#3f9ee80038)"><path fill="#6800db" d="M 499.578125 299.730469 C 499.011719 299.609375 498.613281 299.351562 498.503906 299.273438 C 497.25 298.390625 497.257812 296.878906 497.265625 296.707031 C 497.273438 296.390625 497.539062 296.140625 497.855469 296.152344 C 498.171875 296.160156 498.421875 296.425781 498.410156 296.742188 C 498.410156 296.785156 498.386719 297.789062 499.164062 298.335938 C 499.1875 298.355469 499.773438 298.757812 500.464844 298.617188 C 501.554688 298.394531 502.054688 296.949219 502.179688 296.511719 C 502.410156 295.714844 502.46875 294.425781 501.441406 292.816406 C 501.164062 292.382812 500.363281 291.3125 498.898438 290.742188 C 498.164062 290.453125 497.046875 290.019531 496.011719 290.550781 C 495.390625 290.863281 495.03125 291.40625 494.835938 291.808594 C 494.699219 292.09375 494.355469 292.210938 494.070312 292.070312 C 493.785156 291.933594 493.667969 291.589844 493.804688 291.304688 C 494.074219 290.75 494.589844 289.988281 495.488281 289.527344 C 496.984375 288.761719 498.503906 289.355469 499.316406 289.671875 C 501.09375 290.367188 502.070312 291.671875 502.410156 292.199219 C 502.550781 292.421875 502.925781 293.011719 503.191406 293.820312 C 503.527344 294.859375 503.558594 295.871094 503.28125 296.828125 C 503.097656 297.460938 502.855469 297.929688 502.683594 298.214844 C 502.167969 299.050781 501.484375 299.582031 500.695312 299.742188 C 500.285156 299.824219 499.902344 299.800781 499.578125 299.730469 Z M 499.578125 299.730469 " fill-opacity="1" fill-rule="nonzero"/></g></g></g><g clip-path="url(#04dfabc6e7)"><g clip-path="url(#1c6f2adc59)"><g clip-path="url(#0dbf8baa3d)"><path fill="#6800db" d="M 500.785156 286.933594 C 500.566406 286.882812 500.347656 286.816406 500.140625 286.730469 C 499.476562 286.449219 498.945312 285.980469 498.601562 285.375 C 498.296875 284.832031 498.15625 284.207031 498.195312 283.574219 C 498.234375 282.945312 498.453125 282.332031 498.820312 281.808594 C 499.003906 281.550781 499.359375 281.488281 499.621094 281.671875 C 499.878906 281.851562 499.941406 282.210938 499.757812 282.46875 C 499.261719 283.175781 499.199219 284.097656 499.601562 284.808594 C 499.921875 285.375 500.46875 285.691406 501.023438 285.8125 C 501.285156 285.867188 501.546875 285.878906 501.789062 285.855469 C 502.953125 285.726562 503.910156 284.648438 504.0625 283.285156 C 504.097656 282.972656 504.382812 282.746094 504.695312 282.78125 C 505.011719 282.816406 505.238281 283.097656 505.203125 283.414062 C 505.097656 284.328125 504.714844 285.191406 504.117188 285.84375 C 503.515625 286.496094 502.734375 286.90625 501.914062 286.992188 C 501.542969 287.035156 501.160156 287.011719 500.785156 286.933594 Z M 500.785156 286.933594 " fill-opacity="1" fill-rule="nonzero"/></g></g></g><g clip-path="url(#0227a25c2c)"><g clip-path="url(#cb55ef7c53)"><g clip-path="url(#cd1fbdbe3d)"><path fill="#6800db" d="M 504.214844 297.171875 C 504.035156 297.132812 503.878906 297.011719 503.804688 296.832031 C 503.683594 296.539062 503.820312 296.203125 504.113281 296.082031 C 504.558594 295.894531 505.65625 295.332031 506.15625 294.136719 C 506.59375 293.085938 506.34375 292.105469 506.160156 291.386719 C 506.054688 290.976562 505.710938 289.910156 504.796875 288.886719 C 503.851562 287.832031 502.738281 287.320312 501.972656 287.074219 C 501.671875 286.980469 501.503906 286.65625 501.601562 286.355469 C 501.695312 286.054688 502.019531 285.886719 502.320312 285.984375 C 503.222656 286.269531 504.53125 286.875 505.648438 288.121094 C 506.734375 289.332031 507.144531 290.609375 507.269531 291.101562 C 507.480469 291.929688 507.800781 293.175781 507.214844 294.578125 C 506.910156 295.300781 506.425781 295.925781 505.769531 296.433594 C 505.402344 296.71875 504.980469 296.960938 504.554688 297.140625 C 504.441406 297.1875 504.324219 297.195312 504.214844 297.171875 Z M 504.214844 297.171875 " fill-opacity="1" fill-rule="nonzero"/></g></g></g><g clip-path="url(#2dfa8e91cb)"><g clip-path="url(#6bff01488a)"><g clip-path="url(#532563822d)"><path fill="#6800db" d="M 493.140625 286.257812 C 492.902344 286.207031 492.65625 286.113281 492.414062 285.953125 C 491.691406 285.480469 491.304688 284.609375 491.433594 283.742188 C 491.480469 283.425781 491.769531 283.210938 492.082031 283.257812 C 492.394531 283.300781 492.613281 283.59375 492.566406 283.90625 C 492.503906 284.335938 492.691406 284.765625 493.042969 284.996094 C 493.53125 285.316406 494.085938 285.074219 494.117188 285.0625 C 494.402344 284.925781 494.742188 285.050781 494.875 285.335938 C 495.011719 285.625 494.886719 285.964844 494.601562 286.097656 C 494.511719 286.140625 493.878906 286.417969 493.140625 286.257812 Z M 493.140625 286.257812 " fill-opacity="1" fill-rule="nonzero"/></g></g></g><g clip-path="url(#946fdac8e3)"><g clip-path="url(#96e64b7699)"><g clip-path="url(#f765d002ca)"><path fill="#6800db" d="M 499.535156 304.128906 C 499.242188 304.066406 498.921875 303.972656 498.59375 303.828125 C 497.273438 303.25 496.511719 302.226562 496.140625 301.578125 C 495.84375 301.398438 495.445312 301.113281 495.042969 300.707031 C 494.335938 299.996094 493.875 299.164062 493.667969 298.238281 C 493.277344 296.46875 493.796875 295.273438 494.304688 294.582031 C 494.472656 294.347656 494.835938 293.902344 495.367188 293.519531 C 496.121094 292.980469 496.933594 292.78125 497.722656 292.953125 C 497.726562 292.953125 497.734375 292.953125 497.738281 292.953125 C 498.394531 293.097656 498.988281 293.492188 499.453125 294.085938 C 499.789062 294.515625 499.960938 294.929688 500.003906 295.042969 C 500.117188 295.339844 499.96875 295.671875 499.675781 295.785156 C 499.378906 295.898438 499.046875 295.75 498.933594 295.453125 C 498.914062 295.40625 498.476562 294.292969 497.492188 294.074219 C 497.488281 294.074219 497.484375 294.074219 497.484375 294.074219 C 496.339844 293.828125 495.40625 295.015625 495.230469 295.257812 C 494.863281 295.757812 494.488281 296.640625 494.789062 297.992188 C 495.144531 299.597656 496.453125 300.441406 496.847656 300.664062 C 496.945312 300.714844 497.023438 300.796875 497.074219 300.894531 C 497.335938 301.390625 497.945312 302.292969 499.054688 302.777344 C 499.871094 303.132812 500.601562 303.105469 500.996094 303.09375 C 501.539062 303.074219 502.355469 303.046875 503.15625 302.507812 C 503.828125 302.058594 504.203125 301.445312 504.398438 300.996094 C 504.632812 299.992188 504.851562 298.972656 505.050781 297.964844 C 505.203125 297.171875 505.347656 296.367188 505.476562 295.570312 C 505.53125 295.257812 505.824219 295.046875 506.136719 295.097656 C 506.449219 295.148438 506.660156 295.441406 506.609375 295.753906 C 506.476562 296.5625 506.332031 297.378906 506.175781 298.183594 C 505.972656 299.222656 505.746094 300.273438 505.503906 301.308594 C 505.496094 301.339844 505.484375 301.371094 505.472656 301.402344 C 505.21875 301.996094 504.722656 302.839844 503.796875 303.460938 C 502.722656 304.179688 501.667969 304.21875 501.035156 304.238281 C 500.726562 304.25 500.1875 304.269531 499.535156 304.128906 Z M 499.535156 304.128906 " fill-opacity="1" fill-rule="nonzero"/></g></g></g><g clip-path="url(#2284fac982)"><g clip-path="url(#2937ff6511)"><g clip-path="url(#9ddcb09ae3)"><path fill="#6800db" d="M 501.050781 302.257812 C 501.023438 302.253906 500.996094 302.246094 500.96875 302.234375 C 500.734375 302.144531 499.945312 301.789062 499.628906 300.863281 C 499.355469 300.058594 499.625 299.378906 499.753906 299.121094 C 499.898438 298.839844 500.242188 298.726562 500.527344 298.871094 C 500.808594 299.015625 500.921875 299.359375 500.777344 299.640625 C 500.726562 299.738281 500.578125 300.089844 500.714844 300.492188 C 500.875 300.960938 501.320312 301.140625 501.371094 301.160156 C 501.667969 301.273438 501.820312 301.601562 501.707031 301.898438 C 501.605469 302.167969 501.324219 302.316406 501.050781 302.257812 Z M 501.050781 302.257812 " fill-opacity="1" fill-rule="nonzero"/></g></g></g><g clip-path="url(#a1e8efb808)"><g clip-path="url(#3f9d2866d2)"><g clip-path="url(#f3b60b0cab)"><path fill="#6800db" d="M 494.433594 294.398438 C 493.605469 294.21875 492.476562 293.769531 491.761719 292.617188 C 491.089844 291.542969 491.136719 290.429688 491.226562 289.867188 C 491.273438 289.550781 491.566406 289.339844 491.878906 289.386719 C 492.191406 289.4375 492.40625 289.726562 492.359375 290.042969 C 492.296875 290.449219 492.261719 291.25 492.734375 292.011719 C 493.597656 293.398438 495.414062 293.363281 495.433594 293.363281 C 495.75 293.351562 496.015625 293.601562 496.023438 293.917969 C 496.03125 294.234375 495.785156 294.5 495.46875 294.507812 C 495.425781 294.507812 495.003906 294.519531 494.433594 294.398438 Z M 494.433594 294.398438 " fill-opacity="1" fill-rule="nonzero"/></g></g></g><g clip-path="url(#658721249f)"><g clip-path="url(#78a6f5010c)"><g clip-path="url(#27de40369c)"><path fill="#6800db" d="M 490.121094 289.269531 C 489.988281 289.238281 489.863281 289.164062 489.777344 289.046875 C 489.445312 288.589844 489.195312 288.089844 489.039062 287.566406 C 488.78125 286.703125 488.773438 285.78125 489.019531 284.824219 C 489.21875 284.058594 489.527344 283.453125 489.710938 283.09375 C 490.046875 282.441406 490.828125 281.207031 492.296875 280.25 C 492.882812 279.867188 493.683594 279.34375 494.855469 279.230469 C 496.378906 279.082031 497.589844 279.714844 498.179688 280.105469 C 498.445312 280.277344 498.515625 280.636719 498.339844 280.898438 C 498.164062 281.164062 497.808594 281.234375 497.546875 281.058594 C 497.085938 280.753906 496.136719 280.253906 494.96875 280.371094 C 494.078125 280.457031 493.464844 280.855469 492.925781 281.207031 C 491.632812 282.050781 490.960938 283.175781 490.734375 283.617188 C 490.414062 284.234375 489.671875 285.683594 490.136719 287.234375 C 490.257812 287.636719 490.449219 288.019531 490.707031 288.371094 C 490.890625 288.625 490.835938 288.984375 490.578125 289.171875 C 490.441406 289.273438 490.273438 289.300781 490.121094 289.269531 Z M 490.121094 289.269531 " fill-opacity="1" fill-rule="nonzero"/></g></g></g><g clip-path="url(#866df6b487)"><g clip-path="url(#9386a4380e)"><g clip-path="url(#a5da58631b)"><path fill="#6800db" d="M 493.882812 298.246094 C 493.882812 298.246094 493.878906 298.246094 493.878906 298.246094 C 493.0625 298.0625 492.308594 297.726562 491.636719 297.25 C 491.300781 297.007812 490.445312 296.320312 489.78125 295.128906 C 489.625 294.847656 489.261719 294.191406 489.027344 293.320312 C 488.730469 292.207031 488.753906 291.140625 489.09375 290.152344 C 489.273438 289.644531 489.738281 288.292969 491.132812 287.628906 C 492.148438 287.144531 493.148438 287.269531 493.65625 287.390625 C 493.964844 287.460938 494.15625 287.769531 494.082031 288.078125 C 494.011719 288.382812 493.707031 288.574219 493.402344 288.507812 C 493.402344 288.507812 493.398438 288.507812 493.394531 288.507812 C 493.035156 288.421875 492.328125 288.332031 491.628906 288.664062 C 490.667969 289.121094 490.324219 290.105469 490.179688 290.527344 C 489.757812 291.738281 489.960938 293.097656 490.785156 294.570312 C 491.335938 295.558594 492.03125 296.121094 492.300781 296.316406 C 492.847656 296.707031 493.464844 296.976562 494.128906 297.125 C 494.4375 297.195312 494.632812 297.5 494.5625 297.808594 C 494.496094 298.117188 494.191406 298.3125 493.882812 298.246094 Z M 493.882812 298.246094 " fill-opacity="1" fill-rule="nonzero"/></g></g></g><g clip-path="url(#8ee7a22297)"><g clip-path="url(#f6b617f386)"><g clip-path="url(#44f79fbae5)"><path fill="#6800db" d="M 492.703125 280.996094 C 492.410156 280.933594 492.214844 280.65625 492.253906 280.355469 C 492.265625 280.265625 492.394531 279.414062 492.863281 278.445312 C 493.136719 277.886719 493.472656 277.390625 493.863281 276.972656 C 494.355469 276.445312 494.9375 276.035156 495.585938 275.753906 C 497.050781 275.125 498.445312 275.335938 499.144531 275.519531 C 499.449219 275.597656 499.632812 275.910156 499.554688 276.214844 C 499.476562 276.515625 499.179688 276.699219 498.878906 276.632812 C 498.871094 276.632812 498.863281 276.628906 498.855469 276.628906 C 498.296875 276.480469 497.191406 276.3125 496.039062 276.808594 C 495.117188 277.203125 494.394531 277.925781 493.894531 278.949219 C 493.496094 279.769531 493.394531 280.480469 493.390625 280.511719 C 493.347656 280.824219 493.058594 281.046875 492.746094 281.003906 C 492.730469 281 492.714844 281 492.703125 280.996094 Z M 492.703125 280.996094 " fill-opacity="1" fill-rule="nonzero"/></g></g></g><g clip-path="url(#11fafc53cf)"><g clip-path="url(#05852df535)"><g clip-path="url(#6928b56d1b)"><path fill="#6800db" d="M 496.320312 276.488281 C 496.3125 276.484375 496.304688 276.484375 496.292969 276.480469 C 495.988281 276.398438 495.804688 276.085938 495.886719 275.78125 C 496.105469 274.960938 496.703125 273.433594 498.242188 272.386719 C 498.6875 272.082031 500.050781 271.15625 501.8125 271.464844 C 502.039062 271.503906 502.515625 271.585938 503.023438 271.824219 C 503.683594 272.132812 504.167969 272.589844 504.46875 273.1875 C 505.027344 274.296875 504.699219 275.402344 504.53125 275.828125 C 504.417969 276.121094 504.085938 276.265625 503.789062 276.152344 C 503.496094 276.035156 503.351562 275.703125 503.464844 275.40625 C 503.550781 275.1875 503.804688 274.417969 503.445312 273.699219 C 503.011719 272.835938 501.996094 272.660156 501.613281 272.59375 C 500.308594 272.367188 499.277344 273.070312 498.886719 273.332031 C 497.652344 274.171875 497.171875 275.410156 496.996094 276.074219 C 496.917969 276.371094 496.617188 276.550781 496.320312 276.488281 Z M 496.320312 276.488281 " fill-opacity="1" fill-rule="nonzero"/></g></g></g><g clip-path="url(#c1cf858228)"><g clip-path="url(#d9de27feee)"><g clip-path="url(#15b94fa73a)"><path fill="#6800db" d="M 503.957031 273.785156 C 503.867188 273.765625 503.78125 273.726562 503.707031 273.664062 C 503.464844 273.460938 503.433594 273.097656 503.636719 272.855469 C 503.941406 272.496094 504.609375 271.855469 505.660156 271.621094 C 506.429688 271.449219 507.097656 271.566406 507.519531 271.691406 C 507.824219 271.785156 507.996094 272.101562 507.902344 272.40625 C 507.8125 272.710938 507.492188 272.882812 507.1875 272.789062 C 506.898438 272.703125 506.4375 272.621094 505.910156 272.742188 C 505.1875 272.902344 504.726562 273.34375 504.515625 273.59375 C 504.375 273.761719 504.15625 273.828125 503.957031 273.785156 Z M 503.957031 273.785156 " fill-opacity="1" fill-rule="nonzero"/></g></g></g><g clip-path="url(#31c7a89aef)"><g clip-path="url(#a178c056c0)"><g clip-path="url(#d62285fbca)"><path fill="#6800db" d="M 501.269531 280.859375 C 501.089844 280.820312 500.933594 280.699219 500.859375 280.515625 C 500.773438 280.308594 500.429688 279.601562 499.621094 279.253906 C 498.925781 278.953125 498.277344 279.09375 498.03125 279.167969 C 497.726562 279.261719 497.410156 279.089844 497.316406 278.785156 C 497.226562 278.480469 497.398438 278.164062 497.699219 278.070312 C 498.15625 277.933594 499.066406 277.769531 500.074219 278.199219 C 501.246094 278.703125 501.753906 279.683594 501.917969 280.082031 C 502.039062 280.375 501.898438 280.707031 501.605469 280.828125 C 501.496094 280.875 501.378906 280.882812 501.269531 280.859375 Z M 501.269531 280.859375 " fill-opacity="1" fill-rule="nonzero"/></g></g></g><g clip-path="url(#df2b4961c6)"><g clip-path="url(#b87c190905)"><g clip-path="url(#78b8d91716)"><path fill="#6800db" d="M 503.640625 283.320312 C 503.082031 283.199219 502.574219 282.960938 502.140625 282.609375 C 501.382812 281.992188 500.578125 280.792969 500.820312 279.433594 C 500.972656 278.566406 501.496094 278.007812 501.746094 277.738281 C 502.355469 277.089844 503.152344 276.671875 504.117188 276.492188 C 505.199219 276.296875 506.105469 276.535156 506.679688 276.765625 C 506.972656 276.886719 507.109375 277.222656 506.992188 277.515625 C 506.871094 277.808594 506.535156 277.949219 506.242188 277.828125 C 505.8125 277.652344 505.132812 277.472656 504.324219 277.621094 C 504.054688 277.671875 503.242188 277.820312 502.585938 278.523438 C 502.367188 278.753906 502.042969 279.101562 501.949219 279.632812 C 501.804688 280.445312 502.304688 281.265625 502.863281 281.71875 C 503.863281 282.53125 505.117188 282.207031 505.253906 282.164062 C 505.558594 282.078125 505.875 282.253906 505.964844 282.558594 C 506.050781 282.863281 505.875 283.183594 505.570312 283.269531 C 505.4375 283.304688 504.960938 283.425781 504.34375 283.40625 C 504.101562 283.398438 503.867188 283.371094 503.640625 283.320312 Z M 503.640625 283.320312 " fill-opacity="1" fill-rule="nonzero"/></g></g></g><g clip-path="url(#440f3ea7c4)"><g clip-path="url(#3caac1b2be)"><g clip-path="url(#2e4a3a9aa1)"><path fill="#6800db" d="M 502.257812 278.355469 C 502.242188 278.351562 502.226562 278.347656 502.210938 278.34375 C 501.910156 278.25 501.738281 277.929688 501.832031 277.628906 C 501.890625 277.425781 502.058594 276.71875 501.679688 276.019531 C 501.402344 275.511719 500.976562 275.253906 500.746094 275.144531 C 500.460938 275.007812 500.339844 274.664062 500.476562 274.378906 C 500.613281 274.09375 500.953125 273.972656 501.238281 274.109375 C 501.59375 274.277344 502.257812 274.679688 502.6875 275.46875 C 503.265625 276.53125 503.046875 277.566406 502.925781 277.960938 C 502.839844 278.25 502.546875 278.417969 502.257812 278.355469 Z M 502.257812 278.355469 " fill-opacity="1" fill-rule="nonzero"/></g></g></g><g clip-path="url(#fa56809963)"><g clip-path="url(#955c015bc3)"><g clip-path="url(#87b3f2aa9e)"><path fill="#6800db" d="M 508.601562 283.535156 C 508.375 283.488281 508.191406 283.300781 508.15625 283.054688 C 508.148438 283.003906 508.074219 282.523438 507.804688 281.96875 C 507.464844 281.273438 506.976562 280.769531 506.34375 280.46875 C 505.480469 280.054688 504.636719 280.164062 504.210938 280.265625 C 503.902344 280.339844 503.59375 280.148438 503.519531 279.84375 C 503.445312 279.535156 503.632812 279.222656 503.941406 279.152344 C 504.515625 279.011719 505.652344 278.867188 506.839844 279.433594 C 508.886719 280.410156 509.253906 282.644531 509.289062 282.894531 C 509.335938 283.207031 509.117188 283.5 508.804688 283.542969 C 508.734375 283.550781 508.667969 283.550781 508.601562 283.535156 Z M 508.601562 283.535156 " fill-opacity="1" fill-rule="nonzero"/></g></g></g><g clip-path="url(#c875bdea53)"><g clip-path="url(#4f1d37e621)"><g clip-path="url(#a11d2e5572)"><path fill="#6800db" d="M 509.84375 278.242188 C 509.601562 278.191406 509.410156 277.984375 509.394531 277.722656 C 509.375 277.476562 509.226562 276.207031 508.136719 275.429688 C 507.417969 274.917969 506.648438 274.871094 506.253906 274.886719 C 505.9375 274.898438 505.671875 274.652344 505.65625 274.335938 C 505.644531 274.019531 505.890625 273.753906 506.207031 273.742188 C 506.746094 273.71875 507.800781 273.785156 508.800781 274.496094 C 509.457031 274.964844 509.945312 275.601562 510.246094 276.390625 C 510.457031 276.941406 510.519531 277.410156 510.535156 277.640625 C 510.558594 277.953125 510.324219 278.230469 510.007812 278.253906 C 509.949219 278.257812 509.894531 278.253906 509.84375 278.242188 Z M 509.84375 278.242188 " fill-opacity="1" fill-rule="nonzero"/></g></g></g><g clip-path="url(#33b343f7a8)"><g clip-path="url(#c71d5e275a)"><g clip-path="url(#39817ae7c1)"><path fill="#6800db" d="M 505.992188 290.316406 C 505.820312 290.277344 505.664062 290.164062 505.589844 289.988281 C 505.460938 289.699219 505.589844 289.359375 505.878906 289.230469 C 506.214844 289.082031 507.191406 288.519531 507.308594 287.921875 C 507.382812 287.542969 507.738281 285.925781 508.1875 283.878906 C 508.847656 280.867188 509.84375 276.347656 509.925781 275.785156 C 509.921875 275.679688 509.949219 275.570312 509.972656 275.453125 C 510.144531 274.679688 510.660156 272.328125 508.238281 270.929688 C 508.195312 270.90625 507.792969 270.679688 507.121094 270.566406 C 506.425781 270.453125 505.71875 270.5 505.027344 270.707031 C 503.683594 271.109375 502.855469 271.96875 502.476562 272.445312 C 502.28125 272.695312 501.921875 272.738281 501.671875 272.539062 C 501.425781 272.34375 501.382812 271.984375 501.578125 271.734375 C 502.039062 271.152344 503.054688 270.101562 504.699219 269.609375 C 505.558594 269.351562 506.4375 269.292969 507.308594 269.4375 C 508.140625 269.578125 508.671875 269.855469 508.8125 269.9375 C 509.53125 270.355469 510.105469 270.875 510.515625 271.488281 C 510.859375 272.003906 511.089844 272.585938 511.203125 273.21875 C 511.394531 274.320312 511.183594 275.289062 511.09375 275.699219 C 511.085938 275.730469 511.078125 275.765625 511.074219 275.792969 C 511.074219 275.886719 511.054688 275.992188 511.03125 276.109375 C 511.007812 276.25 510.96875 276.445312 510.914062 276.707031 C 510.820312 277.171875 510.683594 277.824219 510.492188 278.699219 C 510.148438 280.304688 509.699219 282.335938 509.308594 284.125 C 508.878906 286.085938 508.503906 287.773438 508.433594 288.136719 C 508.324219 288.714844 507.925781 289.253906 507.253906 289.742188 C 506.796875 290.078125 506.363281 290.273438 506.34375 290.28125 C 506.230469 290.332031 506.105469 290.339844 505.992188 290.316406 Z M 510.980469 275.46875 Z M 510.980469 275.46875 " fill-opacity="1" fill-rule="nonzero"/></g></g></g><g clip-path="url(#f8d956f203)"><g clip-path="url(#5c93ed1052)"><g clip-path="url(#d626d663c5)"><path fill="#6800db" d="M 517.011719 294.410156 C 516.03125 294.199219 515.101562 293.78125 514.292969 293.179688 C 514.039062 292.992188 513.984375 292.632812 514.171875 292.378906 C 514.359375 292.125 514.71875 292.070312 514.972656 292.257812 C 515.667969 292.773438 516.445312 293.117188 517.253906 293.292969 C 518.496094 293.558594 519.808594 293.417969 520.996094 292.855469 C 522.984375 291.910156 524.296875 289.871094 524.34375 287.65625 C 524.347656 287.339844 524.609375 287.089844 524.925781 287.09375 C 525.242188 287.101562 525.496094 287.363281 525.488281 287.679688 C 525.460938 288.988281 525.074219 290.257812 524.367188 291.355469 C 523.65625 292.457031 522.660156 293.332031 521.488281 293.890625 C 520.339844 294.4375 519.0625 294.65625 517.792969 294.53125 C 517.53125 294.503906 517.269531 294.464844 517.011719 294.410156 Z M 517.011719 294.410156 " fill-opacity="1" fill-rule="nonzero"/></g></g></g><g clip-path="url(#573bdf6091)"><g clip-path="url(#57ccfe45ba)"><g clip-path="url(#cf982ac37d)"><path fill="#6800db" d="M 512.949219 302.601562 C 512.625 302.53125 512.269531 302.394531 511.929688 302.152344 C 511.277344 301.679688 510.867188 300.917969 510.742188 299.941406 C 510.699219 299.613281 510.671875 299.085938 510.765625 298.433594 C 510.902344 297.449219 511.347656 296.535156 512.082031 295.726562 C 512.652344 295.097656 513.238281 294.714844 513.457031 294.570312 C 513.984375 294.226562 515.410156 293.4375 517.3125 293.53125 C 518.1875 293.578125 519.8125 293.660156 520.863281 294.972656 C 521.5 295.761719 521.652344 296.664062 521.671875 297.28125 C 521.679688 297.601562 521.433594 297.863281 521.117188 297.875 C 520.800781 297.882812 520.535156 297.632812 520.527344 297.316406 C 520.511719 296.875 520.40625 296.230469 519.972656 295.6875 C 519.242188 294.777344 518.046875 294.71875 517.257812 294.679688 C 515.6875 294.597656 514.519531 295.246094 514.085938 295.527344 C 512.492188 296.574219 512.015625 297.773438 511.898438 298.597656 C 511.835938 299.046875 511.695312 300.570312 512.597656 301.222656 C 513.167969 301.632812 513.871094 301.503906 513.898438 301.496094 C 514.832031 301.316406 515.226562 300.390625 515.242188 300.351562 C 515.363281 300.058594 515.699219 299.921875 515.992188 300.042969 C 516.28125 300.164062 516.421875 300.496094 516.300781 300.789062 C 516.234375 300.949219 515.621094 302.332031 514.117188 302.625 C 513.988281 302.648438 513.515625 302.722656 512.949219 302.601562 Z M 512.949219 302.601562 " fill-opacity="1" fill-rule="nonzero"/></g></g></g><g clip-path="url(#d414e5bbbc)"><g clip-path="url(#a7cb5bc0b5)"><g clip-path="url(#3d806edf3d)"><path fill="#6800db" d="M 517.097656 290.429688 C 516.726562 290.351562 516.363281 290.214844 516.046875 290.023438 C 515.332031 289.609375 514.785156 288.914062 514.507812 288.070312 C 514.230469 287.234375 514.230469 286.289062 514.511719 285.410156 C 514.609375 285.109375 514.933594 284.945312 515.234375 285.039062 C 515.535156 285.136719 515.703125 285.460938 515.605469 285.761719 C 515.1875 287.066406 515.613281 288.445312 516.625 289.035156 C 517.277344 289.417969 518.277344 289.546875 519.046875 288.980469 C 519.707031 288.496094 520.03125 287.632812 519.863281 286.78125 C 519.804688 286.472656 520.007812 286.171875 520.320312 286.109375 C 520.628906 286.050781 520.929688 286.253906 520.992188 286.566406 C 521.113281 287.195312 521.058594 287.839844 520.835938 288.429688 C 520.613281 289.027344 520.230469 289.535156 519.726562 289.90625 C 519.167969 290.316406 518.488281 290.527344 517.769531 290.511719 C 517.542969 290.503906 517.320312 290.476562 517.097656 290.429688 Z M 517.097656 290.429688 " fill-opacity="1" fill-rule="nonzero"/></g></g></g><g clip-path="url(#5235e8d128)"><g clip-path="url(#eb51f4b405)"><g clip-path="url(#dbb75d9bb0)"><path fill="#6800db" d="M 509.773438 298.363281 C 509.660156 298.339844 509.558594 298.285156 509.472656 298.195312 C 509.15625 297.859375 508.875 297.464844 508.65625 297.054688 C 508.265625 296.320312 508.078125 295.550781 508.101562 294.769531 C 508.140625 293.25 508.941406 292.242188 509.472656 291.574219 C 509.789062 291.175781 510.6875 290.179688 512.171875 289.523438 C 513.707031 288.839844 515.148438 288.828125 516.085938 288.9375 C 516.402344 288.972656 516.628906 289.257812 516.589844 289.570312 C 516.554688 289.886719 516.269531 290.113281 515.957031 290.074219 C 515.160156 289.984375 513.933594 289.996094 512.636719 290.570312 C 511.382812 291.125 510.632812 291.957031 510.371094 292.289062 C 509.90625 292.867188 509.277344 293.664062 509.246094 294.796875 C 509.210938 296.097656 509.980469 297.058594 510.308594 297.410156 C 510.527344 297.640625 510.515625 298.003906 510.285156 298.222656 C 510.140625 298.355469 509.949219 298.402344 509.773438 298.363281 Z M 509.773438 298.363281 " fill-opacity="1" fill-rule="nonzero"/></g></g></g><g clip-path="url(#8329551cbf)"><g clip-path="url(#4cae8074da)"><g clip-path="url(#4b40d1bcdb)"><path fill="#6800db" d="M 524.351562 292.953125 C 524.117188 292.902344 523.886719 292.8125 523.667969 292.683594 C 523.324219 292.484375 523.117188 292.253906 523.082031 292.207031 C 522.875 291.96875 522.902344 291.605469 523.140625 291.398438 C 523.382812 291.195312 523.742188 291.222656 523.949219 291.460938 C 523.972656 291.484375 524.378906 291.933594 524.953125 291.839844 C 525.371094 291.773438 525.714844 291.460938 525.835938 291.042969 C 525.921875 290.738281 526.238281 290.558594 526.542969 290.648438 C 526.847656 290.734375 527.023438 291.050781 526.9375 291.355469 C 526.695312 292.203125 525.988281 292.835938 525.132812 292.972656 C 524.871094 293.015625 524.609375 293.007812 524.351562 292.953125 Z M 524.351562 292.953125 " fill-opacity="1" fill-rule="nonzero"/></g></g></g><g clip-path="url(#d3183cd2b4)"><g clip-path="url(#33f58a98fb)"><g clip-path="url(#89eb053129)"><path fill="#6800db" d="M 511.1875 306.628906 C 510.535156 306.488281 510.050781 306.25 509.769531 306.113281 C 509.207031 305.835938 508.257812 305.367188 507.574219 304.269531 C 506.984375 303.324219 506.875 302.351562 506.886719 301.707031 C 506.890625 301.671875 506.890625 301.640625 506.898438 301.609375 C 507.101562 300.566406 507.328125 299.515625 507.570312 298.484375 C 507.757812 297.6875 507.957031 296.878906 508.167969 296.089844 C 508.25 295.785156 508.5625 295.601562 508.867188 295.683594 C 509.175781 295.765625 509.355469 296.078125 509.277344 296.382812 C 509.066406 297.164062 508.871094 297.957031 508.683594 298.746094 C 508.449219 299.746094 508.230469 300.765625 508.035156 301.777344 C 508.03125 302.269531 508.121094 302.976562 508.546875 303.664062 C 509.058594 304.484375 509.792969 304.84375 510.277344 305.085938 C 510.628906 305.257812 511.289062 305.582031 512.179688 305.59375 C 513.386719 305.605469 514.3125 305.03125 514.757812 304.6875 C 514.84375 304.621094 514.949219 304.578125 515.058594 304.570312 C 515.507812 304.53125 517.050781 304.296875 518.03125 302.976562 C 518.859375 301.867188 518.878906 300.910156 518.75 300.304688 C 518.691406 300.011719 518.324219 298.542969 517.179688 298.296875 C 517.179688 298.296875 517.175781 298.296875 517.171875 298.296875 C 516.183594 298.089844 515.328125 298.929688 515.292969 298.964844 C 515.066406 299.1875 514.703125 299.1875 514.480469 298.960938 C 514.257812 298.738281 514.257812 298.375 514.484375 298.152344 C 514.570312 298.0625 514.894531 297.757812 515.378906 297.503906 C 516.046875 297.148438 516.75 297.035156 517.410156 297.175781 C 517.414062 297.175781 517.417969 297.175781 517.421875 297.175781 C 518.210938 297.347656 518.875 297.859375 519.339844 298.664062 C 519.664062 299.226562 519.8125 299.785156 519.875 300.066406 C 520.050781 300.90625 520.035156 302.207031 518.953125 303.660156 C 518.386719 304.421875 517.625 304.988281 516.6875 305.351562 C 516.152344 305.554688 515.671875 305.652344 515.328125 305.695312 C 514.722656 306.132812 513.609375 306.753906 512.167969 306.738281 C 511.808594 306.734375 511.480469 306.691406 511.1875 306.628906 Z M 511.1875 306.628906 " fill-opacity="1" fill-rule="nonzero"/></g></g></g><g clip-path="url(#557c9bbbae)"><g clip-path="url(#e081ca7db7)"><g clip-path="url(#2582e0dcbe)"><path fill="#6800db" d="M 510.570312 304.300781 C 510.296875 304.242188 510.101562 303.992188 510.121094 303.703125 C 510.140625 303.386719 510.410156 303.148438 510.726562 303.167969 C 510.78125 303.171875 511.261719 303.191406 511.601562 302.828125 C 511.890625 302.515625 511.898438 302.132812 511.894531 302.023438 C 511.878906 301.707031 512.121094 301.441406 512.4375 301.425781 C 512.753906 301.410156 513.023438 301.65625 513.039062 301.972656 C 513.050781 302.257812 513.019531 302.988281 512.4375 303.609375 C 511.769531 304.324219 510.90625 304.328125 510.65625 304.3125 C 510.625 304.308594 510.597656 304.304688 510.570312 304.300781 Z M 510.570312 304.300781 " fill-opacity="1" fill-rule="nonzero"/></g></g></g><g clip-path="url(#0247ab3d93)"><g clip-path="url(#8bef8c3bb6)"><g clip-path="url(#54c2e87170)"><path fill="#6800db" d="M 519.832031 299.84375 C 519.261719 299.722656 518.878906 299.539062 518.839844 299.519531 C 518.554688 299.382812 518.4375 299.039062 518.578125 298.753906 C 518.714844 298.46875 519.058594 298.351562 519.34375 298.492188 C 519.359375 298.5 521 299.277344 522.359375 298.367188 C 523.101562 297.867188 523.398438 297.121094 523.507812 296.722656 C 523.59375 296.417969 523.90625 296.238281 524.214844 296.324219 C 524.519531 296.40625 524.699219 296.722656 524.613281 297.027344 C 524.460938 297.578125 524.050781 298.613281 522.996094 299.316406 C 521.871094 300.070312 520.65625 300.019531 519.832031 299.84375 Z M 519.832031 299.84375 " fill-opacity="1" fill-rule="nonzero"/></g></g></g><g clip-path="url(#39c4ce57a9)"><g clip-path="url(#39b2625f7e)"><g clip-path="url(#960e85fd4f)"><path fill="#6800db" d="M 525.867188 296.9375 C 525.710938 296.902344 525.574219 296.808594 525.488281 296.660156 C 525.332031 296.382812 525.425781 296.035156 525.703125 295.878906 C 526.082031 295.660156 526.410156 295.390625 526.683594 295.074219 C 527.746094 293.847656 527.664062 292.226562 527.625 291.53125 C 527.601562 291.035156 527.449219 289.734375 526.617188 288.433594 C 526.265625 287.894531 525.871094 287.277344 525.097656 286.832031 C 524.078125 286.25 523.007812 286.3125 522.460938 286.402344 C 522.148438 286.457031 521.855469 286.242188 521.804688 285.929688 C 521.75 285.621094 521.960938 285.324219 522.273438 285.273438 C 522.972656 285.15625 524.339844 285.078125 525.667969 285.839844 C 526.6875 286.421875 527.203125 287.226562 527.582031 287.816406 C 528.527344 289.292969 528.734375 290.738281 528.769531 291.472656 C 528.792969 291.878906 528.828125 292.554688 528.691406 293.335938 C 528.527344 294.304688 528.140625 295.144531 527.550781 295.828125 C 527.191406 296.242188 526.761719 296.59375 526.269531 296.875 C 526.144531 296.945312 526 296.964844 525.867188 296.9375 Z M 525.867188 296.9375 " fill-opacity="1" fill-rule="nonzero"/></g></g></g><g clip-path="url(#0cbf15bb58)"><g clip-path="url(#92cdf69958)"><g clip-path="url(#66b250b2a5)"><path fill="#6800db" d="M 518.753906 303.578125 C 518.445312 303.515625 518.25 303.210938 518.3125 302.902344 C 518.378906 302.59375 518.679688 302.394531 518.992188 302.457031 C 519.65625 302.597656 520.328125 302.597656 520.988281 302.46875 C 521.316406 302.402344 522.179688 302.175781 523.089844 301.5 C 524.441406 300.492188 525.183594 299.335938 525.296875 298.058594 C 525.335938 297.617188 525.429688 296.578125 524.742188 295.765625 C 524.242188 295.175781 523.558594 294.96875 523.195312 294.898438 C 522.882812 294.835938 522.679688 294.539062 522.742188 294.226562 C 522.800781 293.914062 523.105469 293.710938 523.414062 293.773438 C 523.925781 293.871094 524.886719 294.167969 525.617188 295.023438 C 526.613281 296.203125 526.488281 297.625 526.441406 298.164062 C 526.347656 299.203125 525.929688 300.183594 525.203125 301.078125 C 524.632812 301.78125 524.03125 302.226562 523.773438 302.417969 C 522.675781 303.234375 521.617188 303.511719 521.214844 303.59375 C 520.402344 303.753906 519.578125 303.75 518.757812 303.582031 C 518.757812 303.582031 518.753906 303.582031 518.753906 303.578125 Z M 518.753906 303.578125 " fill-opacity="1" fill-rule="nonzero"/></g></g></g><g clip-path="url(#97a312c8d7)"><g clip-path="url(#1082e184ef)"><g clip-path="url(#90a2d515ff)"><path fill="#6800db" d="M 526.90625 288.332031 C 526.890625 288.328125 526.878906 288.324219 526.863281 288.320312 C 526.558594 288.230469 526.386719 287.910156 526.476562 287.609375 C 526.484375 287.578125 526.683594 286.890625 526.65625 285.976562 C 526.621094 284.835938 526.257812 283.882812 525.578125 283.140625 C 524.734375 282.21875 523.652344 281.921875 523.085938 281.824219 C 523.078125 281.824219 523.066406 281.820312 523.058594 281.820312 C 522.761719 281.753906 522.5625 281.46875 522.617188 281.164062 C 522.667969 280.851562 522.964844 280.640625 523.277344 280.695312 C 523.988281 280.816406 525.347656 281.195312 526.421875 282.367188 C 526.902344 282.890625 527.261719 283.5 527.496094 284.183594 C 527.679688 284.730469 527.78125 285.320312 527.800781 285.9375 C 527.835938 287.015625 527.601562 287.84375 527.574219 287.933594 C 527.488281 288.222656 527.195312 288.394531 526.90625 288.332031 Z M 526.90625 288.332031 " fill-opacity="1" fill-rule="nonzero"/></g></g></g><g clip-path="url(#2b26faeb1d)"><g clip-path="url(#b86d6263bd)"><g clip-path="url(#061ca068ac)"><path fill="#6800db" d="M 525.453125 282.734375 C 525.15625 282.671875 524.957031 282.386719 525.007812 282.082031 C 525.117188 281.40625 525.1875 280.078125 524.40625 278.808594 C 524.160156 278.40625 523.507812 277.339844 522.222656 277.015625 C 521.847656 276.917969 520.851562 276.664062 520.101562 277.273438 C 519.476562 277.78125 519.390625 278.585938 519.378906 278.820312 C 519.363281 279.136719 519.097656 279.382812 518.78125 279.367188 C 518.464844 279.351562 518.21875 279.082031 518.234375 278.765625 C 518.257812 278.3125 518.414062 277.167969 519.378906 276.382812 C 519.894531 275.964844 520.527344 275.746094 521.253906 275.734375 C 521.8125 275.726562 522.28125 275.84375 522.507812 275.902344 C 524.238281 276.34375 525.101562 277.746094 525.382812 278.207031 C 526.359375 279.792969 526.277344 281.433594 526.140625 282.269531 C 526.085938 282.582031 525.792969 282.792969 525.480469 282.742188 C 525.472656 282.738281 525.460938 282.738281 525.453125 282.734375 Z M 525.453125 282.734375 " fill-opacity="1" fill-rule="nonzero"/></g></g></g><g clip-path="url(#f713f89ba6)"><g clip-path="url(#9e1d6c406e)"><g clip-path="url(#36183b13b4)"><path fill="#6800db" d="M 519.597656 277.140625 C 519.398438 277.097656 519.226562 276.949219 519.167969 276.738281 C 519.078125 276.421875 518.835938 275.828125 518.242188 275.386719 C 517.808594 275.0625 517.359375 274.945312 517.058594 274.90625 C 516.742188 274.867188 516.523438 274.578125 516.5625 274.265625 C 516.605469 273.949219 516.894531 273.730469 517.207031 273.769531 C 517.644531 273.828125 518.296875 273.996094 518.929688 274.46875 C 519.792969 275.113281 520.140625 275.96875 520.269531 276.421875 C 520.355469 276.726562 520.179688 277.042969 519.875 277.132812 C 519.78125 277.15625 519.6875 277.160156 519.597656 277.140625 Z M 519.597656 277.140625 " fill-opacity="1" fill-rule="nonzero"/></g></g></g><g clip-path="url(#206c3fc900)"><g clip-path="url(#7ab84c6622)"><g clip-path="url(#cc12c59f45)"><path fill="#6800db" d="M 519.148438 284.695312 C 519.039062 284.671875 518.933594 284.613281 518.851562 284.527344 C 518.632812 284.296875 518.644531 283.933594 518.875 283.71875 C 519.1875 283.421875 520.050781 282.734375 521.328125 282.757812 C 522.421875 282.777344 523.1875 283.304688 523.546875 283.613281 C 523.785156 283.824219 523.8125 284.183594 523.601562 284.421875 C 523.394531 284.664062 523.035156 284.6875 522.792969 284.480469 C 522.601562 284.3125 522.066406 283.917969 521.308594 283.90625 C 520.429688 283.890625 519.828125 284.394531 519.664062 284.550781 C 519.519531 284.683594 519.328125 284.730469 519.148438 284.695312 Z M 519.148438 284.695312 " fill-opacity="1" fill-rule="nonzero"/></g></g></g><g clip-path="url(#8448087a71)"><g clip-path="url(#29a90e134b)"><g clip-path="url(#f4920d9219)"><path fill="#6800db" d="M 515.972656 285.964844 C 515.746094 285.917969 515.523438 285.847656 515.300781 285.757812 C 514.726562 285.523438 514.34375 285.214844 514.238281 285.128906 C 513.996094 284.925781 513.964844 284.5625 514.167969 284.320312 C 514.375 284.078125 514.734375 284.046875 514.976562 284.25 C 515.089844 284.34375 516.097656 285.152344 517.339844 284.824219 C 518.035156 284.640625 518.828125 284.097656 519.03125 283.296875 C 519.164062 282.773438 519.007812 282.324219 518.90625 282.023438 C 518.59375 281.113281 517.914062 280.644531 517.691406 280.488281 C 517.011719 280.023438 516.316406 279.90625 515.855469 279.890625 C 515.539062 279.878906 515.289062 279.613281 515.300781 279.296875 C 515.3125 278.980469 515.578125 278.734375 515.894531 278.746094 C 516.511719 278.765625 517.4375 278.921875 518.339844 279.546875 C 519.148438 280.101562 519.703125 280.8125 519.992188 281.652344 C 520.109375 282 520.359375 282.726562 520.144531 283.578125 C 519.804688 284.914062 518.582031 285.683594 517.632812 285.933594 C 517.097656 286.074219 516.53125 286.085938 515.972656 285.964844 Z M 515.972656 285.964844 " fill-opacity="1" fill-rule="nonzero"/></g></g></g><g clip-path="url(#b0aa7fe827)"><g clip-path="url(#57d828645c)"><g clip-path="url(#3cec17403c)"><path fill="#6800db" d="M 519.273438 282.003906 C 518.984375 281.941406 518.785156 281.667969 518.824219 281.371094 C 518.875 280.960938 519.101562 279.929688 520.066406 279.199219 C 520.78125 278.652344 521.550781 278.558594 521.945312 278.550781 C 522.261719 278.542969 522.523438 278.792969 522.527344 279.109375 C 522.535156 279.425781 522.285156 279.6875 521.96875 279.695312 C 521.714844 279.699219 521.21875 279.761719 520.761719 280.109375 C 520.125 280.59375 519.988281 281.308594 519.960938 281.515625 C 519.921875 281.832031 519.632812 282.054688 519.320312 282.011719 C 519.304688 282.011719 519.289062 282.007812 519.273438 282.003906 Z M 519.273438 282.003906 " fill-opacity="1" fill-rule="nonzero"/></g></g></g><g clip-path="url(#8e1e45e31f)"><g clip-path="url(#e6024e1713)"><g clip-path="url(#a691b6c60b)"><path fill="#6800db" d="M 511.363281 284.128906 C 511.296875 284.113281 511.234375 284.089844 511.175781 284.050781 C 510.910156 283.882812 510.828125 283.527344 510.996094 283.261719 C 511.132812 283.046875 512.382812 281.164062 514.652344 281.109375 C 515.964844 281.078125 516.945312 281.679688 517.410156 282.039062 C 517.660156 282.234375 517.707031 282.59375 517.511719 282.84375 C 517.320312 283.09375 516.960938 283.140625 516.710938 282.945312 C 516.363281 282.679688 515.640625 282.234375 514.679688 282.253906 C 513.980469 282.273438 513.324219 282.53125 512.730469 283.027344 C 512.257812 283.421875 511.996094 283.828125 511.96875 283.871094 C 511.835938 284.082031 511.589844 284.175781 511.363281 284.128906 Z M 511.363281 284.128906 " fill-opacity="1" fill-rule="nonzero"/></g></g></g><g clip-path="url(#a3cfcecf5d)"><g clip-path="url(#51654d778a)"><g clip-path="url(#76e5d58da2)"><path fill="#6800db" d="M 512.402344 278.789062 C 512.347656 278.78125 512.296875 278.761719 512.246094 278.734375 C 511.96875 278.582031 511.867188 278.234375 512.015625 277.957031 C 512.125 277.753906 512.375 277.351562 512.792969 276.9375 C 513.394531 276.339844 514.097656 275.960938 514.886719 275.800781 C 516.089844 275.5625 517.082031 275.933594 517.5625 276.175781 C 517.847656 276.320312 517.960938 276.664062 517.820312 276.945312 C 517.679688 277.230469 517.332031 277.34375 517.050781 277.203125 C 516.699219 277.023438 515.976562 276.753906 515.113281 276.925781 C 513.796875 277.1875 513.140625 278.285156 513.023438 278.503906 C 512.898438 278.730469 512.644531 278.84375 512.402344 278.789062 Z M 512.402344 278.789062 " fill-opacity="1" fill-rule="nonzero"/></g></g></g><g clip-path="url(#6e3ecc4aa6)"><g clip-path="url(#6c1da0aea3)"><g clip-path="url(#c201aaaf88)"><path fill="#6800db" d="M 510.960938 291.382812 C 510.847656 291.355469 510.738281 291.296875 510.65625 291.203125 C 510.640625 291.1875 510.328125 290.835938 510.046875 290.34375 C 509.632812 289.621094 509.492188 288.964844 509.625 288.394531 C 509.710938 288.035156 510.066406 286.339844 510.476562 284.378906 C 510.851562 282.582031 511.277344 280.546875 511.621094 278.941406 C 511.808594 278.066406 511.949219 277.414062 512.054688 276.949219 C 512.113281 276.6875 512.15625 276.496094 512.191406 276.355469 C 512.21875 276.242188 512.246094 276.140625 512.285156 276.050781 C 512.289062 276.027344 512.296875 275.992188 512.304688 275.960938 C 512.390625 275.546875 512.59375 274.578125 513.222656 273.652344 C 513.585938 273.121094 514.035156 272.6875 514.558594 272.355469 C 515.183594 271.964844 515.917969 271.722656 516.746094 271.640625 C 516.910156 271.621094 517.507812 271.585938 518.324219 271.800781 C 519.175781 272.023438 519.953125 272.4375 520.636719 273.027344 C 521.929688 274.152344 522.425781 275.527344 522.609375 276.246094 C 522.683594 276.554688 522.5 276.863281 522.191406 276.941406 C 521.882812 277.019531 521.574219 276.832031 521.496094 276.523438 C 521.347656 275.9375 520.941406 274.8125 519.882812 273.894531 C 519.335938 273.417969 518.714844 273.085938 518.03125 272.910156 C 517.371094 272.734375 516.914062 272.773438 516.863281 272.78125 C 514.082031 273.0625 513.589844 275.421875 513.425781 276.195312 C 513.402344 276.3125 513.378906 276.417969 513.335938 276.515625 C 513.179688 277.0625 512.230469 281.59375 511.597656 284.613281 C 511.171875 286.664062 510.832031 288.28125 510.742188 288.65625 C 510.679688 288.929688 510.785156 289.324219 511.039062 289.773438 C 511.257812 290.15625 511.507812 290.4375 511.507812 290.4375 C 511.71875 290.675781 511.699219 291.035156 511.464844 291.246094 C 511.324219 291.375 511.132812 291.417969 510.960938 291.382812 Z M 512.5 275.796875 Z M 512.5 275.796875 " fill-opacity="1" fill-rule="nonzero"/></g></g></g></svg>