<svg xmlns="http://www.w3.org/2000/svg" xmlns:xlink="http://www.w3.org/1999/xlink" width="1366" zoomAndPan="magnify" viewBox="0 0 1024.5 576" height="768" preserveAspectRatio="xMidYMid meet" version="1.0"><defs><clipPath id="860e6e90e9"><path d="M 491 273 L 536 273 L 536 301 L 491 301 Z M 491 273 " clip-rule="nonzero"/></clipPath><clipPath id="d2159d0af7"><path d="M 515.097656 263.601562 L 536.210938 290.867188 L 508.945312 311.976562 L 487.832031 284.710938 Z M 515.097656 263.601562 " clip-rule="nonzero"/></clipPath><clipPath id="4aa16cf203"><path d="M 515.097656 263.601562 L 536.210938 290.867188 L 508.945312 311.976562 L 487.832031 284.710938 Z M 515.097656 263.601562 " clip-rule="nonzero"/></clipPath></defs><g clip-path="url(#860e6e90e9)"><g clip-path="url(#d2159d0af7)"><g clip-path="url(#4aa16cf203)"><path fill="#6800db" d="M 534.898438 292.25 C 535.703125 291.613281 535.855469 290.429688 535.234375 289.613281 C 532.265625 285.6875 528.007812 281.597656 518.957031 280.996094 L 515.109375 280.742188 L 508.453125 274.433594 C 508.359375 274.34375 508.238281 274.289062 508.113281 274.273438 L 502.519531 273.5625 C 502.3125 273.539062 502.109375 273.621094 501.976562 273.78125 C 501.84375 273.9375 501.804688 274.160156 501.871094 274.355469 L 503.972656 280.644531 L 503.847656 281.628906 L 501.691406 281.792969 C 501.40625 281.816406 501.171875 282.035156 501.136719 282.320312 L 501.097656 282.617188 C 497.402344 282.140625 494.902344 283.128906 491.925781 284.972656 C 491.773438 285.066406 491.671875 285.226562 491.648438 285.410156 C 491.625 285.566406 491.671875 285.730469 491.769531 285.855469 C 491.785156 285.871094 491.792969 285.886719 491.8125 285.902344 C 494.230469 288.429688 496.402344 290.007812 500.101562 290.476562 L 500.0625 290.773438 C 500.042969 290.9375 500.089844 291.09375 500.1875 291.21875 C 500.257812 291.308594 500.351562 291.378906 500.46875 291.421875 L 502.515625 292.121094 L 502.390625 293.101562 L 498.78125 298.667969 C 498.664062 298.84375 498.652344 299.0625 498.738281 299.25 C 498.757812 299.292969 498.78125 299.332031 498.808594 299.367188 C 498.90625 299.492188 499.050781 299.578125 499.207031 299.597656 L 504.800781 300.308594 C 504.929688 300.324219 505.054688 300.296875 505.171875 300.238281 L 513.199219 295.792969 L 516.988281 296.511719 C 525.890625 298.195312 531.039062 295.300781 534.898438 292.25 Z M 534.269531 290.34375 C 534.496094 290.640625 534.441406 291.070312 534.148438 291.300781 C 533.246094 292.015625 532.265625 292.722656 531.175781 293.355469 C 530.761719 292.425781 530.609375 291.40625 530.742188 290.382812 C 530.871094 289.355469 531.273438 288.40625 531.90625 287.609375 C 532.800781 288.496094 533.574219 289.421875 534.269531 290.34375 Z M 507.761719 275.445312 L 513.21875 280.613281 L 505.046875 280.070312 L 503.3125 274.878906 Z M 493.203125 285.609375 C 495.714844 284.128906 497.84375 283.414062 500.941406 283.8125 L 500.242188 289.28125 C 497.144531 288.890625 495.265625 287.667969 493.203125 285.609375 Z M 501.308594 290.4375 L 502.261719 282.960938 L 503.679688 282.851562 L 502.65625 290.902344 Z M 504.75 299.089844 L 500.304688 298.523438 L 503.289062 293.933594 L 511.335938 295.449219 Z M 517.203125 295.328125 L 503.636719 292.769531 L 505.101562 281.285156 L 518.875 282.203125 C 524.644531 282.585938 528.351562 284.46875 531.015625 286.785156 C 530.210938 287.773438 529.703125 288.953125 529.539062 290.230469 C 529.378906 291.511719 529.574219 292.78125 530.105469 293.933594 C 526.945312 295.507812 522.886719 296.402344 517.203125 295.328125 Z M 521.511719 285.75 C 519.875 283.636719 516.820312 283.246094 514.703125 284.882812 C 512.585938 286.523438 512.195312 289.578125 513.835938 291.695312 C 515.472656 293.808594 518.527344 294.199219 520.644531 292.558594 C 522.761719 290.917969 523.148438 287.863281 521.511719 285.75 Z M 514.792969 290.953125 C 513.5625 289.363281 513.855469 287.066406 515.445312 285.835938 C 517.035156 284.609375 519.328125 284.898438 520.558594 286.488281 C 521.789062 288.078125 521.496094 290.371094 519.910156 291.601562 C 518.316406 292.828125 516.023438 292.539062 514.792969 290.953125 Z M 514.792969 290.953125 " fill-opacity="1" fill-rule="nonzero"/></g></g></g></svg>