<svg xmlns="http://www.w3.org/2000/svg" xmlns:xlink="http://www.w3.org/1999/xlink" width="1366" zoomAndPan="magnify" viewBox="0 0 1024.5 576" height="768" preserveAspectRatio="xMidYMid meet" version="1.0"><defs><clipPath id="6b5fa8881b"><path d="M 383 267 L 596 267 L 596 388 L 383 388 Z M 383 267 " clip-rule="nonzero"/></clipPath><clipPath id="987bcf203c"><path d="M 447.945312 188.484375 L 596.292969 268.746094 L 532.082031 387.421875 L 383.734375 307.160156 Z M 447.945312 188.484375 " clip-rule="nonzero"/></clipPath><clipPath id="ea7aa4c87c"><path d="M 315.886719 117.035156 L 596.757812 268.996094 L 394.5 642.832031 L 113.628906 490.871094 Z M 315.886719 117.035156 " clip-rule="nonzero"/></clipPath></defs><g clip-path="url(#6b5fa8881b)"><g clip-path="url(#987bcf203c)"><g clip-path="url(#ea7aa4c87c)"><path fill="#6800db" d="M 127.476562 495.40625 C 127.253906 496.421875 126.257812 497.082031 125.234375 496.871094 C 124.214844 496.660156 123.558594 495.65625 123.765625 494.628906 C 123.894531 494.007812 124.023438 493.382812 124.15625 492.757812 C 124.359375 491.730469 125.375 491.078125 126.398438 491.289062 C 127.417969 491.5 128.074219 492.5 127.855469 493.519531 C 127.738281 494.15625 127.605469 494.78125 127.476562 495.40625 Z M 129.402344 486.003906 C 129.195312 487.03125 128.199219 487.691406 127.175781 487.480469 C 126.136719 487.261719 125.480469 486.261719 125.699219 485.242188 C 125.964844 483.992188 126.214844 482.730469 126.480469 481.472656 C 126.703125 480.453125 127.714844 479.804688 128.734375 480.019531 C 129.753906 480.234375 130.40625 481.242188 130.1875 482.261719 C 129.921875 483.511719 129.660156 484.761719 129.402344 486.003906 Z M 131.839844 474.8125 C 131.601562 475.828125 130.578125 476.460938 129.570312 476.222656 C 128.558594 475.992188 127.914062 474.964844 128.15625 473.949219 C 128.445312 472.6875 128.75 471.433594 129.070312 470.195312 C 129.328125 469.183594 130.347656 468.5625 131.363281 468.820312 C 132.382812 469.074219 133 470.105469 132.746094 471.117188 C 132.433594 472.339844 132.136719 473.578125 131.839844 474.8125 Z M 134.742188 463.800781 C 134.445312 464.804688 133.394531 465.375 132.382812 465.066406 C 131.386719 464.769531 130.820312 463.714844 131.117188 462.710938 C 131.503906 461.457031 131.886719 460.214844 132.296875 459 C 132.628906 458.007812 133.703125 457.472656 134.699219 457.808594 C 135.695312 458.144531 136.226562 459.21875 135.898438 460.210938 C 135.492188 461.382812 135.109375 462.582031 134.742188 463.800781 Z M 138.574219 453.203125 C 138.144531 454.152344 137.035156 454.59375 136.085938 454.179688 C 135.113281 453.753906 134.683594 452.640625 135.097656 451.683594 C 135.640625 450.457031 136.203125 449.265625 136.785156 448.109375 C 137.265625 447.183594 138.398438 446.808594 139.335938 447.289062 C 140.257812 447.761719 140.632812 448.90625 140.148438 449.832031 C 139.605469 450.917969 139.078125 452.042969 138.574219 453.203125 Z M 144.003906 443.589844 C 143.367188 444.421875 142.179688 444.589844 141.34375 443.957031 C 140.523438 443.339844 140.34375 442.144531 140.980469 441.3125 C 141.804688 440.203125 142.675781 439.167969 143.605469 438.214844 C 144.324219 437.457031 145.53125 437.441406 146.277344 438.160156 C 147.039062 438.890625 147.054688 440.085938 146.335938 440.839844 C 145.507812 441.683594 144.738281 442.609375 144.003906 443.589844 Z M 151.925781 436.578125 C 150.988281 437.054688 149.855469 436.703125 149.367188 435.777344 C 148.878906 434.847656 149.246094 433.707031 150.167969 433.222656 C 151.386719 432.574219 152.683594 432.046875 154.027344 431.628906 C 155.035156 431.328125 156.09375 431.890625 156.402344 432.890625 C 156.707031 433.890625 156.136719 434.945312 155.144531 435.253906 C 154.007812 435.59375 152.941406 436.039062 151.925781 436.578125 Z M 162.09375 434.398438 C 161.058594 434.367188 160.234375 433.484375 160.28125 432.445312 C 160.308594 431.394531 161.1875 430.578125 162.238281 430.617188 C 162.84375 430.640625 163.464844 430.679688 164.109375 430.75 C 164.503906 430.78125 165.246094 430.863281 166.230469 430.992188 C 167.253906 431.121094 167.996094 432.078125 167.851562 433.105469 C 167.726562 434.144531 166.773438 434.875 165.730469 434.738281 C 164.804688 434.617188 164.117188 434.550781 163.726562 434.511719 C 163.175781 434.460938 162.621094 434.417969 162.09375 434.398438 Z M 173.058594 436.121094 C 172.039062 435.867188 171.417969 434.839844 171.675781 433.828125 C 171.933594 432.816406 172.953125 432.195312 173.972656 432.449219 C 175.191406 432.753906 176.46875 433.105469 177.773438 433.515625 C 178.765625 433.824219 179.324219 434.890625 179.011719 435.886719 C 178.699219 436.882812 177.632812 437.4375 176.644531 437.128906 C 175.410156 436.742188 174.207031 436.410156 173.058594 436.121094 Z M 183.511719 439.824219 C 182.578125 439.371094 182.179688 438.238281 182.628906 437.292969 C 183.09375 436.359375 184.21875 435.960938 185.167969 436.417969 C 186.347656 436.988281 187.535156 437.625 188.6875 438.320312 C 189.589844 438.863281 189.871094 440.019531 189.34375 440.921875 C 188.800781 441.8125 187.632812 442.101562 186.742188 441.566406 C 185.683594 440.929688 184.609375 440.355469 183.511719 439.824219 Z M 192.5 445.929688 C 191.738281 445.199219 191.726562 444.003906 192.445312 443.25 C 193.179688 442.503906 194.371094 442.476562 195.128906 443.210938 C 196.109375 444.152344 197.027344 445.164062 197.867188 446.242188 C 198.515625 447.066406 198.371094 448.253906 197.546875 448.898438 C 196.722656 449.542969 195.539062 449.402344 194.890625 448.578125 C 194.144531 447.628906 193.339844 446.746094 192.5 445.929688 Z M 198.378906 454.734375 C 198 453.753906 198.503906 452.664062 199.472656 452.289062 C 200.457031 451.925781 201.550781 452.417969 201.914062 453.390625 C 202.363281 454.582031 202.757812 455.84375 203.054688 457.164062 L 203.078125 457.3125 C 203.308594 458.332031 202.675781 459.351562 201.660156 459.582031 C 200.632812 459.808594 199.628906 459.175781 199.394531 458.15625 L 199.359375 457.996094 C 199.09375 456.847656 198.769531 455.765625 198.378906 454.734375 Z M 201.464844 465.714844 C 201.152344 464.726562 201.691406 463.65625 202.691406 463.332031 C 203.671875 463.003906 204.742188 463.546875 205.074219 464.542969 C 205.46875 465.757812 205.886719 466.929688 206.332031 468.058594 C 206.695312 469.027344 206.222656 470.128906 205.253906 470.507812 C 204.265625 470.878906 203.167969 470.394531 202.800781 469.429688 C 202.332031 468.234375 201.886719 466.996094 201.464844 465.714844 Z M 206.125 476.609375 C 205.613281 475.6875 205.945312 474.535156 206.875 474.042969 C 207.789062 473.535156 208.929688 473.867188 209.445312 474.789062 C 210.042969 475.894531 210.671875 476.949219 211.332031 477.945312 C 211.910156 478.824219 211.667969 479.996094 210.78125 480.5625 C 209.914062 481.140625 208.742188 480.898438 208.164062 480.019531 C 207.464844 478.949219 206.777344 477.808594 206.125 476.609375 Z M 213.175781 486.300781 C 212.441406 485.550781 212.453125 484.347656 213.199219 483.617188 C 213.945312 482.886719 215.152344 482.910156 215.886719 483.65625 C 216.75 484.542969 217.632812 485.351562 218.539062 486.085938 C 219.359375 486.746094 219.480469 487.933594 218.832031 488.75 C 218.167969 489.558594 216.980469 489.6875 216.160156 489.027344 C 215.140625 488.203125 214.144531 487.292969 213.175781 486.300781 Z M 223.144531 493.265625 C 222.1875 492.859375 221.734375 491.746094 222.148438 490.789062 C 222.566406 489.828125 223.675781 489.378906 224.632812 489.785156 C 225.742188 490.257812 226.859375 490.632812 227.988281 490.914062 C 228.992188 491.164062 229.609375 492.195312 229.351562 493.207031 C 229.109375 494.226562 228.074219 494.839844 227.058594 494.582031 C 225.75 494.253906 224.4375 493.816406 223.144531 493.265625 Z M 235.289062 495.25 C 234.25 495.339844 233.328125 494.5625 233.25 493.523438 C 233.152344 492.480469 233.9375 491.566406 234.976562 491.480469 C 236.144531 491.378906 237.304688 491.183594 238.453125 490.898438 C 239.457031 490.640625 240.488281 491.257812 240.742188 492.273438 C 241 493.285156 240.382812 494.316406 239.375 494.570312 C 238.035156 494.910156 236.671875 495.140625 235.289062 495.25 Z M 246.941406 491.394531 C 246.050781 491.9375 244.882812 491.648438 244.335938 490.75 C 243.804688 489.859375 244.085938 488.695312 244.976562 488.152344 C 245.988281 487.546875 246.960938 486.855469 247.90625 486.097656 C 248.714844 485.441406 249.921875 485.578125 250.578125 486.390625 C 251.234375 487.203125 251.105469 488.398438 250.277344 489.046875 C 249.207031 489.917969 248.082031 490.695312 246.941406 491.394531 Z M 255.921875 483.230469 C 255.289062 484.0625 254.105469 484.222656 253.273438 483.585938 C 252.441406 482.945312 252.296875 481.761719 252.929688 480.933594 C 253.648438 479.988281 254.335938 478.988281 254.96875 477.929688 C 255.515625 477.039062 256.679688 476.757812 257.582031 477.304688 C 258.464844 477.84375 258.746094 479.007812 258.199219 479.898438 C 257.5 481.082031 256.734375 482.1875 255.921875 483.230469 Z M 261.691406 472.679688 C 261.328125 473.660156 260.234375 474.15625 259.253906 473.792969 C 258.289062 473.433594 257.785156 472.34375 258.152344 471.363281 C 258.574219 470.238281 258.9375 469.066406 259.277344 467.867188 C 259.554688 466.859375 260.597656 466.265625 261.605469 466.546875 C 262.609375 466.828125 263.199219 467.871094 262.925781 468.878906 C 262.566406 470.191406 262.148438 471.457031 261.691406 472.679688 Z M 264.441406 461.070312 C 264.332031 462.113281 263.375 462.851562 262.34375 462.730469 C 261.3125 462.613281 260.566406 461.667969 260.691406 460.632812 C 260.828125 459.429688 260.933594 458.203125 260.992188 456.945312 C 261.042969 455.898438 261.917969 455.085938 262.964844 455.136719 C 264.011719 455.1875 264.8125 456.070312 264.761719 457.117188 C 264.710938 458.46875 264.597656 459.785156 264.441406 461.070312 Z M 264.636719 449.21875 C 264.714844 450.257812 263.933594 451.167969 262.894531 451.253906 C 261.859375 451.335938 260.9375 450.554688 260.859375 449.515625 C 260.773438 448.304688 260.636719 447.0625 260.46875 445.808594 C 260.328125 444.773438 261.050781 443.816406 262.078125 443.671875 C 263.125 443.539062 264.074219 444.261719 264.214844 445.300781 C 264.386719 446.621094 264.527344 447.929688 264.636719 449.21875 Z M 262.765625 437.59375 C 263 438.613281 262.367188 439.632812 261.351562 439.867188 C 260.320312 440.09375 259.300781 439.457031 259.066406 438.4375 C 258.785156 437.160156 258.5 435.894531 258.238281 434.660156 C 258.027344 433.636719 258.675781 432.628906 259.699219 432.417969 C 260.722656 432.203125 261.730469 432.863281 261.941406 433.882812 C 262.199219 435.09375 262.476562 436.335938 262.765625 437.59375 Z M 260.5625 426.433594 C 260.726562 427.464844 260.015625 428.433594 258.996094 428.605469 C 257.957031 428.765625 256.988281 428.070312 256.824219 427.039062 C 256.605469 425.722656 256.414062 424.4375 256.242188 423.1875 C 256.101562 422.152344 256.839844 421.207031 257.867188 421.0625 C 258.914062 420.929688 259.863281 421.652344 260.003906 422.691406 C 260.15625 423.898438 260.347656 425.152344 260.5625 426.433594 Z M 259.230469 415.183594 C 259.304688 416.230469 258.511719 417.125 257.480469 417.199219 C 256.429688 417.265625 255.535156 416.476562 255.460938 415.433594 C 255.367188 414.078125 255.324219 412.785156 255.285156 411.515625 C 255.273438 410.476562 256.09375 409.605469 257.136719 409.582031 C 258.183594 409.5625 259.054688 410.394531 259.070312 411.433594 C 259.097656 412.644531 259.160156 413.898438 259.230469 415.183594 Z M 259.316406 403.992188 C 259.210938 405.027344 258.296875 405.796875 257.253906 405.703125 C 256.210938 405.605469 255.449219 404.683594 255.539062 403.640625 C 255.667969 402.261719 255.839844 400.949219 256.046875 399.691406 C 256.226562 398.667969 257.203125 397.972656 258.226562 398.140625 C 259.265625 398.320312 259.957031 399.296875 259.789062 400.332031 C 259.59375 401.496094 259.429688 402.710938 259.316406 403.992188 Z M 261.683594 393.316406 C 261.300781 394.289062 260.195312 394.765625 259.226562 394.382812 C 258.257812 394 257.777344 392.898438 258.160156 391.925781 C 258.691406 390.597656 259.277344 389.367188 259.929688 388.230469 C 260.445312 387.320312 261.589844 386.996094 262.507812 387.515625 C 263.40625 388.03125 263.730469 389.1875 263.21875 390.097656 C 262.660156 391.09375 262.144531 392.164062 261.683594 393.316406 Z M 267.632812 384.6875 C 266.835938 385.363281 265.644531 385.273438 264.957031 384.480469 C 264.269531 383.683594 264.359375 382.488281 265.160156 381.8125 C 266.230469 380.898438 267.351562 380.089844 268.554688 379.394531 C 269.445312 378.855469 270.605469 379.15625 271.148438 380.0625 C 271.671875 380.960938 271.375 382.125 270.46875 382.652344 C 269.46875 383.238281 268.523438 383.917969 267.632812 384.6875 Z M 277.0625 380.050781 C 276.042969 380.292969 275.015625 379.667969 274.777344 378.65625 C 274.527344 377.636719 275.160156 376.617188 276.179688 376.375 C 277.464844 376.0625 278.792969 375.820312 280.148438 375.648438 C 281.1875 375.515625 282.136719 376.246094 282.257812 377.28125 C 282.398438 378.316406 281.660156 379.265625 280.632812 379.402344 C 279.414062 379.558594 278.226562 379.773438 277.0625 380.050781 Z M 287.996094 379.082031 C 286.941406 379.046875 286.128906 378.179688 286.160156 377.136719 C 286.1875 376.09375 287.046875 375.261719 288.101562 375.296875 C 289.40625 375.335938 290.710938 375.40625 292.03125 375.519531 C 293.078125 375.609375 293.84375 376.523438 293.757812 377.5625 C 293.667969 378.605469 292.753906 379.378906 291.707031 379.289062 C 290.460938 379.183594 289.222656 379.113281 287.996094 379.082031 Z M 299.171875 380.234375 C 298.144531 380.066406 297.453125 379.097656 297.617188 378.066406 C 297.78125 377.03125 298.761719 376.335938 299.785156 376.5 C 301.074219 376.710938 302.339844 376.933594 303.609375 377.179688 C 304.640625 377.378906 305.304688 378.363281 305.121094 379.394531 C 304.917969 380.417969 303.929688 381.09375 302.902344 380.898438 C 301.664062 380.664062 300.421875 380.4375 299.171875 380.234375 Z M 310.359375 382.464844 C 309.328125 382.230469 308.695312 381.222656 308.917969 380.199219 C 309.140625 379.179688 310.167969 378.542969 311.179688 378.769531 C 312.453125 379.054688 313.703125 379.335938 314.933594 379.621094 C 315.945312 379.851562 316.574219 380.863281 316.351562 381.882812 C 316.113281 382.898438 315.105469 383.542969 314.078125 383.304688 C 312.863281 383.027344 311.628906 382.75 310.359375 382.464844 Z M 321.632812 384.957031 C 320.605469 384.753906 319.945312 383.761719 320.148438 382.738281 C 320.351562 381.710938 321.335938 381.039062 322.359375 381.242188 C 323.667969 381.503906 324.90625 381.726562 326.039062 381.886719 C 327.074219 382.039062 327.792969 383 327.644531 384.035156 C 327.5 385.070312 326.535156 385.785156 325.5 385.632812 C 324.292969 385.460938 323.007812 385.234375 321.632812 384.957031 Z M 333.980469 385.308594 C 333.003906 385.664062 331.921875 385.144531 331.566406 384.15625 C 331.230469 383.175781 331.734375 382.089844 332.730469 381.742188 C 333.902344 381.332031 335.019531 380.871094 336.082031 380.355469 C 337.011719 379.898438 338.140625 380.292969 338.601562 381.238281 C 339.0625 382.179688 338.65625 383.308594 337.710938 383.757812 C 336.535156 384.332031 335.300781 384.855469 333.980469 385.308594 Z M 344.546875 379.414062 C 343.75 380.078125 342.554688 379.960938 341.882812 379.144531 C 341.222656 378.339844 341.351562 377.148438 342.160156 376.488281 C 343.097656 375.714844 343.976562 374.894531 344.8125 374.03125 C 345.546875 373.289062 346.75 373.273438 347.496094 374 C 348.238281 374.722656 348.269531 375.929688 347.535156 376.675781 C 346.601562 377.640625 345.609375 378.554688 344.546875 379.414062 Z M 352.515625 370.375 C 351.9375 371.25 350.769531 371.5 349.898438 370.933594 C 349.007812 370.363281 348.773438 369.195312 349.332031 368.316406 C 349.992188 367.285156 350.625 366.230469 351.210938 365.144531 C 351.710938 364.226562 352.863281 363.886719 353.773438 364.378906 C 354.699219 364.882812 355.03125 366.027344 354.535156 366.945312 C 353.898438 368.121094 353.21875 369.261719 352.515625 370.375 Z M 357.863281 359.800781 C 357.480469 360.773438 356.363281 361.234375 355.394531 360.847656 C 354.429688 360.457031 353.96875 359.359375 354.351562 358.386719 C 354.8125 357.226562 355.261719 356.058594 355.675781 354.867188 C 356.039062 353.890625 357.125 353.375 358.09375 353.722656 C 359.082031 354.074219 359.609375 355.164062 359.246094 356.140625 C 358.804688 357.375 358.347656 358.597656 357.863281 359.800781 Z M 361.664062 348.769531 C 361.351562 349.761719 360.300781 350.332031 359.289062 350.023438 C 358.296875 349.722656 357.730469 348.667969 358.023438 347.664062 C 358.394531 346.445312 358.761719 345.230469 359.113281 344.007812 C 359.410156 343.007812 360.464844 342.433594 361.464844 342.722656 C 362.464844 343.011719 363.050781 344.066406 362.753906 345.070312 C 362.398438 346.304688 362.023438 347.53125 361.664062 348.769531 Z M 364.878906 337.707031 C 364.585938 338.707031 363.53125 339.28125 362.535156 338.984375 C 361.535156 338.691406 360.953125 337.632812 361.265625 336.636719 C 361.628906 335.390625 362.007812 334.15625 362.378906 332.933594 C 362.691406 331.933594 363.757812 331.382812 364.761719 331.699219 C 365.75 332.007812 366.308594 333.074219 365.996094 334.074219 C 365.617188 335.269531 365.25 336.484375 364.878906 337.707031 Z M 368.46875 326.949219 C 368.085938 327.917969 366.980469 328.398438 366.011719 328.015625 C 365.039062 327.636719 364.558594 326.539062 364.941406 325.566406 C 365.425781 324.324219 365.9375 323.113281 366.46875 321.9375 C 366.902344 320.984375 368.035156 320.570312 368.980469 321 C 369.941406 321.441406 370.347656 322.558594 369.914062 323.511719 C 369.414062 324.628906 368.921875 325.769531 368.46875 326.949219 Z M 373.484375 317.101562 C 372.894531 317.964844 371.707031 318.179688 370.847656 317.589844 C 369.988281 317 369.761719 315.816406 370.351562 314.953125 C 371.128906 313.824219 371.957031 312.75 372.847656 311.75 C 373.542969 310.964844 374.738281 310.890625 375.523438 311.582031 C 376.304688 312.273438 376.382812 313.46875 375.6875 314.253906 C 374.898438 315.144531 374.171875 316.097656 373.484375 317.101562 Z M 381.089844 309.691406 C 380.195312 310.234375 379.03125 309.945312 378.5 309.058594 C 377.953125 308.160156 378.230469 306.992188 379.125 306.449219 C 380.285156 305.757812 381.511719 305.132812 382.828125 304.609375 C 383.785156 304.210938 384.894531 304.679688 385.296875 305.652344 C 385.683594 306.617188 385.214844 307.71875 384.253906 308.117188 C 383.125 308.566406 382.074219 309.09375 381.089844 309.691406 Z M 391.210938 306.375 C 390.179688 306.519531 389.230469 305.796875 389.085938 304.761719 C 388.945312 303.726562 389.667969 302.769531 390.695312 302.625 C 392.035156 302.445312 393.347656 302.308594 394.652344 302.226562 C 395.683594 302.152344 396.597656 302.949219 396.65625 303.984375 C 396.730469 305.03125 395.933594 305.929688 394.902344 306.003906 C 393.683594 306.082031 392.457031 306.207031 391.210938 306.375 Z M 402.289062 306.054688 C 401.242188 305.964844 400.457031 305.050781 400.542969 304.011719 C 400.632812 302.96875 401.546875 302.195312 402.578125 302.273438 C 403.921875 302.386719 405.242188 302.542969 406.539062 302.746094 C 407.566406 302.90625 408.28125 303.878906 408.117188 304.910156 C 407.949219 305.9375 406.988281 306.648438 405.957031 306.488281 C 404.742188 306.296875 403.519531 306.148438 402.289062 306.054688 Z M 413.15625 308.152344 C 412.164062 307.847656 411.601562 306.789062 411.898438 305.785156 C 412.207031 304.789062 413.257812 304.222656 414.269531 304.53125 C 415.527344 304.917969 416.78125 305.347656 418.015625 305.816406 C 418.992188 306.1875 419.476562 307.277344 419.113281 308.257812 C 418.730469 309.230469 417.636719 309.71875 416.660156 309.351562 C 415.511719 308.914062 414.34375 308.515625 413.15625 308.152344 Z M 423.457031 312.402344 C 422.539062 311.925781 422.167969 310.78125 422.648438 309.851562 C 423.128906 308.925781 424.277344 308.5625 425.195312 309.039062 C 426.355469 309.644531 427.5 310.277344 428.648438 310.945312 C 429.542969 311.464844 429.847656 312.625 429.316406 313.523438 C 428.804688 314.433594 427.648438 314.742188 426.734375 314.210938 C 425.652344 313.578125 424.570312 312.980469 423.457031 312.402344 Z M 433.054688 318.265625 C 432.199219 317.671875 431.988281 316.488281 432.597656 315.636719 C 433.1875 314.773438 434.371094 314.570312 435.226562 315.167969 C 436.289062 315.910156 437.34375 316.675781 438.386719 317.457031 C 439.226562 318.085938 439.386719 319.269531 438.769531 320.109375 C 438.132812 320.941406 436.945312 321.109375 436.109375 320.484375 C 435.113281 319.730469 434.085938 318.988281 433.054688 318.265625 Z M 442.035156 325.1875 C 441.238281 324.523438 441.136719 323.332031 441.800781 322.527344 C 442.464844 321.722656 443.671875 321.621094 444.46875 322.289062 C 445.449219 323.113281 446.441406 323.953125 447.410156 324.796875 C 448.195312 325.484375 448.289062 326.683594 447.597656 327.46875 C 446.917969 328.261719 445.71875 328.34375 444.929688 327.660156 C 443.976562 326.828125 443.015625 326.007812 442.035156 325.1875 Z M 450.609375 332.742188 C 449.835938 332.035156 449.785156 330.835938 450.488281 330.066406 C 451.195312 329.292969 452.398438 329.246094 453.171875 329.953125 C 454.109375 330.816406 455.058594 331.695312 455.996094 332.5625 C 456.765625 333.277344 456.800781 334.472656 456.09375 335.242188 C 455.375 336 454.175781 336.042969 453.421875 335.335938 C 452.484375 334.46875 451.546875 333.601562 450.609375 332.742188 Z M 459.019531 340.570312 C 458.25 339.855469 458.214844 338.65625 458.917969 337.890625 C 459.640625 337.132812 460.839844 337.089844 461.609375 337.804688 C 462.539062 338.679688 463.476562 339.546875 464.398438 340.402344 C 465.171875 341.109375 465.222656 342.3125 464.515625 343.082031 C 463.796875 343.84375 462.609375 343.898438 461.835938 343.1875 C 460.898438 342.320312 459.964844 341.453125 459.019531 340.570312 Z M 467.570312 348.355469 C 466.785156 347.667969 466.710938 346.476562 467.386719 345.683594 C 468.078125 344.898438 469.277344 344.820312 470.0625 345.507812 C 471.015625 346.34375 471.992188 347.171875 472.945312 347.972656 C 473.738281 348.640625 473.855469 349.839844 473.175781 350.636719 C 472.515625 351.441406 471.320312 351.546875 470.523438 350.878906 C 469.542969 350.058594 468.554688 349.214844 467.570312 348.355469 Z M 476.640625 355.6875 C 475.8125 355.082031 475.609375 353.886719 476.230469 353.046875 C 476.851562 352.207031 478.027344 352.015625 478.875 352.628906 C 479.894531 353.375 480.933594 354.09375 481.953125 354.765625 C 482.820312 355.335938 483.070312 356.515625 482.496094 357.386719 C 481.921875 358.257812 480.738281 358.496094 479.871094 357.925781 C 478.789062 357.214844 477.722656 356.472656 476.640625 355.6875 Z M 486.75 361.863281 C 485.796875 361.40625 485.414062 360.277344 485.863281 359.335938 C 486.3125 358.390625 487.453125 358 488.386719 358.449219 C 489.503906 358.988281 490.625 359.472656 491.753906 359.902344 C 492.734375 360.269531 493.234375 361.367188 492.855469 362.339844 C 492.488281 363.316406 491.394531 363.8125 490.417969 363.441406 C 489.183594 362.976562 487.960938 362.449219 486.75 361.863281 Z M 498.238281 365.476562 C 497.203125 365.332031 496.480469 364.375 496.628906 363.339844 C 496.757812 362.300781 497.726562 361.582031 498.761719 361.726562 C 499.933594 361.886719 501.125 361.980469 502.335938 361.992188 C 503.382812 362.007812 504.21875 362.863281 504.210938 363.910156 C 504.203125 364.957031 503.339844 365.792969 502.292969 365.777344 C 500.933594 365.769531 499.570312 365.65625 498.238281 365.476562 Z M 510.367188 364.828125 C 509.363281 365.082031 508.335938 364.460938 508.078125 363.445312 C 507.824219 362.429688 508.441406 361.402344 509.460938 361.15625 C 510.605469 360.875 511.75 360.515625 512.914062 360.082031 C 513.894531 359.71875 514.988281 360.222656 515.347656 361.199219 C 515.722656 362.183594 515.214844 363.273438 514.234375 363.636719 C 512.9375 364.121094 511.648438 364.519531 510.367188 364.828125 Z M 521.417969 360.289062 C 520.503906 360.789062 519.351562 360.4375 518.859375 359.519531 C 518.363281 358.597656 518.714844 357.453125 519.625 356.953125 C 520.722656 356.375 521.804688 355.753906 522.898438 355.109375 C 523.785156 354.570312 524.949219 354.863281 525.480469 355.757812 C 526.023438 356.660156 525.726562 357.820312 524.835938 358.359375 C 523.6875 359.03125 522.550781 359.675781 521.417969 360.289062 Z M 531.382812 354.085938 C 530.523438 354.683594 529.347656 354.488281 528.738281 353.628906 C 528.125 352.773438 528.332031 351.59375 529.191406 350.996094 C 530.203125 350.273438 531.222656 349.53125 532.222656 348.757812 C 533.058594 348.128906 534.25 348.289062 534.875 349.117188 C 535.519531 349.957031 535.351562 351.140625 534.515625 351.773438 C 533.46875 352.5625 532.429688 353.339844 531.382812 354.085938 Z M 540.574219 346.875 C 539.773438 347.554688 538.582031 347.464844 537.894531 346.671875 C 537.207031 345.875 537.296875 344.679688 538.097656 344.003906 C 539.039062 343.183594 539.984375 342.347656 540.941406 341.5 C 541.710938 340.796875 542.902344 340.851562 543.601562 341.621094 C 544.3125 342.402344 544.246094 343.597656 543.472656 344.296875 C 542.503906 345.175781 541.542969 346.035156 540.574219 346.875 Z M 549.097656 338.945312 C 548.347656 339.679688 547.152344 339.679688 546.414062 338.941406 C 545.675781 338.203125 545.683594 337.007812 546.417969 336.265625 C 547.308594 335.378906 548.191406 334.472656 549.078125 333.558594 C 549.796875 332.804688 550.992188 332.773438 551.753906 333.5 C 552.5 334.21875 552.53125 335.421875 551.8125 336.179688 C 550.914062 337.117188 550.003906 338.035156 549.097656 338.945312 Z M 557.050781 330.46875 C 556.359375 331.253906 555.160156 331.328125 554.378906 330.636719 C 553.59375 329.945312 553.519531 328.75 554.210938 327.964844 C 555.035156 327.015625 555.863281 326.054688 556.695312 325.09375 C 557.375 324.296875 558.566406 324.195312 559.355469 324.871094 C 560.164062 325.550781 560.261719 326.746094 559.585938 327.542969 C 558.742188 328.527344 557.902344 329.507812 557.050781 330.46875 Z M 564.480469 321.550781 C 563.832031 322.367188 562.640625 322.507812 561.828125 321.867188 C 561.003906 321.21875 560.863281 320.027344 561.511719 319.207031 C 562.296875 318.214844 563.066406 317.210938 563.839844 316.203125 C 564.457031 315.363281 565.660156 315.207031 566.492188 315.84375 C 567.3125 316.46875 567.476562 317.65625 566.839844 318.484375 C 566.070312 319.523438 565.273438 320.539062 564.480469 321.550781 Z M 571.429688 312.257812 C 570.824219 313.109375 569.640625 313.308594 568.789062 312.707031 C 567.9375 312.105469 567.730469 310.917969 568.335938 310.066406 C 569.0625 309.03125 569.789062 307.992188 570.503906 306.941406 C 571.09375 306.078125 572.285156 305.863281 573.140625 306.453125 C 574.003906 307.042969 574.230469 308.226562 573.640625 309.085938 C 572.902344 310.144531 572.164062 311.203125 571.429688 312.257812 Z M 577.894531 302.632812 C 577.335938 303.515625 576.164062 303.773438 575.289062 303.214844 C 574.398438 302.644531 574.140625 301.476562 574.703125 300.59375 C 575.382812 299.523438 576.066406 298.453125 576.714844 297.367188 C 577.277344 296.484375 578.4375 296.207031 579.324219 296.75 C 580.222656 297.300781 580.5 298.46875 579.957031 299.359375 C 579.28125 300.453125 578.589844 301.542969 577.894531 302.632812 Z M 583.886719 292.703125 C 583.375 293.613281 582.214844 293.925781 581.3125 293.414062 C 580.398438 292.890625 580.09375 291.738281 580.605469 290.828125 C 581.242188 289.726562 581.863281 288.621094 582.460938 287.507812 C 582.960938 286.589844 584.113281 286.257812 585.035156 286.761719 C 585.945312 287.261719 586.289062 288.417969 585.777344 289.328125 C 585.164062 290.457031 584.535156 291.582031 583.886719 292.703125 Z M 589.394531 282.488281 C 588.910156 283.417969 587.777344 283.792969 586.835938 283.320312 C 585.910156 282.851562 585.535156 281.714844 586 280.777344 C 586.574219 279.640625 587.144531 278.507812 587.679688 277.367188 C 588.144531 276.433594 589.269531 276.035156 590.222656 276.492188 C 591.15625 276.941406 591.554688 278.074219 591.105469 279.019531 C 590.542969 280.171875 589.976562 281.332031 589.394531 282.488281 Z M 594.320312 271.972656 C 593.902344 272.929688 592.796875 273.375 591.839844 272.960938 C 590.871094 272.539062 590.441406 271.425781 590.855469 270.46875 C 591.109375 269.886719 591.363281 269.304688 591.59375 268.71875 C 592.011719 267.761719 593.121094 267.3125 594.082031 267.714844 C 595.039062 268.121094 595.492188 269.230469 595.09375 270.199219 C 594.835938 270.785156 594.578125 271.378906 594.320312 271.972656 Z M 594.320312 271.972656 " fill-opacity="1" fill-rule="evenodd"/></g></g></g></svg>