<svg xmlns="http://www.w3.org/2000/svg" xmlns:xlink="http://www.w3.org/1999/xlink" width="1366" zoomAndPan="magnify" viewBox="0 0 1024.5 576" height="768" preserveAspectRatio="xMidYMid meet" version="1.0"><defs><clipPath id="069fa19c11"><path d="M 386 291 L 597 291 L 597 417 L 386 417 Z M 386 291 " clip-rule="nonzero"/></clipPath><clipPath id="5860f9ff02"><path d="M 465.273438 209.023438 L 597.582031 292.933594 L 519.292969 416.378906 L 386.984375 332.472656 Z M 465.273438 209.023438 " clip-rule="nonzero"/></clipPath><clipPath id="50116221a3"><path d="M 328.453125 122.257812 L 598.136719 293.285156 L 370.5 652.230469 L 100.816406 481.203125 Z M 328.453125 122.257812 " clip-rule="nonzero"/></clipPath><clipPath id="f53626b22f"><path d="M 566.667969 312.628906 L 585.414062 312.628906 L 585.414062 331.375 L 566.667969 331.375 Z M 566.667969 312.628906 " clip-rule="nonzero"/></clipPath><clipPath id="a8fc0cce56"><path d="M 576.042969 312.628906 C 570.867188 312.628906 566.667969 316.828125 566.667969 322.003906 C 566.667969 327.179688 570.867188 331.375 576.042969 331.375 C 581.21875 331.375 585.414062 327.179688 585.414062 322.003906 C 585.414062 316.828125 581.21875 312.628906 576.042969 312.628906 Z M 576.042969 312.628906 " clip-rule="nonzero"/></clipPath><clipPath id="a50fd92b73"><path d="M 0.667969 0.628906 L 19.414062 0.628906 L 19.414062 19.375 L 0.667969 19.375 Z M 0.667969 0.628906 " clip-rule="nonzero"/></clipPath><clipPath id="9c38700e01"><path d="M 10.042969 0.628906 C 4.867188 0.628906 0.667969 4.828125 0.667969 10.003906 C 0.667969 15.179688 4.867188 19.375 10.042969 19.375 C 15.21875 19.375 19.414062 15.179688 19.414062 10.003906 C 19.414062 4.828125 15.21875 0.628906 10.042969 0.628906 Z M 10.042969 0.628906 " clip-rule="nonzero"/></clipPath><clipPath id="4cdd1a86f4"><rect x="0" width="20" y="0" height="20"/></clipPath></defs><g clip-path="url(#069fa19c11)"><g clip-path="url(#5860f9ff02)"><g clip-path="url(#50116221a3)"><path fill="#faf8ff" d="M 114.316406 486.683594 C 114.027344 487.683594 112.984375 488.273438 111.980469 487.992188 C 110.976562 487.710938 110.390625 486.664062 110.667969 485.652344 C 110.839844 485.042969 111.011719 484.429688 111.1875 483.8125 C 111.464844 482.800781 112.519531 482.222656 113.523438 482.503906 C 114.53125 482.785156 115.117188 483.828125 114.828125 484.828125 C 114.664062 485.453125 114.488281 486.070312 114.316406 486.683594 Z M 116.886719 477.441406 C 116.609375 478.449219 115.570312 479.039062 114.566406 478.757812 C 113.546875 478.46875 112.960938 477.425781 113.25 476.425781 C 113.597656 475.195312 113.933594 473.953125 114.289062 472.71875 C 114.578125 471.714844 115.632812 471.136719 116.636719 471.425781 C 117.636719 471.710938 118.21875 472.757812 117.929688 473.761719 C 117.578125 474.992188 117.230469 476.21875 116.886719 477.441406 Z M 120.09375 466.445312 C 119.785156 467.441406 118.722656 468 117.730469 467.695312 C 116.738281 467.390625 116.167969 466.324219 116.480469 465.328125 C 116.855469 464.089844 117.246094 462.859375 117.652344 461.644531 C 117.980469 460.652344 119.039062 460.105469 120.035156 460.429688 C 121.03125 460.757812 121.578125 461.828125 121.253906 462.820312 C 120.859375 464.019531 120.476562 465.230469 120.09375 466.445312 Z M 123.75 455.660156 C 123.386719 456.640625 122.296875 457.132812 121.308594 456.757812 C 120.335938 456.394531 119.847656 455.300781 120.210938 454.320312 C 120.683594 453.097656 121.152344 451.882812 121.644531 450.699219 C 122.042969 449.730469 123.152344 449.273438 124.121094 449.675781 C 125.09375 450.082031 125.550781 451.191406 125.152344 452.15625 C 124.667969 453.300781 124.203125 454.46875 123.75 455.660156 Z M 128.308594 445.351562 C 127.8125 446.269531 126.675781 446.632812 125.757812 446.152344 C 124.820312 445.664062 124.464844 444.523438 124.945312 443.59375 C 125.570312 442.40625 126.214844 441.257812 126.875 440.148438 C 127.417969 439.257812 128.574219 438.960938 129.476562 439.503906 C 130.363281 440.039062 130.65625 441.207031 130.113281 442.097656 C 129.492188 443.144531 128.890625 444.230469 128.308594 445.351562 Z M 134.386719 436.136719 C 133.695312 436.921875 132.503906 437.007812 131.710938 436.320312 C 130.933594 435.644531 130.835938 434.441406 131.53125 433.65625 C 132.429688 432.605469 133.371094 431.632812 134.363281 430.746094 C 135.132812 430.042969 136.339844 430.109375 137.035156 430.878906 C 137.746094 431.660156 137.675781 432.851562 136.90625 433.558594 C 136.023438 434.339844 135.191406 435.207031 134.386719 436.136719 Z M 142.777344 429.691406 C 141.808594 430.101562 140.703125 429.671875 140.28125 428.710938 C 139.855469 427.75 140.300781 426.640625 141.257812 426.222656 C 142.515625 425.660156 143.847656 425.222656 145.214844 424.898438 C 146.242188 424.667969 147.261719 425.304688 147.496094 426.324219 C 147.734375 427.339844 147.089844 428.351562 146.078125 428.59375 C 144.921875 428.855469 143.828125 429.222656 142.777344 429.691406 Z M 153.070312 428.21875 C 152.039062 428.113281 151.28125 427.175781 151.398438 426.144531 C 151.5 425.097656 152.429688 424.34375 153.476562 424.457031 C 154.082031 424.523438 154.695312 424.605469 155.335938 424.71875 C 155.726562 424.777344 156.460938 424.910156 157.433594 425.105469 C 158.449219 425.304688 159.121094 426.3125 158.90625 427.328125 C 158.707031 428.355469 157.707031 429.019531 156.675781 428.808594 C 155.761719 428.625 155.078125 428.511719 154.691406 428.445312 C 154.148438 428.355469 153.597656 428.273438 153.070312 428.21875 Z M 163.890625 430.699219 C 162.890625 430.375 162.34375 429.304688 162.671875 428.3125 C 162.996094 427.324219 164.058594 426.773438 165.058594 427.097656 C 166.253906 427.484375 167.5 427.925781 168.777344 428.421875 C 169.742188 428.800781 170.226562 429.902344 169.847656 430.875 C 169.46875 431.847656 168.367188 432.328125 167.402344 431.949219 C 166.195312 431.476562 165.015625 431.0625 163.890625 430.699219 Z M 174.066406 435.113281 C 173.164062 434.597656 172.847656 433.441406 173.359375 432.527344 C 173.886719 431.628906 175.035156 431.308594 175.953125 431.832031 C 177.089844 432.480469 178.226562 433.195312 179.328125 433.96875 C 180.195312 434.574219 180.394531 435.75 179.808594 436.609375 C 179.199219 437.464844 178.015625 437.667969 177.167969 437.074219 C 176.152344 436.367188 175.125 435.71875 174.066406 435.113281 Z M 182.609375 441.828125 C 181.898438 441.046875 181.96875 439.851562 182.738281 439.148438 C 183.519531 438.453125 184.710938 438.511719 185.417969 439.292969 C 186.328125 440.300781 187.175781 441.375 187.941406 442.507812 C 188.53125 443.375 188.304688 444.550781 187.4375 445.140625 C 186.570312 445.722656 185.398438 445.5 184.808594 444.632812 C 184.128906 443.636719 183.390625 442.699219 182.609375 441.828125 Z M 187.863281 451.015625 C 187.550781 450.011719 188.132812 448.960938 189.121094 448.652344 C 190.128906 448.355469 191.1875 448.921875 191.484375 449.917969 C 191.851562 451.140625 192.152344 452.425781 192.359375 453.761719 L 192.371094 453.914062 C 192.535156 454.945312 191.832031 455.917969 190.804688 456.078125 C 189.757812 456.234375 188.804688 455.535156 188.640625 454.503906 L 188.617188 454.335938 C 188.429688 453.175781 188.179688 452.070312 187.863281 451.015625 Z M 190.183594 462.183594 C 189.9375 461.175781 190.550781 460.144531 191.570312 459.894531 C 192.574219 459.632812 193.601562 460.246094 193.863281 461.265625 C 194.175781 462.503906 194.511719 463.699219 194.875 464.859375 C 195.171875 465.847656 194.625 466.917969 193.628906 467.230469 C 192.621094 467.53125 191.554688 466.96875 191.257812 465.980469 C 190.871094 464.757812 190.515625 463.492188 190.183594 462.183594 Z M 194.078125 473.375 C 193.628906 472.421875 194.042969 471.292969 195.003906 470.863281 C 195.949219 470.425781 197.066406 470.835938 197.515625 471.789062 C 198.035156 472.933594 198.589844 474.027344 199.179688 475.070312 C 199.695312 475.984375 199.371094 477.136719 198.449219 477.640625 C 197.542969 478.15625 196.390625 477.835938 195.875 476.917969 C 195.25 475.800781 194.644531 474.617188 194.078125 473.375 Z M 200.4375 483.527344 C 199.761719 482.734375 199.855469 481.535156 200.648438 480.855469 C 201.445312 480.179688 202.648438 480.285156 203.328125 481.082031 C 204.128906 482.023438 204.953125 482.890625 205.804688 483.6875 C 206.578125 484.402344 206.617188 485.597656 205.914062 486.367188 C 205.195312 487.125 204 487.175781 203.230469 486.457031 C 202.269531 485.5625 201.335938 484.589844 200.4375 483.527344 Z M 209.902344 491.167969 C 208.976562 490.695312 208.601562 489.554688 209.082031 488.628906 C 209.5625 487.699219 210.703125 487.328125 211.628906 487.800781 C 212.703125 488.347656 213.792969 488.800781 214.898438 489.160156 C 215.882812 489.476562 216.429688 490.546875 216.101562 491.539062 C 215.789062 492.539062 214.714844 493.078125 213.71875 492.753906 C 212.433594 492.335938 211.15625 491.808594 209.902344 491.167969 Z M 221.882812 493.988281 C 220.839844 494.003906 219.972656 493.167969 219.964844 492.125 C 219.945312 491.078125 220.785156 490.222656 221.828125 490.207031 C 223.003906 490.1875 224.175781 490.070312 225.335938 489.867188 C 226.359375 489.679688 227.34375 490.367188 227.53125 491.394531 C 227.714844 492.425781 227.027344 493.40625 226.007812 493.59375 C 224.644531 493.839844 223.269531 493.972656 221.882812 493.988281 Z M 233.773438 490.949219 C 232.84375 491.425781 231.703125 491.058594 231.21875 490.125 C 230.75 489.203125 231.109375 488.058594 232.039062 487.578125 C 233.085938 487.042969 234.105469 486.421875 235.101562 485.730469 C 235.957031 485.132812 237.148438 485.351562 237.746094 486.207031 C 238.34375 487.066406 238.132812 488.246094 237.265625 488.835938 C 236.136719 489.632812 234.960938 490.332031 233.773438 490.949219 Z M 243.296875 483.425781 C 242.605469 484.210938 241.417969 484.289062 240.628906 483.59375 C 239.84375 482.902344 239.78125 481.710938 240.472656 480.929688 C 241.253906 480.035156 242.007812 479.085938 242.714844 478.074219 C 243.316406 477.222656 244.5 477.019531 245.363281 477.628906 C 246.207031 478.230469 246.40625 479.410156 245.800781 480.261719 C 245.019531 481.390625 244.179688 482.441406 243.296875 483.425781 Z M 249.785156 473.300781 C 249.351562 474.25 248.226562 474.671875 247.273438 474.238281 C 246.335938 473.816406 245.910156 472.691406 246.34375 471.738281 C 246.839844 470.648438 247.285156 469.503906 247.707031 468.332031 C 248.054688 467.34375 249.136719 466.828125 250.121094 467.175781 C 251.101562 467.523438 251.621094 468.605469 251.273438 469.59375 C 250.824219 470.878906 250.324219 472.109375 249.785156 473.300781 Z M 253.332031 461.90625 C 253.148438 462.941406 252.144531 463.609375 251.121094 463.421875 C 250.101562 463.230469 249.421875 462.238281 249.617188 461.214844 C 249.835938 460.019531 250.027344 458.804688 250.175781 457.554688 C 250.296875 456.515625 251.226562 455.761719 252.265625 455.886719 C 253.304688 456.007812 254.042969 456.945312 253.925781 457.984375 C 253.78125 459.332031 253.574219 460.636719 253.332031 461.90625 Z M 254.34375 450.097656 C 254.351562 451.140625 253.507812 451.992188 252.464844 452.007812 C 251.425781 452.019531 250.5625 451.175781 250.558594 450.132812 C 250.554688 448.917969 250.503906 447.671875 250.421875 446.410156 C 250.351562 445.363281 251.140625 444.460938 252.175781 444.390625 C 253.226562 444.328125 254.125 445.117188 254.195312 446.160156 C 254.273438 447.492188 254.324219 448.804688 254.34375 450.097656 Z M 253.28125 438.371094 C 253.445312 439.402344 252.742188 440.375 251.710938 440.542969 C 250.667969 440.695312 249.695312 439.988281 249.53125 438.957031 C 249.34375 437.664062 249.144531 436.382812 248.96875 435.128906 C 248.828125 434.097656 249.546875 433.136719 250.582031 432.996094 C 251.617188 432.851562 252.578125 433.578125 252.71875 434.613281 C 252.886719 435.839844 253.082031 437.09375 253.28125 438.371094 Z M 251.855469 427.085938 C 251.949219 428.125 251.175781 429.042969 250.140625 429.144531 C 249.09375 429.234375 248.179688 428.472656 248.085938 427.433594 C 247.960938 426.105469 247.855469 424.808594 247.773438 423.550781 C 247.703125 422.507812 248.503906 421.613281 249.539062 421.539062 C 250.589844 421.480469 251.488281 422.269531 251.558594 423.3125 C 251.625 424.53125 251.730469 425.792969 251.855469 427.085938 Z M 251.308594 415.769531 C 251.308594 416.820312 250.453125 417.660156 249.417969 417.660156 C 248.367188 417.65625 247.53125 416.804688 247.527344 415.757812 C 247.527344 414.402344 247.574219 413.105469 247.625 411.839844 C 247.683594 410.800781 248.5625 409.988281 249.605469 410.039062 C 250.648438 410.089844 251.460938 410.980469 251.40625 412.019531 C 251.347656 413.226562 251.324219 414.484375 251.308594 415.769531 Z M 252.164062 404.613281 C 251.988281 405.636719 251.023438 406.34375 249.992188 406.175781 C 248.957031 406.003906 248.261719 405.035156 248.421875 404 C 248.644531 402.632812 248.90625 401.335938 249.199219 400.097656 C 249.453125 399.085938 250.472656 398.460938 251.484375 398.699219 C 252.507812 398.949219 253.128906 399.972656 252.890625 400.992188 C 252.613281 402.140625 252.367188 403.34375 252.164062 404.613281 Z M 255.265625 394.128906 C 254.816406 395.070312 253.683594 395.46875 252.742188 395.019531 C 251.800781 394.570312 251.398438 393.4375 251.847656 392.492188 C 252.46875 391.207031 253.136719 390.019531 253.871094 388.929688 C 254.445312 388.058594 255.609375 387.8125 256.488281 388.398438 C 257.351562 388.96875 257.59375 390.148438 257.019531 391.023438 C 256.394531 391.976562 255.804688 393.003906 255.265625 394.128906 Z M 261.796875 385.925781 C 260.953125 386.546875 259.769531 386.375 259.140625 385.535156 C 258.511719 384.695312 258.6875 383.507812 259.53125 382.886719 C 260.664062 382.054688 261.835938 381.320312 263.085938 380.710938 C 264.007812 380.238281 265.144531 380.617188 265.625 381.558594 C 266.085938 382.492188 265.707031 383.628906 264.769531 384.09375 C 263.730469 384.613281 262.742188 385.222656 261.796875 385.925781 Z M 271.523438 381.957031 C 270.492188 382.128906 269.511719 381.433594 269.34375 380.40625 C 269.160156 379.371094 269.863281 378.398438 270.898438 378.226562 C 272.203125 378.003906 273.542969 377.855469 274.90625 377.777344 C 275.957031 377.71875 276.851562 378.511719 276.902344 379.550781 C 276.96875 380.597656 276.167969 381.488281 275.132812 381.558594 C 273.90625 381.625 272.703125 381.757812 271.523438 381.957031 Z M 282.5 381.746094 C 281.453125 381.636719 280.699219 380.71875 280.800781 379.679688 C 280.902344 378.636719 281.816406 377.871094 282.867188 377.976562 C 284.164062 378.105469 285.460938 378.269531 286.773438 378.472656 C 287.808594 378.632812 288.511719 379.597656 288.351562 380.628906 C 288.191406 381.660156 287.226562 382.371094 286.1875 382.207031 C 284.953125 382.019531 283.71875 381.859375 282.5 381.746094 Z M 293.566406 383.667969 C 292.554688 383.429688 291.933594 382.414062 292.167969 381.394531 C 292.40625 380.378906 293.429688 379.75 294.441406 379.984375 C 295.710938 380.285156 296.957031 380.59375 298.207031 380.929688 C 299.222656 381.195312 299.816406 382.226562 299.558594 383.242188 C 299.289062 384.25 298.257812 384.855469 297.246094 384.585938 C 296.027344 384.269531 294.804688 383.957031 293.566406 383.667969 Z M 304.574219 386.667969 C 303.5625 386.363281 303 385.316406 303.292969 384.308594 C 303.585938 383.304688 304.652344 382.742188 305.648438 383.039062 C 306.898438 383.410156 308.128906 383.777344 309.335938 384.148438 C 310.328125 384.445312 310.886719 385.5 310.59375 386.503906 C 310.285156 387.5 309.234375 388.070312 308.226562 387.761719 C 307.035156 387.402344 305.824219 387.039062 304.574219 386.667969 Z M 315.648438 389.933594 C 314.636719 389.660156 314.046875 388.625 314.320312 387.617188 C 314.59375 386.609375 315.625 386.003906 316.632812 386.277344 C 317.917969 386.628906 319.140625 386.9375 320.257812 387.175781 C 321.277344 387.398438 321.929688 388.40625 321.710938 389.429688 C 321.496094 390.453125 320.480469 391.097656 319.460938 390.878906 C 318.269531 390.617188 317.003906 390.304688 315.648438 389.933594 Z M 327.941406 391.140625 C 326.945312 391.425781 325.902344 390.832031 325.617188 389.820312 C 325.347656 388.820312 325.925781 387.769531 326.941406 387.496094 C 328.140625 387.164062 329.289062 386.78125 330.382812 386.34375 C 331.339844 385.949219 332.441406 386.421875 332.835938 387.394531 C 333.230469 388.371094 332.746094 389.46875 331.773438 389.851562 C 330.558594 390.339844 329.292969 390.777344 327.941406 391.140625 Z M 338.890625 385.988281 C 338.050781 386.597656 336.867188 386.394531 336.25 385.535156 C 335.652344 384.6875 335.859375 383.507812 336.714844 382.90625 C 337.699219 382.199219 338.632812 381.441406 339.53125 380.640625 C 340.3125 379.945312 341.515625 380.015625 342.207031 380.792969 C 342.898438 381.566406 342.847656 382.769531 342.0625 383.464844 C 341.0625 384.363281 340.011719 385.207031 338.890625 385.988281 Z M 347.464844 377.523438 C 346.832031 378.355469 345.648438 378.523438 344.816406 377.902344 C 343.96875 377.269531 343.8125 376.089844 344.433594 375.25 C 345.164062 374.265625 345.867188 373.257812 346.527344 372.214844 C 347.089844 371.332031 348.261719 371.074219 349.136719 371.628906 C 350.027344 372.195312 350.277344 373.359375 349.71875 374.242188 C 349.003906 375.371094 348.246094 376.460938 347.464844 377.523438 Z M 353.535156 367.34375 C 353.085938 368.289062 351.9375 368.671875 351 368.21875 C 350.0625 367.761719 349.679688 366.636719 350.128906 365.691406 C 350.667969 364.566406 351.195312 363.429688 351.695312 362.269531 C 352.125 361.320312 353.242188 360.882812 354.183594 361.296875 C 355.144531 361.714844 355.59375 362.839844 355.164062 363.789062 C 354.640625 364.988281 354.101562 366.175781 353.535156 367.34375 Z M 358.085938 356.601562 C 357.707031 357.570312 356.621094 358.066406 355.632812 357.6875 C 354.660156 357.320312 354.171875 356.226562 354.535156 355.246094 C 354.988281 354.058594 355.4375 352.871094 355.875 351.675781 C 356.238281 350.695312 357.328125 350.199219 358.304688 350.554688 C 359.285156 350.914062 359.796875 352.007812 359.433594 352.984375 C 358.992188 354.191406 358.53125 355.390625 358.085938 356.601562 Z M 362.0625 345.785156 C 361.699219 346.769531 360.609375 347.265625 359.632812 346.902344 C 358.660156 346.539062 358.148438 345.441406 358.527344 344.472656 C 358.980469 343.253906 359.441406 342.046875 359.898438 340.855469 C 360.277344 339.878906 361.378906 339.402344 362.359375 339.789062 C 363.324219 340.164062 363.808594 341.265625 363.429688 342.242188 C 362.96875 343.410156 362.515625 344.59375 362.0625 345.785156 Z M 366.386719 335.304688 C 365.9375 336.246094 364.800781 336.648438 363.859375 336.199219 C 362.917969 335.753906 362.515625 334.625 362.960938 333.679688 C 363.53125 332.476562 364.125 331.304688 364.738281 330.164062 C 365.238281 329.246094 366.394531 328.910156 367.308594 329.40625 C 368.234375 329.914062 368.5625 331.054688 368.066406 331.976562 C 367.492188 333.054688 366.917969 334.160156 366.386719 335.304688 Z M 372.074219 325.828125 C 371.425781 326.648438 370.222656 326.777344 369.40625 326.132812 C 368.589844 325.484375 368.445312 324.289062 369.09375 323.46875 C 369.949219 322.394531 370.847656 321.382812 371.808594 320.445312 C 372.554688 319.710938 373.753906 319.71875 374.484375 320.460938 C 375.21875 321.207031 375.210938 322.40625 374.464844 323.140625 C 373.617188 323.972656 372.828125 324.875 372.074219 325.828125 Z M 380.167969 318.964844 C 379.242188 319.441406 378.097656 319.074219 377.628906 318.152344 C 377.144531 317.21875 377.507812 316.070312 378.433594 315.59375 C 379.640625 314.980469 380.90625 314.445312 382.257812 314.011719 C 383.242188 313.679688 384.316406 314.226562 384.648438 315.226562 C 384.96875 316.214844 384.421875 317.28125 383.4375 317.609375 C 382.277344 317.980469 381.191406 318.433594 380.167969 318.964844 Z M 390.496094 316.351562 C 389.460938 316.425781 388.558594 315.640625 388.488281 314.597656 C 388.421875 313.554688 389.207031 312.652344 390.246094 312.578125 C 391.589844 312.488281 392.910156 312.445312 394.214844 312.453125 C 395.25 312.453125 396.105469 313.308594 396.09375 314.34375 C 396.09375 315.394531 395.238281 316.234375 394.203125 316.238281 C 392.984375 316.230469 391.753906 316.273438 390.496094 316.351562 Z M 401.574219 316.800781 C 400.535156 316.640625 399.8125 315.671875 399.972656 314.640625 C 400.132812 313.609375 401.097656 312.898438 402.121094 313.046875 C 403.457031 313.253906 404.761719 313.503906 406.039062 313.796875 C 407.054688 314.023438 407.699219 315.042969 407.464844 316.0625 C 407.226562 317.078125 406.21875 317.71875 405.203125 317.488281 C 404 317.210938 402.792969 316.980469 401.574219 316.800781 Z M 412.269531 319.644531 C 411.300781 319.273438 410.8125 318.175781 411.175781 317.195312 C 411.554688 316.222656 412.640625 315.730469 413.628906 316.109375 C 414.855469 316.582031 416.078125 317.097656 417.277344 317.652344 C 418.222656 318.089844 418.632812 319.210938 418.203125 320.160156 C 417.753906 321.105469 416.628906 321.519531 415.679688 321.082031 C 414.566406 320.570312 413.429688 320.089844 412.269531 319.644531 Z M 422.25 324.597656 C 421.367188 324.058594 421.074219 322.890625 421.621094 322 C 422.164062 321.105469 423.332031 320.824219 424.214844 321.363281 C 425.332031 322.046875 426.429688 322.757812 427.527344 323.503906 C 428.386719 324.085938 428.609375 325.261719 428.019531 326.121094 C 427.445312 326.996094 426.269531 327.21875 425.394531 326.628906 C 424.359375 325.921875 423.320312 325.253906 422.25 324.597656 Z M 431.417969 331.113281 C 430.605469 330.457031 430.480469 329.265625 431.144531 328.457031 C 431.789062 327.636719 432.988281 327.515625 433.796875 328.171875 C 434.808594 328.984375 435.808594 329.820312 436.792969 330.675781 C 437.585938 331.359375 437.667969 332.550781 436.992188 333.347656 C 436.300781 334.132812 435.105469 334.21875 434.3125 333.535156 C 433.367188 332.714844 432.398438 331.90625 431.417969 331.113281 Z M 439.898438 338.640625 C 439.148438 337.917969 439.132812 336.726562 439.847656 335.96875 C 440.566406 335.210938 441.777344 335.195312 442.527344 335.914062 C 443.449219 336.804688 444.378906 337.710938 445.285156 338.621094 C 446.023438 339.359375 446.035156 340.5625 445.289062 341.296875 C 444.558594 342.042969 443.355469 342.039062 442.617188 341.304688 C 441.722656 340.410156 440.820312 339.523438 439.898438 338.640625 Z M 447.929688 346.765625 C 447.207031 346.007812 447.238281 344.808594 447.992188 344.089844 C 448.75 343.367188 449.957031 343.402344 450.679688 344.164062 C 451.554688 345.089844 452.441406 346.027344 453.316406 346.960938 C 454.035156 347.726562 453.988281 348.921875 453.230469 349.640625 C 452.457031 350.347656 451.257812 350.304688 450.554688 349.550781 C 449.679688 348.621094 448.808594 347.691406 447.929688 346.765625 Z M 455.777344 355.15625 C 455.058594 354.390625 455.105469 353.195312 455.863281 352.476562 C 456.632812 351.769531 457.832031 351.8125 458.550781 352.578125 C 459.421875 353.515625 460.292969 354.445312 461.152344 355.363281 C 461.875 356.125 461.84375 357.324219 461.089844 358.042969 C 460.316406 358.753906 459.128906 358.726562 458.40625 357.960938 C 457.53125 357.035156 456.660156 356.101562 455.777344 355.15625 Z M 463.769531 363.515625 C 463.035156 362.777344 463.042969 361.582031 463.769531 360.835938 C 464.515625 360.101562 465.71875 360.105469 466.453125 360.847656 C 467.347656 361.746094 468.261719 362.644531 469.15625 363.503906 C 469.90625 364.226562 469.9375 365.429688 469.203125 366.179688 C 468.488281 366.9375 467.289062 366.960938 466.539062 366.238281 C 465.617188 365.355469 464.691406 364.441406 463.769531 363.515625 Z M 472.3125 371.457031 C 471.527344 370.796875 471.40625 369.589844 472.085938 368.792969 C 472.761719 368 473.949219 367.890625 474.75 368.5625 C 475.71875 369.375 476.703125 370.164062 477.675781 370.90625 C 478.5 371.535156 478.667969 372.730469 478.035156 373.558594 C 477.402344 374.390625 476.203125 374.546875 475.378906 373.914062 C 474.347656 373.132812 473.335938 372.316406 472.3125 371.457031 Z M 481.96875 378.316406 C 481.050781 377.796875 480.746094 376.644531 481.257812 375.734375 C 481.773438 374.824219 482.9375 374.515625 483.839844 375.027344 C 484.914062 375.640625 486 376.203125 487.097656 376.707031 C 488.046875 377.144531 488.472656 378.273438 488.023438 379.214844 C 487.59375 380.167969 486.46875 380.582031 485.519531 380.148438 C 484.320312 379.597656 483.136719 378.984375 481.96875 378.316406 Z M 493.179688 382.71875 C 492.15625 382.503906 491.503906 381.496094 491.722656 380.476562 C 491.921875 379.445312 492.9375 378.796875 493.960938 379.015625 C 495.121094 379.257812 496.300781 379.429688 497.507812 379.527344 C 498.550781 379.613281 499.328125 380.527344 499.246094 381.566406 C 499.167969 382.613281 498.246094 383.386719 497.203125 383.300781 C 495.847656 383.195312 494.496094 382.992188 493.179688 382.71875 Z M 505.324219 382.910156 C 504.304688 383.09375 503.320312 382.40625 503.136719 381.371094 C 502.953125 380.339844 503.640625 379.359375 504.675781 379.183594 C 505.835938 378.984375 507.003906 378.703125 508.195312 378.351562 C 509.199219 378.058594 510.25 378.632812 510.542969 379.632812 C 510.847656 380.644531 510.269531 381.695312 509.265625 381.988281 C 507.9375 382.382812 506.625 382.691406 505.324219 382.910156 Z M 516.660156 379.144531 C 515.71875 379.582031 514.589844 379.152344 514.164062 378.203125 C 513.734375 377.25 514.164062 376.132812 515.105469 375.695312 C 516.242188 375.195312 517.363281 374.648438 518.496094 374.082031 C 519.421875 373.605469 520.5625 373.980469 521.027344 374.90625 C 521.507812 375.84375 521.132812 376.980469 520.207031 377.457031 C 519.015625 378.046875 517.835938 378.613281 516.660156 379.144531 Z M 527.035156 373.648438 C 526.132812 374.1875 524.976562 373.90625 524.425781 373.011719 C 523.875 372.113281 524.160156 370.953125 525.0625 370.414062 C 526.121094 369.761719 527.1875 369.09375 528.238281 368.390625 C 529.117188 367.820312 530.292969 368.066406 530.859375 368.933594 C 531.445312 369.8125 531.195312 370.984375 530.316406 371.554688 C 529.21875 372.273438 528.128906 372.972656 527.035156 373.648438 Z M 536.699219 367.089844 C 535.855469 367.710938 534.671875 367.542969 534.042969 366.699219 C 533.414062 365.859375 533.585938 364.671875 534.429688 364.054688 C 535.425781 363.300781 536.425781 362.53125 537.4375 361.753906 C 538.257812 361.105469 539.441406 361.242188 540.082031 362.058594 C 540.742188 362.886719 540.59375 364.074219 539.773438 364.71875 C 538.746094 365.527344 537.726562 366.320312 536.699219 367.089844 Z M 545.753906 359.769531 C 544.953125 360.449219 543.761719 360.367188 543.074219 359.582031 C 542.390625 358.792969 542.480469 357.601562 543.261719 356.910156 C 544.214844 356.085938 545.15625 355.246094 546.105469 354.394531 C 546.875 353.691406 548.070312 353.742188 548.777344 354.523438 C 549.476562 355.289062 549.421875 356.492188 548.652344 357.195312 C 547.691406 358.070312 546.71875 358.925781 545.753906 359.769531 Z M 554.273438 351.863281 C 553.527344 352.597656 552.328125 352.589844 551.59375 351.84375 C 550.863281 351.101562 550.871094 349.902344 551.613281 349.171875 C 552.503906 348.277344 553.394531 347.378906 554.292969 346.476562 C 555.023438 345.730469 556.21875 345.710938 556.960938 346.4375 C 557.722656 347.175781 557.734375 348.371094 557.003906 349.121094 C 556.09375 350.042969 555.1875 350.960938 554.273438 351.863281 Z M 562.300781 343.480469 C 561.597656 344.25 560.398438 344.308594 559.632812 343.613281 C 558.855469 342.910156 558.796875 341.710938 559.5 340.9375 C 560.351562 340.003906 561.191406 339.054688 562.03125 338.101562 C 562.707031 337.308594 563.917969 337.234375 564.707031 337.925781 C 565.476562 338.605469 565.558594 339.800781 564.867188 340.585938 C 564.03125 341.566406 563.164062 342.523438 562.300781 343.480469 Z M 569.875 334.691406 C 569.214844 335.5 568.019531 335.617188 567.210938 334.957031 C 566.402344 334.296875 566.28125 333.097656 566.945312 332.292969 C 567.738281 331.304688 568.539062 330.320312 569.320312 329.324219 C 569.96875 328.503906 571.171875 328.371094 571.988281 329.019531 C 572.804688 329.664062 572.949219 330.859375 572.300781 331.679688 C 571.492188 332.683594 570.683594 333.6875 569.875 334.691406 Z M 576.992188 325.535156 C 576.375 326.375 575.1875 326.554688 574.351562 325.933594 C 573.503906 325.308594 573.328125 324.125 573.949219 323.28125 C 574.703125 322.261719 575.457031 321.242188 576.179688 320.203125 C 576.800781 319.359375 577.980469 319.164062 578.824219 319.765625 C 579.683594 320.378906 579.878906 321.5625 579.273438 322.414062 C 578.527344 323.460938 577.761719 324.496094 576.992188 325.535156 Z M 583.660156 316.042969 C 583.085938 316.917969 581.902344 317.148438 581.042969 316.574219 C 580.164062 315.988281 579.9375 314.820312 580.511719 313.949219 C 581.226562 312.894531 581.917969 311.832031 582.597656 310.765625 C 583.15625 309.882812 584.328125 309.628906 585.214844 310.199219 C 586.085938 310.757812 586.351562 311.9375 585.773438 312.808594 C 585.085938 313.894531 584.382812 314.972656 583.660156 316.042969 Z M 589.855469 306.238281 C 589.3125 307.128906 588.15625 307.425781 587.25 306.886719 C 586.359375 306.359375 586.0625 305.195312 586.589844 304.292969 C 587.242188 303.199219 587.890625 302.109375 588.503906 301.007812 C 589.03125 300.109375 590.179688 299.789062 591.097656 300.3125 C 592 300.824219 592.316406 301.984375 591.804688 302.894531 C 591.164062 304.003906 590.519531 305.121094 589.855469 306.238281 Z M 595.5 296.085938 C 595.019531 297.011719 593.882812 297.378906 592.960938 296.898438 C 592.019531 296.410156 591.667969 295.273438 592.148438 294.34375 C 592.441406 293.78125 592.734375 293.21875 593.007812 292.652344 C 593.488281 291.726562 594.628906 291.351562 595.554688 291.820312 C 596.484375 292.292969 596.859375 293.433594 596.394531 294.367188 C 596.097656 294.9375 595.796875 295.511719 595.5 296.085938 Z M 595.5 296.085938 " fill-opacity="1" fill-rule="evenodd"/></g></g></g><g clip-path="url(#f53626b22f)"><g clip-path="url(#a8fc0cce56)"><g transform="matrix(1, 0, 0, 1, 566, 312)"><g clip-path="url(#4cdd1a86f4)"><g clip-path="url(#a50fd92b73)"><g clip-path="url(#9c38700e01)"><path fill="#ffffff" d="M 0.667969 0.628906 L 19.414062 0.628906 L 19.414062 19.375 L 0.667969 19.375 Z M 0.667969 0.628906 " fill-opacity="1" fill-rule="nonzero"/></g></g></g></g></g></g></svg>