<svg xmlns="http://www.w3.org/2000/svg" xmlns:xlink="http://www.w3.org/1999/xlink" width="1366" zoomAndPan="magnify" viewBox="0 0 1024.5 576" height="768" preserveAspectRatio="xMidYMid meet" version="1.0"><defs><clipPath id="af221e5f51"><path d="M 359 118 L 646 118 L 646 410 L 359 410 Z M 359 118 " clip-rule="nonzero"/></clipPath><clipPath id="8a461efc35"><path d="M 359.117188 290.484375 L 493.332031 118.515625 L 645.796875 237.511719 L 511.582031 409.480469 Z M 359.117188 290.484375 " clip-rule="nonzero"/></clipPath><clipPath id="e5207d50e7"><path d="M 0.105469 171 L 287 171 L 287 289 L 0.105469 289 Z M 0.105469 171 " clip-rule="nonzero"/></clipPath><clipPath id="a40f2ba043"><path d="M 0.117188 172.484375 L 134.332031 0.515625 L 286.796875 119.511719 L 152.582031 291.480469 Z M 0.117188 172.484375 " clip-rule="nonzero"/></clipPath><clipPath id="d140231f93"><path d="M 134.179688 0.710938 L -0.0351562 172.679688 L 152.429688 291.671875 L 286.644531 119.707031 Z M 134.179688 0.710938 " clip-rule="nonzero"/></clipPath><clipPath id="3add7f1593"><path d="M 98.183594 -27.382812 L -98.296875 224.363281 L 236.773438 485.875 L 433.253906 234.128906 Z M 98.183594 -27.382812 " clip-rule="nonzero"/></clipPath><clipPath id="e9ae55a683"><rect x="0" width="287" y="0" height="292"/></clipPath><clipPath id="5180f8da6e"><path d="M 576.144531 309.917969 L 594.890625 309.917969 L 594.890625 328.660156 L 576.144531 328.660156 Z M 576.144531 309.917969 " clip-rule="nonzero"/></clipPath><clipPath id="a7d353e52f"><path d="M 585.519531 309.917969 C 580.34375 309.917969 576.144531 314.113281 576.144531 319.289062 C 576.144531 324.464844 580.34375 328.660156 585.519531 328.660156 C 590.695312 328.660156 594.890625 324.464844 594.890625 319.289062 C 594.890625 314.113281 590.695312 309.917969 585.519531 309.917969 Z M 585.519531 309.917969 " clip-rule="nonzero"/></clipPath><clipPath id="672b9f47d4"><path d="M 0.144531 0.917969 L 18.890625 0.917969 L 18.890625 19.660156 L 0.144531 19.660156 Z M 0.144531 0.917969 " clip-rule="nonzero"/></clipPath><clipPath id="dba51f4e49"><path d="M 9.519531 0.917969 C 4.34375 0.917969 0.144531 5.113281 0.144531 10.289062 C 0.144531 15.464844 4.34375 19.660156 9.519531 19.660156 C 14.695312 19.660156 18.890625 15.464844 18.890625 10.289062 C 18.890625 5.113281 14.695312 0.917969 9.519531 0.917969 Z M 9.519531 0.917969 " clip-rule="nonzero"/></clipPath><clipPath id="e7e6419f85"><rect x="0" width="19" y="0" height="20"/></clipPath></defs><g clip-path="url(#af221e5f51)"><g clip-path="url(#8a461efc35)"><g transform="matrix(1, 0, 0, 1, 359, 118)"><g clip-path="url(#e9ae55a683)"><g clip-path="url(#e5207d50e7)"><g clip-path="url(#a40f2ba043)"><g clip-path="url(#d140231f93)"><g clip-path="url(#3add7f1593)"><path fill="#6800db" d="M 422.382812 243.828125 C 422.992188 244.671875 424.171875 244.878906 425.023438 244.273438 C 425.871094 243.671875 426.070312 242.488281 425.472656 241.628906 C 425.105469 241.113281 424.734375 240.59375 424.363281 240.074219 C 423.765625 239.214844 422.574219 239.023438 421.722656 239.625 C 420.871094 240.226562 420.667969 241.40625 421.277344 242.25 C 421.640625 242.789062 422.011719 243.308594 422.382812 243.828125 Z M 416.855469 235.988281 C 417.453125 236.847656 418.632812 237.050781 419.484375 236.449219 C 420.347656 235.832031 420.546875 234.652344 419.9375 233.804688 C 419.195312 232.765625 418.460938 231.710938 417.714844 230.664062 C 417.101562 229.820312 415.914062 229.628906 415.066406 230.234375 C 414.21875 230.839844 414.023438 232.027344 414.632812 232.871094 C 415.378906 233.914062 416.117188 234.949219 416.855469 235.988281 Z M 410.132812 226.707031 C 410.761719 227.542969 411.953125 227.710938 412.78125 227.09375 C 413.613281 226.472656 413.792969 225.277344 413.164062 224.441406 C 412.394531 223.402344 411.613281 222.375 410.820312 221.367188 C 410.179688 220.542969 409 220.382812 408.167969 221.027344 C 407.339844 221.667969 407.1875 222.863281 407.828125 223.6875 C 408.601562 224.683594 409.367188 225.695312 410.132812 226.707031 Z M 403.066406 217.78125 C 403.738281 218.582031 404.929688 218.683594 405.734375 217.996094 C 406.527344 217.324219 406.621094 216.132812 405.949219 215.328125 C 405.09375 214.335938 404.242188 213.351562 403.378906 212.402344 C 402.679688 211.625 401.484375 211.566406 400.703125 212.273438 C 399.925781 212.980469 399.867188 214.179688 400.566406 214.953125 C 401.410156 215.867188 402.242188 216.8125 403.066406 217.78125 Z M 395.308594 209.605469 C 396.082031 210.304688 397.273438 210.265625 397.980469 209.503906 C 398.699219 208.726562 398.648438 207.535156 397.882812 206.820312 C 396.894531 205.914062 395.902344 205.046875 394.90625 204.222656 C 394.097656 203.566406 392.910156 203.675781 392.242188 204.492188 C 391.585938 205.292969 391.703125 206.492188 392.515625 207.148438 C 393.449219 207.925781 394.382812 208.746094 395.308594 209.605469 Z M 386.484375 202.972656 C 387.398438 203.480469 388.550781 203.15625 389.066406 202.246094 C 389.570312 201.347656 389.257812 200.179688 388.339844 199.675781 C 387.140625 198.988281 385.925781 198.390625 384.695312 197.886719 C 383.734375 197.484375 382.617188 197.949219 382.222656 198.910156 C 381.816406 199.882812 382.285156 200.984375 383.246094 201.390625 C 384.339844 201.828125 385.414062 202.367188 386.484375 202.972656 Z M 376.414062 199.722656 C 377.464844 199.78125 378.363281 199.007812 378.4375 197.960938 C 378.515625 196.914062 377.722656 196.019531 376.679688 195.941406 C 375.304688 195.839844 373.90625 195.875 372.507812 196.027344 C 371.464844 196.15625 370.71875 197.097656 370.839844 198.136719 C 370.957031 199.175781 371.902344 199.914062 372.9375 199.796875 C 374.113281 199.65625 375.269531 199.636719 376.414062 199.722656 Z M 366.226562 201.796875 C 367.164062 201.351562 367.5625 200.214844 367.105469 199.28125 C 366.65625 198.328125 365.527344 197.933594 364.578125 198.390625 C 364.03125 198.65625 363.480469 198.941406 362.917969 199.261719 C 362.570312 199.449219 361.921875 199.820312 361.070312 200.332031 C 360.183594 200.859375 359.886719 202.035156 360.429688 202.921875 C 360.964844 203.820312 362.128906 204.109375 363.027344 203.566406 C 363.832031 203.085938 364.433594 202.75 364.777344 202.554688 C 365.257812 202.285156 365.75 202.023438 366.226562 201.796875 Z M 356.867188 207.769531 C 357.703125 207.128906 357.859375 205.9375 357.21875 205.113281 C 356.578125 204.292969 355.394531 204.128906 354.5625 204.769531 C 353.566406 205.539062 352.539062 206.371094 351.503906 207.269531 C 350.71875 207.949219 350.636719 209.148438 351.320312 209.9375 C 352.003906 210.726562 353.203125 210.808594 353.984375 210.128906 C 354.964844 209.277344 355.933594 208.492188 356.867188 207.769531 Z M 348.773438 215.347656 C 349.449219 214.5625 349.359375 213.363281 348.566406 212.675781 C 347.769531 212.007812 346.578125 212.089844 345.890625 212.894531 C 345.039062 213.886719 344.207031 214.945312 343.429688 216.042969 C 342.820312 216.902344 343.023438 218.074219 343.867188 218.6875 C 344.726562 219.289062 345.910156 219.085938 346.511719 218.238281 C 347.226562 217.230469 347.980469 216.273438 348.773438 215.347656 Z M 342.984375 224.542969 C 343.390625 223.570312 342.921875 222.46875 341.960938 222.066406 C 340.992188 221.675781 339.886719 222.128906 339.484375 223.105469 C 338.964844 224.359375 338.53125 225.652344 338.191406 226.980469 C 337.925781 227.996094 338.535156 229.027344 339.550781 229.285156 C 340.5625 229.546875 341.589844 228.941406 341.855469 227.929688 C 342.160156 226.757812 342.542969 225.628906 342.984375 224.542969 Z M 341.125 234.964844 C 341.082031 233.914062 340.179688 233.121094 339.144531 233.164062 C 338.097656 233.222656 337.289062 234.113281 337.347656 235.148438 C 337.410156 236.421875 337.558594 237.734375 337.8125 239.0625 L 337.855469 239.210938 C 338.046875 240.234375 339.035156 240.914062 340.058594 240.722656 C 341.09375 240.515625 341.757812 239.535156 341.5625 238.507812 L 341.53125 238.347656 C 341.316406 237.1875 341.179688 236.066406 341.125 234.964844 Z M 342.695312 246.261719 C 342.585938 245.230469 341.664062 244.464844 340.621094 244.570312 C 339.585938 244.664062 338.824219 245.589844 338.921875 246.632812 C 339.042969 247.90625 339.128906 249.144531 339.175781 250.359375 C 339.230469 251.390625 340.105469 252.214844 341.144531 252.171875 C 342.199219 252.117188 343.011719 251.230469 342.960938 250.199219 C 342.910156 248.917969 342.824219 247.605469 342.695312 246.261719 Z M 342.789062 258.113281 C 342.890625 257.0625 342.125 256.140625 341.074219 256.058594 C 340.035156 255.960938 339.121094 256.722656 339.019531 257.773438 C 338.914062 259.027344 338.757812 260.242188 338.554688 261.421875 C 338.375 262.457031 339.070312 263.4375 340.105469 263.601562 C 341.132812 263.78125 342.109375 263.089844 342.289062 262.054688 C 342.5 260.789062 342.671875 259.472656 342.789062 258.113281 Z M 340.210938 269.8125 C 340.585938 268.835938 340.09375 267.738281 339.117188 267.367188 C 338.140625 266.996094 337.039062 267.5 336.671875 268.480469 C 336.234375 269.636719 335.746094 270.730469 335.210938 271.765625 C 334.726562 272.699219 335.089844 273.835938 336.011719 274.324219 C 336.945312 274.800781 338.082031 274.445312 338.570312 273.511719 C 339.171875 272.34375 339.722656 271.113281 340.210938 269.8125 Z M 333.867188 280.191406 C 334.582031 279.433594 334.550781 278.234375 333.785156 277.523438 C 333.023438 276.808594 331.824219 276.84375 331.109375 277.597656 C 330.285156 278.476562 329.410156 279.269531 328.488281 279.976562 C 327.667969 280.605469 327.515625 281.796875 328.15625 282.621094 C 328.785156 283.460938 329.980469 283.609375 330.808594 282.964844 C 331.878906 282.140625 332.90625 281.210938 333.867188 280.191406 Z M 323.535156 286.875 C 324.523438 286.539062 325.054688 285.457031 324.714844 284.476562 C 324.382812 283.480469 323.300781 282.957031 322.3125 283.292969 C 321.203125 283.671875 320.058594 283.957031 318.894531 284.152344 C 317.871094 284.320312 317.171875 285.296875 317.34375 286.332031 C 317.515625 287.363281 318.492188 288.058594 319.519531 287.890625 C 320.882812 287.664062 322.222656 287.328125 323.535156 286.875 Z M 311.316406 288.007812 C 312.347656 288.148438 313.300781 287.417969 313.445312 286.375 C 313.574219 285.347656 312.851562 284.390625 311.816406 284.25 C 310.648438 284.101562 309.480469 283.855469 308.308594 283.542969 C 307.304688 283.265625 306.253906 283.871094 305.976562 284.878906 C 305.703125 285.890625 306.300781 286.929688 307.316406 287.191406 C 308.648438 287.5625 309.988281 287.828125 311.316406 288.007812 Z M 299.8125 284.128906 C 300.730469 284.632812 301.875 284.308594 302.382812 283.390625 C 302.890625 282.472656 302.550781 281.328125 301.636719 280.824219 C 300.597656 280.246094 299.570312 279.605469 298.566406 278.886719 C 297.710938 278.289062 296.527344 278.496094 295.921875 279.359375 C 295.328125 280.210938 295.539062 281.386719 296.394531 281.988281 C 297.507812 282.789062 298.652344 283.496094 299.8125 284.128906 Z M 290.300781 276.773438 C 291.027344 277.523438 292.230469 277.539062 292.980469 276.8125 C 293.722656 276.097656 293.746094 274.894531 293.019531 274.144531 C 292.183594 273.285156 291.378906 272.355469 290.585938 271.394531 C 289.929688 270.578125 288.734375 270.457031 287.925781 271.117188 C 287.117188 271.773438 286.992188 272.96875 287.652344 273.78125 C 288.507812 274.839844 289.394531 275.832031 290.300781 276.773438 Z M 283.132812 267.234375 C 283.648438 268.144531 284.820312 268.4375 285.71875 267.917969 C 286.617188 267.394531 286.925781 266.230469 286.394531 265.332031 C 285.789062 264.28125 285.199219 263.199219 284.636719 262.074219 C 284.175781 261.136719 283.046875 260.738281 282.109375 261.207031 C 281.171875 261.671875 280.789062 262.804688 281.253906 263.738281 C 281.84375 264.960938 282.472656 266.121094 283.132812 267.234375 Z M 278.207031 256.453125 C 278.550781 257.4375 279.632812 257.957031 280.617188 257.621094 C 281.597656 257.28125 282.128906 256.195312 281.785156 255.210938 C 281.378906 254.066406 281.007812 252.878906 280.660156 251.660156 C 280.375 250.652344 279.328125 250.066406 278.328125 250.347656 C 277.316406 250.640625 276.738281 251.6875 277.019531 252.695312 C 277.394531 253.976562 277.789062 255.230469 278.207031 256.453125 Z M 275.265625 245.054688 C 275.457031 246.078125 276.445312 246.757812 277.472656 246.566406 C 278.507812 246.363281 279.183594 245.371094 278.992188 244.34375 C 278.734375 243.058594 278.492188 241.789062 278.234375 240.550781 C 278.019531 239.53125 277.023438 238.867188 276 239.082031 C 274.972656 239.292969 274.316406 240.300781 274.53125 241.324219 C 274.78125 242.535156 275.023438 243.78125 275.265625 245.054688 Z M 272.8125 233.945312 C 273.074219 234.953125 274.113281 235.558594 275.117188 235.304688 C 276.132812 235.039062 276.742188 234.011719 276.480469 233.003906 C 276.152344 231.710938 275.8125 230.453125 275.46875 229.242188 C 275.183594 228.234375 274.128906 227.664062 273.128906 227.941406 C 272.117188 228.238281 271.539062 229.285156 271.824219 230.289062 C 272.171875 231.460938 272.496094 232.683594 272.8125 233.945312 Z M 269.523438 223.101562 C 269.875 224.089844 270.964844 224.59375 271.9375 224.25 C 272.925781 223.890625 273.429688 222.808594 273.078125 221.820312 C 272.625 220.542969 272.144531 219.339844 271.667969 218.160156 C 271.265625 217.203125 270.164062 216.734375 269.199219 217.132812 C 268.230469 217.53125 267.769531 218.644531 268.171875 219.601562 C 268.628906 220.722656 269.074219 221.898438 269.523438 223.101562 Z M 264.964844 212.882812 C 265.476562 213.789062 266.621094 214.128906 267.539062 213.625 C 268.453125 213.117188 268.78125 211.96875 268.28125 211.046875 C 267.613281 209.835938 266.929688 208.699219 266.238281 207.632812 C 265.660156 206.765625 264.488281 206.519531 263.617188 207.085938 C 262.738281 207.667969 262.496094 208.835938 263.066406 209.71875 C 263.710938 210.703125 264.347656 211.753906 264.964844 212.882812 Z M 258.519531 204.050781 C 259.257812 204.789062 260.460938 204.78125 261.195312 204.042969 C 261.933594 203.300781 261.929688 202.101562 261.1875 201.363281 C 260.171875 200.359375 259.140625 199.464844 258.085938 198.6875 C 257.25 198.058594 256.070312 198.222656 255.441406 199.066406 C 254.820312 199.894531 254.988281 201.085938 255.824219 201.714844 C 256.734375 202.402344 257.636719 203.175781 258.519531 204.050781 Z M 249.609375 198.523438 C 250.613281 198.824219 251.667969 198.265625 251.980469 197.261719 C 252.289062 196.261719 251.726562 195.199219 250.722656 194.898438 C 249.375 194.496094 248.023438 194.199219 246.644531 194.042969 C 245.617188 193.910156 244.671875 194.648438 244.539062 195.695312 C 244.417969 196.730469 245.15625 197.675781 246.195312 197.796875 C 247.347656 197.933594 248.484375 198.175781 249.609375 198.523438 Z M 239.113281 198.054688 C 240.144531 197.871094 240.832031 196.886719 240.648438 195.863281 C 240.472656 194.828125 239.484375 194.148438 238.449219 194.332031 C 237.148438 194.558594 235.832031 194.871094 234.523438 195.253906 C 233.515625 195.554688 232.941406 196.601562 233.242188 197.597656 C 233.527344 198.605469 234.585938 199.175781 235.582031 198.894531 C 236.761719 198.546875 237.9375 198.265625 239.113281 198.054688 Z M 228.707031 201.546875 C 229.65625 201.09375 230.054688 199.972656 229.613281 199.027344 C 229.167969 198.082031 228.046875 197.667969 227.09375 198.121094 C 225.914062 198.679688 224.75 199.265625 223.582031 199.898438 C 222.660156 200.402344 222.324219 201.542969 222.820312 202.460938 C 223.316406 203.382812 224.464844 203.722656 225.390625 203.222656 C 226.488281 202.628906 227.597656 202.066406 228.707031 201.546875 Z M 218.929688 207.078125 C 219.800781 206.515625 220.050781 205.347656 219.484375 204.46875 C 218.917969 203.589844 217.742188 203.339844 216.871094 203.902344 C 215.773438 204.617188 214.703125 205.324219 213.636719 206.058594 C 212.773438 206.652344 212.558594 207.820312 213.144531 208.691406 C 213.738281 209.546875 214.914062 209.773438 215.777344 209.179688 C 216.816406 208.46875 217.863281 207.769531 218.929688 207.078125 Z M 209.574219 213.605469 C 210.421875 212.976562 210.597656 211.800781 209.984375 210.953125 C 209.371094 210.105469 208.179688 209.933594 207.339844 210.546875 C 206.285156 211.316406 205.253906 212.078125 204.242188 212.832031 C 203.40625 213.445312 203.234375 214.625 203.847656 215.472656 C 204.472656 216.308594 205.65625 216.492188 206.5 215.863281 C 207.503906 215.121094 208.523438 214.375 209.574219 213.605469 Z M 200.242188 220.40625 C 201.101562 219.808594 201.308594 218.632812 200.710938 217.773438 C 200.117188 216.917969 198.945312 216.695312 198.085938 217.292969 C 196.992188 218.054688 195.945312 218.757812 194.972656 219.359375 C 194.085938 219.910156 193.8125 221.078125 194.363281 221.96875 C 194.910156 222.859375 196.082031 223.125 196.96875 222.574219 C 198.003906 221.929688 199.089844 221.210938 200.242188 220.40625 Z M 189.070312 225.671875 C 190.105469 225.605469 190.886719 224.699219 190.816406 223.648438 C 190.734375 222.617188 189.835938 221.824219 188.785156 221.90625 C 187.546875 221.996094 186.335938 222.019531 185.160156 221.976562 C 184.121094 221.929688 183.246094 222.742188 183.203125 223.792969 C 183.160156 224.839844 183.980469 225.714844 185.027344 225.746094 C 186.335938 225.800781 187.675781 225.785156 189.070312 225.671875 Z M 177.027344 224.503906 C 178.019531 224.796875 179.066406 224.207031 179.359375 223.191406 C 179.640625 222.1875 179.046875 221.148438 178.039062 220.867188 C 176.871094 220.535156 175.738281 220.132812 174.625 219.679688 C 173.65625 219.289062 172.546875 219.761719 172.152344 220.722656 C 171.761719 221.6875 172.21875 222.800781 173.191406 223.191406 C 174.433594 223.699219 175.707031 224.144531 177.027344 224.503906 Z M 166.105469 219.414062 C 166.980469 219.984375 168.152344 219.746094 168.726562 218.878906 C 169.308594 217.996094 169.0625 216.835938 168.195312 216.25 C 167.179688 215.574219 166.175781 214.859375 165.203125 214.097656 C 164.378906 213.457031 163.183594 213.609375 162.546875 214.425781 C 161.902344 215.257812 162.054688 216.4375 162.878906 217.082031 C 163.933594 217.902344 165.011719 218.675781 166.105469 219.414062 Z M 156.964844 211.867188 C 157.707031 212.605469 158.917969 212.582031 159.644531 211.839844 C 160.375 211.09375 160.359375 209.902344 159.617188 209.164062 C 158.730469 208.289062 157.851562 207.394531 156.992188 206.472656 C 156.269531 205.722656 155.070312 205.683594 154.320312 206.390625 C 153.554688 207.109375 153.511719 208.316406 154.234375 209.066406 C 155.132812 210.019531 156.039062 210.960938 156.964844 211.867188 Z M 149.066406 203.28125 C 149.75 204.066406 150.941406 204.167969 151.742188 203.480469 C 152.535156 202.804688 152.628906 201.613281 151.957031 200.8125 C 151.128906 199.84375 150.304688 198.878906 149.496094 197.898438 C 148.824219 197.097656 147.628906 196.996094 146.828125 197.660156 C 146.027344 198.328125 145.914062 199.527344 146.582031 200.328125 C 147.40625 201.316406 148.242188 202.292969 149.066406 203.28125 Z M 141.6875 194.433594 C 142.359375 195.234375 143.554688 195.335938 144.347656 194.667969 C 145.144531 193.996094 145.253906 192.792969 144.570312 192.007812 C 143.738281 191.011719 142.898438 190.03125 142.066406 189.058594 C 141.378906 188.269531 140.183594 188.1875 139.390625 188.882812 C 138.609375 189.5625 138.519531 190.761719 139.207031 191.554688 C 140.035156 192.5 140.859375 193.464844 141.6875 194.433594 Z M 134.089844 186.015625 C 134.828125 186.75 136.03125 186.746094 136.769531 186.007812 C 137.507812 185.273438 137.507812 184.074219 136.769531 183.335938 C 135.828125 182.390625 134.875 181.488281 133.914062 180.621094 C 133.136719 179.921875 131.929688 179.996094 131.238281 180.769531 C 130.535156 181.558594 130.609375 182.746094 131.386719 183.445312 C 132.292969 184.265625 133.203125 185.113281 134.089844 186.015625 Z M 125.546875 179.003906 C 126.433594 179.554688 127.609375 179.277344 128.160156 178.390625 C 128.710938 177.507812 128.445312 176.332031 127.558594 175.777344 C 126.394531 175.054688 125.207031 174.402344 123.988281 173.84375 C 123.039062 173.402344 121.910156 173.8125 121.472656 174.761719 C 121.03125 175.707031 121.441406 176.832031 122.390625 177.273438 C 123.472656 177.773438 124.515625 178.359375 125.546875 179.003906 Z M 115.613281 175.257812 C 116.648438 175.398438 117.601562 174.667969 117.734375 173.640625 C 117.875 172.597656 117.148438 171.640625 116.117188 171.5 C 114.773438 171.332031 113.402344 171.25 111.984375 171.296875 C 110.945312 171.316406 110.117188 172.191406 110.136719 173.246094 C 110.171875 174.285156 111.042969 175.105469 112.082031 175.082031 C 113.296875 175.042969 114.472656 175.105469 115.613281 175.257812 Z M 105.011719 176.273438 C 106.011719 175.992188 106.59375 174.949219 106.308594 173.945312 C 106.027344 172.9375 104.980469 172.351562 103.980469 172.632812 C 102.683594 173.003906 101.425781 173.40625 100.195312 173.851562 C 99.222656 174.199219 98.703125 175.292969 99.066406 176.265625 C 99.417969 177.253906 100.503906 177.757812 101.480469 177.414062 C 102.628906 176.992188 103.800781 176.621094 105.011719 176.273438 Z M 94.730469 180.417969 C 95.65625 179.917969 96.007812 178.765625 95.511719 177.847656 C 95.015625 176.929688 93.863281 176.585938 92.949219 177.070312 C 91.765625 177.710938 90.621094 178.386719 89.515625 179.089844 C 88.632812 179.648438 88.371094 180.824219 88.933594 181.703125 C 89.5 182.582031 90.664062 182.847656 91.542969 182.285156 C 92.582031 181.621094 93.640625 180.996094 94.730469 180.417969 Z M 85.613281 186.691406 C 86.402344 186.019531 86.492188 184.820312 85.820312 184.019531 C 85.136719 183.230469 83.945312 183.132812 83.144531 183.824219 C 82.148438 184.679688 81.167969 185.578125 80.226562 186.5 C 79.480469 187.230469 79.472656 188.421875 80.199219 189.175781 C 80.9375 189.914062 82.136719 189.925781 82.882812 189.195312 C 83.761719 188.335938 84.671875 187.503906 85.613281 186.691406 Z M 77.878906 194.714844 C 78.53125 193.910156 78.410156 192.710938 77.597656 192.054688 C 76.785156 191.398438 75.589844 191.523438 74.941406 192.332031 C 74.117188 193.347656 73.320312 194.386719 72.539062 195.457031 C 71.925781 196.292969 72.113281 197.476562 72.960938 198.089844 C 73.792969 198.71875 74.976562 198.535156 75.597656 197.683594 C 76.339844 196.671875 77.089844 195.691406 77.878906 194.714844 Z M 71.4375 203.929688 C 71.980469 203.042969 71.699219 201.875 70.800781 201.339844 C 69.914062 200.785156 68.746094 201.070312 68.203125 201.960938 C 67.527344 203.070312 66.867188 204.191406 66.226562 205.328125 C 65.707031 206.238281 66.03125 207.390625 66.9375 207.910156 C 67.851562 208.417969 69.007812 208.097656 69.523438 207.1875 C 70.136719 206.097656 70.777344 205.007812 71.4375 203.929688 Z M 65.980469 213.871094 C 66.445312 212.941406 66.058594 211.8125 65.128906 211.339844 C 64.199219 210.867188 63.050781 211.261719 62.585938 212.191406 C 62.019531 213.335938 61.449219 214.503906 60.898438 215.667969 C 60.453125 216.609375 60.847656 217.746094 61.796875 218.1875 C 62.734375 218.644531 63.867188 218.238281 64.316406 217.296875 C 64.855469 216.152344 65.410156 215.015625 65.980469 213.871094 Z M 61.148438 224.226562 C 61.574219 223.269531 61.140625 222.148438 60.1875 221.726562 C 59.230469 221.300781 58.109375 221.742188 57.683594 222.699219 C 57.171875 223.867188 56.648438 225.050781 56.140625 226.21875 C 55.722656 227.183594 56.167969 228.292969 57.121094 228.714844 C 58.085938 229.121094 59.203125 228.679688 59.613281 227.730469 C 60.121094 226.5625 60.632812 225.390625 61.148438 224.226562 Z M 56.578125 234.765625 C 56.996094 233.804688 56.550781 232.691406 55.597656 232.273438 C 54.632812 231.867188 53.515625 232.308594 53.097656 233.273438 C 52.59375 234.445312 52.085938 235.617188 51.582031 236.769531 C 51.160156 237.726562 51.59375 238.851562 52.546875 239.273438 C 53.511719 239.679688 54.621094 239.253906 55.042969 238.292969 C 55.554688 237.125 56.0625 235.957031 56.578125 234.765625 Z M 51.859375 245.328125 C 52.304688 244.382812 51.898438 243.257812 50.960938 242.804688 C 50.011719 242.363281 48.878906 242.773438 48.4375 243.714844 C 47.898438 244.863281 47.335938 246.015625 46.785156 247.128906 C 46.324219 248.058594 46.699219 249.203125 47.640625 249.664062 C 48.566406 250.132812 49.707031 249.753906 50.167969 248.824219 C 50.738281 247.679688 51.304688 246.507812 51.859375 245.328125 Z M 46.488281 255.675781 C 47.003906 254.789062 46.710938 253.617188 45.804688 253.09375 C 44.898438 252.574219 43.746094 252.867188 43.21875 253.769531 C 42.578125 254.863281 41.917969 255.9375 41.25 256.960938 C 40.683594 257.832031 40.925781 259.011719 41.804688 259.582031 C 42.679688 260.152344 43.859375 259.894531 44.425781 259.023438 C 45.132812 257.9375 45.808594 256.832031 46.488281 255.675781 Z M 39.699219 265.386719 C 40.386719 264.585938 40.289062 263.398438 39.5 262.714844 C 38.710938 262.03125 37.507812 262.128906 36.832031 262.917969 C 36.027344 263.855469 35.191406 264.746094 34.328125 265.59375 C 33.578125 266.324219 33.558594 267.527344 34.296875 268.265625 C 35.023438 269.019531 36.222656 269.03125 36.96875 268.300781 C 37.914062 267.378906 38.824219 266.40625 39.699219 265.386719 Z M 30.617188 273.300781 C 31.511719 272.753906 31.789062 271.585938 31.238281 270.699219 C 30.703125 269.796875 29.53125 269.523438 28.636719 270.074219 C 27.628906 270.691406 26.574219 271.25 25.46875 271.75 C 24.515625 272.179688 24.09375 273.300781 24.519531 274.257812 C 24.945312 275.210938 26.074219 275.632812 27.027344 275.199219 C 28.269531 274.648438 29.472656 274 30.617188 273.300781 Z M 19.25 277.5625 C 20.269531 277.394531 20.964844 276.414062 20.792969 275.378906 C 20.617188 274.347656 19.640625 273.652344 18.605469 273.835938 C 17.445312 274.039062 16.253906 274.167969 15.011719 274.234375 C 13.96875 274.296875 13.167969 275.195312 13.230469 276.234375 C 13.28125 277.289062 14.179688 278.082031 15.226562 278.019531 C 16.609375 277.945312 17.949219 277.792969 19.25 277.5625 Z M 7.304688 277.832031 C 8.339844 277.925781 9.257812 277.140625 9.339844 276.101562 C 9.425781 275.058594 8.644531 274.152344 7.609375 274.058594 C 6.371094 273.96875 5.132812 273.832031 3.875 273.679688 C 2.84375 273.542969 1.894531 274.277344 1.765625 275.308594 C 1.628906 276.351562 2.367188 277.292969 3.398438 277.433594 C 4.71875 277.585938 6.019531 277.726562 7.304688 277.832031 Z M -4.3125 276.140625 C -3.28125 276.34375 -2.285156 275.691406 -2.070312 274.664062 C -1.851562 273.632812 -2.511719 272.632812 -3.542969 272.429688 C -4.757812 272.171875 -5.988281 271.902344 -7.214844 271.59375 C -8.234375 271.351562 -9.257812 271.976562 -9.5 272.988281 C -9.753906 274.011719 -9.128906 275.03125 -8.109375 275.273438 C -6.832031 275.582031 -5.570312 275.875 -4.3125 276.140625 Z M -15.621094 273.214844 C -14.617188 273.515625 -13.558594 272.957031 -13.25 271.953125 C -12.9375 270.949219 -13.5 269.890625 -14.503906 269.589844 C -15.695312 269.214844 -16.894531 268.828125 -18.109375 268.4375 C -19.097656 268.101562 -20.167969 268.628906 -20.5 269.613281 C -20.839844 270.617188 -20.300781 271.683594 -19.3125 272.015625 C -18.074219 272.429688 -16.84375 272.835938 -15.621094 273.214844 Z M -26.609375 269.363281 C -25.628906 269.734375 -24.53125 269.257812 -24.152344 268.285156 C -23.769531 267.3125 -24.257812 266.21875 -25.222656 265.835938 C -26.398438 265.378906 -27.570312 264.902344 -28.746094 264.421875 C -29.710938 264.015625 -30.816406 264.46875 -31.222656 265.4375 C -31.621094 266.398438 -31.167969 267.511719 -30.207031 267.914062 C -29.003906 268.414062 -27.800781 268.894531 -26.609375 269.363281 Z M -37.289062 264.78125 C -36.34375 265.222656 -35.214844 264.8125 -34.773438 263.867188 C -34.332031 262.917969 -34.746094 261.792969 -35.691406 261.351562 C -36.828125 260.8125 -37.972656 260.265625 -39.121094 259.714844 C -40.058594 259.257812 -41.191406 259.640625 -41.648438 260.578125 C -42.113281 261.527344 -41.722656 262.660156 -40.785156 263.117188 C -39.617188 263.679688 -38.457031 264.242188 -37.289062 264.78125 Z M -47.671875 259.585938 C -46.746094 260.074219 -45.597656 259.726562 -45.113281 258.816406 C -44.617188 257.890625 -44.964844 256.742188 -45.886719 256.253906 C -47.003906 255.65625 -48.113281 255.046875 -49.226562 254.429688 C -50.128906 253.910156 -51.292969 254.25 -51.800781 255.164062 C -52.300781 256.0625 -51.972656 257.21875 -51.058594 257.722656 C -49.941406 258.367188 -48.804688 258.976562 -47.671875 259.585938 Z M -57.757812 253.855469 C -56.863281 254.394531 -55.699219 254.105469 -55.160156 253.210938 C -54.621094 252.316406 -54.90625 251.148438 -55.804688 250.609375 C -56.886719 249.949219 -57.96875 249.289062 -59.039062 248.613281 C -59.925781 248.0625 -61.105469 248.339844 -61.65625 249.222656 C -62.207031 250.109375 -61.941406 251.28125 -61.054688 251.835938 C -59.957031 252.507812 -58.855469 253.183594 -57.757812 253.855469 Z M -67.539062 247.625 C -66.675781 248.210938 -65.496094 247.976562 -64.917969 247.117188 C -64.328125 246.238281 -64.5625 245.066406 -65.429688 244.480469 C -66.484375 243.773438 -67.539062 243.066406 -68.566406 242.332031 C -69.433594 241.746094 -70.613281 241.957031 -71.203125 242.808594 C -71.808594 243.675781 -71.59375 244.855469 -70.738281 245.453125 C -69.679688 246.1875 -68.613281 246.90625 -67.539062 247.625 Z M -77.007812 240.929688 C -76.175781 241.558594 -74.984375 241.378906 -74.367188 240.546875 C -73.738281 239.703125 -73.917969 238.523438 -74.75 237.898438 C -75.777344 237.144531 -76.789062 236.375 -77.78125 235.597656 C -78.605469 234.957031 -79.796875 235.113281 -80.441406 235.945312 C -81.074219 236.765625 -80.925781 237.964844 -80.089844 238.59375 C -79.078125 239.382812 -78.050781 240.164062 -77.007812 240.929688 Z M -86.144531 233.777344 C -85.332031 234.433594 -84.140625 234.324219 -83.46875 233.511719 C -82.808594 232.714844 -82.921875 231.519531 -83.722656 230.847656 C -84.703125 230.039062 -85.679688 229.230469 -86.625 228.398438 C -87.425781 227.726562 -88.617188 227.8125 -89.304688 228.613281 C -89.980469 229.398438 -89.890625 230.597656 -89.101562 231.28125 C -88.128906 232.113281 -87.144531 232.949219 -86.144531 233.777344 Z M -94.871094 226.113281 C -94.105469 226.824219 -92.914062 226.789062 -92.203125 226.027344 C -91.484375 225.25 -91.535156 224.058594 -92.300781 223.347656 C -92.765625 222.914062 -93.230469 222.484375 -93.679688 222.042969 C -94.441406 221.332031 -95.640625 221.363281 -96.359375 222.117188 C -97.074219 222.871094 -97.042969 224.070312 -96.289062 224.796875 C -95.820312 225.234375 -95.347656 225.671875 -94.871094 226.113281 Z M -94.871094 226.113281 " fill-opacity="1" fill-rule="evenodd"/></g></g></g></g></g></g></g></g><g clip-path="url(#5180f8da6e)"><g clip-path="url(#a7d353e52f)"><g transform="matrix(1, 0, 0, 1, 576, 309)"><g clip-path="url(#e7e6419f85)"><g clip-path="url(#672b9f47d4)"><g clip-path="url(#dba51f4e49)"><path fill="#ffffff" d="M 0.144531 0.917969 L 18.890625 0.917969 L 18.890625 19.660156 L 0.144531 19.660156 Z M 0.144531 0.917969 " fill-opacity="1" fill-rule="nonzero"/></g></g></g></g></g></g></svg>