<svg xmlns="http://www.w3.org/2000/svg" xmlns:xlink="http://www.w3.org/1999/xlink" width="1366" zoomAndPan="magnify" viewBox="0 0 1024.5 576" height="768" preserveAspectRatio="xMidYMid meet" version="1.0"><defs><clipPath id="062c33b348"><path d="M 350 291 L 673 291 L 673 419 L 350 419 Z M 350 291 " clip-rule="nonzero"/></clipPath><clipPath id="66da0a2fce"><path d="M 464.511719 92.402344 L 673.816406 333.589844 L 559.449219 432.839844 L 350.144531 191.648438 Z M 464.511719 92.402344 " clip-rule="nonzero"/></clipPath><clipPath id="6f3ef4089f"><path d="M 464.511719 92.402344 L 673.816406 333.589844 L 352.796875 612.171875 L 143.492188 370.980469 Z M 464.511719 92.402344 " clip-rule="nonzero"/></clipPath></defs><g clip-path="url(#062c33b348)"><g clip-path="url(#66da0a2fce)"><g clip-path="url(#6f3ef4089f)"><path fill="#fefefe" d="M 154.855469 380.101562 C 154.289062 380.980469 153.121094 381.246094 152.242188 380.6875 C 151.359375 380.128906 151.101562 378.957031 151.65625 378.066406 C 151.992188 377.535156 152.335938 376.996094 152.679688 376.457031 C 153.234375 375.566406 154.414062 375.3125 155.296875 375.871094 C 156.179688 376.429688 156.441406 377.597656 155.875 378.472656 C 155.542969 379.027344 155.195312 379.566406 154.855469 380.101562 Z M 159.96875 371.984375 C 159.414062 372.875 158.246094 373.140625 157.367188 372.582031 C 156.472656 372.011719 156.210938 370.84375 156.773438 369.96875 C 157.460938 368.890625 158.140625 367.796875 158.832031 366.714844 C 159.398438 365.839844 160.574219 365.589844 161.453125 366.148438 C 162.332031 366.710938 162.589844 367.882812 162.023438 368.757812 C 161.335938 369.835938 160.648438 370.914062 159.96875 371.984375 Z M 166.195312 362.371094 C 165.613281 363.238281 164.433594 363.46875 163.574219 362.890625 C 162.710938 362.316406 162.46875 361.128906 163.050781 360.265625 C 163.769531 359.183594 164.496094 358.121094 165.230469 357.074219 C 165.832031 356.214844 167 355.996094 167.863281 356.59375 C 168.726562 357.191406 168.941406 358.375 168.34375 359.230469 C 167.621094 360.265625 166.910156 361.320312 166.195312 362.371094 Z M 172.789062 353.085938 C 172.160156 353.921875 170.976562 354.085938 170.136719 353.441406 C 169.3125 352.8125 169.152344 351.625 169.78125 350.789062 C 170.589844 349.753906 171.386719 348.726562 172.195312 347.734375 C 172.855469 346.921875 174.046875 346.800781 174.863281 347.464844 C 175.675781 348.128906 175.796875 349.324219 175.140625 350.136719 C 174.34375 351.089844 173.566406 352.078125 172.789062 353.085938 Z M 180.113281 344.519531 C 179.375 345.257812 178.183594 345.28125 177.4375 344.554688 C 176.679688 343.816406 176.667969 342.625 177.398438 341.875 C 178.335938 340.914062 179.28125 339.996094 180.234375 339.125 C 181.007812 338.425781 182.199219 338.472656 182.910156 339.253906 C 183.605469 340.019531 183.554688 341.222656 182.777344 341.921875 C 181.882812 342.746094 180.992188 343.613281 180.113281 344.519531 Z M 188.582031 337.4375 C 187.691406 337.988281 186.523438 337.730469 185.964844 336.84375 C 185.414062 335.976562 185.664062 334.792969 186.554688 334.238281 C 187.71875 333.492188 188.898438 332.832031 190.105469 332.265625 C 191.042969 331.8125 192.179688 332.21875 192.621094 333.160156 C 193.078125 334.109375 192.671875 335.234375 191.734375 335.6875 C 190.660156 336.183594 189.617188 336.777344 188.582031 337.4375 Z M 198.46875 333.667969 C 197.421875 333.78125 196.484375 333.054688 196.355469 332.011719 C 196.222656 330.972656 196.96875 330.035156 198.003906 329.90625 C 199.371094 329.730469 200.773438 329.695312 202.175781 329.777344 C 203.226562 329.851562 204.019531 330.75 203.953125 331.792969 C 203.886719 332.835938 202.984375 333.621094 201.945312 333.5625 C 200.761719 333.480469 199.605469 333.519531 198.46875 333.667969 Z M 208.75 335.210938 C 207.792969 334.816406 207.332031 333.699219 207.742188 332.742188 C 208.140625 331.769531 209.246094 331.3125 210.214844 331.722656 C 210.777344 331.957031 211.34375 332.214844 211.921875 332.503906 C 212.277344 332.675781 212.945312 333.011719 213.824219 333.476562 C 214.734375 333.960938 215.09375 335.117188 214.597656 336.03125 C 214.109375 336.957031 212.960938 337.304688 212.035156 336.808594 C 211.207031 336.371094 210.589844 336.066406 210.238281 335.890625 C 209.742188 335.648438 209.238281 335.414062 208.75 335.210938 Z M 218.40625 340.6875 C 217.539062 340.089844 217.320312 338.910156 217.917969 338.054688 C 218.515625 337.199219 219.6875 336.976562 220.554688 337.574219 C 221.585938 338.285156 222.65625 339.066406 223.738281 339.910156 C 224.554688 340.546875 224.703125 341.742188 224.058594 342.566406 C 223.414062 343.386719 222.222656 343.53125 221.40625 342.894531 C 220.386719 342.09375 219.378906 341.359375 218.40625 340.6875 Z M 226.882812 347.835938 C 226.167969 347.085938 226.195312 345.882812 226.949219 345.15625 C 227.714844 344.445312 228.90625 344.46875 229.632812 345.234375 C 230.535156 346.179688 231.421875 347.195312 232.257812 348.25 C 232.910156 349.078125 232.765625 350.261719 231.957031 350.917969 C 231.128906 351.558594 229.9375 351.417969 229.292969 350.605469 C 228.527344 349.632812 227.722656 348.71875 226.882812 347.835938 Z M 233.144531 356.71875 C 232.6875 355.765625 233.09375 354.640625 234.035156 354.1875 C 234.984375 353.746094 236.109375 354.144531 236.5625 355.097656 C 237.144531 356.324219 237.648438 357.59375 238.054688 358.902344 C 238.375 359.902344 237.816406 360.960938 236.820312 361.273438 C 235.820312 361.585938 234.761719 361.039062 234.445312 360.039062 C 234.082031 358.886719 233.640625 357.777344 233.144531 356.71875 Z M 235.539062 367.027344 C 235.53125 365.976562 236.386719 365.136719 237.425781 365.125 C 238.476562 365.128906 239.328125 365.976562 239.324219 367.015625 C 239.324219 368.289062 239.246094 369.605469 239.0625 370.949219 L 239.027344 371.097656 C 238.886719 372.132812 237.9375 372.863281 236.90625 372.722656 C 235.863281 372.570312 235.148438 371.625 235.285156 370.589844 L 235.308594 370.425781 C 235.464844 369.257812 235.542969 368.128906 235.539062 367.027344 Z M 234.558594 378.390625 C 234.613281 377.355469 235.496094 376.542969 236.546875 376.59375 C 237.582031 376.632812 238.394531 377.519531 238.347656 378.566406 C 238.292969 379.84375 238.273438 381.085938 238.289062 382.300781 C 238.289062 383.332031 237.457031 384.199219 236.414062 384.214844 C 235.363281 384.214844 234.503906 383.371094 234.503906 382.335938 C 234.484375 381.054688 234.503906 379.738281 234.558594 378.390625 Z M 235.082031 390.230469 C 234.925781 389.1875 235.644531 388.226562 236.6875 388.089844 C 237.71875 387.941406 238.671875 388.652344 238.828125 389.695312 C 239 390.941406 239.21875 392.148438 239.484375 393.316406 C 239.714844 394.339844 239.074219 395.351562 238.046875 395.570312 C 237.03125 395.804688 236.019531 395.164062 235.789062 394.140625 C 235.511719 392.890625 235.269531 391.582031 235.082031 390.230469 Z M 238.265625 401.78125 C 237.84375 400.824219 238.277344 399.703125 239.234375 399.28125 C 240.1875 398.863281 241.3125 399.304688 241.734375 400.265625 C 242.230469 401.398438 242.773438 402.464844 243.359375 403.472656 C 243.894531 404.378906 243.589844 405.535156 242.695312 406.070312 C 241.789062 406.589844 240.632812 406.296875 240.097656 405.386719 C 239.433594 404.253906 238.820312 403.054688 238.265625 401.78125 Z M 245.140625 411.8125 C 244.386719 411.097656 244.355469 409.894531 245.082031 409.144531 C 245.808594 408.394531 247.007812 408.367188 247.757812 409.082031 C 248.628906 409.914062 249.542969 410.660156 250.5 411.324219 C 251.351562 411.90625 251.570312 413.089844 250.972656 413.945312 C 250.386719 414.816406 249.199219 415.023438 248.339844 414.425781 C 247.226562 413.660156 246.15625 412.785156 245.140625 411.8125 Z M 255.808594 417.953125 C 254.804688 417.667969 254.214844 416.617188 254.503906 415.617188 C 254.785156 414.605469 255.835938 414.027344 256.839844 414.3125 C 257.96875 414.632812 259.125 414.855469 260.300781 414.992188 C 261.332031 415.105469 262.078125 416.046875 261.960938 417.085938 C 261.84375 418.125 260.902344 418.871094 259.871094 418.757812 C 258.496094 418.601562 257.140625 418.335938 255.808594 417.953125 Z M 268.070312 418.449219 C 267.042969 418.640625 266.054688 417.960938 265.859375 416.929688 C 265.675781 415.910156 266.347656 414.917969 267.375 414.722656 C 268.53125 414.511719 269.6875 414.207031 270.839844 413.832031 C 271.828125 413.503906 272.910156 414.054688 273.238281 415.046875 C 273.5625 416.039062 273.023438 417.113281 272.019531 417.425781 C 270.710938 417.867188 269.382812 418.199219 268.070312 418.449219 Z M 279.351562 413.976562 C 278.464844 414.527344 277.304688 414.261719 276.746094 413.371094 C 276.195312 412.480469 276.476562 411.324219 277.363281 410.773438 C 278.367188 410.140625 279.359375 409.445312 280.328125 408.679688 C 281.152344 408.035156 282.339844 408.183594 282.992188 409.011719 C 283.628906 409.832031 283.480469 411.019531 282.65625 411.660156 C 281.585938 412.519531 280.480469 413.285156 279.351562 413.976562 Z M 288.46875 406.136719 C 287.785156 406.921875 286.585938 407 285.796875 406.3125 C 285.019531 405.640625 284.933594 404.441406 285.621094 403.652344 C 286.410156 402.75 287.164062 401.78125 287.90625 400.777344 C 288.519531 399.933594 289.703125 399.746094 290.546875 400.363281 C 291.390625 400.980469 291.574219 402.164062 290.960938 403.011719 C 290.164062 404.113281 289.328125 405.152344 288.46875 406.136719 Z M 295.136719 396.238281 C 294.664062 397.175781 293.507812 397.527344 292.585938 397.054688 C 291.664062 396.582031 291.292969 395.433594 291.777344 394.507812 C 292.328125 393.429688 292.859375 392.316406 293.359375 391.160156 C 293.773438 390.203125 294.878906 389.746094 295.839844 390.164062 C 296.800781 390.582031 297.242188 391.691406 296.828125 392.652344 C 296.304688 393.898438 295.734375 395.09375 295.136719 396.238281 Z M 299.492188 385.214844 C 299.199219 386.214844 298.148438 386.792969 297.148438 386.503906 C 296.148438 386.21875 295.5625 385.160156 295.855469 384.160156 C 296.199219 382.996094 296.507812 381.789062 296.792969 380.558594 C 297.027344 379.535156 298.039062 378.898438 299.054688 379.125 C 300.078125 379.367188 300.710938 380.378906 300.480469 381.398438 C 300.175781 382.699219 299.84375 383.972656 299.492188 385.214844 Z M 301.835938 373.675781 C 301.699219 374.710938 300.746094 375.441406 299.710938 375.304688 C 298.667969 375.152344 297.9375 374.199219 298.078125 373.164062 C 298.265625 371.867188 298.445312 370.582031 298.636719 369.335938 C 298.796875 368.304688 299.761719 367.589844 300.792969 367.75 C 301.828125 367.910156 302.539062 368.882812 302.375 369.914062 C 302.1875 371.136719 302.011719 372.394531 301.835938 373.675781 Z M 303.707031 362.457031 C 303.5 363.476562 302.496094 364.132812 301.476562 363.933594 C 300.449219 363.722656 299.789062 362.730469 299.996094 361.707031 C 300.257812 360.398438 300.527344 359.128906 300.8125 357.898438 C 301.042969 356.878906 302.070312 356.253906 303.082031 356.480469 C 304.105469 356.722656 304.738281 357.734375 304.503906 358.757812 C 304.222656 359.941406 303.957031 361.179688 303.707031 362.457031 Z M 306.429688 351.457031 C 306.128906 352.464844 305.070312 353.023438 304.078125 352.730469 C 303.074219 352.421875 302.515625 351.367188 302.8125 350.363281 C 303.199219 349.0625 303.617188 347.835938 304.027344 346.636719 C 304.382812 345.65625 305.457031 345.132812 306.441406 345.480469 C 307.429688 345.828125 307.949219 346.914062 307.597656 347.894531 C 307.199219 349.035156 306.816406 350.230469 306.429688 351.457031 Z M 310.449219 341.015625 C 309.988281 341.945312 308.863281 342.347656 307.921875 341.886719 C 306.980469 341.429688 306.589844 340.300781 307.042969 339.355469 C 307.644531 338.109375 308.269531 336.941406 308.90625 335.839844 C 309.4375 334.941406 310.59375 334.636719 311.492188 335.15625 C 312.402344 335.691406 312.707031 336.847656 312.183594 337.753906 C 311.589844 338.773438 311.007812 339.855469 310.449219 341.015625 Z M 316.425781 331.859375 C 315.726562 332.636719 314.527344 332.691406 313.753906 331.988281 C 312.980469 331.289062 312.921875 330.089844 313.621094 329.3125 C 314.585938 328.261719 315.566406 327.3125 316.582031 326.480469 C 317.382812 325.8125 318.570312 325.910156 319.242188 326.722656 C 319.90625 327.519531 319.800781 328.71875 318.996094 329.386719 C 318.125 330.121094 317.265625 330.941406 316.425781 331.859375 Z M 325.039062 325.878906 C 324.050781 326.230469 322.96875 325.726562 322.605469 324.742188 C 322.246094 323.757812 322.75 322.667969 323.738281 322.316406 C 325.0625 321.839844 326.394531 321.476562 327.765625 321.25 C 328.785156 321.0625 329.769531 321.75 329.957031 322.789062 C 330.132812 323.816406 329.441406 324.800781 328.410156 324.972656 C 327.265625 325.171875 326.144531 325.472656 325.039062 325.878906 Z M 335.496094 324.863281 C 334.453125 324.730469 333.71875 323.785156 333.851562 322.753906 C 333.972656 321.710938 334.921875 320.980469 335.964844 321.113281 C 337.277344 321.269531 338.605469 321.515625 339.933594 321.828125 C 340.957031 322.074219 341.582031 323.089844 341.335938 324.101562 C 341.101562 325.121094 340.074219 325.746094 339.066406 325.515625 C 337.871094 325.230469 336.679688 325.011719 335.496094 324.863281 Z M 346.070312 327.808594 C 345.097656 327.40625 344.640625 326.308594 345.035156 325.339844 C 345.429688 324.375 346.527344 323.902344 347.503906 324.304688 C 348.707031 324.800781 349.902344 325.328125 351.101562 325.898438 C 352.046875 326.351562 352.445312 327.472656 351.996094 328.417969 C 351.546875 329.359375 350.417969 329.761719 349.46875 329.3125 C 348.339844 328.773438 347.207031 328.269531 346.070312 327.808594 Z M 356.121094 332.824219 C 355.21875 332.308594 354.914062 331.15625 355.433594 330.246094 C 355.949219 329.339844 357.109375 329.03125 358.015625 329.546875 C 359.144531 330.199219 360.25 330.855469 361.351562 331.53125 C 362.246094 332.078125 362.523438 333.234375 361.984375 334.136719 C 361.433594 335.023438 360.273438 335.308594 359.378906 334.761719 C 358.304688 334.105469 357.222656 333.457031 356.121094 332.824219 Z M 365.804688 338.855469 C 364.921875 338.273438 364.6875 337.109375 365.253906 336.230469 C 365.824219 335.351562 367.007812 335.117188 367.875 335.6875 C 368.96875 336.398438 370.039062 337.105469 371.089844 337.804688 C 371.957031 338.378906 372.1875 339.546875 371.621094 340.425781 C 371.039062 341.289062 369.867188 341.535156 368.992188 340.949219 C 367.953125 340.265625 366.894531 339.570312 365.804688 338.855469 Z M 375.476562 345.160156 C 374.585938 344.609375 374.320312 343.445312 374.871094 342.558594 C 375.421875 341.671875 376.582031 341.390625 377.46875 341.941406 C 378.597656 342.644531 379.679688 343.292969 380.683594 343.84375 C 381.597656 344.347656 381.933594 345.5 381.429688 346.417969 C 380.929688 347.332031 379.773438 347.664062 378.859375 347.15625 C 377.792969 346.566406 376.667969 345.90625 375.476562 345.160156 Z M 386.910156 349.84375 C 385.871094 349.828125 385.039062 348.960938 385.058594 347.914062 C 385.085938 346.875 385.945312 346.035156 386.996094 346.0625 C 388.238281 346.089844 389.445312 346.054688 390.621094 345.949219 C 391.652344 345.84375 392.570312 346.613281 392.667969 347.660156 C 392.769531 348.703125 391.992188 349.617188 390.949219 349.707031 C 389.644531 349.828125 388.304688 349.882812 386.910156 349.84375 Z M 398.875 348.046875 C 397.894531 348.390625 396.820312 347.855469 396.476562 346.855469 C 396.144531 345.871094 396.683594 344.800781 397.675781 344.46875 C 398.820312 344.074219 399.933594 343.617188 401.019531 343.105469 C 401.96875 342.667969 403.101562 343.078125 403.542969 344.019531 C 403.984375 344.960938 403.589844 346.097656 402.636719 346.539062 C 401.421875 347.109375 400.171875 347.621094 398.875 348.046875 Z M 409.515625 342.394531 C 408.667969 343.011719 407.488281 342.835938 406.871094 342 C 406.242188 341.148438 406.429688 339.976562 407.265625 339.347656 C 408.242188 338.617188 409.207031 337.851562 410.140625 337.042969 C 410.929688 336.359375 412.128906 336.449219 412.808594 337.230469 C 413.5 338.027344 413.40625 339.214844 412.617188 339.898438 C 411.609375 340.773438 410.570312 341.601562 409.515625 342.394531 Z M 418.25 334.382812 C 417.550781 335.160156 416.339844 335.199219 415.570312 334.496094 C 414.804688 333.789062 414.761719 332.601562 415.460938 331.824219 C 416.300781 330.902344 417.132812 329.964844 417.941406 329 C 418.625 328.210938 419.820312 328.113281 420.609375 328.777344 C 421.40625 329.453125 421.515625 330.660156 420.832031 331.445312 C 419.984375 332.445312 419.128906 333.429688 418.25 334.382812 Z M 425.691406 325.398438 C 425.050781 326.222656 423.867188 326.382812 423.03125 325.738281 C 422.203125 325.105469 422.046875 323.917969 422.679688 323.085938 C 423.453125 322.074219 424.226562 321.066406 424.984375 320.046875 C 425.613281 319.214844 426.804688 319.046875 427.636719 319.671875 C 428.46875 320.296875 428.648438 321.488281 428.019531 322.324219 C 427.25 323.351562 426.464844 324.367188 425.691406 325.398438 Z M 432.601562 316.179688 C 431.972656 317.015625 430.785156 317.179688 429.957031 316.550781 C 429.125 315.925781 428.953125 314.726562 429.59375 313.90625 C 430.375 312.867188 431.164062 311.847656 431.945312 310.832031 C 432.589844 310.007812 433.78125 309.867188 434.609375 310.519531 C 435.425781 311.15625 435.574219 312.351562 434.929688 313.175781 C 434.152344 314.160156 433.378906 315.167969 432.601562 316.179688 Z M 439.75 307.378906 C 439.050781 308.152344 437.847656 308.210938 437.074219 307.511719 C 436.296875 306.8125 436.234375 305.617188 436.9375 304.839844 C 437.828125 303.851562 438.734375 302.898438 439.648438 301.984375 C 440.386719 301.246094 441.59375 301.257812 442.324219 301.992188 C 443.070312 302.742188 443.054688 303.933594 442.316406 304.671875 C 441.453125 305.539062 440.589844 306.433594 439.75 307.378906 Z M 447.917969 299.933594 C 447.0625 300.527344 445.871094 300.3125 445.277344 299.457031 C 444.679688 298.601562 444.882812 297.414062 445.738281 296.816406 C 446.867188 296.03125 448.019531 295.320312 449.207031 294.695312 C 450.132812 294.207031 451.277344 294.5625 451.769531 295.480469 C 452.257812 296.40625 451.90625 297.550781 450.980469 298.042969 C 449.925781 298.59375 448.914062 299.234375 447.917969 299.933594 Z M 457.640625 295.675781 C 456.617188 295.871094 455.625 295.1875 455.441406 294.171875 C 455.246094 293.136719 455.921875 292.144531 456.945312 291.949219 C 458.277344 291.710938 459.644531 291.558594 461.0625 291.53125 C 462.101562 291.496094 462.972656 292.328125 463.007812 293.378906 C 463.027344 294.417969 462.199219 295.285156 461.160156 295.316406 C 459.945312 295.339844 458.773438 295.464844 457.640625 295.675781 Z M 468.285156 296.136719 C 467.269531 295.910156 466.632812 294.898438 466.867188 293.878906 C 467.097656 292.859375 468.113281 292.222656 469.125 292.449219 C 470.441406 292.75 471.714844 293.085938 472.964844 293.46875 C 473.957031 293.765625 474.53125 294.828125 474.222656 295.820312 C 473.921875 296.824219 472.863281 297.386719 471.867188 297.089844 C 470.703125 296.734375 469.511719 296.421875 468.285156 296.136719 Z M 478.765625 299.742188 C 477.816406 299.292969 477.40625 298.15625 477.851562 297.214844 C 478.300781 296.273438 479.433594 295.871094 480.371094 296.304688 C 481.585938 296.886719 482.765625 297.5 483.90625 298.144531 C 484.8125 298.65625 485.140625 299.816406 484.621094 300.722656 C 484.105469 301.628906 482.953125 301.957031 482.046875 301.441406 C 480.976562 300.832031 479.882812 300.265625 478.765625 299.742188 Z M 488.199219 305.535156 C 487.375 304.902344 487.222656 303.710938 487.851562 302.875 C 488.496094 302.054688 489.679688 301.894531 490.511719 302.539062 C 491.554688 303.34375 492.578125 304.1875 493.566406 305.0625 C 494.347656 305.753906 494.417969 306.945312 493.730469 307.734375 C 493.035156 308.507812 491.839844 308.582031 491.054688 307.890625 C 490.132812 307.078125 489.179688 306.292969 488.199219 305.535156 Z M 496.339844 313.144531 C 495.644531 312.375 495.703125 311.171875 496.480469 310.472656 C 497.257812 309.773438 498.457031 309.839844 499.148438 310.609375 C 500.023438 311.582031 500.871094 312.578125 501.710938 313.605469 C 502.363281 314.410156 502.238281 315.601562 501.425781 316.257812 C 500.628906 316.929688 499.4375 316.808594 498.769531 315.992188 C 497.980469 315.019531 497.175781 314.078125 496.339844 313.144531 Z M 503.253906 322.011719 C 502.664062 321.152344 502.882812 319.972656 503.753906 319.390625 C 504.605469 318.792969 505.789062 319.015625 506.378906 319.878906 C 507.113281 320.949219 507.828125 322.035156 508.527344 323.136719 C 509.089844 324.019531 508.828125 325.183594 507.953125 325.75 C 507.066406 326.304688 505.894531 326.046875 505.332031 325.164062 C 504.664062 324.109375 503.964844 323.054688 503.253906 322.011719 Z M 509.21875 331.65625 C 508.707031 330.75 509.03125 329.601562 509.9375 329.082031 C 510.839844 328.5625 512.007812 328.894531 512.519531 329.800781 C 513.144531 330.914062 513.777344 332.050781 514.386719 333.183594 C 514.878906 334.101562 514.542969 335.261719 513.617188 335.75 C 512.707031 336.253906 511.554688 335.90625 511.058594 334.988281 C 510.457031 333.875 509.847656 332.765625 509.21875 331.65625 Z M 514.582031 341.746094 C 514.105469 340.8125 514.480469 339.667969 515.410156 339.199219 C 516.34375 338.726562 517.488281 339.105469 517.960938 340.039062 C 518.535156 341.179688 519.117188 342.332031 519.683594 343.476562 C 520.152344 344.417969 519.765625 345.546875 518.835938 346.019531 C 517.894531 346.472656 516.753906 346.089844 516.296875 345.164062 C 515.726562 344.023438 515.15625 342.882812 514.582031 341.746094 Z M 519.691406 352.035156 C 519.222656 351.09375 519.613281 349.960938 520.542969 349.492188 C 521.484375 349.035156 522.621094 349.417969 523.089844 350.359375 C 523.65625 351.503906 524.226562 352.648438 524.785156 353.773438 C 525.257812 354.710938 524.882812 355.851562 523.953125 356.324219 C 523.011719 356.78125 521.878906 356.414062 521.410156 355.476562 C 520.835938 354.335938 520.269531 353.195312 519.691406 352.035156 Z M 524.953125 362.335938 C 524.460938 361.417969 524.808594 360.269531 525.722656 359.769531 C 526.648438 359.277344 527.796875 359.628906 528.289062 360.546875 C 528.886719 361.664062 529.507812 362.785156 530.117188 363.871094 C 530.625 364.773438 530.3125 365.9375 529.394531 366.445312 C 528.492188 366.964844 527.335938 366.644531 526.824219 365.738281 C 526.195312 364.625 525.570312 363.484375 524.953125 362.335938 Z M 530.859375 372.390625 C 530.296875 371.53125 530.527344 370.34375 531.40625 369.777344 C 532.28125 369.207031 533.449219 369.445312 534.023438 370.316406 C 534.71875 371.375 535.433594 372.414062 536.152344 373.402344 C 536.765625 374.242188 536.585938 375.433594 535.738281 376.046875 C 534.890625 376.660156 533.703125 376.46875 533.089844 375.625 C 532.328125 374.578125 531.59375 373.507812 530.859375 372.390625 Z M 538.140625 381.734375 C 537.410156 380.96875 537.449219 379.78125 538.203125 379.054688 C 538.957031 378.332031 540.160156 378.367188 540.875 379.117188 C 541.730469 380.011719 542.609375 380.863281 543.515625 381.660156 C 544.300781 382.351562 544.382812 383.554688 543.6875 384.328125 C 543 385.117188 541.800781 385.195312 541.019531 384.503906 C 540.027344 383.632812 539.066406 382.707031 538.140625 381.734375 Z M 547.621094 389.167969 C 546.703125 388.664062 546.363281 387.515625 546.867188 386.597656 C 547.351562 385.667969 548.511719 385.339844 549.429688 385.839844 C 550.472656 386.40625 551.554688 386.910156 552.683594 387.347656 C 553.65625 387.730469 554.136719 388.828125 553.761719 389.804688 C 553.386719 390.78125 552.28125 391.257812 551.304688 390.875 C 550.039062 390.386719 548.800781 389.800781 547.621094 389.167969 Z M 559.199219 392.832031 C 558.167969 392.714844 557.425781 391.773438 557.542969 390.730469 C 557.664062 389.691406 558.601562 388.945312 559.644531 389.074219 C 560.8125 389.214844 562.011719 389.285156 563.253906 389.289062 C 564.300781 389.296875 565.144531 390.148438 565.136719 391.191406 C 565.140625 392.246094 564.285156 393.085938 563.238281 393.078125 C 561.855469 393.078125 560.507812 392.996094 559.199219 392.832031 Z M 571.140625 392.476562 C 570.109375 392.625 569.152344 391.890625 569.015625 390.855469 C 568.878906 389.820312 569.609375 388.875 570.640625 388.726562 C 571.871094 388.570312 573.097656 388.371094 574.347656 388.152344 C 575.371094 387.960938 576.359375 388.644531 576.539062 389.667969 C 576.730469 390.707031 576.042969 391.683594 575.019531 391.875 C 573.707031 392.101562 572.417969 392.304688 571.140625 392.476562 Z M 582.652344 390.183594 C 581.636719 390.441406 580.605469 389.84375 580.335938 388.828125 C 580.066406 387.808594 580.671875 386.777344 581.691406 386.519531 C 582.890625 386.199219 584.109375 385.867188 585.3125 385.492188 C 586.320312 385.199219 587.375 385.773438 587.671875 386.765625 C 587.976562 387.777344 587.402344 388.828125 586.398438 389.121094 C 585.140625 389.496094 583.894531 389.855469 582.652344 390.183594 Z M 593.792969 386.675781 C 592.804688 387.027344 591.71875 386.523438 591.359375 385.539062 C 590.996094 384.554688 591.503906 383.464844 592.488281 383.117188 C 593.660156 382.679688 594.839844 382.230469 596.03125 381.773438 C 597 381.390625 598.097656 381.859375 598.476562 382.828125 C 598.871094 383.808594 598.386719 384.902344 597.417969 385.285156 C 596.203125 385.765625 594.996094 386.230469 593.792969 386.675781 Z M 604.566406 382.257812 C 603.605469 382.679688 602.484375 382.261719 602.054688 381.308594 C 601.625 380.359375 602.054688 379.242188 603 378.804688 C 604.148438 378.289062 605.292969 377.753906 606.445312 377.210938 C 607.386719 376.757812 608.511719 377.148438 608.96875 378.097656 C 609.417969 379.035156 609.023438 380.171875 608.082031 380.625 C 606.910156 381.1875 605.734375 381.726562 604.566406 382.257812 Z M 614.996094 377.128906 C 614.070312 377.617188 612.925781 377.265625 612.433594 376.34375 C 611.945312 375.421875 612.296875 374.273438 613.222656 373.785156 C 614.328125 373.183594 615.441406 372.582031 616.558594 371.972656 C 617.472656 371.464844 618.625 371.792969 619.128906 372.699219 C 619.644531 373.625 619.3125 374.777344 618.398438 375.28125 C 617.261719 375.90625 616.132812 376.527344 614.996094 377.128906 Z M 625.089844 371.398438 C 624.195312 371.9375 623.03125 371.648438 622.496094 370.761719 C 621.953125 369.863281 622.242188 368.699219 623.136719 368.160156 C 624.222656 367.507812 625.296875 366.839844 626.375 366.167969 C 627.25 365.601562 628.429688 365.878906 628.988281 366.765625 C 629.53125 367.640625 629.265625 368.808594 628.378906 369.363281 C 627.296875 370.0625 626.191406 370.730469 625.089844 371.398438 Z M 634.867188 365.152344 C 634 365.734375 632.824219 365.507812 632.238281 364.640625 C 631.65625 363.777344 631.878906 362.597656 632.746094 362.011719 C 633.792969 361.296875 634.839844 360.582031 635.875 359.851562 C 636.730469 359.25 637.921875 359.46875 638.519531 360.324219 C 639.113281 361.175781 638.910156 362.363281 638.054688 362.960938 C 636.992188 363.691406 635.929688 364.421875 634.867188 365.152344 Z M 644.3125 358.421875 C 643.476562 359.050781 642.289062 358.878906 641.667969 358.046875 C 641.035156 357.203125 641.207031 356.019531 642.042969 355.390625 C 643.058594 354.628906 644.074219 353.867188 645.0625 353.082031 C 645.898438 352.453125 647.085938 352.601562 647.722656 353.421875 C 648.367188 354.253906 648.21875 355.445312 647.394531 356.085938 C 646.375 356.871094 645.34375 357.648438 644.3125 358.421875 Z M 653.417969 351.242188 C 652.617188 351.914062 651.421875 351.796875 650.761719 351 C 650.089844 350.1875 650.207031 349 651.007812 348.332031 C 651.992188 347.523438 652.960938 346.707031 653.914062 345.878906 C 654.703125 345.195312 655.902344 345.289062 656.585938 346.085938 C 657.261719 346.875 657.175781 348.078125 656.375 348.75 C 655.40625 349.589844 654.421875 350.421875 653.417969 351.242188 Z M 662.171875 343.625 C 661.394531 344.320312 660.199219 344.277344 659.484375 343.5 C 658.785156 342.738281 658.835938 341.539062 659.597656 340.828125 C 660.539062 339.964844 661.46875 339.105469 662.375 338.226562 C 663.136719 337.515625 664.332031 337.539062 665.058594 338.304688 C 665.773438 339.054688 665.75 340.253906 664.996094 340.980469 C 664.066406 341.859375 663.125 342.746094 662.171875 343.625 Z M 670.488281 335.515625 C 669.761719 336.269531 668.566406 336.292969 667.820312 335.570312 C 667.0625 334.832031 667.050781 333.640625 667.777344 332.890625 C 668.21875 332.433594 668.660156 331.980469 669.085938 331.511719 C 669.808594 330.761719 671.011719 330.734375 671.765625 331.449219 C 672.519531 332.164062 672.550781 333.367188 671.835938 334.128906 C 671.390625 334.589844 670.9375 335.050781 670.488281 335.515625 Z M 670.488281 335.515625 " fill-opacity="1" fill-rule="evenodd"/></g></g></g></svg>