<svg xmlns="http://www.w3.org/2000/svg" xmlns:xlink="http://www.w3.org/1999/xlink" width="1366" zoomAndPan="magnify" viewBox="0 0 1024.5 576" height="768" preserveAspectRatio="xMidYMid meet" version="1.0"><defs><clipPath id="6ae6caf071"><path d="M 352 156 L 661 156 L 661 396 L 352 396 Z M 352 156 " clip-rule="nonzero"/></clipPath><clipPath id="2547b1629c"><path d="M 352.285156 164.199219 L 655.046875 156.820312 L 660.691406 388.386719 L 357.929688 395.769531 Z M 352.285156 164.199219 " clip-rule="nonzero"/></clipPath><clipPath id="01b16972c2"><path d="M 0.148438 8 L 308.878906 8 L 308.878906 239.949219 L 0.148438 239.949219 Z M 0.148438 8 " clip-rule="nonzero"/></clipPath><clipPath id="552f5c117e"><path d="M 0.285156 8.199219 L 303.046875 0.820312 L 308.691406 232.386719 L 5.929688 239.769531 Z M 0.285156 8.199219 " clip-rule="nonzero"/></clipPath><clipPath id="b26c5cd933"><path d="M 302.742188 0.828125 L -0.0195312 8.207031 L 5.625 239.773438 L 308.386719 232.394531 Z M 302.742188 0.828125 " clip-rule="nonzero"/></clipPath><clipPath id="57ddbaf4a6"><path d="M 319.566406 0.417969 L 0.316406 8.199219 L 10.675781 433.113281 L 329.925781 425.332031 Z M 319.566406 0.417969 " clip-rule="nonzero"/></clipPath><clipPath id="16726b53b0"><rect x="0" width="309" y="0" height="240"/></clipPath></defs><g clip-path="url(#6ae6caf071)"><g clip-path="url(#2547b1629c)"><g transform="matrix(1, 0, 0, 1, 352, 156)"><g clip-path="url(#16726b53b0)"><g clip-path="url(#01b16972c2)"><g clip-path="url(#552f5c117e)"><g clip-path="url(#b26c5cd933)"><g clip-path="url(#57ddbaf4a6)"><path fill="#6800db" d="M 315.53125 423.078125 C 315.265625 424.085938 315.855469 425.128906 316.859375 425.402344 C 317.867188 425.679688 318.90625 425.082031 319.191406 424.074219 C 319.359375 423.460938 319.523438 422.847656 319.691406 422.230469 C 319.976562 421.222656 319.371094 420.179688 318.363281 419.902344 C 317.355469 419.625 316.316406 420.21875 316.050781 421.226562 C 315.867188 421.847656 315.699219 422.464844 315.53125 423.078125 Z M 318.085938 413.832031 C 317.800781 414.839844 318.390625 415.882812 319.398438 416.15625 C 320.421875 416.433594 321.460938 415.839844 321.730469 414.832031 C 322.0625 413.601562 322.414062 412.363281 322.746094 411.121094 C 323.011719 410.113281 322.40625 409.074219 321.398438 408.804688 C 320.394531 408.53125 319.355469 409.132812 319.085938 410.140625 C 318.753906 411.375 318.421875 412.605469 318.085938 413.832031 Z M 320.996094 402.753906 C 320.75 403.765625 321.375 404.792969 322.378906 405.042969 C 323.386719 405.292969 324.425781 404.671875 324.671875 403.65625 C 324.988281 402.402344 325.285156 401.148438 325.5625 399.898438 C 325.792969 398.878906 325.167969 397.863281 324.144531 397.628906 C 323.121094 397.394531 322.101562 398.03125 321.871094 399.050781 C 321.589844 400.28125 321.292969 401.515625 320.996094 402.753906 Z M 323.417969 391.625 C 323.222656 392.652344 323.902344 393.636719 324.941406 393.824219 C 325.964844 394.011719 326.945312 393.328125 327.140625 392.300781 C 327.363281 391.007812 327.585938 389.726562 327.773438 388.457031 C 327.929688 387.421875 327.214844 386.460938 326.175781 386.304688 C 325.136719 386.152344 324.171875 386.867188 324.015625 387.902344 C 323.847656 389.128906 323.640625 390.371094 323.417969 391.625 Z M 324.816406 380.441406 C 324.769531 381.484375 325.554688 382.378906 326.589844 382.441406 C 327.648438 382.503906 328.535156 381.710938 328.601562 380.667969 C 328.679688 379.328125 328.71875 378.011719 328.722656 376.71875 C 328.714844 375.675781 327.878906 374.828125 326.824219 374.828125 C 325.789062 374.828125 324.9375 375.679688 324.945312 376.722656 C 324.9375 377.9375 324.894531 379.179688 324.816406 380.441406 Z M 324.347656 369.410156 C 324.535156 370.441406 325.515625 371.128906 326.546875 370.949219 C 327.5625 370.769531 328.265625 369.785156 328.074219 368.757812 C 327.84375 367.394531 327.539062 366.074219 327.144531 364.804688 C 326.84375 363.804688 325.777344 363.238281 324.785156 363.542969 C 323.773438 363.84375 323.21875 364.902344 323.515625 365.902344 C 323.871094 367.03125 324.136719 368.203125 324.347656 369.410156 Z M 320.472656 359.566406 C 321.09375 360.417969 322.261719 360.617188 323.117188 360.015625 C 323.976562 359.40625 324.164062 358.226562 323.5625 357.375 C 322.773438 356.246094 321.855469 355.1875 320.851562 354.203125 C 320.085938 353.476562 318.886719 353.496094 318.160156 354.25 C 317.433594 355 317.464844 356.199219 318.207031 356.925781 C 319.066406 357.746094 319.8125 358.625 320.472656 359.566406 Z M 312.40625 353.007812 C 313.34375 353.449219 314.476562 353.035156 314.910156 352.089844 C 315.359375 351.140625 314.949219 350.011719 313.996094 349.574219 C 313.441406 349.316406 312.875 349.070312 312.269531 348.839844 C 311.902344 348.691406 311.203125 348.421875 310.269531 348.089844 C 309.296875 347.738281 308.199219 348.253906 307.863281 349.238281 C 307.503906 350.222656 308.019531 351.304688 309.011719 351.65625 C 309.890625 351.96875 310.535156 352.222656 310.902344 352.367188 C 311.414062 352.566406 311.929688 352.78125 312.40625 353.007812 Z M 301.851562 349.558594 C 302.878906 349.796875 303.898438 349.164062 304.125 348.144531 C 304.355469 347.128906 303.730469 346.109375 302.707031 345.875 C 301.484375 345.589844 300.1875 345.324219 298.835938 345.09375 C 297.816406 344.921875 296.832031 345.617188 296.65625 346.644531 C 296.480469 347.675781 297.179688 348.65625 298.199219 348.828125 C 299.476562 349.042969 300.703125 349.292969 301.851562 349.558594 Z M 290.859375 348.109375 C 291.894531 348.132812 292.765625 347.300781 292.792969 346.253906 C 292.804688 345.210938 291.984375 344.34375 290.929688 344.324219 C 289.621094 344.296875 288.277344 344.324219 286.933594 344.417969 C 285.882812 344.488281 285.105469 345.394531 285.164062 346.4375 C 285.246094 347.480469 286.15625 348.265625 287.1875 348.191406 C 288.421875 348.105469 289.640625 348.082031 290.859375 348.109375 Z M 280.078125 349.464844 C 281.089844 349.160156 281.644531 348.101562 281.347656 347.101562 C 281.03125 346.105469 279.980469 345.539062 278.972656 345.847656 C 277.671875 346.242188 276.394531 346.726562 275.15625 347.304688 C 274.203125 347.746094 273.792969 348.871094 274.234375 349.820312 C 274.675781 350.765625 275.792969 351.179688 276.746094 350.738281 C 277.84375 350.234375 278.960938 349.8125 280.078125 349.464844 Z M 270.84375 354.636719 C 271.625 353.9375 271.671875 352.738281 270.980469 351.964844 C 270.269531 351.191406 269.070312 351.132812 268.304688 351.832031 C 267.363281 352.691406 266.441406 353.636719 265.574219 354.675781 L 265.484375 354.800781 C 264.816406 355.601562 264.917969 356.796875 265.714844 357.464844 C 266.53125 358.132812 267.710938 358.027344 268.382812 357.226562 L 268.488281 357.097656 C 269.246094 356.199219 270.027344 355.378906 270.84375 354.636719 Z M 263.105469 363.019531 C 263.832031 362.28125 263.839844 361.082031 263.09375 360.339844 C 262.367188 359.601562 261.167969 359.597656 260.421875 360.335938 C 259.519531 361.238281 258.613281 362.089844 257.707031 362.894531 C 256.941406 363.59375 256.859375 364.789062 257.550781 365.570312 C 258.261719 366.347656 259.460938 366.414062 260.226562 365.71875 C 261.1875 364.871094 262.148438 363.96875 263.105469 363.019531 Z M 254.003906 370.609375 C 254.878906 370.019531 255.105469 368.84375 254.503906 367.980469 C 253.917969 367.113281 252.75 366.890625 251.875 367.480469 C 250.835938 368.191406 249.796875 368.84375 248.757812 369.433594 C 247.84375 369.953125 247.527344 371.109375 248.058594 372.015625 C 248.570312 372.921875 249.722656 373.238281 250.636719 372.71875 C 251.75 372.082031 252.878906 371.378906 254.003906 370.609375 Z M 243.324219 376.039062 C 244.3125 375.703125 244.851562 374.628906 244.519531 373.636719 C 244.183594 372.648438 243.097656 372.117188 242.109375 372.453125 C 240.9375 372.847656 239.78125 373.167969 238.640625 373.410156 C 237.609375 373.625 236.964844 374.628906 237.171875 375.652344 C 237.394531 376.671875 238.390625 377.328125 239.421875 377.113281 C 240.707031 376.839844 242.007812 376.484375 243.324219 376.039062 Z M 231.277344 377.714844 C 232.316406 377.785156 233.222656 377 233.289062 375.957031 C 233.351562 374.914062 232.566406 374.011719 231.53125 373.9375 C 230.328125 373.855469 229.160156 373.683594 228.027344 373.421875 C 227.023438 373.183594 226.003906 373.824219 225.773438 374.839844 C 225.523438 375.859375 226.167969 376.875 227.191406 377.109375 C 228.507812 377.414062 229.875 377.617188 231.277344 377.714844 Z M 219.554688 373.964844 C 220.4375 374.515625 221.613281 374.242188 222.15625 373.355469 C 222.714844 372.464844 222.433594 371.300781 221.546875 370.75 C 220.550781 370.128906 219.605469 369.425781 218.714844 368.652344 C 217.933594 367.964844 216.738281 368.046875 216.046875 368.835938 C 215.359375 369.621094 215.441406 370.816406 216.222656 371.503906 C 217.261719 372.414062 218.371094 373.238281 219.554688 373.964844 Z M 210.925781 365.238281 C 211.476562 366.125 212.644531 366.398438 213.539062 365.847656 C 214.417969 365.296875 214.699219 364.128906 214.148438 363.242188 C 213.523438 362.242188 212.972656 361.183594 212.472656 360.078125 C 212.050781 359.125 210.914062 358.699219 209.960938 359.125 C 209.007812 359.554688 208.578125 360.675781 209.019531 361.628906 C 209.578125 362.894531 210.226562 364.097656 210.925781 365.238281 Z M 206.632812 353.882812 C 206.820312 354.914062 207.800781 355.589844 208.832031 355.402344 C 209.863281 355.210938 210.53125 354.222656 210.339844 353.199219 C 210.132812 352.027344 209.976562 350.828125 209.890625 349.597656 C 209.808594 348.554688 208.902344 347.773438 207.847656 347.851562 C 206.816406 347.929688 206.039062 348.839844 206.117188 349.882812 C 206.203125 351.253906 206.382812 352.585938 206.632812 353.882812 Z M 206.285156 341.863281 C 206.164062 342.902344 206.914062 343.839844 207.953125 343.960938 C 208.972656 344.082031 209.917969 343.335938 210.039062 342.296875 C 210.175781 341.105469 210.382812 339.898438 210.625 338.671875 C 210.835938 337.648438 210.175781 336.648438 209.152344 336.441406 C 208.128906 336.234375 207.128906 336.894531 206.914062 337.917969 C 206.640625 339.25 206.433594 340.566406 206.285156 341.863281 Z M 209.109375 330.269531 C 208.734375 331.25 209.25 332.339844 210.222656 332.707031 C 211.195312 333.070312 212.292969 332.566406 212.652344 331.589844 C 213.078125 330.453125 213.539062 329.3125 214.058594 328.164062 C 214.488281 327.210938 214.078125 326.089844 213.125 325.660156 C 212.167969 325.226562 211.050781 325.652344 210.621094 326.601562 C 210.050781 327.832031 209.554688 329.058594 209.109375 330.269531 Z M 214.320312 319.625 C 213.78125 320.515625 214.0625 321.679688 214.949219 322.230469 C 215.835938 322.773438 217.007812 322.496094 217.550781 321.605469 C 218.179688 320.566406 218.863281 319.523438 219.582031 318.484375 C 220.179688 317.621094 219.96875 316.441406 219.117188 315.847656 C 218.25 315.253906 217.074219 315.464844 216.476562 316.324219 C 215.722656 317.425781 215.003906 318.527344 214.320312 319.625 Z M 221.269531 310.121094 C 220.597656 310.921875 220.699219 312.117188 221.496094 312.789062 C 222.3125 313.457031 223.511719 313.351562 224.183594 312.550781 C 225.011719 311.539062 225.839844 310.542969 226.632812 309.5625 C 227.289062 308.746094 227.167969 307.554688 226.351562 306.898438 C 225.535156 306.242188 224.339844 306.375 223.6875 307.1875 C 222.910156 308.152344 222.097656 309.128906 221.269531 310.121094 Z M 228.300781 301.179688 C 227.6875 302.019531 227.878906 303.207031 228.710938 303.824219 C 229.5625 304.441406 230.742188 304.257812 231.355469 303.414062 C 232.148438 302.34375 232.902344 301.285156 233.621094 300.25 C 234.21875 299.390625 233.992188 298.210938 233.140625 297.617188 C 232.273438 297.023438 231.097656 297.238281 230.5 298.097656 C 229.816406 299.105469 229.078125 300.132812 228.300781 301.179688 Z M 234.597656 291.757812 C 234.054688 292.65625 234.355469 293.820312 235.242188 294.355469 C 236.144531 294.886719 237.300781 294.589844 237.84375 293.695312 C 238.542969 292.53125 239.167969 291.398438 239.777344 290.285156 C 240.265625 289.363281 239.925781 288.214844 239.007812 287.722656 C 238.085938 287.226562 236.929688 287.574219 236.445312 288.492188 C 235.871094 289.558594 235.242188 290.648438 234.597656 291.757812 Z M 239.605469 281.753906 C 239.230469 282.722656 239.691406 283.824219 240.664062 284.210938 C 241.640625 284.597656 242.734375 284.125 243.128906 283.152344 C 243.644531 281.867188 244.085938 280.621094 244.472656 279.40625 C 244.777344 278.410156 244.222656 277.347656 243.234375 277.035156 C 242.226562 276.722656 241.167969 277.277344 240.847656 278.277344 C 240.492188 279.402344 240.085938 280.558594 239.605469 281.753906 Z M 242.347656 271.167969 C 242.246094 272.207031 243.011719 273.132812 244.050781 273.230469 C 245.089844 273.332031 246.015625 272.566406 246.117188 271.527344 C 246.246094 270.105469 246.285156 268.738281 246.21875 267.429688 C 246.175781 266.386719 245.300781 265.578125 244.246094 265.625 C 243.210938 265.671875 242.398438 266.558594 242.441406 267.601562 C 242.488281 268.742188 242.460938 269.929688 242.347656 271.167969 Z M 240.96875 260.773438 C 241.371094 261.742188 242.472656 262.203125 243.445312 261.804688 C 244.417969 261.410156 244.878906 260.304688 244.476562 259.335938 C 243.933594 258.039062 243.304688 256.804688 242.550781 255.640625 C 242 254.757812 240.832031 254.5 239.9375 255.058594 C 239.058594 255.621094 238.796875 256.792969 239.363281 257.671875 C 239.988281 258.652344 240.523438 259.683594 240.96875 260.773438 Z M 234.671875 252.363281 C 235.472656 253.042969 236.667969 252.949219 237.339844 252.15625 C 238.027344 251.363281 237.925781 250.167969 237.128906 249.488281 C 236.128906 248.625 235.054688 247.808594 233.925781 247.039062 C 233.058594 246.449219 231.878906 246.667969 231.300781 247.53125 C 230.707031 248.394531 230.933594 249.574219 231.785156 250.164062 C 232.800781 250.855469 233.761719 251.585938 234.671875 252.363281 Z M 225.371094 246.53125 C 226.328125 246.980469 227.445312 246.578125 227.894531 245.632812 C 228.34375 244.691406 227.953125 243.5625 226.996094 243.113281 C 225.820312 242.554688 224.625 242.027344 223.394531 241.523438 C 222.421875 241.132812 221.324219 241.59375 220.929688 242.5625 C 220.535156 243.527344 221 244.632812 221.972656 245.03125 C 223.128906 245.503906 224.265625 246.003906 225.371094 246.53125 Z M 214.894531 242.480469 C 215.882812 242.800781 216.941406 242.25 217.265625 241.253906 C 217.585938 240.261719 217.03125 239.195312 216.042969 238.875 C 214.796875 238.480469 213.570312 238.101562 212.324219 237.742188 C 211.320312 237.453125 210.277344 238.027344 209.976562 239.03125 C 209.691406 240.035156 210.261719 241.085938 211.269531 241.378906 C 212.476562 241.730469 213.683594 242.09375 214.894531 242.480469 Z M 203.914062 239.386719 C 204.9375 239.648438 205.960938 239.035156 206.226562 238.023438 C 206.492188 237.011719 205.867188 235.980469 204.859375 235.722656 C 203.597656 235.394531 202.355469 235.082031 201.128906 234.773438 C 200.125 234.519531 199.101562 235.136719 198.835938 236.144531 C 198.589844 237.160156 199.195312 238.191406 200.21875 238.445312 C 201.425781 238.75 202.652344 239.0625 203.914062 239.386719 Z M 192.738281 236.488281 C 193.746094 236.773438 194.785156 236.1875 195.070312 235.183594 C 195.355469 234.175781 194.785156 233.128906 193.777344 232.84375 C 192.496094 232.484375 191.289062 232.121094 190.207031 231.75 C 189.214844 231.414062 188.140625 231.945312 187.800781 232.933594 C 187.460938 233.921875 187.996094 234.996094 188.984375 235.332031 C 190.140625 235.722656 191.386719 236.109375 192.738281 236.488281 Z M 181.578125 231.191406 C 182.289062 231.949219 183.488281 231.980469 184.25 231.257812 C 184.996094 230.539062 185.039062 229.339844 184.3125 228.582031 C 183.457031 227.679688 182.667969 226.761719 181.957031 225.824219 C 181.335938 224.992188 180.152344 224.832031 179.3125 225.464844 C 178.472656 226.09375 178.320312 227.28125 178.957031 228.113281 C 179.746094 229.160156 180.609375 230.1875 181.578125 231.191406 Z M 174.84375 221.136719 C 175.25 222.09375 176.367188 222.527344 177.339844 222.109375 C 178.292969 221.6875 178.71875 220.570312 178.296875 219.617188 C 177.816406 218.503906 177.40625 217.371094 177.050781 216.222656 C 176.734375 215.226562 175.667969 214.667969 174.675781 214.976562 C 173.683594 215.28125 173.109375 216.339844 173.425781 217.339844 C 173.820312 218.625 174.285156 219.890625 174.84375 221.136719 Z M 171.851562 209.464844 C 171.96875 210.507812 172.894531 211.261719 173.929688 211.15625 C 174.980469 211.046875 175.71875 210.117188 175.621094 209.078125 C 175.503906 207.859375 175.417969 206.632812 175.386719 205.398438 C 175.363281 204.351562 174.488281 203.527344 173.453125 203.554688 C 172.398438 203.582031 171.582031 204.449219 171.609375 205.492188 C 171.640625 206.828125 171.730469 208.152344 171.851562 209.464844 Z M 171.890625 197.613281 C 171.789062 198.65625 172.574219 199.574219 173.613281 199.667969 C 174.648438 199.761719 175.558594 198.992188 175.660156 197.953125 C 175.777344 196.710938 175.910156 195.464844 176.078125 194.214844 C 176.199219 193.179688 175.464844 192.226562 174.445312 192.09375 C 173.40625 191.960938 172.441406 192.691406 172.320312 193.726562 C 172.152344 195.027344 172.003906 196.324219 171.890625 197.613281 Z M 173.515625 186.0625 C 173.339844 187.089844 174.019531 188.074219 175.058594 188.257812 C 176.082031 188.441406 177.066406 187.757812 177.257812 186.730469 C 177.480469 185.476562 177.707031 184.226562 177.949219 182.976562 C 178.140625 181.953125 177.464844 180.960938 176.441406 180.765625 C 175.417969 180.570312 174.417969 181.242188 174.222656 182.269531 C 173.980469 183.53125 173.757812 184.796875 173.515625 186.0625 Z M 175.675781 174.746094 C 175.484375 175.773438 176.160156 176.761719 177.183594 176.949219 C 178.207031 177.140625 179.207031 176.464844 179.382812 175.4375 C 179.625 174.160156 179.847656 172.890625 180.070312 171.628906 C 180.246094 170.597656 179.550781 169.621094 178.507812 169.449219 C 177.488281 169.273438 176.503906 169.96875 176.328125 171 C 176.125 172.238281 175.898438 173.488281 175.675781 174.746094 Z M 177.367188 163.53125 C 177.265625 164.570312 178.03125 165.496094 179.070312 165.601562 C 180.109375 165.703125 181.035156 164.941406 181.136719 163.902344 C 181.269531 162.578125 181.363281 161.265625 181.421875 159.972656 C 181.46875 158.929688 180.648438 158.046875 179.613281 158 C 178.554688 157.957031 177.6875 158.765625 177.636719 159.8125 C 177.578125 161.035156 177.5 162.277344 177.367188 163.53125 Z M 177.367188 152.480469 C 177.503906 153.515625 178.464844 154.25 179.5 154.113281 C 180.53125 153.976562 181.273438 153.027344 181.136719 151.992188 C 180.957031 150.628906 180.707031 149.300781 180.367188 148 C 180.105469 146.988281 179.074219 146.378906 178.0625 146.636719 C 177.050781 146.898438 176.441406 147.929688 176.699219 148.941406 C 177 150.09375 177.210938 151.273438 177.367188 152.480469 Z M 173.960938 142.425781 C 174.511719 143.3125 175.679688 143.585938 176.558594 143.039062 C 177.453125 142.488281 177.734375 141.320312 177.183594 140.429688 C 176.464844 139.285156 175.65625 138.175781 174.722656 137.105469 C 174.050781 136.316406 172.847656 136.230469 172.046875 136.914062 C 171.261719 137.597656 171.183594 138.796875 171.855469 139.585938 C 172.660156 140.5 173.355469 141.445312 173.960938 142.425781 Z M 166.453125 134.871094 C 167.304688 135.46875 168.480469 135.257812 169.078125 134.398438 C 169.671875 133.542969 169.460938 132.363281 168.613281 131.765625 C 167.503906 130.996094 166.394531 130.28125 165.269531 129.613281 C 164.386719 129.078125 163.210938 129.375 162.6875 130.269531 C 162.144531 131.167969 162.445312 132.328125 163.332031 132.867188 C 164.382812 133.488281 165.417969 134.15625 166.453125 134.871094 Z M 156.726562 129.554688 C 157.699219 129.953125 158.816406 129.492188 159.210938 128.527344 C 159.605469 127.558594 159.140625 126.453125 158.1875 126.054688 C 156.9375 125.542969 155.691406 125.085938 154.445312 124.679688 C 153.457031 124.351562 152.378906 124.894531 152.058594 125.886719 C 151.738281 126.878906 152.269531 127.949219 153.261719 128.273438 C 154.433594 128.65625 155.589844 129.078125 156.726562 129.554688 Z M 146.09375 126.484375 C 147.113281 126.664062 148.097656 125.976562 148.289062 124.949219 C 148.464844 123.921875 147.785156 122.9375 146.746094 122.757812 C 145.453125 122.527344 144.136719 122.339844 142.824219 122.199219 C 141.789062 122.085938 140.859375 122.835938 140.742188 123.875 C 140.636719 124.914062 141.386719 125.847656 142.425781 125.960938 C 143.648438 126.09375 144.871094 126.269531 146.09375 126.484375 Z M 134.984375 125.59375 C 136.019531 125.585938 136.871094 124.734375 136.863281 123.6875 C 136.855469 122.644531 136 121.800781 134.964844 121.808594 C 133.65625 121.820312 132.347656 121.863281 131.023438 121.9375 C 129.988281 121.992188 129.195312 122.886719 129.253906 123.929688 C 129.296875 124.972656 130.191406 125.773438 131.242188 125.714844 C 132.496094 125.644531 133.730469 125.601562 134.984375 125.59375 Z M 123.773438 126.457031 C 124.804688 126.316406 125.527344 125.359375 125.375 124.320312 C 125.242188 123.289062 124.277344 122.566406 123.246094 122.710938 C 121.960938 122.890625 120.675781 123.089844 119.390625 123.316406 C 118.359375 123.492188 117.671875 124.476562 117.84375 125.503906 C 118.03125 126.53125 119.011719 127.222656 120.042969 127.042969 C 121.273438 126.828125 122.523438 126.632812 123.773438 126.457031 Z M 112.628906 128.546875 C 113.640625 128.3125 114.269531 127.300781 114.046875 126.28125 C 113.820312 125.261719 112.789062 124.625 111.777344 124.855469 C 110.527344 125.144531 109.265625 125.445312 108.015625 125.753906 C 107.007812 126.007812 106.375 127.035156 106.636719 128.050781 C 106.878906 129.0625 107.914062 129.683594 108.925781 129.429688 C 110.152344 129.125 111.382812 128.828125 112.628906 128.546875 Z M 101.554688 131.378906 C 102.566406 131.097656 103.160156 130.054688 102.882812 129.046875 C 102.601562 128.042969 101.550781 127.449219 100.542969 127.730469 C 99.3125 128.074219 98.066406 128.421875 96.839844 128.773438 C 95.828125 129.058594 95.253906 130.105469 95.535156 131.113281 C 95.832031 132.117188 96.882812 132.699219 97.875 132.414062 C 99.101562 132.066406 100.328125 131.71875 101.554688 131.378906 Z M 90.511719 134.53125 C 91.523438 134.242188 92.097656 133.195312 91.816406 132.191406 C 91.519531 131.1875 90.46875 130.605469 89.457031 130.894531 C 88.230469 131.246094 87.003906 131.59375 85.796875 131.9375 C 84.785156 132.21875 84.191406 133.265625 84.46875 134.273438 C 84.769531 135.277344 85.800781 135.863281 86.808594 135.582031 C 88.039062 135.238281 89.265625 134.886719 90.511719 134.53125 Z M 79.351562 137.582031 C 80.363281 137.328125 80.976562 136.296875 80.734375 135.285156 C 80.472656 134.269531 79.4375 133.65625 78.429688 133.914062 C 77.199219 134.222656 75.953125 134.519531 74.742188 134.800781 C 73.730469 135.035156 73.082031 136.050781 73.324219 137.066406 C 73.550781 138.085938 74.566406 138.722656 75.578125 138.492188 C 76.824219 138.207031 78.089844 137.902344 79.351562 137.582031 Z M 67.945312 139.992188 C 68.957031 139.828125 69.679688 138.859375 69.507812 137.828125 C 69.335938 136.796875 68.375 136.089844 67.34375 136.257812 C 66.09375 136.453125 64.84375 136.625 63.628906 136.757812 C 62.597656 136.875 61.839844 137.808594 61.953125 138.847656 C 62.070312 139.886719 63.015625 140.636719 64.050781 140.519531 C 65.335938 140.378906 66.621094 140.203125 67.945312 139.992188 Z M 56.132812 140.902344 C 57.1875 140.925781 58.042969 140.097656 58.070312 139.054688 C 58.097656 138.011719 57.261719 137.144531 56.222656 137.121094 C 54.988281 137.089844 53.765625 137.015625 52.566406 136.882812 C 51.527344 136.765625 50.582031 137.515625 50.480469 138.554688 C 50.359375 139.59375 51.109375 140.527344 52.148438 140.644531 C 53.460938 140.789062 54.789062 140.875 56.132812 140.902344 Z M 44.253906 138.902344 C 45.242188 139.246094 46.320312 138.71875 46.660156 137.734375 C 47.019531 136.746094 46.484375 135.667969 45.492188 135.324219 C 44.375 134.9375 43.273438 134.476562 42.1875 133.941406 C 41.25 133.476562 40.113281 133.859375 39.648438 134.792969 C 39.179688 135.730469 39.570312 136.867188 40.507812 137.332031 C 41.722656 137.941406 42.988281 138.460938 44.253906 138.902344 Z M 33.746094 132.816406 C 34.527344 133.5 35.722656 133.414062 36.414062 132.625 C 37.101562 131.835938 37.019531 130.640625 36.222656 129.957031 C 35.328125 129.1875 34.472656 128.347656 33.632812 127.429688 C 32.921875 126.664062 31.722656 126.613281 30.957031 127.320312 C 30.175781 128.03125 30.132812 129.226562 30.84375 129.996094 C 31.777344 131.019531 32.742188 131.957031 33.746094 132.816406 Z M 25.964844 123.753906 C 26.550781 124.613281 27.734375 124.824219 28.59375 124.230469 C 29.449219 123.632812 29.660156 122.457031 29.074219 121.59375 C 28.359375 120.582031 27.679688 119.539062 27 118.46875 C 26.449219 117.582031 25.28125 117.316406 24.402344 117.871094 C 23.507812 118.425781 23.246094 119.59375 23.792969 120.480469 C 24.511719 121.597656 25.230469 122.691406 25.964844 123.753906 Z M 19.902344 113.699219 C 20.398438 114.625 21.535156 114.980469 22.46875 114.496094 C 23.398438 114.011719 23.753906 112.867188 23.257812 111.941406 C 22.6875 110.839844 22.113281 109.714844 21.578125 108.574219 C 21.117188 107.628906 19.980469 107.234375 19.046875 107.6875 C 18.097656 108.140625 17.707031 109.273438 18.164062 110.214844 C 18.738281 111.398438 19.3125 112.558594 19.902344 113.699219 Z M 14.992188 103.101562 C 15.398438 104.070312 16.5 104.53125 17.46875 104.136719 C 18.441406 103.738281 18.90625 102.632812 18.5 101.667969 C 18.035156 100.507812 17.574219 99.332031 17.105469 98.144531 C 16.738281 97.167969 15.652344 96.675781 14.679688 97.046875 C 13.691406 97.417969 13.207031 98.511719 13.578125 99.488281 C 14.042969 100.707031 14.507812 101.914062 14.992188 103.101562 Z M 11 92.164062 C 11.332031 93.160156 12.398438 93.703125 13.390625 93.378906 C 14.382812 93.058594 14.921875 91.988281 14.605469 90.996094 C 14.214844 89.800781 13.839844 88.59375 13.464844 87.375 C 13.167969 86.375 12.117188 85.804688 11.105469 86.105469 C 10.113281 86.40625 9.539062 87.464844 9.835938 88.464844 C 10.210938 89.710938 10.605469 90.941406 11 92.164062 Z M 7.765625 81 C 8.027344 82.011719 9.058594 82.625 10.070312 82.363281 C 11.082031 82.105469 11.691406 81.070312 11.429688 80.058594 C 11.128906 78.835938 10.828125 77.605469 10.523438 76.371094 C 10.28125 75.355469 9.265625 74.722656 8.253906 74.964844 C 7.222656 75.203125 6.59375 76.226562 6.835938 77.242188 C 7.140625 78.503906 7.445312 79.753906 7.765625 81 Z M 5.199219 69.679688 C 5.40625 70.703125 6.402344 71.371094 7.417969 71.167969 C 8.445312 70.964844 9.113281 69.96875 8.90625 68.941406 C 8.660156 67.703125 8.429688 66.457031 8.199219 65.207031 C 8.027344 64.179688 7.027344 63.496094 5.996094 63.679688 C 4.984375 63.863281 4.300781 64.851562 4.488281 65.878906 C 4.703125 67.148438 4.949219 68.417969 5.199219 69.679688 Z M 3.230469 58.246094 C 3.382812 59.277344 4.34375 59.996094 5.378906 59.84375 C 6.410156 59.695312 7.132812 58.730469 6.980469 57.699219 C 6.804688 56.445312 6.628906 55.1875 6.46875 53.929688 C 6.335938 52.894531 5.371094 52.160156 4.339844 52.296875 C 3.304688 52.429688 2.566406 53.378906 2.699219 54.414062 C 2.878906 55.691406 3.054688 56.96875 3.230469 58.246094 Z M 1.839844 46.730469 C 1.9375 47.773438 2.867188 48.535156 3.898438 48.433594 C 4.953125 48.332031 5.710938 47.410156 5.613281 46.367188 C 5.492188 45.105469 5.367188 43.839844 5.285156 42.578125 C 5.183594 41.539062 4.277344 40.761719 3.242188 40.84375 C 2.191406 40.925781 1.414062 41.839844 1.492188 42.882812 C 1.597656 44.164062 1.71875 45.445312 1.839844 46.730469 Z M 1.015625 35.164062 C 1.058594 36.207031 1.949219 37.015625 2.984375 36.964844 C 4.035156 36.917969 4.832031 36.027344 4.789062 34.984375 C 4.722656 33.714844 4.671875 32.449219 4.644531 31.183594 C 4.617188 30.140625 3.742188 29.320312 2.691406 29.351562 C 1.652344 29.382812 0.820312 30.257812 0.863281 31.300781 C 0.894531 32.582031 0.945312 33.871094 1.015625 35.164062 Z M 0.75 23.566406 C 0.757812 24.609375 1.59375 25.460938 2.648438 25.464844 C 3.6875 25.46875 4.535156 24.625 4.546875 23.582031 C 4.554688 22.304688 4.558594 21.039062 4.601562 19.78125 C 4.613281 18.734375 3.789062 17.871094 2.734375 17.847656 C 1.699219 17.820312 0.828125 18.652344 0.800781 19.695312 C 0.777344 20.976562 0.753906 22.265625 0.75 23.566406 Z M 1.136719 11.957031 C 1.074219 13 1.859375 13.898438 2.894531 13.964844 C 3.953125 14.027344 4.839844 13.234375 4.90625 12.191406 C 4.945312 11.558594 4.984375 10.925781 5.042969 10.296875 C 5.109375 9.253906 4.320312 8.347656 3.285156 8.273438 C 2.246094 8.199219 1.339844 8.984375 1.253906 10.023438 C 1.214844 10.667969 1.175781 11.308594 1.136719 11.957031 Z M 1.136719 11.957031 " fill-opacity="1" fill-rule="evenodd"/></g></g></g></g></g></g></g></g></svg>