<svg xmlns="http://www.w3.org/2000/svg" xmlns:xlink="http://www.w3.org/1999/xlink" width="222" zoomAndPan="magnify" viewBox="0 0 166.5 166.499994" height="222" preserveAspectRatio="xMidYMid meet" version="1.0"><defs><filter x="0%" y="0%" width="100%" height="100%" id="9ddc0b1706"><feColorMatrix values="0 0 0 0 1 0 0 0 0 1 0 0 0 0 1 0 0 0 1 0" color-interpolation-filters="sRGB"></feColorMatrix></filter><filter x="0%" y="0%" width="100%" height="100%" id="d6e449c1a2"><feColorMatrix values="0 0 0 0 1 0 0 0 0 1 0 0 0 0 1 0.2126 0.7152 0.0722 0 0" color-interpolation-filters="sRGB"></feColorMatrix></filter><clipPath id="8a2f8a5e47"><path d="M 0 0 L 166 0 L 166 165.582031 L 0 165.582031 Z M 0 0 " clip-rule="nonzero"></path></clipPath><mask id="1a958c802e"><g filter="url(#9ddc0b1706)"><g filter="url(#d6e449c1a2)" transform="matrix(0.169198, 0.169198, -0.169198, 0.169198, 82.81837, -1.279995)"><image x="0" y="0" width="495" height="495" preserveAspectRatio="xMidYMid meet"></image></g></g></mask><clipPath id="7d2605d13a"><path d="M 56 59 L 114 59 L 114 94 L 56 94 Z M 56 59 " clip-rule="nonzero"></path></clipPath><clipPath id="14c4a387c1"><path d="M 82.820312 44.636719 L 115.042969 76.859375 L 82.820312 109.082031 L 50.59375 76.859375 Z M 82.820312 44.636719 " clip-rule="nonzero"></path></clipPath><clipPath id="a24a617e9c"><path d="M 82.820312 44.636719 L 115.042969 76.859375 L 82.820312 109.082031 L 50.59375 76.859375 Z M 82.820312 44.636719 " clip-rule="nonzero"></path></clipPath><clipPath id="20e6214ac9"><rect x="0" width="166" y="0" height="166"></rect></clipPath></defs><g transform="matrix(1, 0, 0, 1, 0, 0)"><g clip-path="url(#20e6214ac9)"><g clip-path="url(#8a2f8a5e47)"><g mask="url(#1a958c802e)"><g transform="matrix(0.169198, 0.169198, -0.169198, 0.169198, 82.81837, -1.279995)"><image x="0" y="0" width="495" height="495" preserveAspectRatio="xMidYMid meet"></image></g></g></g><g clip-path="url(#7d2605d13a)"><g clip-path="url(#14c4a387c1)"><g clip-path="url(#a24a617e9c)"><path fill="#faf8ff" d="M 113.164062 78.453125 C 114.101562 77.5 114.101562 75.941406 113.164062 74.988281 C 108.671875 70.398438 102.488281 65.800781 90.679688 66.515625 L 85.65625 66.820312 L 76 59.75 C 75.867188 59.652344 75.699219 59.601562 75.535156 59.601562 L 68.179688 59.601562 C 67.90625 59.601562 67.65625 59.742188 67.511719 59.972656 C 67.367188 60.199219 67.347656 60.488281 67.46875 60.734375 L 71.226562 68.53125 L 71.226562 69.824219 L 68.460938 70.390625 C 68.09375 70.464844 67.828125 70.789062 67.828125 71.164062 L 67.828125 71.550781 C 62.96875 71.542969 59.894531 73.238281 56.347656 76.109375 C 56.164062 76.261719 56.058594 76.484375 56.058594 76.722656 C 56.058594 76.933594 56.144531 77.136719 56.289062 77.28125 C 56.308594 77.300781 56.328125 77.316406 56.351562 77.332031 C 59.894531 80.207031 62.96875 81.894531 67.832031 81.890625 L 67.832031 82.28125 C 67.832031 82.496094 67.917969 82.691406 68.066406 82.835938 C 68.171875 82.941406 68.304688 83.019531 68.464844 83.050781 L 71.230469 83.617188 L 71.230469 84.914062 L 67.472656 92.707031 C 67.351562 92.953125 67.371094 93.238281 67.511719 93.472656 C 67.546875 93.519531 67.582031 93.566406 67.625 93.609375 C 67.769531 93.753906 67.972656 93.839844 68.179688 93.839844 L 75.535156 93.839844 C 75.703125 93.839844 75.863281 93.785156 76.003906 93.6875 L 85.664062 86.617188 L 90.683594 86.917969 C 102.480469 87.632812 108.667969 83.039062 113.164062 78.453125 Z M 112.035156 76.089844 C 112.375 76.4375 112.375 77 112.035156 77.351562 C 110.988281 78.425781 109.828125 79.5 108.523438 80.496094 C 107.835938 79.363281 107.46875 78.066406 107.476562 76.71875 C 107.472656 75.371094 107.835938 74.078125 108.523438 72.941406 C 109.832031 73.941406 110.984375 75.011719 112.035156 76.089844 Z M 75.273438 61.171875 L 83.1875 66.964844 L 72.519531 67.609375 L 69.417969 61.171875 Z M 58.105469 76.722656 C 61.113281 74.398438 63.75 73.121094 67.820312 73.128906 L 67.820312 80.320312 C 63.746094 80.324219 61.113281 79.050781 58.105469 76.722656 Z M 69.390625 81.640625 L 69.394531 71.804688 L 71.210938 71.433594 L 71.207031 82.023438 Z M 75.269531 92.273438 L 69.425781 92.273438 L 72.527344 85.835938 L 83.191406 86.476562 Z M 90.765625 85.351562 L 72.789062 84.273438 L 72.789062 69.171875 L 90.769531 68.09375 C 98.300781 67.636719 103.40625 69.460938 107.238281 72.023438 C 106.359375 73.433594 105.894531 75.042969 105.894531 76.722656 C 105.894531 78.40625 106.359375 80.015625 107.234375 81.421875 C 103.40625 83.980469 98.296875 85.804688 90.765625 85.351562 Z M 94.765625 72.246094 C 92.296875 69.78125 88.28125 69.777344 85.808594 72.246094 C 83.339844 74.714844 83.335938 78.734375 85.808594 81.203125 C 88.277344 83.671875 92.292969 83.675781 94.765625 81.203125 C 97.234375 78.726562 97.234375 74.714844 94.765625 72.246094 Z M 86.929688 80.085938 C 85.074219 78.230469 85.074219 75.210938 86.929688 73.359375 C 88.78125 71.503906 91.800781 71.503906 93.65625 73.359375 C 95.507812 75.210938 95.507812 78.230469 93.652344 80.085938 C 91.796875 81.933594 88.78125 81.9375 86.929688 80.085938 Z M 86.929688 80.085938 " fill-opacity="1" fill-rule="nonzero"></path></g></g></g></g></g></svg>