<svg xmlns="http://www.w3.org/2000/svg" xmlns:xlink="http://www.w3.org/1999/xlink" width="74" zoomAndPan="magnify" viewBox="0 0 55.5 55.499996" height="74" preserveAspectRatio="xMidYMid meet" version="1.0"><defs><filter x="0%" y="0%" width="100%" height="100%" id="0436403a38"><feColorMatrix values="0 0 0 0 1 0 0 0 0 1 0 0 0 0 1 0 0 0 1 0" color-interpolation-filters="sRGB"></feColorMatrix></filter><filter x="0%" y="0%" width="100%" height="100%" id="a69209cd9f"><feColorMatrix values="0 0 0 0 1 0 0 0 0 1 0 0 0 0 1 0.2126 0.7152 0.0722 0 0" color-interpolation-filters="sRGB"></feColorMatrix></filter><mask id="a6a2a98929"><g filter="url(#0436403a38)"><g filter="url(#a69209cd9f)" transform="matrix(0.237857, 0, 0, 0.237857, -0.237855, -0.237859)"><image x="0" y="0" width="231" height="231" preserveAspectRatio="xMidYMid meet"></image></g></g></mask><clipPath id="c09a90586f"><path d="M 7.339844 6.304688 L 43.210938 6.304688 L 43.210938 44.136719 L 7.339844 44.136719 Z M 7.339844 6.304688 " clip-rule="nonzero"></path></clipPath><clipPath id="1cb9794413"><path d="M 25.273438 6.304688 L 26.652344 20.859375 L 36.382812 9.890625 L 28.929688 22.515625 L 43.210938 19.339844 L 29.757812 25.136719 L 43.210938 31 L 28.929688 27.828125 L 36.382812 40.453125 L 26.652344 29.414062 L 25.273438 44.039062 L 23.894531 29.414062 L 14.167969 40.453125 L 21.617188 27.828125 L 7.339844 31 L 20.789062 25.136719 L 7.339844 19.339844 L 21.617188 22.515625 L 14.167969 9.890625 L 23.894531 20.859375 Z M 25.273438 6.304688 " clip-rule="nonzero"></path></clipPath><clipPath id="62256cdfe2"><path d="M 0.339844 0.304688 L 36.210938 0.304688 L 36.210938 38.136719 L 0.339844 38.136719 Z M 0.339844 0.304688 " clip-rule="nonzero"></path></clipPath><clipPath id="87b4b3f542"><path d="M 18.273438 0.304688 L 19.652344 14.859375 L 29.382812 3.890625 L 21.929688 16.515625 L 36.210938 13.339844 L 22.757812 19.136719 L 36.210938 25 L 21.929688 21.828125 L 29.382812 34.453125 L 19.652344 23.414062 L 18.273438 38.039062 L 16.894531 23.414062 L 7.167969 34.453125 L 14.617188 21.828125 L 0.339844 25 L 13.789062 19.136719 L 0.339844 13.339844 L 14.617188 16.515625 L 7.167969 3.890625 L 16.894531 14.859375 Z M 18.273438 0.304688 " clip-rule="nonzero"></path></clipPath><clipPath id="c13542fca9"><rect x="0" width="37" y="0" height="39"></rect></clipPath></defs><g mask="url(#a6a2a98929)"><g transform="matrix(0.237857, 0, 0, 0.237857, -0.237855, -0.237859)"><image x="0" y="0" width="231" height="231" preserveAspectRatio="xMidYMid meet"></image></g></g><g clip-path="url(#c09a90586f)"><g clip-path="url(#1cb9794413)"><g transform="matrix(1, 0, 0, 1, 7, 6)"><g clip-path="url(#c13542fca9)"><g clip-path="url(#62256cdfe2)"><g clip-path="url(#87b4b3f542)"><path fill="#6800db" d="M 0.339844 0.304688 L 36.210938 0.304688 L 36.210938 38.277344 L 0.339844 38.277344 Z M 0.339844 0.304688 " fill-opacity="1" fill-rule="nonzero"></path></g></g></g></g></g></g></svg>