<svg xmlns="http://www.w3.org/2000/svg" xmlns:xlink="http://www.w3.org/1999/xlink" width="270" zoomAndPan="magnify" viewBox="0 0 202.5 202.499993" height="270" preserveAspectRatio="xMidYMid meet" version="1.0"><defs><filter x="0%" y="0%" width="100%" height="100%" id="b4cf601c57"><feColorMatrix values="0 0 0 0 1 0 0 0 0 1 0 0 0 0 1 0 0 0 1 0" color-interpolation-filters="sRGB"></feColorMatrix></filter><filter x="0%" y="0%" width="100%" height="100%" id="0b91c0376c"><feColorMatrix values="0 0 0 0 1 0 0 0 0 1 0 0 0 0 1 0.2126 0.7152 0.0722 0 0" color-interpolation-filters="sRGB"></feColorMatrix></filter><clipPath id="e10d587658"><path d="M 0 0 L 201.582031 0 L 201.582031 202 L 0 202 Z M 0 0 " clip-rule="nonzero"></path></clipPath><mask id="8c9239950a"><g filter="url(#b4cf601c57)"><g filter="url(#0b91c0376c)" transform="matrix(0.232424, -0.0574064, 0.0574064, 0.232424, -1.041902, 39.691502)"><image x="0" y="0" width="701" height="701" preserveAspectRatio="xMidYMid meet"></image></g></g></mask><clipPath id="643cabcfc8"><path d="M 70 55 L 143 55 L 143 130 L 70 130 Z M 70 55 " clip-rule="nonzero"></path></clipPath><clipPath id="05df4408dc"><path d="M 59.746094 66.207031 L 132.257812 48.296875 L 150.167969 120.808594 L 77.65625 138.71875 Z M 59.746094 66.207031 " clip-rule="nonzero"></path></clipPath><clipPath id="a41a88321c"><path d="M 59.746094 66.207031 L 132.257812 48.296875 L 150.167969 120.808594 L 77.65625 138.71875 Z M 59.746094 66.207031 " clip-rule="nonzero"></path></clipPath><clipPath id="e1805cada7"><rect x="0" width="202" y="0" height="202"></rect></clipPath></defs><g transform="matrix(1, 0, 0, 1, 0, 0)"><g clip-path="url(#e1805cada7)"><g clip-path="url(#e10d587658)"><g mask="url(#8c9239950a)"><g transform="matrix(0.232424, -0.0574064, 0.0574064, 0.232424, -1.041902, 39.691502)"><image x="0" y="0" width="701" height="701" preserveAspectRatio="xMidYMid meet"></image></g></g></g><g clip-path="url(#643cabcfc8)"><g clip-path="url(#05df4408dc)"><g clip-path="url(#a41a88321c)"><path fill="#faf8ff" d="M 134.351562 68.929688 C 130.746094 64.214844 127.613281 62.757812 122.84375 59.875 C 117.023438 56.359375 114.375 55.375 107.433594 55.675781 C 106.546875 55.707031 105.683594 55.679688 104.867188 55.769531 C 104.035156 55.863281 103.269531 56.089844 102.53125 56.570312 C 96.59375 57.105469 90.449219 61.023438 86.1875 64.871094 C 73.203125 76.605469 66.699219 94.054688 73.988281 110.910156 C 79.792969 124.316406 95.464844 130.089844 109.121094 128.855469 C 123.785156 127.542969 138.441406 118.355469 141.984375 103.386719 C 143.382812 97.511719 142.4375 91.492188 141.175781 85.714844 C 139.875 79.6875 138.167969 73.90625 134.351562 68.929688 Z M 139.035156 86.167969 C 140.222656 91.648438 141.175781 97.3125 139.867188 102.867188 C 136.539062 116.910156 122.703125 125.425781 108.929688 126.652344 C 96.144531 127.796875 81.425781 122.554688 76.003906 110.023438 C 69.109375 94.09375 75.367188 77.597656 87.671875 66.515625 C 91.542969 63.027344 97.03125 59.398438 102.429688 58.792969 C 102.78125 58.929688 103.191406 58.863281 103.515625 58.597656 C 104.132812 58.074219 104.828125 57.957031 105.566406 57.925781 C 106.207031 57.878906 106.863281 57.902344 107.546875 57.882812 C 113.9375 57.589844 116.367188 58.535156 121.726562 61.769531 C 126.234375 64.492188 129.226562 65.820312 132.617188 70.269531 C 136.21875 74.984375 137.792969 80.460938 139.035156 86.167969 Z M 96.8125 76.527344 C 97.074219 76.089844 97.023438 75.503906 96.617188 75.140625 C 96.164062 74.730469 95.480469 74.75 95.070312 75.207031 C 94.761719 75.542969 94.609375 75.972656 94.613281 76.4375 C 94.605469 76.792969 94.703125 77.179688 94.738281 77.484375 C 95.335938 81.324219 96.1875 85.152344 96.976562 88.960938 C 97.648438 92.125 97.582031 95.699219 98.988281 98.683594 C 99.238281 99.238281 99.890625 99.46875 100.441406 99.21875 C 100.992188 98.953125 101.222656 98.300781 100.976562 97.765625 C 99.648438 94.945312 99.773438 91.527344 99.140625 88.519531 C 98.339844 84.75 97.5 80.972656 96.914062 77.171875 Z M 108.480469 70.851562 C 108.359375 73.152344 109.699219 76.082031 110.335938 78.289062 C 111.929688 83.90625 113.492188 89.703125 114.886719 95.355469 C 115.027344 95.933594 115.625 96.308594 116.21875 96.160156 C 116.800781 96.015625 117.175781 95.421875 117.027344 94.824219 C 115.621094 89.140625 114.054688 83.328125 112.460938 77.6875 C 111.890625 75.6875 110.574219 73.070312 110.691406 70.976562 C 110.726562 70.371094 110.261719 69.851562 109.65625 69.816406 C 109.035156 69.785156 108.515625 70.246094 108.480469 70.851562 Z M 88.316406 105.453125 C 88.390625 106.738281 89.296875 108.058594 90.742188 109.246094 C 93.5625 111.53125 98.441406 113.433594 100.355469 114.097656 C 110.742188 117.695312 122.527344 112.71875 128.089844 103.503906 C 129.1875 101.691406 130.6875 99.476562 130.992188 97.316406 C 131.066406 96.71875 130.652344 96.171875 130.050781 96.078125 C 129.457031 96 128.90625 96.414062 128.8125 97.015625 C 128.554688 98.902344 127.160156 100.792969 126.210938 102.386719 C 121.175781 110.722656 110.503906 115.296875 101.089844 112.015625 C 99.542969 111.488281 95.96875 110.117188 93.324219 108.386719 C 92.5 107.84375 91.765625 107.28125 91.246094 106.683594 C 90.839844 106.246094 90.5625 105.792969 90.519531 105.320312 C 90.480469 104.714844 89.972656 104.242188 89.367188 104.28125 C 88.75 104.339844 88.285156 104.867188 88.316406 105.453125 Z M 131.601562 98.804688 C 131.855469 99.074219 132.261719 99.21875 132.664062 99.117188 C 133.261719 98.96875 133.617188 98.378906 133.472656 97.78125 C 133.457031 97.730469 133.378906 97.414062 132.984375 97.101562 C 132.308594 96.542969 128.957031 94.054688 128.59375 93.867188 C 128.058594 93.589844 127.402344 93.789062 127.105469 94.328125 C 126.828125 94.863281 127.027344 95.519531 127.566406 95.816406 C 127.910156 95.992188 130.964844 98.269531 131.597656 98.785156 Z M 85.808594 107.132812 C 85.421875 107.601562 85.480469 108.292969 85.949219 108.683594 C 86.417969 109.070312 87.109375 109.007812 87.496094 108.542969 L 87.535156 108.476562 C 87.59375 108.40625 87.707031 108.265625 87.789062 108.210938 C 87.929688 108.101562 88.039062 107.941406 88.097656 107.796875 C 88.167969 107.707031 88.222656 107.636719 88.28125 107.566406 C 89.503906 105.960938 90.65625 104.523438 91.71875 102.789062 C 92.035156 102.261719 91.871094 101.597656 91.34375 101.28125 C 90.820312 100.960938 90.152344 101.128906 89.835938 101.652344 C 88.832031 103.316406 87.722656 104.707031 86.535156 106.230469 C 86.296875 106.546875 85.808594 107.132812 85.808594 107.132812 Z M 85.808594 107.132812 " fill-opacity="1" fill-rule="nonzero"></path></g></g></g></g></g></svg>