<svg xmlns="http://www.w3.org/2000/svg" xmlns:xlink="http://www.w3.org/1999/xlink" width="1366" zoomAndPan="magnify" viewBox="0 0 1024.5 576" height="768" preserveAspectRatio="xMidYMid meet" version="1.0"><defs><filter x="0%" y="0%" width="100%" height="100%" id="48130e07a8"><feColorMatrix values="0 0 0 0 1 0 0 0 0 1 0 0 0 0 1 0 0 0 1 0" color-interpolation-filters="sRGB"></feColorMatrix></filter><filter x="0%" y="0%" width="100%" height="100%" id="3bbc4db5b5"><feColorMatrix values="0 0 0 0 1 0 0 0 0 1 0 0 0 0 1 0.2126 0.7152 0.0722 0 0" color-interpolation-filters="sRGB"></feColorMatrix></filter><mask id="dec1c5d84e"><g filter="url(#48130e07a8)"><g filter="url(#3bbc4db5b5)" transform="matrix(-0.239774, 0.00722085, -0.00722085, -0.239774, 589.591469, 323.161451)"><image x="0" y="0" width="495" height="495" preserveAspectRatio="xMidYMid meet"></image></g></g></mask><clipPath id="c4c23a7ce3"><path d="M 510 246 L 556 246 L 556 293 L 510 293 Z M 510 246 " clip-rule="nonzero"></path></clipPath><clipPath id="8ae9904007"><path d="M 555.828125 291.371094 L 510.121094 292.75 L 508.742188 247.042969 L 554.449219 245.664062 Z M 555.828125 291.371094 " clip-rule="nonzero"></path></clipPath><clipPath id="6d2e510f2d"><path d="M 555.828125 291.371094 L 510.121094 292.75 L 508.742188 247.042969 L 554.449219 245.664062 Z M 555.828125 291.371094 " clip-rule="nonzero"></path></clipPath></defs><g mask="url(#dec1c5d84e)"><g transform="matrix(-0.239774, 0.00722085, -0.00722085, -0.239774, 589.591469, 323.161451)"><image x="0" y="0" width="495" height="495" preserveAspectRatio="xMidYMid meet"></image></g></g><g clip-path="url(#c4c23a7ce3)"><g clip-path="url(#8ae9904007)"><g clip-path="url(#6d2e510f2d)"><path fill="#faf8ff" d="M 510.292969 290.28125 C 510.347656 291.621094 511.484375 292.691406 512.824219 292.664062 C 519.261719 292.539062 526.863281 291.183594 534.457031 282.074219 L 537.6875 278.199219 L 549.484375 276.007812 C 549.644531 275.980469 549.796875 275.894531 549.910156 275.773438 L 554.964844 270.402344 C 555.152344 270.203125 555.222656 269.925781 555.15625 269.664062 C 555.085938 269.398438 554.886719 269.1875 554.625 269.109375 L 546.355469 266.492188 L 545.410156 265.605469 L 546.898438 263.195312 C 547.09375 262.875 547.039062 262.460938 546.765625 262.203125 L 546.484375 261.9375 C 549.828125 258.394531 550.707031 254.988281 551.046875 250.425781 C 551.0625 250.1875 550.972656 249.957031 550.796875 249.789062 C 550.648438 249.648438 550.4375 249.570312 550.234375 249.578125 C 550.203125 249.578125 550.179688 249.578125 550.152344 249.585938 C 545.617188 250.199219 542.273438 251.28125 538.9375 254.835938 L 538.652344 254.566406 C 538.496094 254.417969 538.292969 254.347656 538.085938 254.355469 C 537.933594 254.359375 537.789062 254.40625 537.65625 254.496094 L 535.339844 256.125 L 534.398438 255.238281 L 531.289062 247.136719 C 531.191406 246.882812 530.96875 246.699219 530.703125 246.644531 C 530.644531 246.632812 530.585938 246.628906 530.527344 246.632812 C 530.320312 246.636719 530.117188 246.726562 529.976562 246.878906 L 524.921875 252.246094 C 524.808594 252.367188 524.734375 252.523438 524.710938 252.695312 L 523.234375 264.601562 L 519.5625 268.058594 C 510.933594 276.175781 510.035156 283.847656 510.292969 290.28125 Z M 512.792969 291.082031 C 512.308594 291.089844 511.894531 290.703125 511.875 290.214844 C 511.8125 288.710938 511.824219 287.128906 511.992188 285.488281 C 513.292969 285.769531 514.488281 286.390625 515.46875 287.320312 C 516.457031 288.242188 517.148438 289.398438 517.503906 290.683594 C 515.878906 290.949219 514.304688 291.054688 512.792969 291.082031 Z M 548.941406 274.5 L 539.277344 276.296875 L 546.136719 268.070312 L 552.964844 270.226562 Z M 549.390625 251.285156 C 549.023438 255.078125 548.144531 257.882812 545.339844 260.847656 L 540.089844 255.90625 C 542.890625 252.929688 545.628906 251.882812 549.390625 251.285156 Z M 538.046875 256.144531 L 545.222656 262.902344 L 544.25 264.484375 L 536.519531 257.207031 Z M 526.246094 253.128906 L 530.265625 248.863281 L 532.828125 255.546875 L 525.035156 262.894531 Z M 520.652344 269.195312 L 533.792969 256.8125 L 544.8125 267.191406 L 533.246094 281.054688 C 528.402344 286.867188 523.5625 289.339844 519.058594 290.375 C 518.636719 288.765625 517.78125 287.320312 516.550781 286.164062 C 515.324219 285.007812 513.828125 284.242188 512.203125 283.914062 C 512.964844 279.359375 515.144531 274.378906 520.652344 269.195312 Z M 527.464844 281.117188 C 530.960938 281.011719 533.726562 278.082031 533.621094 274.582031 C 533.515625 271.085938 530.585938 268.320312 527.085938 268.425781 C 523.589844 268.53125 520.824219 271.460938 520.929688 274.964844 C 521.042969 278.464844 523.972656 281.222656 527.464844 281.117188 Z M 527.132812 270.011719 C 529.757812 269.933594 531.960938 272.007812 532.039062 274.632812 C 532.121094 277.261719 530.046875 279.464844 527.417969 279.542969 C 524.792969 279.621094 522.589844 277.546875 522.511719 274.921875 C 522.4375 272.292969 524.503906 270.089844 527.132812 270.011719 Z M 527.132812 270.011719 " fill-opacity="1" fill-rule="nonzero"></path></g></g></g></svg>