<svg xmlns="http://www.w3.org/2000/svg" xmlns:xlink="http://www.w3.org/1999/xlink" width="213" zoomAndPan="magnify" viewBox="0 0 159.75 159.750002" height="213" preserveAspectRatio="xMidYMid meet" version="1.0"><defs><filter x="0%" y="0%" width="100%" height="100%" id="ab6f36ad1d"><feColorMatrix values="0 0 0 0 1 0 0 0 0 1 0 0 0 0 1 0 0 0 1 0" color-interpolation-filters="sRGB"></feColorMatrix></filter><filter x="0%" y="0%" width="100%" height="100%" id="ac96a92387"><feColorMatrix values="0 0 0 0 1 0 0 0 0 1 0 0 0 0 1 0.2126 0.7152 0.0722 0 0" color-interpolation-filters="sRGB"></feColorMatrix></filter><mask id="408e7d8a8f"><g filter="url(#ab6f36ad1d)"><g filter="url(#ac96a92387)" transform="matrix(0.239625, 0, 0, 0.239625, -0.239625, -0.239617)"><image x="0" y="0" width="663" height="663" preserveAspectRatio="xMidYMid meet"></image></g></g></mask><clipPath id="5e6a83e2dd"><path d="M 36.070312 36.070312 L 110.953125 36.070312 L 110.953125 110.953125 L 36.070312 110.953125 Z M 36.070312 36.070312 " clip-rule="nonzero"></path></clipPath></defs><g mask="url(#408e7d8a8f)"><g transform="matrix(0.239625, 0, 0, 0.239625, -0.239625, -0.239617)"><image x="0" y="0" width="663" height="663" preserveAspectRatio="xMidYMid meet"></image></g></g><g clip-path="url(#5e6a83e2dd)"><path fill="#faf8ff" d="M 101.660156 98.460938 C 107.539062 91.835938 111.117188 83.128906 111.117188 73.59375 C 111.117188 64.0625 107.539062 55.359375 101.664062 48.734375 C 101.664062 48.726562 101.664062 48.722656 101.660156 48.714844 C 101.605469 48.617188 101.527344 48.539062 101.441406 48.476562 C 94.570312 40.863281 84.632812 36.070312 73.59375 36.070312 C 62.558594 36.070312 52.621094 40.863281 45.746094 48.472656 C 45.660156 48.535156 45.582031 48.617188 45.527344 48.714844 C 45.523438 48.722656 45.523438 48.730469 45.519531 48.734375 C 39.648438 55.359375 36.070312 64.066406 36.070312 73.59375 C 36.070312 83.121094 39.644531 91.828125 45.519531 98.449219 C 45.519531 98.457031 45.519531 98.464844 45.523438 98.472656 C 45.582031 98.570312 45.65625 98.652344 45.746094 98.714844 C 52.617188 106.324219 62.558594 111.117188 73.59375 111.117188 C 84.730469 111.117188 94.742188 106.238281 101.617188 98.511719 C 101.628906 98.496094 101.648438 98.492188 101.65625 98.472656 C 101.660156 98.46875 101.660156 98.464844 101.660156 98.460938 Z M 37.621094 74.359375 L 54.460938 74.359375 C 54.53125 81.222656 55.542969 87.640625 57.257812 93.128906 C 53.222656 94.117188 49.535156 95.464844 46.40625 97.136719 C 41.085938 91 37.804688 83.058594 37.621094 74.359375 Z M 46.40625 50.050781 C 49.535156 51.722656 53.222656 53.070312 57.257812 54.058594 C 55.539062 59.546875 54.53125 65.964844 54.460938 72.828125 L 37.621094 72.828125 C 37.804688 64.132812 41.085938 56.1875 46.40625 50.050781 Z M 109.566406 72.828125 L 92.730469 72.828125 C 92.65625 65.96875 91.648438 59.550781 89.933594 54.058594 C 93.96875 53.070312 97.652344 51.722656 100.78125 50.050781 C 106.105469 56.1875 109.382812 64.132812 109.566406 72.828125 Z M 91.199219 72.828125 L 74.359375 72.828125 L 74.359375 55.960938 C 79.265625 55.910156 84.0625 55.382812 88.484375 54.410156 C 90.144531 59.765625 91.128906 66.070312 91.199219 72.828125 Z M 74.359375 54.429688 L 74.359375 37.644531 C 80 38.140625 84.957031 44.078125 88.007812 52.949219 C 83.734375 53.871094 79.105469 54.378906 74.359375 54.429688 Z M 72.828125 54.429688 C 68.082031 54.378906 63.453125 53.871094 59.179688 52.949219 C 62.234375 44.078125 67.191406 38.140625 72.828125 37.644531 Z M 72.828125 55.960938 L 72.828125 72.828125 L 55.992188 72.828125 C 56.058594 66.070312 57.042969 59.765625 58.703125 54.410156 C 63.128906 55.378906 67.921875 55.910156 72.828125 55.960938 Z M 55.992188 74.359375 L 72.828125 74.359375 L 72.828125 91.226562 C 67.921875 91.277344 63.128906 91.808594 58.703125 92.777344 C 57.042969 87.421875 56.0625 81.117188 55.992188 74.359375 Z M 72.828125 92.757812 L 72.828125 109.546875 C 67.191406 109.050781 62.230469 103.109375 59.179688 94.238281 C 63.453125 93.316406 68.082031 92.808594 72.828125 92.757812 Z M 74.359375 92.757812 C 79.105469 92.808594 83.738281 93.316406 88.007812 94.238281 C 84.957031 103.109375 80 109.050781 74.359375 109.546875 Z M 74.359375 91.226562 L 74.359375 74.359375 L 91.199219 74.359375 C 91.128906 81.117188 90.144531 87.421875 88.484375 92.777344 C 84.0625 91.808594 79.269531 91.277344 74.359375 91.226562 Z M 92.730469 74.359375 L 109.566406 74.359375 C 109.382812 83.058594 106.105469 91 100.78125 97.136719 C 97.652344 95.464844 93.96875 94.117188 89.933594 93.128906 C 91.648438 87.640625 92.65625 81.222656 92.730469 74.359375 Z M 99.71875 48.875 C 96.738281 50.421875 93.261719 51.679688 89.457031 52.605469 C 87.164062 45.96875 83.816406 40.851562 79.890625 38.167969 C 87.632812 39.539062 94.523438 43.390625 99.71875 48.875 Z M 67.300781 38.164062 C 63.375 40.851562 60.027344 45.96875 57.734375 52.601562 C 53.925781 51.679688 50.453125 50.421875 47.472656 48.871094 C 52.664062 43.390625 59.554688 39.539062 67.300781 38.164062 Z M 47.472656 98.3125 C 50.449219 96.765625 53.925781 95.507812 57.730469 94.582031 C 60.023438 101.21875 63.375 106.335938 67.300781 109.023438 C 59.554688 107.652344 52.664062 103.796875 47.472656 98.3125 Z M 79.890625 109.023438 C 83.8125 106.335938 87.164062 101.21875 89.457031 94.585938 C 93.261719 95.511719 96.738281 96.765625 99.714844 98.316406 C 94.523438 103.800781 87.632812 107.652344 79.890625 109.023438 Z M 79.890625 109.023438 " fill-opacity="1" fill-rule="nonzero"></path></g></svg>