<svg xmlns="http://www.w3.org/2000/svg" xmlns:xlink="http://www.w3.org/1999/xlink" width="124" zoomAndPan="magnify" viewBox="449 225 124 124" height="124" preserveAspectRatio="xMidYMid meet" version="1.0"><defs><clipPath id="d4b8782109"><path d="M 0.414062 0.585938 L 105.9375 0.585938 L 105.9375 97.414062 L 0.414062 97.414062 Z M 0.414062 0.585938 " clip-rule="nonzero"/></clipPath><clipPath id="74f76c7c4c"><path d="M 53 0.585938 L 60.761719 11.019531 L 72.078125 3.886719 L 75.242188 16.203125 L 88.578125 13.332031 L 86.714844 25.875 L 100.277344 27.652344 L 93.636719 38.726562 L 105.585938 44.910156 L 95.070312 53.019531 L 103.796875 62.777344 L 90.820312 66.828125 L 95.144531 78.839844 L 81.464844 78.28125 L 80.800781 90.929688 L 68.261719 85.839844 L 62.703125 97.414062 L 53 88.476562 L 43.296875 97.414062 L 37.738281 85.839844 L 25.199219 90.929688 L 24.535156 78.28125 L 10.855469 78.839844 L 15.179688 66.828125 L 2.203125 62.777344 L 10.929688 53.019531 L 0.414062 44.910156 L 12.363281 38.726562 L 5.722656 27.652344 L 19.285156 25.875 L 17.421875 13.332031 L 30.757812 16.203125 L 33.921875 3.886719 L 45.238281 11.019531 Z M 53 0.585938 " clip-rule="nonzero"/></clipPath><clipPath id="e116835da3"><path d="M 0.414062 0.585938 L 105.683594 0.585938 L 105.683594 97.414062 L 0.414062 97.414062 Z M 0.414062 0.585938 " clip-rule="nonzero"/></clipPath><clipPath id="44ac496de2"><path d="M 53 0.585938 L 60.761719 11.019531 L 72.078125 3.886719 L 75.242188 16.203125 L 88.578125 13.332031 L 86.714844 25.875 L 100.277344 27.652344 L 93.636719 38.726562 L 105.585938 44.910156 L 95.070312 53.019531 L 103.796875 62.777344 L 90.820312 66.828125 L 95.144531 78.839844 L 81.464844 78.28125 L 80.800781 90.929688 L 68.261719 85.839844 L 62.703125 97.414062 L 53 88.476562 L 43.296875 97.414062 L 37.738281 85.839844 L 25.199219 90.929688 L 24.535156 78.28125 L 10.855469 78.839844 L 15.179688 66.828125 L 2.203125 62.777344 L 10.929688 53.019531 L 0.414062 44.910156 L 12.363281 38.726562 L 5.722656 27.652344 L 19.285156 25.875 L 17.421875 13.332031 L 30.757812 16.203125 L 33.921875 3.886719 L 45.238281 11.019531 Z M 53 0.585938 " clip-rule="nonzero"/></clipPath><clipPath id="2bee146aff"><rect x="0" width="106" y="0" height="98"/></clipPath><clipPath id="f12f8062ef"><path d="M 29 25.257812 L 77 25.257812 L 77 73.371094 L 29 73.371094 Z M 29 25.257812 " clip-rule="nonzero"/></clipPath><clipPath id="eeb37fe458"><rect x="0" width="107" y="0" height="98"/></clipPath></defs><g transform="matrix(1, 0, 0, 1, 459, 239)"><g clip-path="url(#eeb37fe458)"><g clip-path="url(#d4b8782109)"><g clip-path="url(#74f76c7c4c)"><g transform="matrix(1, 0, 0, 1, 0, -0.000000000000056843)"><g clip-path="url(#2bee146aff)"><g clip-path="url(#e116835da3)"><g clip-path="url(#44ac496de2)"><path fill="#6800db" d="M 0.414062 0.585938 L 105.558594 0.585938 L 105.558594 97.414062 L 0.414062 97.414062 Z M 0.414062 0.585938 " fill-opacity="1" fill-rule="nonzero"/></g></g></g></g></g></g><g clip-path="url(#f12f8062ef)"><path fill="#faf8ff" d="M 71.269531 27.128906 C 69.367188 25.230469 66.058594 25.234375 64.167969 27.128906 L 59.910156 31.386719 C 59.90625 31.386719 59.90625 31.386719 59.902344 31.390625 C 59.902344 31.390625 59.902344 31.394531 59.898438 31.398438 L 32.992188 58.304688 C 32.988281 58.308594 32.988281 58.316406 32.984375 58.320312 C 32.980469 58.324219 32.976562 58.324219 32.972656 58.328125 C 32.847656 58.453125 32.777344 58.601562 32.734375 58.757812 C 32.734375 58.757812 32.730469 58.761719 32.730469 58.761719 L 29.179688 72.253906 C 29.089844 72.601562 29.1875 72.964844 29.441406 73.21875 C 29.632812 73.410156 29.890625 73.511719 30.152344 73.511719 C 30.238281 73.511719 30.324219 73.5 30.40625 73.476562 L 43.902344 69.925781 C 44.058594 69.878906 44.210938 69.808594 44.335938 69.6875 C 44.339844 69.679688 44.339844 69.675781 44.34375 69.671875 C 44.347656 69.667969 44.351562 69.667969 44.359375 69.664062 L 75.53125 38.492188 C 76.476562 37.542969 77 36.285156 77 34.941406 C 77 33.601562 76.476562 32.339844 75.53125 31.390625 Z M 43.625 67.558594 L 35.101562 59.035156 L 60.617188 33.523438 L 69.140625 42.042969 Z M 34.21875 60.996094 L 41.664062 68.441406 L 31.5625 71.101562 Z M 74.109375 37.074219 L 70.558594 40.625 L 62.035156 32.101562 L 65.585938 28.550781 C 66.726562 27.414062 68.710938 27.414062 69.847656 28.550781 L 74.109375 32.8125 C 75.285156 33.988281 75.285156 35.898438 74.109375 37.074219 Z M 74.109375 37.074219 " fill-opacity="1" fill-rule="nonzero"/></g></g></g></svg>