<svg xmlns="http://www.w3.org/2000/svg" xmlns:xlink="http://www.w3.org/1999/xlink" zoomAndPan="magnify" viewBox="483 259 56 56" preserveAspectRatio="xMidYMid meet" version="1.0"><defs><clipPath id="e7d0b76745"><path d="M 494 270 L 530 270 L 530 306 L 494 306 Z M 494 270 " clip-rule="nonzero"/></clipPath><clipPath id="8f03bec36d"><path d="M 493.011719 272.925781 L 527.269531 268.988281 L 531.207031 303.246094 L 496.949219 307.183594 Z M 493.011719 272.925781 " clip-rule="nonzero"/></clipPath><clipPath id="3d6f7a4476"><path d="M 493.011719 272.925781 L 527.269531 268.988281 L 531.207031 303.246094 L 496.949219 307.183594 Z M 493.011719 272.925781 " clip-rule="nonzero"/></clipPath></defs><g clip-path="url(#e7d0b76745)"><g clip-path="url(#8f03bec36d)"><g clip-path="url(#3d6f7a4476)"><path fill="#6800db" d="M 526.035156 297.820312 C 528.355469 294.507812 529.527344 290.367188 529.027344 286.039062 C 528.53125 281.714844 526.453125 277.949219 523.441406 275.25 C 523.441406 275.25 523.441406 275.246094 523.4375 275.242188 C 523.40625 275.199219 523.367188 275.167969 523.328125 275.144531 C 519.808594 272.050781 515.050781 270.394531 510.039062 270.96875 C 505.03125 271.546875 500.773438 274.238281 498.050781 278.050781 C 498.011719 278.085938 497.984375 278.125 497.960938 278.171875 C 497.960938 278.175781 497.960938 278.179688 497.960938 278.183594 C 495.640625 281.496094 494.472656 285.632812 494.96875 289.957031 C 495.464844 294.28125 497.542969 298.046875 500.554688 300.746094 C 500.554688 300.75 500.554688 300.75 500.558594 300.753906 C 500.589844 300.796875 500.628906 300.828125 500.671875 300.851562 C 504.1875 303.949219 508.949219 305.605469 513.957031 305.027344 C 519.011719 304.449219 523.300781 301.710938 526.015625 297.84375 C 526.023438 297.835938 526.03125 297.832031 526.035156 297.824219 C 526.035156 297.824219 526.035156 297.820312 526.035156 297.820312 Z M 495.714844 290.222656 L 503.355469 289.34375 C 503.746094 292.457031 504.539062 295.316406 505.601562 297.714844 C 503.824219 298.375 502.222656 299.179688 500.886719 300.101562 C 498.152344 297.59375 496.25 294.160156 495.714844 290.222656 Z M 498.429688 278.730469 C 499.9375 279.328125 501.679688 279.746094 503.5625 279.984375 C 503.070312 282.566406 502.949219 285.53125 503.273438 288.648438 L 495.632812 289.527344 C 495.261719 285.570312 496.335938 281.796875 498.429688 278.730469 Z M 528.285156 285.773438 L 520.644531 286.652344 C 520.253906 283.542969 519.460938 280.683594 518.394531 278.28125 C 520.171875 277.621094 521.773438 276.816406 523.109375 275.894531 C 525.84375 278.402344 527.746094 281.835938 528.285156 285.773438 Z M 519.949219 286.734375 L 512.304688 287.609375 L 511.425781 279.957031 C 513.648438 279.675781 515.796875 279.1875 517.757812 278.515625 C 518.789062 280.859375 519.5625 283.667969 519.949219 286.734375 Z M 511.347656 279.261719 L 510.46875 271.640625 C 513.054688 271.574219 515.613281 274.011719 517.460938 277.875 C 515.570312 278.519531 513.496094 278.992188 511.347656 279.261719 Z M 510.652344 279.339844 C 508.496094 279.566406 506.367188 279.578125 504.378906 279.382812 C 505.300781 275.195312 507.242188 272.242188 509.773438 271.722656 Z M 510.730469 280.035156 L 511.613281 287.691406 L 503.96875 288.570312 C 503.648438 285.5 503.765625 282.585938 504.238281 280.070312 C 506.296875 280.277344 508.5 280.269531 510.730469 280.035156 Z M 504.050781 289.265625 L 511.691406 288.386719 L 512.570312 296.042969 C 510.347656 296.320312 508.199219 296.8125 506.242188 297.480469 C 505.210938 295.136719 504.433594 292.328125 504.050781 289.265625 Z M 512.652344 296.734375 L 513.527344 304.355469 C 510.941406 304.425781 508.382812 301.988281 506.535156 298.121094 C 508.425781 297.476562 510.5 297.007812 512.652344 296.734375 Z M 513.347656 296.65625 C 515.503906 296.429688 517.632812 296.421875 519.617188 296.617188 C 518.695312 300.800781 516.757812 303.757812 514.222656 304.277344 Z M 513.265625 295.960938 L 512.386719 288.304688 L 520.027344 287.425781 C 520.347656 290.496094 520.230469 293.410156 519.757812 295.925781 C 517.699219 295.71875 515.496094 295.726562 513.265625 295.960938 Z M 520.722656 287.347656 L 528.363281 286.46875 C 528.734375 290.425781 527.660156 294.203125 525.566406 297.265625 C 524.058594 296.667969 522.316406 296.25 520.433594 296.011719 C 520.925781 293.429688 521.046875 290.464844 520.722656 287.347656 Z M 522.5625 275.414062 C 521.292969 276.273438 519.78125 277.027344 518.101562 277.644531 C 516.714844 274.753906 514.929688 272.605469 513.007812 271.589844 C 516.59375 271.808594 519.921875 273.199219 522.5625 275.414062 Z M 507.292969 272.246094 C 505.652344 273.671875 504.398438 276.167969 503.703125 279.300781 C 501.929688 279.078125 500.285156 278.691406 498.855469 278.140625 C 500.921875 275.382812 503.851562 273.273438 507.292969 272.246094 Z M 501.433594 300.582031 C 502.703125 299.722656 504.214844 298.972656 505.894531 298.351562 C 507.28125 301.242188 509.070312 303.390625 510.992188 304.40625 C 507.40625 304.1875 504.074219 302.800781 501.433594 300.582031 Z M 516.703125 303.75 C 518.34375 302.324219 519.597656 299.828125 520.292969 296.695312 C 522.070312 296.917969 523.710938 297.308594 525.144531 297.855469 C 523.074219 300.613281 520.148438 302.722656 516.703125 303.75 Z M 516.703125 303.75 " fill-opacity="1" fill-rule="nonzero"/></g></g></g></svg>