<svg xmlns="http://www.w3.org/2000/svg" xmlns:xlink="http://www.w3.org/1999/xlink" zoomAndPan="magnify" viewBox="483 259 56 56" preserveAspectRatio="xMidYMid meet" version="1.0"><defs><clipPath id="f50f621ceb"><path d="M 496 280 L 506 280 L 506 291 L 496 291 Z M 496 280 " clip-rule="nonzero"/></clipPath><clipPath id="8d23383fa7"><path d="M 495.882812 266.355469 L 535.464844 274.84375 L 528.074219 309.292969 L 488.492188 300.804688 Z M 495.882812 266.355469 " clip-rule="nonzero"/></clipPath><clipPath id="b2acbdcf6d"><path d="M 495.882812 266.355469 L 535.464844 274.84375 L 528.074219 309.292969 L 488.492188 300.804688 Z M 495.882812 266.355469 " clip-rule="nonzero"/></clipPath><clipPath id="3550e617b3"><path d="M 496 289 L 507 289 L 507 300 L 496 300 Z M 496 289 " clip-rule="nonzero"/></clipPath><clipPath id="fbaee88da8"><path d="M 495.882812 266.355469 L 535.464844 274.84375 L 528.074219 309.292969 L 488.492188 300.804688 Z M 495.882812 266.355469 " clip-rule="nonzero"/></clipPath><clipPath id="6568d65d7f"><path d="M 495.882812 266.355469 L 535.464844 274.84375 L 528.074219 309.292969 L 488.492188 300.804688 Z M 495.882812 266.355469 " clip-rule="nonzero"/></clipPath><clipPath id="1902d23b4b"><path d="M 501 281 L 509 281 L 509 288 L 501 288 Z M 501 281 " clip-rule="nonzero"/></clipPath><clipPath id="2960ab65f2"><path d="M 495.882812 266.355469 L 535.464844 274.84375 L 528.074219 309.292969 L 488.492188 300.804688 Z M 495.882812 266.355469 " clip-rule="nonzero"/></clipPath><clipPath id="cb8fa345b4"><path d="M 495.882812 266.355469 L 535.464844 274.84375 L 528.074219 309.292969 L 488.492188 300.804688 Z M 495.882812 266.355469 " clip-rule="nonzero"/></clipPath><clipPath id="42d4c7cbce"><path d="M 504 285 L 511 285 L 511 298 L 504 298 Z M 504 285 " clip-rule="nonzero"/></clipPath><clipPath id="2582407b4d"><path d="M 495.882812 266.355469 L 535.464844 274.84375 L 528.074219 309.292969 L 488.492188 300.804688 Z M 495.882812 266.355469 " clip-rule="nonzero"/></clipPath><clipPath id="3ae234b3b8"><path d="M 495.882812 266.355469 L 535.464844 274.84375 L 528.074219 309.292969 L 488.492188 300.804688 Z M 495.882812 266.355469 " clip-rule="nonzero"/></clipPath><clipPath id="1403f53dd3"><path d="M 494 283 L 498 283 L 498 287 L 494 287 Z M 494 283 " clip-rule="nonzero"/></clipPath><clipPath id="eb876473e9"><path d="M 495.882812 266.355469 L 535.464844 274.84375 L 528.074219 309.292969 L 488.492188 300.804688 Z M 495.882812 266.355469 " clip-rule="nonzero"/></clipPath><clipPath id="5ad60c8a8f"><path d="M 495.882812 266.355469 L 535.464844 274.84375 L 528.074219 309.292969 L 488.492188 300.804688 Z M 495.882812 266.355469 " clip-rule="nonzero"/></clipPath><clipPath id="9fb0d2412c"><path d="M 496 292 L 510 292 L 510 305 L 496 305 Z M 496 292 " clip-rule="nonzero"/></clipPath><clipPath id="fceab8d183"><path d="M 495.882812 266.355469 L 535.464844 274.84375 L 528.074219 309.292969 L 488.492188 300.804688 Z M 495.882812 266.355469 " clip-rule="nonzero"/></clipPath><clipPath id="5b5154a452"><path d="M 495.882812 266.355469 L 535.464844 274.84375 L 528.074219 309.292969 L 488.492188 300.804688 Z M 495.882812 266.355469 " clip-rule="nonzero"/></clipPath><clipPath id="99b51d32fc"><path d="M 502 298 L 505 298 L 505 303 L 502 303 Z M 502 298 " clip-rule="nonzero"/></clipPath><clipPath id="eda1f141af"><path d="M 495.882812 266.355469 L 535.464844 274.84375 L 528.074219 309.292969 L 488.492188 300.804688 Z M 495.882812 266.355469 " clip-rule="nonzero"/></clipPath><clipPath id="362715569b"><path d="M 495.882812 266.355469 L 535.464844 274.84375 L 528.074219 309.292969 L 488.492188 300.804688 Z M 495.882812 266.355469 " clip-rule="nonzero"/></clipPath><clipPath id="4d055fa1f8"><path d="M 494 289 L 499 289 L 499 295 L 494 295 Z M 494 289 " clip-rule="nonzero"/></clipPath><clipPath id="7fbf7d09c3"><path d="M 495.882812 266.355469 L 535.464844 274.84375 L 528.074219 309.292969 L 488.492188 300.804688 Z M 495.882812 266.355469 " clip-rule="nonzero"/></clipPath><clipPath id="8ee231d4b0"><path d="M 495.882812 266.355469 L 535.464844 274.84375 L 528.074219 309.292969 L 488.492188 300.804688 Z M 495.882812 266.355469 " clip-rule="nonzero"/></clipPath><clipPath id="94dbd0091f"><path d="M 491 279 L 502 279 L 502 290 L 491 290 Z M 491 279 " clip-rule="nonzero"/></clipPath><clipPath id="adf8005ba2"><path d="M 495.882812 266.355469 L 535.464844 274.84375 L 528.074219 309.292969 L 488.492188 300.804688 Z M 495.882812 266.355469 " clip-rule="nonzero"/></clipPath><clipPath id="42d13fc77b"><path d="M 495.882812 266.355469 L 535.464844 274.84375 L 528.074219 309.292969 L 488.492188 300.804688 Z M 495.882812 266.355469 " clip-rule="nonzero"/></clipPath><clipPath id="25d5c8a460"><path d="M 491 287 L 498 287 L 498 299 L 491 299 Z M 491 287 " clip-rule="nonzero"/></clipPath><clipPath id="f0d36afb3c"><path d="M 495.882812 266.355469 L 535.464844 274.84375 L 528.074219 309.292969 L 488.492188 300.804688 Z M 495.882812 266.355469 " clip-rule="nonzero"/></clipPath><clipPath id="135887c6d0"><path d="M 495.882812 266.355469 L 535.464844 274.84375 L 528.074219 309.292969 L 488.492188 300.804688 Z M 495.882812 266.355469 " clip-rule="nonzero"/></clipPath><clipPath id="a015b8ec77"><path d="M 495 275 L 503 275 L 503 282 L 495 282 Z M 495 275 " clip-rule="nonzero"/></clipPath><clipPath id="884cdbf661"><path d="M 495.882812 266.355469 L 535.464844 274.84375 L 528.074219 309.292969 L 488.492188 300.804688 Z M 495.882812 266.355469 " clip-rule="nonzero"/></clipPath><clipPath id="a6916aea22"><path d="M 495.882812 266.355469 L 535.464844 274.84375 L 528.074219 309.292969 L 488.492188 300.804688 Z M 495.882812 266.355469 " clip-rule="nonzero"/></clipPath><clipPath id="18b6e5393a"><path d="M 498 271 L 508 271 L 508 277 L 498 277 Z M 498 271 " clip-rule="nonzero"/></clipPath><clipPath id="222650f18c"><path d="M 495.882812 266.355469 L 535.464844 274.84375 L 528.074219 309.292969 L 488.492188 300.804688 Z M 495.882812 266.355469 " clip-rule="nonzero"/></clipPath><clipPath id="8017ca28a0"><path d="M 495.882812 266.355469 L 535.464844 274.84375 L 528.074219 309.292969 L 488.492188 300.804688 Z M 495.882812 266.355469 " clip-rule="nonzero"/></clipPath><clipPath id="3b2ed8e366"><path d="M 506 271 L 511 271 L 511 274 L 506 274 Z M 506 271 " clip-rule="nonzero"/></clipPath><clipPath id="26cb9953d3"><path d="M 495.882812 266.355469 L 535.464844 274.84375 L 528.074219 309.292969 L 488.492188 300.804688 Z M 495.882812 266.355469 " clip-rule="nonzero"/></clipPath><clipPath id="99ebd0067a"><path d="M 495.882812 266.355469 L 535.464844 274.84375 L 528.074219 309.292969 L 488.492188 300.804688 Z M 495.882812 266.355469 " clip-rule="nonzero"/></clipPath><clipPath id="9a22ef7be4"><path d="M 500 277 L 505 277 L 505 281 L 500 281 Z M 500 277 " clip-rule="nonzero"/></clipPath><clipPath id="55bf11ceca"><path d="M 495.882812 266.355469 L 535.464844 274.84375 L 528.074219 309.292969 L 488.492188 300.804688 Z M 495.882812 266.355469 " clip-rule="nonzero"/></clipPath><clipPath id="fe29cc4140"><path d="M 495.882812 266.355469 L 535.464844 274.84375 L 528.074219 309.292969 L 488.492188 300.804688 Z M 495.882812 266.355469 " clip-rule="nonzero"/></clipPath><clipPath id="70211ddba7"><path d="M 503 276 L 510 276 L 510 284 L 503 284 Z M 503 276 " clip-rule="nonzero"/></clipPath><clipPath id="fa5ed009d5"><path d="M 495.882812 266.355469 L 535.464844 274.84375 L 528.074219 309.292969 L 488.492188 300.804688 Z M 495.882812 266.355469 " clip-rule="nonzero"/></clipPath><clipPath id="bb08aaad4b"><path d="M 495.882812 266.355469 L 535.464844 274.84375 L 528.074219 309.292969 L 488.492188 300.804688 Z M 495.882812 266.355469 " clip-rule="nonzero"/></clipPath><clipPath id="b05c92927f"><path d="M 503 274 L 506 274 L 506 279 L 503 279 Z M 503 274 " clip-rule="nonzero"/></clipPath><clipPath id="285a36587a"><path d="M 495.882812 266.355469 L 535.464844 274.84375 L 528.074219 309.292969 L 488.492188 300.804688 Z M 495.882812 266.355469 " clip-rule="nonzero"/></clipPath><clipPath id="0aa4af8af7"><path d="M 495.882812 266.355469 L 535.464844 274.84375 L 528.074219 309.292969 L 488.492188 300.804688 Z M 495.882812 266.355469 " clip-rule="nonzero"/></clipPath><clipPath id="4353fb4656"><path d="M 506 279 L 513 279 L 513 284 L 506 284 Z M 506 279 " clip-rule="nonzero"/></clipPath><clipPath id="f83b910c0e"><path d="M 495.882812 266.355469 L 535.464844 274.84375 L 528.074219 309.292969 L 488.492188 300.804688 Z M 495.882812 266.355469 " clip-rule="nonzero"/></clipPath><clipPath id="321332c43c"><path d="M 495.882812 266.355469 L 535.464844 274.84375 L 528.074219 309.292969 L 488.492188 300.804688 Z M 495.882812 266.355469 " clip-rule="nonzero"/></clipPath><clipPath id="4a455072eb"><path d="M 508 273 L 514 273 L 514 279 L 508 279 Z M 508 273 " clip-rule="nonzero"/></clipPath><clipPath id="92eb9213f5"><path d="M 495.882812 266.355469 L 535.464844 274.84375 L 528.074219 309.292969 L 488.492188 300.804688 Z M 495.882812 266.355469 " clip-rule="nonzero"/></clipPath><clipPath id="e9f547f37c"><path d="M 495.882812 266.355469 L 535.464844 274.84375 L 528.074219 309.292969 L 488.492188 300.804688 Z M 495.882812 266.355469 " clip-rule="nonzero"/></clipPath><clipPath id="9a2bcce4b9"><path d="M 504 269 L 515 269 L 515 291 L 504 291 Z M 504 269 " clip-rule="nonzero"/></clipPath><clipPath id="22e8e82f10"><path d="M 495.882812 266.355469 L 535.464844 274.84375 L 528.074219 309.292969 L 488.492188 300.804688 Z M 495.882812 266.355469 " clip-rule="nonzero"/></clipPath><clipPath id="5f9e52f4e0"><path d="M 495.882812 266.355469 L 535.464844 274.84375 L 528.074219 309.292969 L 488.492188 300.804688 Z M 495.882812 266.355469 " clip-rule="nonzero"/></clipPath><clipPath id="c3c9e677f8"><path d="M 516 287 L 529 287 L 529 295 L 516 295 Z M 516 287 " clip-rule="nonzero"/></clipPath><clipPath id="8b2b4902c9"><path d="M 495.882812 266.355469 L 535.464844 274.84375 L 528.074219 309.292969 L 488.492188 300.804688 Z M 495.882812 266.355469 " clip-rule="nonzero"/></clipPath><clipPath id="165b6a5385"><path d="M 495.882812 266.355469 L 535.464844 274.84375 L 528.074219 309.292969 L 488.492188 300.804688 Z M 495.882812 266.355469 " clip-rule="nonzero"/></clipPath><clipPath id="baf4871be3"><path d="M 513 293 L 525 293 L 525 303 L 513 303 Z M 513 293 " clip-rule="nonzero"/></clipPath><clipPath id="2898c2c831"><path d="M 495.882812 266.355469 L 535.464844 274.84375 L 528.074219 309.292969 L 488.492188 300.804688 Z M 495.882812 266.355469 " clip-rule="nonzero"/></clipPath><clipPath id="8a6ab75782"><path d="M 495.882812 266.355469 L 535.464844 274.84375 L 528.074219 309.292969 L 488.492188 300.804688 Z M 495.882812 266.355469 " clip-rule="nonzero"/></clipPath><clipPath id="da86c6a26c"><path d="M 517 285 L 524 285 L 524 291 L 517 291 Z M 517 285 " clip-rule="nonzero"/></clipPath><clipPath id="8efd18a34b"><path d="M 495.882812 266.355469 L 535.464844 274.84375 L 528.074219 309.292969 L 488.492188 300.804688 Z M 495.882812 266.355469 " clip-rule="nonzero"/></clipPath><clipPath id="02d8c34890"><path d="M 495.882812 266.355469 L 535.464844 274.84375 L 528.074219 309.292969 L 488.492188 300.804688 Z M 495.882812 266.355469 " clip-rule="nonzero"/></clipPath><clipPath id="eac56d1490"><path d="M 511 288 L 520 288 L 520 299 L 511 299 Z M 511 288 " clip-rule="nonzero"/></clipPath><clipPath id="6fd7f76ece"><path d="M 495.882812 266.355469 L 535.464844 274.84375 L 528.074219 309.292969 L 488.492188 300.804688 Z M 495.882812 266.355469 " clip-rule="nonzero"/></clipPath><clipPath id="8469c56e46"><path d="M 495.882812 266.355469 L 535.464844 274.84375 L 528.074219 309.292969 L 488.492188 300.804688 Z M 495.882812 266.355469 " clip-rule="nonzero"/></clipPath><clipPath id="3529775b3d"><path d="M 525 290 L 530 290 L 530 293 L 525 293 Z M 525 290 " clip-rule="nonzero"/></clipPath><clipPath id="ae4f9134dd"><path d="M 495.882812 266.355469 L 535.464844 274.84375 L 528.074219 309.292969 L 488.492188 300.804688 Z M 495.882812 266.355469 " clip-rule="nonzero"/></clipPath><clipPath id="71a8cb9df7"><path d="M 495.882812 266.355469 L 535.464844 274.84375 L 528.074219 309.292969 L 488.492188 300.804688 Z M 495.882812 266.355469 " clip-rule="nonzero"/></clipPath><clipPath id="647d051313"><path d="M 509 295 L 523 295 L 523 307 L 509 307 Z M 509 295 " clip-rule="nonzero"/></clipPath><clipPath id="611110577d"><path d="M 495.882812 266.355469 L 535.464844 274.84375 L 528.074219 309.292969 L 488.492188 300.804688 Z M 495.882812 266.355469 " clip-rule="nonzero"/></clipPath><clipPath id="c60056cfb2"><path d="M 495.882812 266.355469 L 535.464844 274.84375 L 528.074219 309.292969 L 488.492188 300.804688 Z M 495.882812 266.355469 " clip-rule="nonzero"/></clipPath><clipPath id="d7c6be845c"><path d="M 513 301 L 516 301 L 516 305 L 513 305 Z M 513 301 " clip-rule="nonzero"/></clipPath><clipPath id="93978ad6d1"><path d="M 495.882812 266.355469 L 535.464844 274.84375 L 528.074219 309.292969 L 488.492188 300.804688 Z M 495.882812 266.355469 " clip-rule="nonzero"/></clipPath><clipPath id="ba945e17ce"><path d="M 495.882812 266.355469 L 535.464844 274.84375 L 528.074219 309.292969 L 488.492188 300.804688 Z M 495.882812 266.355469 " clip-rule="nonzero"/></clipPath><clipPath id="9ab4f3c658"><path d="M 521 296 L 528 296 L 528 300 L 521 300 Z M 521 296 " clip-rule="nonzero"/></clipPath><clipPath id="d4a52f2817"><path d="M 495.882812 266.355469 L 535.464844 274.84375 L 528.074219 309.292969 L 488.492188 300.804688 Z M 495.882812 266.355469 " clip-rule="nonzero"/></clipPath><clipPath id="c5812069f2"><path d="M 495.882812 266.355469 L 535.464844 274.84375 L 528.074219 309.292969 L 488.492188 300.804688 Z M 495.882812 266.355469 " clip-rule="nonzero"/></clipPath><clipPath id="1d4a631c81"><path d="M 524 285 L 532 285 L 532 297 L 524 297 Z M 524 285 " clip-rule="nonzero"/></clipPath><clipPath id="9242ffea48"><path d="M 495.882812 266.355469 L 535.464844 274.84375 L 528.074219 309.292969 L 488.492188 300.804688 Z M 495.882812 266.355469 " clip-rule="nonzero"/></clipPath><clipPath id="d2edcce364"><path d="M 495.882812 266.355469 L 535.464844 274.84375 L 528.074219 309.292969 L 488.492188 300.804688 Z M 495.882812 266.355469 " clip-rule="nonzero"/></clipPath><clipPath id="6f3110fca5"><path d="M 521 293 L 530 293 L 530 304 L 521 304 Z M 521 293 " clip-rule="nonzero"/></clipPath><clipPath id="58ad093cde"><path d="M 495.882812 266.355469 L 535.464844 274.84375 L 528.074219 309.292969 L 488.492188 300.804688 Z M 495.882812 266.355469 " clip-rule="nonzero"/></clipPath><clipPath id="7108a66ccb"><path d="M 495.882812 266.355469 L 535.464844 274.84375 L 528.074219 309.292969 L 488.492188 300.804688 Z M 495.882812 266.355469 " clip-rule="nonzero"/></clipPath><clipPath id="d3084a5f01"><path d="M 525 280 L 531 280 L 531 289 L 525 289 Z M 525 280 " clip-rule="nonzero"/></clipPath><clipPath id="2b61ff2582"><path d="M 495.882812 266.355469 L 535.464844 274.84375 L 528.074219 309.292969 L 488.492188 300.804688 Z M 495.882812 266.355469 " clip-rule="nonzero"/></clipPath><clipPath id="c4b7a440d5"><path d="M 495.882812 266.355469 L 535.464844 274.84375 L 528.074219 309.292969 L 488.492188 300.804688 Z M 495.882812 266.355469 " clip-rule="nonzero"/></clipPath><clipPath id="9e5feba10c"><path d="M 521 275 L 530 275 L 530 283 L 521 283 Z M 521 275 " clip-rule="nonzero"/></clipPath><clipPath id="ff7c7da2d6"><path d="M 495.882812 266.355469 L 535.464844 274.84375 L 528.074219 309.292969 L 488.492188 300.804688 Z M 495.882812 266.355469 " clip-rule="nonzero"/></clipPath><clipPath id="701fe901df"><path d="M 495.882812 266.355469 L 535.464844 274.84375 L 528.074219 309.292969 L 488.492188 300.804688 Z M 495.882812 266.355469 " clip-rule="nonzero"/></clipPath><clipPath id="c9580868c3"><path d="M 519 273 L 524 273 L 524 278 L 519 278 Z M 519 273 " clip-rule="nonzero"/></clipPath><clipPath id="60384a33a1"><path d="M 495.882812 266.355469 L 535.464844 274.84375 L 528.074219 309.292969 L 488.492188 300.804688 Z M 495.882812 266.355469 " clip-rule="nonzero"/></clipPath><clipPath id="ec494f1aeb"><path d="M 495.882812 266.355469 L 535.464844 274.84375 L 528.074219 309.292969 L 488.492188 300.804688 Z M 495.882812 266.355469 " clip-rule="nonzero"/></clipPath><clipPath id="2da45bdb16"><path d="M 521 282 L 527 282 L 527 285 L 521 285 Z M 521 282 " clip-rule="nonzero"/></clipPath><clipPath id="569c7a6b57"><path d="M 495.882812 266.355469 L 535.464844 274.84375 L 528.074219 309.292969 L 488.492188 300.804688 Z M 495.882812 266.355469 " clip-rule="nonzero"/></clipPath><clipPath id="159664ef9e"><path d="M 495.882812 266.355469 L 535.464844 274.84375 L 528.074219 309.292969 L 488.492188 300.804688 Z M 495.882812 266.355469 " clip-rule="nonzero"/></clipPath><clipPath id="2674c59feb"><path d="M 516 278 L 524 278 L 524 287 L 516 287 Z M 516 278 " clip-rule="nonzero"/></clipPath><clipPath id="831e78e126"><path d="M 495.882812 266.355469 L 535.464844 274.84375 L 528.074219 309.292969 L 488.492188 300.804688 Z M 495.882812 266.355469 " clip-rule="nonzero"/></clipPath><clipPath id="4c9be14252"><path d="M 495.882812 266.355469 L 535.464844 274.84375 L 528.074219 309.292969 L 488.492188 300.804688 Z M 495.882812 266.355469 " clip-rule="nonzero"/></clipPath><clipPath id="f8ca69f1bc"><path d="M 521 278 L 526 278 L 526 283 L 521 283 Z M 521 278 " clip-rule="nonzero"/></clipPath><clipPath id="ffa40bb485"><path d="M 495.882812 266.355469 L 535.464844 274.84375 L 528.074219 309.292969 L 488.492188 300.804688 Z M 495.882812 266.355469 " clip-rule="nonzero"/></clipPath><clipPath id="9f82fe02be"><path d="M 495.882812 266.355469 L 535.464844 274.84375 L 528.074219 309.292969 L 488.492188 300.804688 Z M 495.882812 266.355469 " clip-rule="nonzero"/></clipPath><clipPath id="c772c8ba46"><path d="M 513 281 L 521 281 L 521 285 L 513 285 Z M 513 281 " clip-rule="nonzero"/></clipPath><clipPath id="8d49905e01"><path d="M 495.882812 266.355469 L 535.464844 274.84375 L 528.074219 309.292969 L 488.492188 300.804688 Z M 495.882812 266.355469 " clip-rule="nonzero"/></clipPath><clipPath id="5a6089da22"><path d="M 495.882812 266.355469 L 535.464844 274.84375 L 528.074219 309.292969 L 488.492188 300.804688 Z M 495.882812 266.355469 " clip-rule="nonzero"/></clipPath><clipPath id="18c66403c2"><path d="M 514 275 L 521 275 L 521 279 L 514 279 Z M 514 275 " clip-rule="nonzero"/></clipPath><clipPath id="424f47b073"><path d="M 495.882812 266.355469 L 535.464844 274.84375 L 528.074219 309.292969 L 488.492188 300.804688 Z M 495.882812 266.355469 " clip-rule="nonzero"/></clipPath><clipPath id="caaffa0698"><path d="M 495.882812 266.355469 L 535.464844 274.84375 L 528.074219 309.292969 L 488.492188 300.804688 Z M 495.882812 266.355469 " clip-rule="nonzero"/></clipPath><clipPath id="1cf33ba518"><path d="M 512 271 L 526 271 L 526 292 L 512 292 Z M 512 271 " clip-rule="nonzero"/></clipPath><clipPath id="d45a4db483"><path d="M 495.882812 266.355469 L 535.464844 274.84375 L 528.074219 309.292969 L 488.492188 300.804688 Z M 495.882812 266.355469 " clip-rule="nonzero"/></clipPath><clipPath id="2c57e68b64"><path d="M 495.882812 266.355469 L 535.464844 274.84375 L 528.074219 309.292969 L 488.492188 300.804688 Z M 495.882812 266.355469 " clip-rule="nonzero"/></clipPath></defs><g clip-path="url(#f50f621ceb)"><g clip-path="url(#8d23383fa7)"><g clip-path="url(#b2acbdcf6d)"><path fill="#6800db" d="M 502.140625 290.597656 C 501.882812 290.539062 501.625 290.46875 501.375 290.386719 C 500.167969 289.980469 499.09375 289.253906 498.269531 288.289062 C 497.425781 287.296875 496.878906 286.089844 496.683594 284.796875 C 496.488281 283.503906 496.65625 282.183594 497.167969 280.980469 C 497.292969 280.691406 497.628906 280.554688 497.921875 280.679688 C 498.210938 280.804688 498.347656 281.140625 498.222656 281.429688 C 497.355469 283.46875 497.71875 285.867188 499.144531 287.546875 C 499.996094 288.546875 501.136719 289.210938 502.375 289.476562 C 503.1875 289.652344 504.039062 289.65625 504.878906 289.472656 C 505.1875 289.402344 505.496094 289.597656 505.5625 289.910156 C 505.628906 290.21875 505.433594 290.523438 505.125 290.589844 C 504.140625 290.804688 503.121094 290.804688 502.140625 290.597656 Z M 502.140625 290.597656 " fill-opacity="1" fill-rule="nonzero"/></g></g></g><g clip-path="url(#3550e617b3)"><g clip-path="url(#fbaee88da8)"><g clip-path="url(#6568d65d7f)"><path fill="#6800db" d="M 502.484375 299.730469 C 501.917969 299.609375 501.515625 299.351562 501.410156 299.273438 C 500.15625 298.390625 500.164062 296.878906 500.171875 296.707031 C 500.179688 296.390625 500.445312 296.140625 500.761719 296.152344 C 501.078125 296.160156 501.328125 296.425781 501.316406 296.742188 C 501.316406 296.785156 501.292969 297.789062 502.070312 298.335938 C 502.09375 298.355469 502.679688 298.757812 503.371094 298.617188 C 504.460938 298.394531 504.960938 296.949219 505.085938 296.511719 C 505.316406 295.714844 505.375 294.425781 504.347656 292.816406 C 504.070312 292.382812 503.269531 291.3125 501.804688 290.742188 C 501.070312 290.453125 499.953125 290.019531 498.917969 290.550781 C 498.296875 290.863281 497.9375 291.40625 497.742188 291.808594 C 497.605469 292.09375 497.261719 292.210938 496.976562 292.070312 C 496.691406 291.933594 496.574219 291.589844 496.710938 291.304688 C 496.980469 290.75 497.492188 289.988281 498.394531 289.527344 C 499.890625 288.761719 501.410156 289.355469 502.222656 289.671875 C 504 290.367188 504.976562 291.671875 505.316406 292.199219 C 505.457031 292.421875 505.832031 293.011719 506.097656 293.820312 C 506.433594 294.859375 506.464844 295.871094 506.1875 296.828125 C 506.003906 297.460938 505.761719 297.929688 505.589844 298.214844 C 505.074219 299.050781 504.386719 299.582031 503.601562 299.742188 C 503.191406 299.824219 502.808594 299.800781 502.484375 299.730469 Z M 502.484375 299.730469 " fill-opacity="1" fill-rule="nonzero"/></g></g></g><g clip-path="url(#1902d23b4b)"><g clip-path="url(#2960ab65f2)"><g clip-path="url(#cb8fa345b4)"><path fill="#6800db" d="M 503.691406 286.933594 C 503.472656 286.882812 503.253906 286.816406 503.046875 286.730469 C 502.382812 286.449219 501.851562 285.980469 501.507812 285.375 C 501.203125 284.832031 501.0625 284.207031 501.101562 283.574219 C 501.140625 282.945312 501.359375 282.332031 501.726562 281.808594 C 501.910156 281.550781 502.265625 281.488281 502.527344 281.671875 C 502.785156 281.851562 502.847656 282.210938 502.664062 282.46875 C 502.167969 283.175781 502.105469 284.097656 502.507812 284.808594 C 502.828125 285.375 503.375 285.691406 503.929688 285.8125 C 504.191406 285.867188 504.453125 285.878906 504.695312 285.855469 C 505.859375 285.726562 506.816406 284.648438 506.96875 283.285156 C 507.003906 282.972656 507.289062 282.746094 507.601562 282.78125 C 507.917969 282.816406 508.144531 283.097656 508.109375 283.414062 C 508.003906 284.328125 507.621094 285.191406 507.023438 285.84375 C 506.421875 286.496094 505.640625 286.90625 504.820312 286.992188 C 504.449219 287.035156 504.066406 287.011719 503.691406 286.933594 Z M 503.691406 286.933594 " fill-opacity="1" fill-rule="nonzero"/></g></g></g><g clip-path="url(#42d4c7cbce)"><g clip-path="url(#2582407b4d)"><g clip-path="url(#3ae234b3b8)"><path fill="#6800db" d="M 507.121094 297.171875 C 506.941406 297.132812 506.785156 297.011719 506.710938 296.832031 C 506.589844 296.539062 506.726562 296.203125 507.019531 296.082031 C 507.464844 295.894531 508.5625 295.332031 509.0625 294.136719 C 509.5 293.085938 509.25 292.105469 509.066406 291.386719 C 508.960938 290.976562 508.617188 289.910156 507.703125 288.886719 C 506.757812 287.832031 505.644531 287.320312 504.878906 287.074219 C 504.578125 286.980469 504.410156 286.65625 504.503906 286.355469 C 504.601562 286.054688 504.925781 285.886719 505.226562 285.984375 C 506.128906 286.269531 507.4375 286.875 508.554688 288.121094 C 509.640625 289.332031 510.050781 290.609375 510.175781 291.101562 C 510.386719 291.929688 510.707031 293.175781 510.121094 294.578125 C 509.816406 295.300781 509.332031 295.925781 508.675781 296.433594 C 508.308594 296.71875 507.886719 296.960938 507.460938 297.140625 C 507.347656 297.1875 507.230469 297.195312 507.121094 297.171875 Z M 507.121094 297.171875 " fill-opacity="1" fill-rule="nonzero"/></g></g></g><g clip-path="url(#1403f53dd3)"><g clip-path="url(#eb876473e9)"><g clip-path="url(#5ad60c8a8f)"><path fill="#6800db" d="M 496.046875 286.257812 C 495.808594 286.207031 495.5625 286.113281 495.320312 285.953125 C 494.597656 285.480469 494.210938 284.609375 494.339844 283.742188 C 494.386719 283.425781 494.675781 283.210938 494.988281 283.257812 C 495.300781 283.300781 495.519531 283.59375 495.472656 283.90625 C 495.410156 284.335938 495.597656 284.765625 495.949219 284.996094 C 496.4375 285.316406 496.992188 285.074219 497.023438 285.0625 C 497.308594 284.925781 497.648438 285.050781 497.78125 285.335938 C 497.917969 285.625 497.792969 285.964844 497.507812 286.097656 C 497.417969 286.140625 496.785156 286.417969 496.046875 286.257812 Z M 496.046875 286.257812 " fill-opacity="1" fill-rule="nonzero"/></g></g></g><g clip-path="url(#9fb0d2412c)"><g clip-path="url(#fceab8d183)"><g clip-path="url(#5b5154a452)"><path fill="#6800db" d="M 502.441406 304.128906 C 502.148438 304.066406 501.828125 303.972656 501.5 303.828125 C 500.179688 303.25 499.417969 302.226562 499.046875 301.578125 C 498.75 301.398438 498.351562 301.113281 497.949219 300.707031 C 497.242188 299.996094 496.78125 299.164062 496.574219 298.238281 C 496.183594 296.46875 496.703125 295.273438 497.210938 294.582031 C 497.378906 294.347656 497.742188 293.902344 498.273438 293.519531 C 499.023438 292.980469 499.839844 292.78125 500.628906 292.953125 C 500.632812 292.953125 500.636719 292.953125 500.640625 292.953125 C 501.300781 293.097656 501.894531 293.492188 502.359375 294.085938 C 502.695312 294.515625 502.867188 294.929688 502.910156 295.042969 C 503.023438 295.339844 502.875 295.671875 502.582031 295.785156 C 502.285156 295.898438 501.953125 295.75 501.839844 295.453125 C 501.820312 295.40625 501.382812 294.292969 500.398438 294.074219 C 500.394531 294.074219 500.390625 294.074219 500.390625 294.074219 C 499.246094 293.828125 498.3125 295.015625 498.136719 295.257812 C 497.769531 295.757812 497.394531 296.640625 497.695312 297.992188 C 498.050781 299.597656 499.359375 300.441406 499.753906 300.664062 C 499.847656 300.714844 499.929688 300.796875 499.980469 300.894531 C 500.242188 301.390625 500.851562 302.292969 501.960938 302.777344 C 502.777344 303.132812 503.507812 303.105469 503.902344 303.09375 C 504.445312 303.074219 505.261719 303.046875 506.0625 302.507812 C 506.734375 302.058594 507.109375 301.445312 507.304688 300.996094 C 507.539062 299.992188 507.757812 298.972656 507.953125 297.964844 C 508.109375 297.171875 508.253906 296.367188 508.382812 295.570312 C 508.4375 295.257812 508.730469 295.046875 509.042969 295.097656 C 509.355469 295.148438 509.566406 295.441406 509.515625 295.753906 C 509.382812 296.5625 509.238281 297.378906 509.082031 298.183594 C 508.878906 299.222656 508.652344 300.273438 508.410156 301.308594 C 508.402344 301.339844 508.390625 301.371094 508.378906 301.402344 C 508.125 301.996094 507.628906 302.839844 506.703125 303.460938 C 505.628906 304.179688 504.574219 304.21875 503.941406 304.238281 C 503.632812 304.25 503.09375 304.269531 502.441406 304.128906 Z M 502.441406 304.128906 " fill-opacity="1" fill-rule="nonzero"/></g></g></g><g clip-path="url(#99b51d32fc)"><g clip-path="url(#eda1f141af)"><g clip-path="url(#362715569b)"><path fill="#6800db" d="M 503.957031 302.257812 C 503.929688 302.253906 503.902344 302.246094 503.875 302.234375 C 503.640625 302.144531 502.851562 301.789062 502.535156 300.863281 C 502.261719 300.058594 502.53125 299.378906 502.660156 299.121094 C 502.804688 298.839844 503.148438 298.726562 503.433594 298.871094 C 503.714844 299.015625 503.828125 299.359375 503.683594 299.640625 C 503.632812 299.738281 503.484375 300.089844 503.621094 300.492188 C 503.78125 300.960938 504.226562 301.140625 504.277344 301.160156 C 504.574219 301.273438 504.722656 301.601562 504.613281 301.898438 C 504.511719 302.167969 504.230469 302.316406 503.957031 302.257812 Z M 503.957031 302.257812 " fill-opacity="1" fill-rule="nonzero"/></g></g></g><g clip-path="url(#4d055fa1f8)"><g clip-path="url(#7fbf7d09c3)"><g clip-path="url(#8ee231d4b0)"><path fill="#6800db" d="M 497.339844 294.398438 C 496.511719 294.21875 495.382812 293.769531 494.667969 292.617188 C 493.996094 291.542969 494.042969 290.429688 494.132812 289.867188 C 494.179688 289.550781 494.472656 289.339844 494.785156 289.386719 C 495.097656 289.4375 495.3125 289.726562 495.265625 290.042969 C 495.203125 290.449219 495.167969 291.25 495.640625 292.011719 C 496.503906 293.398438 498.320312 293.363281 498.339844 293.363281 C 498.65625 293.351562 498.921875 293.601562 498.929688 293.917969 C 498.9375 294.234375 498.691406 294.5 498.375 294.507812 C 498.332031 294.507812 497.910156 294.519531 497.339844 294.398438 Z M 497.339844 294.398438 " fill-opacity="1" fill-rule="nonzero"/></g></g></g><g clip-path="url(#94dbd0091f)"><g clip-path="url(#adf8005ba2)"><g clip-path="url(#42d13fc77b)"><path fill="#6800db" d="M 493.027344 289.269531 C 492.894531 289.238281 492.769531 289.164062 492.683594 289.046875 C 492.351562 288.589844 492.101562 288.089844 491.945312 287.566406 C 491.6875 286.703125 491.679688 285.78125 491.925781 284.824219 C 492.125 284.058594 492.433594 283.453125 492.617188 283.09375 C 492.953125 282.441406 493.734375 281.207031 495.203125 280.25 C 495.789062 279.867188 496.589844 279.34375 497.761719 279.230469 C 499.28125 279.082031 500.496094 279.714844 501.085938 280.105469 C 501.351562 280.277344 501.421875 280.636719 501.246094 280.898438 C 501.070312 281.164062 500.714844 281.234375 500.453125 281.058594 C 499.992188 280.753906 499.042969 280.253906 497.875 280.371094 C 496.984375 280.457031 496.371094 280.855469 495.832031 281.207031 C 494.535156 282.050781 493.867188 283.175781 493.640625 283.617188 C 493.320312 284.234375 492.578125 285.683594 493.042969 287.234375 C 493.164062 287.636719 493.355469 288.019531 493.613281 288.371094 C 493.796875 288.625 493.742188 288.984375 493.484375 289.171875 C 493.347656 289.273438 493.179688 289.300781 493.027344 289.269531 Z M 493.027344 289.269531 " fill-opacity="1" fill-rule="nonzero"/></g></g></g><g clip-path="url(#25d5c8a460)"><g clip-path="url(#f0d36afb3c)"><g clip-path="url(#135887c6d0)"><path fill="#6800db" d="M 496.789062 298.246094 C 496.789062 298.246094 496.785156 298.246094 496.785156 298.246094 C 495.96875 298.0625 495.214844 297.726562 494.542969 297.25 C 494.207031 297.007812 493.351562 296.320312 492.6875 295.128906 C 492.53125 294.847656 492.167969 294.191406 491.933594 293.320312 C 491.636719 292.207031 491.660156 291.140625 492 290.152344 C 492.179688 289.644531 492.644531 288.292969 494.039062 287.628906 C 495.054688 287.144531 496.054688 287.269531 496.5625 287.390625 C 496.871094 287.460938 497.0625 287.769531 496.988281 288.078125 C 496.917969 288.382812 496.613281 288.574219 496.308594 288.507812 C 496.308594 288.507812 496.304688 288.507812 496.300781 288.507812 C 495.941406 288.421875 495.230469 288.332031 494.535156 288.664062 C 493.570312 289.121094 493.230469 290.105469 493.085938 290.527344 C 492.664062 291.738281 492.867188 293.097656 493.691406 294.570312 C 494.242188 295.558594 494.9375 296.121094 495.207031 296.316406 C 495.753906 296.707031 496.371094 296.976562 497.035156 297.125 C 497.34375 297.195312 497.539062 297.5 497.46875 297.808594 C 497.402344 298.117188 497.097656 298.3125 496.789062 298.246094 Z M 496.789062 298.246094 " fill-opacity="1" fill-rule="nonzero"/></g></g></g><g clip-path="url(#a015b8ec77)"><g clip-path="url(#884cdbf661)"><g clip-path="url(#a6916aea22)"><path fill="#6800db" d="M 495.609375 280.996094 C 495.316406 280.933594 495.121094 280.65625 495.160156 280.355469 C 495.171875 280.265625 495.296875 279.414062 495.769531 278.445312 C 496.042969 277.886719 496.378906 277.390625 496.769531 276.972656 C 497.261719 276.445312 497.84375 276.035156 498.492188 275.753906 C 499.957031 275.125 501.347656 275.335938 502.050781 275.519531 C 502.355469 275.597656 502.539062 275.910156 502.460938 276.214844 C 502.382812 276.515625 502.085938 276.699219 501.785156 276.632812 C 501.777344 276.632812 501.769531 276.628906 501.761719 276.628906 C 501.203125 276.480469 500.097656 276.3125 498.945312 276.808594 C 498.023438 277.203125 497.300781 277.925781 496.800781 278.949219 C 496.402344 279.769531 496.300781 280.480469 496.296875 280.511719 C 496.253906 280.824219 495.964844 281.046875 495.652344 281.003906 C 495.636719 281 495.621094 281 495.609375 280.996094 Z M 495.609375 280.996094 " fill-opacity="1" fill-rule="nonzero"/></g></g></g><g clip-path="url(#18b6e5393a)"><g clip-path="url(#222650f18c)"><g clip-path="url(#8017ca28a0)"><path fill="#6800db" d="M 499.226562 276.488281 C 499.21875 276.484375 499.210938 276.484375 499.199219 276.480469 C 498.894531 276.398438 498.710938 276.085938 498.792969 275.78125 C 499.011719 274.960938 499.609375 273.433594 501.148438 272.386719 C 501.59375 272.082031 502.957031 271.15625 504.71875 271.464844 C 504.945312 271.503906 505.421875 271.585938 505.929688 271.824219 C 506.589844 272.132812 507.074219 272.589844 507.375 273.1875 C 507.933594 274.296875 507.605469 275.402344 507.4375 275.828125 C 507.324219 276.121094 506.992188 276.265625 506.695312 276.152344 C 506.402344 276.035156 506.253906 275.703125 506.371094 275.40625 C 506.457031 275.1875 506.710938 274.417969 506.351562 273.699219 C 505.917969 272.835938 504.902344 272.660156 504.519531 272.59375 C 503.214844 272.367188 502.183594 273.070312 501.792969 273.332031 C 500.558594 274.171875 500.078125 275.410156 499.902344 276.074219 C 499.824219 276.371094 499.523438 276.550781 499.226562 276.488281 Z M 499.226562 276.488281 " fill-opacity="1" fill-rule="nonzero"/></g></g></g><g clip-path="url(#3b2ed8e366)"><g clip-path="url(#26cb9953d3)"><g clip-path="url(#99ebd0067a)"><path fill="#6800db" d="M 506.863281 273.785156 C 506.773438 273.765625 506.6875 273.726562 506.613281 273.664062 C 506.371094 273.460938 506.339844 273.097656 506.542969 272.855469 C 506.847656 272.496094 507.515625 271.855469 508.566406 271.621094 C 509.335938 271.449219 510.003906 271.566406 510.425781 271.691406 C 510.730469 271.785156 510.902344 272.101562 510.808594 272.40625 C 510.71875 272.710938 510.398438 272.882812 510.09375 272.789062 C 509.804688 272.703125 509.34375 272.621094 508.816406 272.742188 C 508.09375 272.902344 507.632812 273.34375 507.421875 273.59375 C 507.28125 273.761719 507.0625 273.828125 506.863281 273.785156 Z M 506.863281 273.785156 " fill-opacity="1" fill-rule="nonzero"/></g></g></g><g clip-path="url(#9a22ef7be4)"><g clip-path="url(#55bf11ceca)"><g clip-path="url(#fe29cc4140)"><path fill="#6800db" d="M 504.175781 280.859375 C 503.996094 280.820312 503.839844 280.699219 503.765625 280.515625 C 503.679688 280.308594 503.335938 279.601562 502.527344 279.253906 C 501.832031 278.953125 501.183594 279.09375 500.9375 279.167969 C 500.632812 279.261719 500.3125 279.089844 500.222656 278.785156 C 500.132812 278.480469 500.304688 278.164062 500.605469 278.070312 C 501.0625 277.933594 501.972656 277.769531 502.980469 278.199219 C 504.152344 278.703125 504.660156 279.683594 504.824219 280.082031 C 504.945312 280.375 504.804688 280.707031 504.511719 280.828125 C 504.402344 280.875 504.285156 280.882812 504.175781 280.859375 Z M 504.175781 280.859375 " fill-opacity="1" fill-rule="nonzero"/></g></g></g><g clip-path="url(#70211ddba7)"><g clip-path="url(#fa5ed009d5)"><g clip-path="url(#bb08aaad4b)"><path fill="#6800db" d="M 506.546875 283.320312 C 505.988281 283.199219 505.480469 282.960938 505.046875 282.609375 C 504.289062 281.992188 503.484375 280.792969 503.726562 279.433594 C 503.878906 278.566406 504.402344 278.007812 504.652344 277.738281 C 505.261719 277.089844 506.058594 276.671875 507.023438 276.492188 C 508.105469 276.296875 509.011719 276.535156 509.585938 276.765625 C 509.878906 276.886719 510.015625 277.222656 509.898438 277.515625 C 509.777344 277.808594 509.441406 277.949219 509.148438 277.828125 C 508.71875 277.652344 508.039062 277.472656 507.230469 277.621094 C 506.960938 277.671875 506.148438 277.820312 505.492188 278.523438 C 505.273438 278.753906 504.949219 279.101562 504.855469 279.632812 C 504.710938 280.445312 505.210938 281.265625 505.769531 281.71875 C 506.769531 282.53125 508.019531 282.207031 508.160156 282.164062 C 508.464844 282.078125 508.78125 282.253906 508.867188 282.558594 C 508.957031 282.863281 508.777344 283.183594 508.476562 283.269531 C 508.34375 283.304688 507.867188 283.425781 507.25 283.40625 C 507.007812 283.398438 506.773438 283.371094 506.546875 283.320312 Z M 506.546875 283.320312 " fill-opacity="1" fill-rule="nonzero"/></g></g></g><g clip-path="url(#b05c92927f)"><g clip-path="url(#285a36587a)"><g clip-path="url(#0aa4af8af7)"><path fill="#6800db" d="M 505.164062 278.355469 C 505.148438 278.351562 505.132812 278.347656 505.117188 278.34375 C 504.816406 278.25 504.644531 277.929688 504.738281 277.628906 C 504.796875 277.425781 504.964844 276.71875 504.585938 276.019531 C 504.308594 275.511719 503.882812 275.253906 503.652344 275.144531 C 503.367188 275.007812 503.246094 274.664062 503.382812 274.378906 C 503.519531 274.09375 503.859375 273.972656 504.144531 274.109375 C 504.5 274.277344 505.160156 274.679688 505.59375 275.46875 C 506.171875 276.53125 505.953125 277.566406 505.832031 277.960938 C 505.746094 278.25 505.453125 278.417969 505.164062 278.355469 Z M 505.164062 278.355469 " fill-opacity="1" fill-rule="nonzero"/></g></g></g><g clip-path="url(#4353fb4656)"><g clip-path="url(#f83b910c0e)"><g clip-path="url(#321332c43c)"><path fill="#6800db" d="M 511.507812 283.535156 C 511.28125 283.488281 511.097656 283.300781 511.0625 283.054688 C 511.054688 283.003906 510.980469 282.523438 510.710938 281.96875 C 510.371094 281.273438 509.882812 280.769531 509.25 280.46875 C 508.386719 280.054688 507.542969 280.164062 507.117188 280.265625 C 506.808594 280.339844 506.5 280.148438 506.425781 279.84375 C 506.351562 279.535156 506.539062 279.222656 506.847656 279.152344 C 507.421875 279.011719 508.558594 278.867188 509.746094 279.433594 C 511.792969 280.410156 512.160156 282.644531 512.195312 282.894531 C 512.242188 283.207031 512.023438 283.5 511.710938 283.542969 C 511.640625 283.550781 511.574219 283.550781 511.507812 283.535156 Z M 511.507812 283.535156 " fill-opacity="1" fill-rule="nonzero"/></g></g></g><g clip-path="url(#4a455072eb)"><g clip-path="url(#92eb9213f5)"><g clip-path="url(#e9f547f37c)"><path fill="#6800db" d="M 512.75 278.242188 C 512.507812 278.191406 512.316406 277.984375 512.296875 277.722656 C 512.28125 277.476562 512.132812 276.207031 511.042969 275.429688 C 510.324219 274.917969 509.554688 274.871094 509.160156 274.886719 C 508.84375 274.898438 508.578125 274.652344 508.5625 274.335938 C 508.550781 274.019531 508.796875 273.753906 509.113281 273.742188 C 509.652344 273.71875 510.707031 273.785156 511.707031 274.496094 C 512.363281 274.964844 512.851562 275.601562 513.152344 276.390625 C 513.363281 276.941406 513.425781 277.410156 513.441406 277.640625 C 513.464844 277.953125 513.230469 278.230469 512.914062 278.253906 C 512.855469 278.257812 512.800781 278.253906 512.75 278.242188 Z M 512.75 278.242188 " fill-opacity="1" fill-rule="nonzero"/></g></g></g><g clip-path="url(#9a2bcce4b9)"><g clip-path="url(#22e8e82f10)"><g clip-path="url(#5f9e52f4e0)"><path fill="#6800db" d="M 508.898438 290.316406 C 508.726562 290.277344 508.570312 290.164062 508.496094 289.988281 C 508.367188 289.699219 508.496094 289.359375 508.785156 289.230469 C 509.121094 289.082031 510.097656 288.519531 510.214844 287.921875 C 510.289062 287.542969 510.644531 285.925781 511.09375 283.878906 C 511.753906 280.867188 512.75 276.347656 512.832031 275.785156 C 512.828125 275.679688 512.855469 275.570312 512.878906 275.453125 C 513.050781 274.679688 513.566406 272.328125 511.144531 270.929688 C 511.101562 270.90625 510.699219 270.679688 510.027344 270.566406 C 509.332031 270.453125 508.625 270.5 507.933594 270.707031 C 506.589844 271.109375 505.761719 271.96875 505.382812 272.445312 C 505.1875 272.695312 504.828125 272.738281 504.578125 272.539062 C 504.332031 272.34375 504.289062 271.984375 504.484375 271.734375 C 504.945312 271.152344 505.960938 270.101562 507.605469 269.609375 C 508.464844 269.351562 509.34375 269.292969 510.214844 269.4375 C 511.046875 269.578125 511.578125 269.855469 511.71875 269.9375 C 512.4375 270.355469 513.011719 270.875 513.421875 271.488281 C 513.765625 272.003906 513.996094 272.585938 514.109375 273.21875 C 514.300781 274.320312 514.089844 275.289062 514 275.699219 C 513.992188 275.730469 513.984375 275.765625 513.980469 275.792969 C 513.980469 275.886719 513.960938 275.992188 513.9375 276.109375 C 513.914062 276.25 513.875 276.445312 513.820312 276.707031 C 513.726562 277.171875 513.585938 277.824219 513.398438 278.699219 C 513.054688 280.304688 512.605469 282.335938 512.214844 284.125 C 511.785156 286.085938 511.410156 287.773438 511.339844 288.136719 C 511.230469 288.714844 510.832031 289.253906 510.160156 289.742188 C 509.703125 290.078125 509.269531 290.273438 509.25 290.28125 C 509.136719 290.332031 509.011719 290.339844 508.898438 290.316406 Z M 513.886719 275.46875 Z M 513.886719 275.46875 " fill-opacity="1" fill-rule="nonzero"/></g></g></g><g clip-path="url(#c3c9e677f8)"><g clip-path="url(#8b2b4902c9)"><g clip-path="url(#165b6a5385)"><path fill="#6800db" d="M 519.917969 294.410156 C 518.9375 294.199219 518.007812 293.78125 517.199219 293.179688 C 516.941406 292.992188 516.890625 292.632812 517.078125 292.378906 C 517.265625 292.125 517.625 292.070312 517.878906 292.257812 C 518.574219 292.773438 519.351562 293.117188 520.160156 293.292969 C 521.402344 293.558594 522.714844 293.417969 523.902344 292.855469 C 525.890625 291.910156 527.203125 289.871094 527.246094 287.65625 C 527.253906 287.339844 527.515625 287.089844 527.832031 287.09375 C 528.148438 287.101562 528.402344 287.363281 528.394531 287.679688 C 528.367188 288.988281 527.980469 290.257812 527.273438 291.355469 C 526.5625 292.457031 525.566406 293.332031 524.394531 293.890625 C 523.246094 294.4375 521.96875 294.65625 520.699219 294.53125 C 520.4375 294.503906 520.175781 294.464844 519.917969 294.410156 Z M 519.917969 294.410156 " fill-opacity="1" fill-rule="nonzero"/></g></g></g><g clip-path="url(#baf4871be3)"><g clip-path="url(#2898c2c831)"><g clip-path="url(#8a6ab75782)"><path fill="#6800db" d="M 515.855469 302.601562 C 515.53125 302.53125 515.175781 302.394531 514.835938 302.152344 C 514.183594 301.679688 513.773438 300.917969 513.648438 299.941406 C 513.605469 299.613281 513.578125 299.085938 513.667969 298.433594 C 513.808594 297.449219 514.253906 296.535156 514.988281 295.726562 C 515.558594 295.097656 516.144531 294.714844 516.363281 294.570312 C 516.890625 294.226562 518.316406 293.4375 520.21875 293.53125 C 521.09375 293.578125 522.71875 293.660156 523.769531 294.972656 C 524.402344 295.761719 524.558594 296.664062 524.578125 297.28125 C 524.585938 297.601562 524.339844 297.863281 524.023438 297.875 C 523.707031 297.882812 523.441406 297.632812 523.433594 297.316406 C 523.417969 296.875 523.3125 296.230469 522.875 295.6875 C 522.148438 294.777344 520.953125 294.71875 520.164062 294.679688 C 518.59375 294.597656 517.421875 295.246094 516.992188 295.527344 C 515.398438 296.574219 514.921875 297.773438 514.804688 298.597656 C 514.742188 299.046875 514.601562 300.570312 515.503906 301.222656 C 516.074219 301.632812 516.777344 301.503906 516.804688 301.496094 C 517.738281 301.316406 518.132812 300.390625 518.148438 300.351562 C 518.269531 300.058594 518.605469 299.921875 518.894531 300.042969 C 519.1875 300.164062 519.328125 300.496094 519.207031 300.789062 C 519.140625 300.949219 518.527344 302.332031 517.023438 302.625 C 516.894531 302.648438 516.421875 302.722656 515.855469 302.601562 Z M 515.855469 302.601562 " fill-opacity="1" fill-rule="nonzero"/></g></g></g><g clip-path="url(#da86c6a26c)"><g clip-path="url(#8efd18a34b)"><g clip-path="url(#02d8c34890)"><path fill="#6800db" d="M 520.003906 290.429688 C 519.632812 290.351562 519.269531 290.214844 518.953125 290.023438 C 518.238281 289.609375 517.691406 288.914062 517.414062 288.070312 C 517.136719 287.234375 517.136719 286.289062 517.417969 285.410156 C 517.515625 285.109375 517.839844 284.945312 518.140625 285.039062 C 518.441406 285.136719 518.609375 285.460938 518.511719 285.761719 C 518.089844 287.066406 518.519531 288.445312 519.53125 289.035156 C 520.183594 289.417969 521.183594 289.546875 521.953125 288.980469 C 522.613281 288.496094 522.933594 287.632812 522.769531 286.78125 C 522.710938 286.472656 522.914062 286.171875 523.226562 286.109375 C 523.535156 286.050781 523.835938 286.253906 523.898438 286.566406 C 524.019531 287.195312 523.964844 287.839844 523.742188 288.429688 C 523.519531 289.027344 523.136719 289.535156 522.632812 289.90625 C 522.074219 290.316406 521.394531 290.527344 520.675781 290.511719 C 520.449219 290.503906 520.226562 290.476562 520.003906 290.429688 Z M 520.003906 290.429688 " fill-opacity="1" fill-rule="nonzero"/></g></g></g><g clip-path="url(#eac56d1490)"><g clip-path="url(#6fd7f76ece)"><g clip-path="url(#8469c56e46)"><path fill="#6800db" d="M 512.679688 298.363281 C 512.566406 298.339844 512.464844 298.285156 512.378906 298.195312 C 512.0625 297.859375 511.78125 297.464844 511.5625 297.054688 C 511.171875 296.320312 510.984375 295.550781 511.007812 294.769531 C 511.046875 293.25 511.847656 292.242188 512.378906 291.574219 C 512.695312 291.175781 513.59375 290.179688 515.078125 289.523438 C 516.613281 288.839844 518.054688 288.828125 518.992188 288.9375 C 519.308594 288.972656 519.535156 289.257812 519.496094 289.570312 C 519.460938 289.886719 519.175781 290.113281 518.863281 290.074219 C 518.0625 289.984375 516.839844 289.996094 515.542969 290.570312 C 514.289062 291.125 513.539062 291.957031 513.277344 292.289062 C 512.8125 292.867188 512.183594 293.664062 512.152344 294.796875 C 512.117188 296.097656 512.886719 297.058594 513.214844 297.410156 C 513.433594 297.640625 513.421875 298.003906 513.191406 298.222656 C 513.046875 298.355469 512.855469 298.402344 512.679688 298.363281 Z M 512.679688 298.363281 " fill-opacity="1" fill-rule="nonzero"/></g></g></g><g clip-path="url(#3529775b3d)"><g clip-path="url(#ae4f9134dd)"><g clip-path="url(#71a8cb9df7)"><path fill="#6800db" d="M 527.257812 292.953125 C 527.023438 292.902344 526.792969 292.8125 526.574219 292.683594 C 526.230469 292.484375 526.023438 292.253906 525.988281 292.207031 C 525.78125 291.96875 525.808594 291.605469 526.046875 291.398438 C 526.289062 291.195312 526.648438 291.222656 526.855469 291.460938 C 526.878906 291.484375 527.285156 291.933594 527.859375 291.839844 C 528.277344 291.773438 528.621094 291.460938 528.742188 291.042969 C 528.828125 290.738281 529.144531 290.558594 529.449219 290.648438 C 529.753906 290.734375 529.929688 291.050781 529.84375 291.355469 C 529.601562 292.203125 528.894531 292.835938 528.039062 292.972656 C 527.777344 293.015625 527.515625 293.007812 527.257812 292.953125 Z M 527.257812 292.953125 " fill-opacity="1" fill-rule="nonzero"/></g></g></g><g clip-path="url(#647d051313)"><g clip-path="url(#611110577d)"><g clip-path="url(#c60056cfb2)"><path fill="#6800db" d="M 514.09375 306.628906 C 513.441406 306.488281 512.957031 306.25 512.675781 306.113281 C 512.109375 305.835938 511.164062 305.367188 510.480469 304.269531 C 509.890625 303.324219 509.78125 302.351562 509.792969 301.707031 C 509.796875 301.671875 509.796875 301.640625 509.804688 301.609375 C 510.007812 300.566406 510.234375 299.515625 510.476562 298.484375 C 510.664062 297.6875 510.863281 296.878906 511.074219 296.089844 C 511.15625 295.785156 511.46875 295.601562 511.773438 295.683594 C 512.082031 295.765625 512.261719 296.078125 512.183594 296.382812 C 511.972656 297.164062 511.777344 297.957031 511.589844 298.746094 C 511.355469 299.746094 511.136719 300.765625 510.941406 301.777344 C 510.9375 302.269531 511.027344 302.976562 511.453125 303.664062 C 511.964844 304.484375 512.699219 304.84375 513.183594 305.085938 C 513.535156 305.257812 514.195312 305.582031 515.085938 305.59375 C 516.292969 305.605469 517.21875 305.03125 517.664062 304.6875 C 517.75 304.621094 517.855469 304.578125 517.964844 304.570312 C 518.414062 304.53125 519.957031 304.296875 520.9375 302.976562 C 521.765625 301.867188 521.785156 300.910156 521.65625 300.304688 C 521.597656 300.011719 521.230469 298.542969 520.085938 298.296875 C 520.085938 298.296875 520.082031 298.296875 520.078125 298.296875 C 519.089844 298.089844 518.234375 298.929688 518.199219 298.964844 C 517.972656 299.1875 517.609375 299.1875 517.386719 298.960938 C 517.164062 298.738281 517.164062 298.375 517.390625 298.152344 C 517.476562 298.0625 517.800781 297.757812 518.285156 297.503906 C 518.953125 297.148438 519.65625 297.035156 520.316406 297.175781 C 520.320312 297.175781 520.324219 297.175781 520.328125 297.175781 C 521.117188 297.347656 521.78125 297.859375 522.246094 298.664062 C 522.570312 299.226562 522.71875 299.785156 522.777344 300.066406 C 522.957031 300.90625 522.9375 302.207031 521.855469 303.660156 C 521.292969 304.421875 520.53125 304.988281 519.59375 305.351562 C 519.058594 305.554688 518.578125 305.652344 518.234375 305.695312 C 517.628906 306.132812 516.515625 306.753906 515.074219 306.738281 C 514.714844 306.734375 514.386719 306.691406 514.09375 306.628906 Z M 514.09375 306.628906 " fill-opacity="1" fill-rule="nonzero"/></g></g></g><g clip-path="url(#d7c6be845c)"><g clip-path="url(#93978ad6d1)"><g clip-path="url(#ba945e17ce)"><path fill="#6800db" d="M 513.476562 304.300781 C 513.203125 304.242188 513.007812 303.992188 513.027344 303.703125 C 513.046875 303.386719 513.316406 303.148438 513.632812 303.167969 C 513.6875 303.171875 514.167969 303.191406 514.507812 302.828125 C 514.796875 302.515625 514.804688 302.132812 514.800781 302.023438 C 514.785156 301.707031 515.027344 301.441406 515.34375 301.425781 C 515.660156 301.410156 515.929688 301.65625 515.945312 301.972656 C 515.957031 302.257812 515.925781 302.988281 515.34375 303.609375 C 514.675781 304.324219 513.8125 304.328125 513.5625 304.3125 C 513.53125 304.308594 513.503906 304.304688 513.476562 304.300781 Z M 513.476562 304.300781 " fill-opacity="1" fill-rule="nonzero"/></g></g></g><g clip-path="url(#9ab4f3c658)"><g clip-path="url(#d4a52f2817)"><g clip-path="url(#c5812069f2)"><path fill="#6800db" d="M 522.738281 299.84375 C 522.167969 299.722656 521.785156 299.539062 521.746094 299.519531 C 521.460938 299.382812 521.34375 299.039062 521.480469 298.753906 C 521.621094 298.46875 521.964844 298.351562 522.25 298.492188 C 522.265625 298.5 523.90625 299.277344 525.265625 298.367188 C 526.007812 297.867188 526.304688 297.121094 526.414062 296.722656 C 526.5 296.417969 526.8125 296.238281 527.121094 296.324219 C 527.425781 296.40625 527.605469 296.722656 527.519531 297.027344 C 527.367188 297.578125 526.957031 298.613281 525.902344 299.316406 C 524.777344 300.070312 523.5625 300.019531 522.738281 299.84375 Z M 522.738281 299.84375 " fill-opacity="1" fill-rule="nonzero"/></g></g></g><g clip-path="url(#1d4a631c81)"><g clip-path="url(#9242ffea48)"><g clip-path="url(#d2edcce364)"><path fill="#6800db" d="M 528.773438 296.9375 C 528.617188 296.902344 528.480469 296.808594 528.394531 296.660156 C 528.238281 296.382812 528.332031 296.035156 528.609375 295.878906 C 528.988281 295.660156 529.316406 295.390625 529.589844 295.074219 C 530.652344 293.847656 530.566406 292.226562 530.53125 291.53125 C 530.507812 291.035156 530.355469 289.734375 529.523438 288.433594 C 529.171875 287.894531 528.777344 287.277344 528.003906 286.832031 C 526.984375 286.25 525.914062 286.3125 525.367188 286.402344 C 525.054688 286.457031 524.761719 286.242188 524.710938 285.929688 C 524.65625 285.621094 524.867188 285.324219 525.179688 285.273438 C 525.878906 285.15625 527.246094 285.078125 528.574219 285.839844 C 529.59375 286.421875 530.109375 287.226562 530.488281 287.816406 C 531.433594 289.292969 531.640625 290.738281 531.675781 291.472656 C 531.699219 291.878906 531.734375 292.554688 531.597656 293.335938 C 531.433594 294.304688 531.046875 295.144531 530.457031 295.828125 C 530.097656 296.242188 529.667969 296.59375 529.175781 296.875 C 529.050781 296.945312 528.90625 296.964844 528.773438 296.9375 Z M 528.773438 296.9375 " fill-opacity="1" fill-rule="nonzero"/></g></g></g><g clip-path="url(#6f3110fca5)"><g clip-path="url(#58ad093cde)"><g clip-path="url(#7108a66ccb)"><path fill="#6800db" d="M 521.660156 303.578125 C 521.351562 303.515625 521.15625 303.210938 521.21875 302.902344 C 521.285156 302.59375 521.585938 302.394531 521.898438 302.457031 C 522.5625 302.597656 523.234375 302.597656 523.894531 302.46875 C 524.222656 302.402344 525.085938 302.175781 525.996094 301.5 C 527.347656 300.492188 528.089844 299.335938 528.203125 298.058594 C 528.242188 297.617188 528.335938 296.578125 527.648438 295.765625 C 527.144531 295.175781 526.464844 294.96875 526.101562 294.898438 C 525.789062 294.835938 525.585938 294.539062 525.648438 294.226562 C 525.707031 293.914062 526.007812 293.710938 526.320312 293.773438 C 526.832031 293.871094 527.792969 294.167969 528.519531 295.023438 C 529.519531 296.203125 529.394531 297.625 529.347656 298.164062 C 529.253906 299.203125 528.835938 300.183594 528.109375 301.078125 C 527.539062 301.78125 526.9375 302.226562 526.679688 302.417969 C 525.582031 303.234375 524.523438 303.511719 524.117188 303.59375 C 523.308594 303.753906 522.484375 303.75 521.664062 303.582031 C 521.664062 303.582031 521.660156 303.582031 521.660156 303.578125 Z M 521.660156 303.578125 " fill-opacity="1" fill-rule="nonzero"/></g></g></g><g clip-path="url(#d3084a5f01)"><g clip-path="url(#2b61ff2582)"><g clip-path="url(#c4b7a440d5)"><path fill="#6800db" d="M 529.8125 288.332031 C 529.796875 288.328125 529.785156 288.324219 529.769531 288.320312 C 529.464844 288.230469 529.292969 287.910156 529.382812 287.609375 C 529.390625 287.578125 529.589844 286.890625 529.5625 285.976562 C 529.527344 284.835938 529.164062 283.882812 528.484375 283.140625 C 527.636719 282.21875 526.558594 281.921875 525.992188 281.824219 C 525.984375 281.824219 525.972656 281.820312 525.964844 281.820312 C 525.667969 281.753906 525.46875 281.46875 525.523438 281.164062 C 525.574219 280.851562 525.871094 280.640625 526.183594 280.695312 C 526.894531 280.816406 528.253906 281.195312 529.328125 282.367188 C 529.808594 282.890625 530.167969 283.5 530.402344 284.183594 C 530.585938 284.730469 530.6875 285.320312 530.707031 285.9375 C 530.742188 287.015625 530.507812 287.84375 530.480469 287.933594 C 530.394531 288.222656 530.101562 288.394531 529.8125 288.332031 Z M 529.8125 288.332031 " fill-opacity="1" fill-rule="nonzero"/></g></g></g><g clip-path="url(#9e5feba10c)"><g clip-path="url(#ff7c7da2d6)"><g clip-path="url(#701fe901df)"><path fill="#6800db" d="M 528.359375 282.734375 C 528.0625 282.671875 527.863281 282.386719 527.914062 282.082031 C 528.023438 281.40625 528.09375 280.078125 527.3125 278.808594 C 527.066406 278.40625 526.414062 277.339844 525.128906 277.015625 C 524.753906 276.917969 523.757812 276.664062 523.007812 277.273438 C 522.382812 277.78125 522.296875 278.585938 522.285156 278.820312 C 522.269531 279.136719 522.003906 279.382812 521.6875 279.367188 C 521.371094 279.351562 521.125 279.082031 521.140625 278.765625 C 521.164062 278.3125 521.320312 277.167969 522.285156 276.382812 C 522.800781 275.964844 523.433594 275.746094 524.160156 275.734375 C 524.71875 275.726562 525.1875 275.84375 525.414062 275.902344 C 527.144531 276.34375 528.007812 277.746094 528.289062 278.207031 C 529.265625 279.792969 529.183594 281.433594 529.046875 282.269531 C 528.992188 282.582031 528.699219 282.792969 528.386719 282.742188 C 528.378906 282.738281 528.367188 282.738281 528.359375 282.734375 Z M 528.359375 282.734375 " fill-opacity="1" fill-rule="nonzero"/></g></g></g><g clip-path="url(#c9580868c3)"><g clip-path="url(#60384a33a1)"><g clip-path="url(#ec494f1aeb)"><path fill="#6800db" d="M 522.503906 277.140625 C 522.304688 277.097656 522.132812 276.949219 522.074219 276.738281 C 521.984375 276.421875 521.742188 275.828125 521.148438 275.386719 C 520.714844 275.0625 520.265625 274.945312 519.964844 274.90625 C 519.648438 274.867188 519.429688 274.578125 519.46875 274.265625 C 519.511719 273.949219 519.800781 273.730469 520.113281 273.769531 C 520.550781 273.828125 521.203125 273.996094 521.835938 274.46875 C 522.699219 275.113281 523.046875 275.96875 523.175781 276.421875 C 523.261719 276.726562 523.085938 277.042969 522.78125 277.132812 C 522.6875 277.15625 522.59375 277.160156 522.503906 277.140625 Z M 522.503906 277.140625 " fill-opacity="1" fill-rule="nonzero"/></g></g></g><g clip-path="url(#2da45bdb16)"><g clip-path="url(#569c7a6b57)"><g clip-path="url(#159664ef9e)"><path fill="#6800db" d="M 522.054688 284.695312 C 521.945312 284.671875 521.839844 284.613281 521.757812 284.527344 C 521.539062 284.296875 521.550781 283.933594 521.78125 283.71875 C 522.09375 283.421875 522.957031 282.734375 524.234375 282.757812 C 525.328125 282.777344 526.09375 283.304688 526.453125 283.613281 C 526.691406 283.824219 526.71875 284.183594 526.507812 284.421875 C 526.300781 284.664062 525.941406 284.6875 525.699219 284.480469 C 525.507812 284.3125 524.972656 283.917969 524.214844 283.90625 C 523.335938 283.890625 522.734375 284.394531 522.570312 284.550781 C 522.425781 284.683594 522.234375 284.730469 522.054688 284.695312 Z M 522.054688 284.695312 " fill-opacity="1" fill-rule="nonzero"/></g></g></g><g clip-path="url(#2674c59feb)"><g clip-path="url(#831e78e126)"><g clip-path="url(#4c9be14252)"><path fill="#6800db" d="M 518.878906 285.964844 C 518.652344 285.917969 518.429688 285.847656 518.207031 285.757812 C 517.632812 285.523438 517.25 285.214844 517.144531 285.128906 C 516.902344 284.925781 516.871094 284.5625 517.074219 284.320312 C 517.28125 284.078125 517.640625 284.046875 517.882812 284.25 C 517.996094 284.34375 519.003906 285.152344 520.246094 284.824219 C 520.941406 284.640625 521.734375 284.097656 521.9375 283.296875 C 522.070312 282.773438 521.914062 282.324219 521.8125 282.023438 C 521.5 281.113281 520.820312 280.644531 520.59375 280.488281 C 519.917969 280.023438 519.222656 279.90625 518.761719 279.890625 C 518.445312 279.878906 518.195312 279.613281 518.207031 279.296875 C 518.21875 278.980469 518.484375 278.734375 518.800781 278.746094 C 519.417969 278.765625 520.34375 278.921875 521.246094 279.546875 C 522.054688 280.101562 522.609375 280.8125 522.898438 281.652344 C 523.015625 282 523.265625 282.726562 523.050781 283.578125 C 522.710938 284.914062 521.488281 285.683594 520.539062 285.933594 C 520.003906 286.074219 519.4375 286.085938 518.878906 285.964844 Z M 518.878906 285.964844 " fill-opacity="1" fill-rule="nonzero"/></g></g></g><g clip-path="url(#f8ca69f1bc)"><g clip-path="url(#ffa40bb485)"><g clip-path="url(#9f82fe02be)"><path fill="#6800db" d="M 522.175781 282.003906 C 521.890625 281.941406 521.691406 281.667969 521.730469 281.371094 C 521.78125 280.960938 522.007812 279.929688 522.972656 279.199219 C 523.6875 278.652344 524.457031 278.558594 524.847656 278.550781 C 525.164062 278.542969 525.429688 278.792969 525.433594 279.109375 C 525.441406 279.425781 525.191406 279.6875 524.875 279.695312 C 524.621094 279.699219 524.125 279.761719 523.667969 280.109375 C 523.03125 280.59375 522.894531 281.308594 522.867188 281.515625 C 522.828125 281.832031 522.539062 282.054688 522.226562 282.011719 C 522.210938 282.011719 522.195312 282.007812 522.175781 282.003906 Z M 522.175781 282.003906 " fill-opacity="1" fill-rule="nonzero"/></g></g></g><g clip-path="url(#c772c8ba46)"><g clip-path="url(#8d49905e01)"><g clip-path="url(#5a6089da22)"><path fill="#6800db" d="M 514.269531 284.128906 C 514.203125 284.113281 514.140625 284.089844 514.082031 284.050781 C 513.816406 283.882812 513.734375 283.527344 513.902344 283.261719 C 514.039062 283.046875 515.289062 281.164062 517.558594 281.109375 C 518.871094 281.078125 519.851562 281.679688 520.316406 282.039062 C 520.566406 282.234375 520.613281 282.59375 520.417969 282.84375 C 520.226562 283.09375 519.867188 283.140625 519.617188 282.945312 C 519.269531 282.679688 518.546875 282.234375 517.585938 282.253906 C 516.886719 282.273438 516.230469 282.53125 515.636719 283.027344 C 515.164062 283.421875 514.902344 283.828125 514.875 283.871094 C 514.742188 284.082031 514.496094 284.175781 514.269531 284.128906 Z M 514.269531 284.128906 " fill-opacity="1" fill-rule="nonzero"/></g></g></g><g clip-path="url(#18c66403c2)"><g clip-path="url(#424f47b073)"><g clip-path="url(#caaffa0698)"><path fill="#6800db" d="M 515.308594 278.789062 C 515.253906 278.78125 515.203125 278.761719 515.152344 278.734375 C 514.875 278.582031 514.773438 278.234375 514.921875 277.957031 C 515.03125 277.753906 515.28125 277.351562 515.699219 276.9375 C 516.300781 276.339844 517.003906 275.960938 517.792969 275.800781 C 518.996094 275.5625 519.988281 275.933594 520.46875 276.175781 C 520.753906 276.320312 520.867188 276.664062 520.726562 276.945312 C 520.582031 277.230469 520.238281 277.34375 519.957031 277.203125 C 519.605469 277.023438 518.882812 276.753906 518.019531 276.925781 C 516.703125 277.1875 516.046875 278.285156 515.929688 278.503906 C 515.804688 278.730469 515.550781 278.84375 515.308594 278.789062 Z M 515.308594 278.789062 " fill-opacity="1" fill-rule="nonzero"/></g></g></g><g clip-path="url(#1cf33ba518)"><g clip-path="url(#d45a4db483)"><g clip-path="url(#2c57e68b64)"><path fill="#6800db" d="M 513.867188 291.382812 C 513.753906 291.355469 513.644531 291.296875 513.5625 291.203125 C 513.546875 291.1875 513.234375 290.835938 512.949219 290.34375 C 512.539062 289.621094 512.398438 288.964844 512.53125 288.394531 C 512.617188 288.035156 512.972656 286.339844 513.382812 284.378906 C 513.757812 282.582031 514.183594 280.546875 514.527344 278.941406 C 514.714844 278.066406 514.855469 277.414062 514.960938 276.949219 C 515.019531 276.6875 515.0625 276.496094 515.097656 276.355469 C 515.125 276.242188 515.152344 276.140625 515.191406 276.050781 C 515.195312 276.027344 515.203125 275.992188 515.210938 275.960938 C 515.296875 275.546875 515.5 274.578125 516.128906 273.652344 C 516.492188 273.121094 516.941406 272.6875 517.464844 272.355469 C 518.089844 271.964844 518.824219 271.722656 519.652344 271.640625 C 519.816406 271.621094 520.414062 271.585938 521.230469 271.800781 C 522.082031 272.023438 522.859375 272.4375 523.542969 273.027344 C 524.835938 274.152344 525.332031 275.527344 525.515625 276.246094 C 525.589844 276.554688 525.40625 276.863281 525.097656 276.941406 C 524.789062 277.019531 524.480469 276.832031 524.402344 276.523438 C 524.253906 275.9375 523.847656 274.8125 522.789062 273.894531 C 522.242188 273.417969 521.621094 273.085938 520.9375 272.910156 C 520.277344 272.734375 519.816406 272.773438 519.769531 272.78125 C 516.988281 273.0625 516.496094 275.421875 516.332031 276.195312 C 516.308594 276.3125 516.285156 276.417969 516.242188 276.515625 C 516.085938 277.0625 515.136719 281.59375 514.503906 284.613281 C 514.078125 286.664062 513.738281 288.28125 513.648438 288.65625 C 513.585938 288.929688 513.691406 289.324219 513.945312 289.773438 C 514.164062 290.15625 514.414062 290.4375 514.414062 290.4375 C 514.625 290.675781 514.605469 291.035156 514.371094 291.246094 C 514.230469 291.375 514.039062 291.417969 513.867188 291.382812 Z M 515.40625 275.796875 Z M 515.40625 275.796875 " fill-opacity="1" fill-rule="nonzero"/></g></g></g></svg>