<svg xmlns="http://www.w3.org/2000/svg" xmlns:xlink="http://www.w3.org/1999/xlink" zoomAndPan="magnify" viewBox="483 259 56 56" preserveAspectRatio="xMidYMid meet" version="1.0"><defs><clipPath id="4b8f2e9767"><path d="M 487 275 L 537 275 L 537 301 L 487 301 Z M 487 275 " clip-rule="nonzero"/></clipPath><clipPath id="65f01fd23d"><path d="M 487.296875 276.074219 L 536.003906 274.578125 L 536.785156 300.054688 L 488.082031 301.546875 Z M 487.296875 276.074219 " clip-rule="nonzero"/></clipPath><clipPath id="247aa4e8d4"><path d="M 487.296875 276.074219 L 536.003906 274.578125 L 536.785156 300.054688 L 488.082031 301.546875 Z M 487.296875 276.074219 " clip-rule="nonzero"/></clipPath><clipPath id="a641756a76"><path d="M 501 278 L 523 278 L 523 298 L 501 298 Z M 501 278 " clip-rule="nonzero"/></clipPath><clipPath id="15b2a3859f"><path d="M 487.296875 276.074219 L 536.003906 274.578125 L 536.785156 300.054688 L 488.082031 301.546875 Z M 487.296875 276.074219 " clip-rule="nonzero"/></clipPath><clipPath id="2dd63768f6"><path d="M 487.296875 276.074219 L 536.003906 274.578125 L 536.785156 300.054688 L 488.082031 301.546875 Z M 487.296875 276.074219 " clip-rule="nonzero"/></clipPath></defs><g clip-path="url(#4b8f2e9767)"><g clip-path="url(#65f01fd23d)"><g clip-path="url(#247aa4e8d4)"><path fill="#6800db" d="M 511.609375 275.339844 C 515.855469 275.207031 520.003906 276.023438 524.046875 277.785156 C 528.757812 279.835938 532.824219 283.050781 536.121094 286.988281 C 536.195312 287.074219 536.257812 287.160156 536.308594 287.238281 C 536.308594 287.242188 536.3125 287.246094 536.3125 287.25 C 536.3125 287.253906 536.308594 287.257812 536.308594 287.261719 C 536.265625 287.34375 536.207031 287.429688 536.140625 287.523438 C 533.089844 291.652344 529.226562 295.113281 524.652344 297.449219 C 520.722656 299.457031 516.636719 300.527344 512.390625 300.65625 C 508.144531 300.785156 503.996094 299.972656 499.953125 298.210938 C 495.242188 296.160156 491.175781 292.941406 487.878906 289.007812 C 487.804688 288.917969 487.742188 288.835938 487.691406 288.757812 C 487.691406 288.753906 487.6875 288.75 487.6875 288.746094 C 487.6875 288.742188 487.6875 288.738281 487.691406 288.734375 C 487.734375 288.652344 487.792969 288.566406 487.859375 288.472656 C 490.910156 284.339844 494.773438 280.882812 499.347656 278.546875 C 503.277344 276.539062 507.363281 275.46875 511.609375 275.339844 Z M 490.125 288.671875 C 490.125 288.695312 490.136719 288.71875 490.160156 288.742188 C 491.101562 289.792969 492.109375 290.789062 493.191406 291.726562 C 498.488281 296.328125 505.273438 298.976562 512.324219 298.757812 C 519.378906 298.542969 525.988281 295.488281 530.992188 290.570312 C 532.015625 289.566406 532.960938 288.511719 533.835938 287.40625 C 533.855469 287.378906 533.867188 287.355469 533.867188 287.328125 C 533.867188 287.304688 533.855469 287.28125 533.832031 287.257812 C 532.890625 286.207031 531.882812 285.210938 530.800781 284.269531 C 525.503906 279.667969 518.71875 277.023438 511.667969 277.242188 C 504.613281 277.457031 498.003906 280.511719 493 285.429688 C 491.976562 286.433594 491.027344 287.488281 490.15625 288.59375 C 490.132812 288.621094 490.125 288.644531 490.125 288.671875 Z M 490.125 288.671875 " fill-opacity="1" fill-rule="nonzero"/></g></g></g><g clip-path="url(#a641756a76)"><g clip-path="url(#15b2a3859f)"><g clip-path="url(#2dd63768f6)"><path fill="#6800db" d="M 511.785156 278.0625 C 512.957031 278.039062 514.085938 278.210938 515.179688 278.578125 C 519.183594 279.9375 521.917969 283.527344 522.007812 287.785156 C 522.097656 292.039062 519.523438 295.746094 515.578125 297.269531 C 514.503906 297.6875 513.382812 297.90625 512.210938 297.933594 C 511.042969 297.957031 509.910156 297.785156 508.820312 297.414062 C 504.8125 296.058594 502.082031 292.46875 501.992188 288.210938 C 501.902344 283.957031 504.476562 280.25 508.417969 278.722656 C 509.496094 278.308594 510.617188 278.089844 511.785156 278.0625 Z M 518.21875 283.542969 C 518.210938 283.234375 518.140625 282.9375 518.015625 282.65625 C 517.886719 282.371094 517.710938 282.125 517.484375 281.914062 C 517.261719 281.699219 517.003906 281.539062 516.710938 281.429688 C 516.421875 281.320312 516.125 281.269531 515.8125 281.28125 C 515.503906 281.289062 515.207031 281.359375 514.925781 281.484375 C 514.644531 281.613281 514.398438 281.789062 514.183594 282.015625 C 513.972656 282.238281 513.8125 282.496094 513.703125 282.785156 C 513.59375 283.078125 513.542969 283.375 513.550781 283.6875 C 513.5625 283.996094 513.628906 284.289062 513.757812 284.574219 C 513.882812 284.855469 514.058594 285.101562 514.285156 285.316406 C 514.511719 285.527344 514.769531 285.6875 515.058594 285.796875 C 515.347656 285.90625 515.648438 285.957031 515.957031 285.949219 C 516.265625 285.9375 516.5625 285.871094 516.84375 285.742188 C 517.128906 285.617188 517.375 285.4375 517.585938 285.214844 C 517.796875 284.988281 517.960938 284.730469 518.070312 284.441406 C 518.179688 284.152344 518.230469 283.851562 518.21875 283.542969 Z M 518.21875 283.542969 " fill-opacity="1" fill-rule="nonzero"/></g></g></g></svg>