<svg xmlns="http://www.w3.org/2000/svg" xmlns:xlink="http://www.w3.org/1999/xlink" zoomAndPan="magnify" viewBox="506.2 282.2 11.6 11.6" preserveAspectRatio="xMidYMid meet" version="1.0"><defs><clipPath id="5083703164"><path d="M 506.476562 282.476562 L 517.722656 282.476562 L 517.722656 293.722656 L 506.476562 293.722656 Z M 506.476562 282.476562 " clip-rule="nonzero"></path></clipPath></defs><g clip-path="url(#5083703164)"><path fill="#faf8ff" d="M 517.519531 283.074219 C 517.519531 282.75 517.25 282.480469 516.925781 282.476562 C 515.363281 282.460938 513.503906 282.734375 511.597656 284.890625 L 510.785156 285.804688 L 507.90625 286.253906 C 507.863281 286.257812 507.828125 286.277344 507.796875 286.304688 L 506.53125 287.574219 C 506.484375 287.621094 506.46875 287.6875 506.480469 287.75 C 506.496094 287.816406 506.542969 287.867188 506.605469 287.890625 L 508.59375 288.585938 L 508.816406 288.808594 L 508.4375 289.382812 C 508.386719 289.457031 508.398438 289.558594 508.460938 289.621094 L 508.53125 289.691406 C 507.691406 290.523438 507.453125 291.347656 507.335938 292.449219 C 507.332031 292.507812 507.351562 292.566406 507.394531 292.605469 C 507.429688 292.640625 507.480469 292.664062 507.527344 292.664062 C 507.535156 292.664062 507.542969 292.664062 507.550781 292.660156 C 508.652344 292.546875 509.472656 292.308594 510.308594 291.46875 L 510.375 291.535156 C 510.414062 291.574219 510.460938 291.589844 510.511719 291.589844 C 510.550781 291.589844 510.585938 291.582031 510.617188 291.558594 L 511.191406 291.183594 L 511.414062 291.40625 L 512.109375 293.394531 C 512.132812 293.457031 512.183594 293.5 512.25 293.515625 C 512.261719 293.519531 512.277344 293.523438 512.289062 293.523438 C 512.339844 293.523438 512.390625 293.5 512.425781 293.464844 L 513.691406 292.199219 C 513.722656 292.171875 513.738281 292.132812 513.746094 292.09375 L 514.191406 289.214844 L 515.109375 288.402344 C 517.261719 286.492188 517.535156 284.636719 517.519531 283.074219 Z M 516.921875 282.859375 C 517.039062 282.863281 517.136719 282.960938 517.136719 283.078125 C 517.140625 283.445312 517.128906 283.828125 517.074219 284.226562 C 516.761719 284.148438 516.476562 283.988281 516.242188 283.753906 C 516.011719 283.523438 515.851562 283.238281 515.773438 282.925781 C 516.171875 282.871094 516.554688 282.855469 516.921875 282.859375 Z M 508.023438 286.621094 L 510.382812 286.257812 L 508.65625 288.203125 L 507.015625 287.628906 Z M 507.746094 292.253906 C 507.863281 291.335938 508.097656 290.664062 508.800781 289.960938 L 510.035156 291.199219 C 509.335938 291.902344 508.664062 292.136719 507.746094 292.253906 Z M 510.535156 291.15625 L 508.84375 289.464844 L 509.089844 289.085938 L 510.914062 290.910156 Z M 513.378906 291.976562 L 512.371094 292.980469 L 511.796875 291.339844 L 513.742188 289.613281 Z M 514.851562 288.117188 L 511.574219 291.027344 L 508.972656 288.425781 L 511.882812 285.144531 C 513.101562 283.769531 514.292969 283.207031 515.394531 282.988281 C 515.484375 283.378906 515.683594 283.738281 515.972656 284.027344 C 516.261719 284.316406 516.617188 284.515625 517.011719 284.605469 C 516.792969 285.707031 516.226562 286.898438 514.851562 288.117188 Z M 513.285156 285.171875 C 512.4375 285.171875 511.746094 285.863281 511.746094 286.714844 C 511.746094 287.5625 512.433594 288.257812 513.285156 288.257812 C 514.136719 288.257812 514.828125 287.566406 514.828125 286.714844 C 514.828125 285.863281 514.136719 285.171875 513.285156 285.171875 Z M 513.285156 287.871094 C 512.648438 287.871094 512.128906 287.351562 512.128906 286.714844 C 512.128906 286.074219 512.648438 285.554688 513.285156 285.554688 C 513.925781 285.554688 514.445312 286.074219 514.445312 286.714844 C 514.441406 287.351562 513.925781 287.871094 513.285156 287.871094 Z M 513.285156 287.871094 " fill-opacity="1" fill-rule="nonzero"></path></g></svg>