<svg xmlns="http://www.w3.org/2000/svg" xmlns:xlink="http://www.w3.org/1999/xlink" width="1366" zoomAndPan="magnify" viewBox="0 0 1024.5 576" height="768" preserveAspectRatio="xMidYMid meet" version="1.0"><defs><clipPath id="3b9f2de892"><path d="M 459 188 L 609 188 L 609 321 L 459 321 Z M 459 188 " clip-rule="nonzero"/></clipPath><clipPath id="671253bad2"><path d="M 608.53125 284.082031 L 488.769531 320.546875 L 459.730469 225.167969 L 579.492188 188.703125 Z M 608.53125 284.082031 " clip-rule="nonzero"/></clipPath><clipPath id="f894caf4e5"><path d="M 1 0.6875 L 124 0.6875 L 124 132.625 L 1 132.625 Z M 1 0.6875 " clip-rule="nonzero"/></clipPath><clipPath id="816e803e44"><path d="M 149.53125 96.082031 L 29.769531 132.546875 L 0.730469 37.167969 L 120.492188 0.703125 Z M 149.53125 96.082031 " clip-rule="nonzero"/></clipPath><clipPath id="91d8ffc76a"><path d="M 0.628906 37.429688 L 120.386719 0.96875 L 149.429688 96.34375 L 29.667969 132.808594 Z M 0.628906 37.429688 " clip-rule="nonzero"/></clipPath><clipPath id="1afadb8f51"><path d="M -59.832031 -13.371094 L 113.714844 -66.210938 L 184.023438 164.703125 L 10.476562 217.546875 Z M -59.832031 -13.371094 " clip-rule="nonzero"/></clipPath><clipPath id="0aecfffc40"><rect x="0" width="150" y="0" height="133"/></clipPath></defs><g clip-path="url(#3b9f2de892)"><g clip-path="url(#671253bad2)"><g transform="matrix(1, 0, 0, 1, 459, 188)"><g clip-path="url(#0aecfffc40)"><g clip-path="url(#f894caf4e5)"><g clip-path="url(#816e803e44)"><g clip-path="url(#91d8ffc76a)"><g clip-path="url(#1afadb8f51)"><path fill="#5100f9" d="M 17.929688 214.035156 C 18.253906 214.53125 18.121094 215.199219 17.625 215.523438 C 17.132812 215.855469 16.464844 215.71875 16.132812 215.226562 C 15.929688 214.925781 15.730469 214.621094 15.53125 214.320312 C 15.199219 213.824219 15.339844 213.15625 15.832031 212.824219 C 16.324219 212.496094 16.992188 212.628906 17.316406 213.125 C 17.527344 213.429688 17.726562 213.730469 17.929688 214.035156 Z M 14.894531 209.5 C 15.230469 209.992188 15.097656 210.660156 14.605469 210.988281 C 14.101562 211.320312 13.433594 211.1875 13.109375 210.691406 C 12.707031 210.085938 12.296875 209.480469 11.894531 208.871094 C 11.570312 208.371094 11.714844 207.703125 12.207031 207.378906 C 12.703125 207.050781 13.371094 207.1875 13.695312 207.683594 C 14.097656 208.292969 14.496094 208.898438 14.894531 209.5 Z M 11.34375 204.039062 C 11.660156 204.542969 11.503906 205.207031 11.007812 205.523438 C 10.507812 205.839844 9.835938 205.6875 9.519531 205.183594 C 9.128906 204.5625 8.742188 203.941406 8.367188 203.316406 C 8.0625 202.804688 8.21875 202.144531 8.730469 201.835938 C 9.238281 201.527344 9.902344 201.691406 10.210938 202.199219 C 10.582031 202.8125 10.960938 203.425781 11.34375 204.039062 Z M 8.046875 198.464844 C 8.335938 198.988281 8.144531 199.640625 7.617188 199.925781 C 7.097656 200.210938 6.445312 200.015625 6.160156 199.496094 C 5.808594 198.839844 5.457031 198.1875 5.128906 197.535156 C 4.859375 197.003906 5.074219 196.359375 5.605469 196.089844 C 6.140625 195.820312 6.789062 196.03125 7.058594 196.5625 C 7.371094 197.195312 7.703125 197.832031 8.046875 198.464844 Z M 5.292969 192.679688 C 5.503906 193.234375 5.242188 193.859375 4.691406 194.078125 C 4.132812 194.300781 3.511719 194.03125 3.289062 193.480469 C 3.007812 192.769531 2.75 192.066406 2.519531 191.367188 C 2.335938 190.804688 2.636719 190.195312 3.207031 190.007812 C 3.765625 189.824219 4.375 190.128906 4.558594 190.695312 C 4.78125 191.351562 5.023438 192.011719 5.292969 192.679688 Z M 3.574219 186.644531 C 3.65625 187.230469 3.25 187.777344 2.660156 187.867188 C 2.082031 187.949219 1.527344 187.546875 1.445312 186.957031 C 1.324219 186.179688 1.253906 185.414062 1.238281 184.65625 C 1.222656 184.0625 1.699219 183.566406 2.289062 183.554688 C 2.886719 183.535156 3.375 184.007812 3.394531 184.601562 C 3.40625 185.273438 3.472656 185.953125 3.574219 186.644531 Z M 3.902344 180.636719 C 3.722656 181.207031 3.128906 181.523438 2.554688 181.351562 C 1.984375 181.175781 1.671875 180.574219 1.84375 180.007812 C 2.070312 179.253906 2.375 178.519531 2.742188 177.808594 C 3.023438 177.28125 3.675781 177.078125 4.199219 177.351562 C 4.726562 177.628906 4.925781 178.28125 4.652344 178.804688 C 4.339844 179.402344 4.089844 180.011719 3.902344 180.636719 Z M 7.085938 175.652344 C 6.65625 176.058594 5.972656 176.039062 5.570312 175.605469 C 5.15625 175.171875 5.175781 174.492188 5.613281 174.085938 C 5.863281 173.847656 6.128906 173.613281 6.414062 173.378906 C 6.585938 173.234375 6.914062 172.964844 7.359375 172.617188 C 7.820312 172.253906 8.503906 172.335938 8.863281 172.804688 C 9.234375 173.273438 9.148438 173.949219 8.675781 174.316406 C 8.257812 174.644531 7.957031 174.894531 7.78125 175.039062 C 7.542969 175.238281 7.304688 175.445312 7.085938 175.652344 Z M 12.164062 171.90625 C 11.652344 172.214844 10.988281 172.058594 10.683594 171.546875 C 10.378906 171.039062 10.535156 170.378906 11.042969 170.070312 C 11.652344 169.699219 12.304688 169.320312 12.996094 168.957031 C 13.515625 168.679688 14.167969 168.878906 14.449219 169.402344 C 14.726562 169.929688 14.523438 170.582031 14.003906 170.855469 C 13.355469 171.203125 12.738281 171.554688 12.164062 171.90625 Z M 17.839844 169.15625 C 17.285156 169.355469 16.664062 169.0625 16.460938 168.503906 C 16.269531 167.941406 16.558594 167.328125 17.125 167.125 C 17.824219 166.875 18.554688 166.652344 19.296875 166.460938 C 19.878906 166.3125 20.460938 166.660156 20.613281 167.234375 C 20.757812 167.8125 20.40625 168.398438 19.835938 168.546875 C 19.152344 168.71875 18.492188 168.925781 17.839844 169.15625 Z M 23.902344 167.960938 C 23.300781 167.976562 22.8125 167.503906 22.792969 166.914062 C 22.785156 166.316406 23.25 165.824219 23.851562 165.808594 C 24.621094 165.789062 25.398438 165.824219 26.171875 165.914062 C 26.765625 165.980469 27.1875 166.515625 27.117188 167.105469 C 27.050781 167.695312 26.519531 168.121094 25.925781 168.050781 C 25.242188 167.976562 24.566406 167.949219 23.902344 167.960938 Z M 29.808594 169.101562 C 29.261719 168.863281 29.023438 168.222656 29.257812 167.683594 C 29.503906 167.136719 30.140625 166.890625 30.679688 167.132812 C 31.339844 167.429688 32.007812 167.773438 32.660156 168.179688 L 32.730469 168.230469 C 33.234375 168.542969 33.394531 169.207031 33.082031 169.710938 C 32.761719 170.21875 32.109375 170.371094 31.601562 170.058594 L 31.523438 170.007812 C 30.949219 169.65625 30.382812 169.355469 29.808594 169.101562 Z M 35.484375 172.242188 C 34.960938 171.972656 34.742188 171.328125 35.011719 170.792969 C 35.273438 170.265625 35.917969 170.046875 36.453125 170.3125 C 37.101562 170.636719 37.742188 170.9375 38.378906 171.207031 C 38.914062 171.449219 39.171875 172.082031 38.9375 172.625 C 38.695312 173.171875 38.058594 173.421875 37.519531 173.183594 C 36.851562 172.898438 36.171875 172.582031 35.484375 172.242188 Z M 41.753906 174.710938 C 41.175781 174.546875 40.84375 173.953125 41.015625 173.378906 C 41.175781 172.808594 41.765625 172.480469 42.34375 172.640625 C 43.03125 172.839844 43.707031 173.003906 44.375 173.136719 C 44.960938 173.253906 45.339844 173.820312 45.214844 174.40625 C 45.101562 174.988281 44.535156 175.363281 43.949219 175.246094 C 43.234375 175.101562 42.5 174.925781 41.753906 174.710938 Z M 48.492188 175.730469 C 47.894531 175.726562 47.414062 175.242188 47.417969 174.648438 C 47.417969 174.054688 47.910156 173.574219 48.503906 173.578125 C 49.207031 173.582031 49.890625 173.546875 50.546875 173.472656 C 51.140625 173.40625 51.671875 173.832031 51.742188 174.421875 C 51.804688 175.011719 51.382812 175.546875 50.789062 175.613281 C 50.046875 175.695312 49.28125 175.734375 48.492188 175.730469 Z M 55.292969 174.480469 C 54.746094 174.707031 54.113281 174.441406 53.894531 173.894531 C 53.671875 173.339844 53.933594 172.714844 54.480469 172.488281 C 55.113281 172.226562 55.714844 171.925781 56.277344 171.582031 C 56.777344 171.277344 57.441406 171.4375 57.75 171.945312 C 58.066406 172.449219 57.898438 173.113281 57.390625 173.421875 C 56.734375 173.824219 56.03125 174.179688 55.292969 174.480469 Z M 60.949219 170.359375 C 60.570312 170.816406 59.886719 170.878906 59.4375 170.496094 C 58.976562 170.117188 58.917969 169.4375 59.296875 168.980469 C 59.726562 168.46875 60.109375 167.921875 60.453125 167.34375 C 60.75 166.832031 61.410156 166.664062 61.925781 166.964844 C 62.4375 167.265625 62.605469 167.925781 62.308594 168.4375 C 61.910156 169.113281 61.457031 169.757812 60.949219 170.359375 Z M 64.046875 164.105469 C 63.90625 164.683594 63.324219 165.042969 62.742188 164.90625 C 62.171875 164.761719 61.8125 164.183594 61.949219 163.605469 C 62.105469 162.957031 62.214844 162.285156 62.289062 161.601562 C 62.347656 161.011719 62.882812 160.578125 63.472656 160.636719 C 64.066406 160.699219 64.496094 161.226562 64.429688 161.820312 C 64.355469 162.601562 64.21875 163.367188 64.046875 164.105469 Z M 64.332031 157.210938 C 64.414062 157.800781 64.007812 158.34375 63.417969 158.425781 C 62.824219 158.507812 62.289062 158.09375 62.207031 157.503906 C 62.113281 156.835938 61.980469 156.160156 61.808594 155.480469 C 61.664062 154.902344 62.015625 154.320312 62.597656 154.171875 C 63.167969 154.03125 63.75 154.382812 63.894531 154.960938 C 64.09375 155.714844 64.234375 156.46875 64.332031 157.210938 Z M 62.371094 150.664062 C 62.621094 151.199219 62.382812 151.84375 61.84375 152.09375 C 61.316406 152.339844 60.671875 152.105469 60.421875 151.566406 C 60.136719 150.949219 59.808594 150.332031 59.457031 149.714844 C 59.160156 149.199219 59.339844 148.542969 59.855469 148.246094 C 60.367188 147.953125 61.027344 148.128906 61.324219 148.644531 C 61.710938 149.316406 62.058594 149.988281 62.371094 150.664062 Z M 58.773438 144.910156 C 59.152344 145.371094 59.066406 146.054688 58.605469 146.421875 C 58.148438 146.792969 57.464844 146.71875 57.097656 146.253906 C 56.664062 145.71875 56.210938 145.183594 55.726562 144.65625 C 55.324219 144.21875 55.34375 143.539062 55.78125 143.136719 C 56.21875 142.734375 56.898438 142.761719 57.300781 143.199219 C 57.828125 143.761719 58.316406 144.335938 58.773438 144.910156 Z M 54.054688 140.09375 C 54.507812 140.480469 54.5625 141.160156 54.183594 141.613281 C 53.804688 142.066406 53.117188 142.125 52.667969 141.742188 C 52.140625 141.292969 51.585938 140.851562 51.011719 140.417969 C 50.535156 140.0625 50.4375 139.386719 50.792969 138.914062 C 51.152344 138.4375 51.828125 138.34375 52.304688 138.699219 C 52.90625 139.160156 53.492188 139.625 54.054688 140.09375 Z M 48.605469 136.207031 C 49.113281 136.519531 49.269531 137.183594 48.960938 137.6875 C 48.640625 138.195312 47.976562 138.351562 47.46875 138.042969 C 46.839844 137.644531 46.214844 137.253906 45.609375 136.867188 C 45.113281 136.542969 44.964844 135.878906 45.289062 135.378906 C 45.609375 134.878906 46.277344 134.734375 46.777344 135.058594 C 47.367188 135.4375 47.980469 135.820312 48.605469 136.207031 Z M 43.210938 132.640625 C 43.695312 132.984375 43.800781 133.65625 43.464844 134.140625 C 43.113281 134.625 42.445312 134.738281 41.964844 134.394531 C 41.34375 133.957031 40.746094 133.519531 40.171875 133.089844 C 39.699219 132.734375 39.609375 132.054688 39.960938 131.582031 C 40.324219 131.105469 41 131.011719 41.472656 131.367188 C 42.023438 131.792969 42.605469 132.214844 43.210938 132.640625 Z M 38.128906 128.679688 C 38.582031 129.070312 38.628906 129.75 38.246094 130.195312 C 37.851562 130.648438 37.175781 130.691406 36.722656 130.304688 C 36.136719 129.804688 35.597656 129.304688 35.070312 128.8125 C 34.640625 128.402344 34.617188 127.722656 35.027344 127.289062 C 35.4375 126.859375 36.121094 126.839844 36.546875 127.25 C 37.046875 127.722656 37.582031 128.195312 38.128906 128.679688 Z M 33.636719 124.175781 C 34.011719 124.632812 33.960938 125.308594 33.503906 125.691406 C 33.046875 126.074219 32.371094 126.015625 31.984375 125.5625 C 31.476562 124.960938 31.015625 124.367188 30.589844 123.78125 C 30.246094 123.296875 30.355469 122.625 30.835938 122.277344 C 31.320312 121.929688 31.992188 122.039062 32.34375 122.519531 C 32.738281 123.066406 33.164062 123.617188 33.636719 124.175781 Z M 30.265625 118.953125 C 30.503906 119.496094 30.257812 120.132812 29.714844 120.371094 C 29.171875 120.609375 28.535156 120.363281 28.292969 119.820312 C 27.96875 119.074219 27.703125 118.347656 27.507812 117.628906 C 27.34375 117.058594 27.671875 116.464844 28.246094 116.300781 C 28.8125 116.140625 29.414062 116.472656 29.574219 117.046875 C 29.753906 117.667969 29.980469 118.304688 30.265625 118.953125 Z M 29.152344 113.097656 C 29.105469 113.691406 28.59375 114.136719 27.996094 114.097656 C 27.402344 114.054688 26.953125 113.542969 27 112.949219 C 27.058594 112.148438 27.179688 111.371094 27.378906 110.609375 C 27.515625 110.035156 28.101562 109.683594 28.683594 109.828125 C 29.257812 109.972656 29.609375 110.558594 29.460938 111.136719 C 29.300781 111.777344 29.195312 112.429688 29.152344 113.097656 Z M 31.042969 107.429688 C 30.734375 107.941406 30.070312 108.105469 29.566406 107.796875 C 29.054688 107.492188 28.894531 106.828125 29.203125 106.320312 C 29.589844 105.671875 30.023438 105.039062 30.496094 104.421875 C 30.859375 103.949219 31.53125 103.859375 32 104.21875 C 32.476562 104.578125 32.5625 105.253906 32.210938 105.726562 C 31.785156 106.28125 31.394531 106.847656 31.042969 107.429688 Z M 35.019531 102.621094 C 34.585938 103.03125 33.910156 103.015625 33.5 102.585938 C 33.085938 102.15625 33.097656 101.476562 33.53125 101.0625 C 34.070312 100.554688 34.617188 100.054688 35.191406 99.5625 C 35.648438 99.175781 36.320312 99.230469 36.707031 99.683594 C 37.09375 100.132812 37.042969 100.8125 36.585938 101.199219 C 36.046875 101.664062 35.523438 102.136719 35.019531 102.621094 Z M 39.953125 98.558594 C 39.472656 98.910156 38.804688 98.800781 38.453125 98.320312 C 38.101562 97.84375 38.210938 97.167969 38.6875 96.820312 C 39.289062 96.382812 39.882812 95.960938 40.492188 95.542969 C 40.980469 95.207031 41.648438 95.332031 41.988281 95.820312 C 42.324219 96.308594 42.203125 96.976562 41.710938 97.316406 C 41.121094 97.722656 40.535156 98.136719 39.953125 98.558594 Z M 45.324219 94.925781 C 44.820312 95.25 44.160156 95.101562 43.832031 94.605469 C 43.507812 94.105469 43.660156 93.4375 44.160156 93.117188 C 44.78125 92.714844 45.394531 92.324219 46.003906 91.9375 C 46.5 91.621094 47.160156 91.769531 47.484375 92.269531 C 47.800781 92.773438 47.65625 93.4375 47.152344 93.757812 C 46.554688 94.136719 45.949219 94.527344 45.324219 94.925781 Z M 50.839844 91.363281 C 50.347656 91.695312 49.679688 91.566406 49.347656 91.074219 C 49.015625 90.582031 49.132812 89.917969 49.625 89.582031 C 50.253906 89.160156 50.839844 88.746094 51.359375 88.351562 C 51.832031 87.996094 52.507812 88.085938 52.867188 88.5625 C 53.226562 89.035156 53.132812 89.710938 52.65625 90.066406 C 52.105469 90.484375 51.5 90.914062 50.839844 91.363281 Z M 55.914062 86.507812 C 55.667969 87.042969 55.027344 87.273438 54.484375 87.023438 C 53.953125 86.765625 53.714844 86.128906 53.972656 85.589844 C 54.273438 84.949219 54.535156 84.3125 54.75 83.679688 C 54.9375 83.117188 55.546875 82.820312 56.113281 83.011719 C 56.679688 83.203125 56.976562 83.816406 56.777344 84.378906 C 56.539062 85.085938 56.257812 85.792969 55.914062 86.507812 Z M 57.75 79.878906 C 57.703125 80.464844 57.179688 80.902344 56.578125 80.847656 C 55.988281 80.792969 55.558594 80.265625 55.617188 79.671875 C 55.675781 78.988281 55.695312 78.304688 55.683594 77.621094 C 55.671875 77.027344 56.148438 76.53125 56.742188 76.519531 C 57.332031 76.511719 57.832031 76.980469 57.839844 77.574219 C 57.855469 78.339844 57.828125 79.105469 57.75 79.878906 Z M 57.28125 73.042969 C 57.402344 73.625 57.039062 74.199219 56.460938 74.324219 C 55.875 74.457031 55.308594 74.085938 55.175781 73.507812 C 55.023438 72.828125 54.847656 72.152344 54.644531 71.480469 C 54.472656 70.910156 54.796875 70.308594 55.359375 70.136719 C 55.933594 69.964844 56.527344 70.285156 56.699219 70.855469 C 56.921875 71.582031 57.113281 72.3125 57.28125 73.042969 Z M 55.140625 66.652344 C 55.382812 67.195312 55.121094 67.832031 54.578125 68.070312 C 54.035156 68.304688 53.40625 68.050781 53.164062 67.507812 C 52.882812 66.859375 52.585938 66.210938 52.269531 65.566406 C 52.019531 65.03125 52.246094 64.386719 52.773438 64.128906 C 53.308594 63.871094 53.960938 64.09375 54.210938 64.632812 C 54.535156 65.304688 54.847656 65.976562 55.140625 66.652344 Z M 52.195312 60.707031 C 52.472656 61.230469 52.285156 61.882812 51.753906 62.167969 C 51.238281 62.453125 50.582031 62.257812 50.296875 61.738281 C 49.953125 61.101562 49.605469 60.46875 49.253906 59.835938 C 48.964844 59.316406 49.152344 58.660156 49.671875 58.371094 C 50.1875 58.085938 50.847656 58.269531 51.136719 58.789062 C 51.492188 59.425781 51.839844 60.070312 52.195312 60.707031 Z M 49.007812 54.984375 C 49.292969 55.507812 49.105469 56.160156 48.585938 56.445312 C 48.070312 56.730469 47.40625 56.546875 47.128906 56.023438 C 46.769531 55.375 46.421875 54.730469 46.078125 54.089844 C 45.796875 53.566406 46 52.914062 46.53125 52.632812 C 47.050781 52.359375 47.707031 52.558594 47.984375 53.082031 C 48.316406 53.714844 48.660156 54.347656 49.007812 54.984375 Z M 46.089844 49.234375 C 46.332031 49.777344 46.082031 50.417969 45.539062 50.65625 C 44.996094 50.898438 44.363281 50.652344 44.121094 50.109375 C 43.8125 49.417969 43.527344 48.726562 43.261719 48.042969 C 43.050781 47.484375 43.335938 46.863281 43.886719 46.652344 C 44.449219 46.441406 45.066406 46.722656 45.277344 47.277344 C 45.527344 47.925781 45.792969 48.582031 46.089844 49.234375 Z M 44.113281 43.273438 C 44.222656 43.855469 43.835938 44.421875 43.253906 44.535156 C 42.671875 44.644531 42.101562 44.265625 41.988281 43.679688 C 41.84375 42.914062 41.742188 42.152344 41.691406 41.390625 C 41.652344 40.796875 42.101562 40.28125 42.691406 40.242188 C 43.285156 40.203125 43.800781 40.648438 43.839844 41.242188 C 43.882812 41.917969 43.980469 42.59375 44.113281 43.273438 Z M 44.152344 37.234375 C 44.015625 37.8125 43.433594 38.167969 42.859375 38.03125 C 42.28125 37.890625 41.917969 37.3125 42.054688 36.734375 C 42.238281 35.988281 42.476562 35.242188 42.789062 34.5 C 43.011719 33.953125 43.644531 33.691406 44.203125 33.917969 C 44.746094 34.148438 45.003906 34.777344 44.78125 35.324219 C 44.511719 35.960938 44.304688 36.597656 44.152344 37.234375 Z M 46.855469 31.816406 C 46.503906 32.289062 45.828125 32.386719 45.355469 32.03125 C 44.878906 31.671875 44.78125 31 45.132812 30.523438 C 45.59375 29.914062 46.066406 29.328125 46.554688 28.765625 C 46.933594 28.320312 47.621094 28.269531 48.0625 28.65625 C 48.515625 29.046875 48.5625 29.726562 48.179688 30.175781 C 47.722656 30.699219 47.285156 31.242188 46.855469 31.816406 Z M 51.152344 27.207031 C 50.699219 27.59375 50.015625 27.546875 49.628906 27.09375 C 49.242188 26.644531 49.296875 25.964844 49.738281 25.578125 C 50.324219 25.078125 50.914062 24.609375 51.511719 24.167969 C 51.988281 23.8125 52.667969 23.914062 53.019531 24.390625 C 53.367188 24.871094 53.269531 25.542969 52.796875 25.894531 C 52.230469 26.3125 51.683594 26.746094 51.152344 27.207031 Z M 56.34375 23.648438 C 55.824219 23.929688 55.171875 23.734375 54.882812 23.210938 C 54.605469 22.6875 54.796875 22.035156 55.324219 21.753906 C 55.984375 21.398438 56.660156 21.0625 57.339844 20.75 C 57.882812 20.503906 58.515625 20.742188 58.765625 21.28125 C 59.007812 21.824219 58.769531 22.460938 58.230469 22.710938 C 57.59375 23 56.964844 23.3125 56.34375 23.648438 Z M 62.179688 21.179688 C 61.621094 21.363281 61.007812 21.054688 60.824219 20.488281 C 60.640625 19.921875 60.953125 19.316406 61.515625 19.132812 C 62.222656 18.90625 62.933594 18.695312 63.664062 18.496094 C 64.234375 18.34375 64.820312 18.683594 64.976562 19.257812 C 65.136719 19.828125 64.800781 20.417969 64.222656 20.578125 C 63.53125 20.761719 62.859375 20.960938 62.179688 21.179688 Z M 68.386719 19.640625 C 67.804688 19.75 67.242188 19.363281 67.140625 18.777344 C 67.027344 18.191406 67.417969 17.632812 68 17.523438 C 68.726562 17.390625 69.457031 17.269531 70.191406 17.160156 C 70.777344 17.074219 71.324219 17.480469 71.417969 18.066406 C 71.5 18.65625 71.09375 19.203125 70.503906 19.292969 C 69.800781 19.394531 69.09375 19.511719 68.386719 19.640625 Z M 74.773438 18.777344 C 74.1875 18.832031 73.664062 18.394531 73.605469 17.808594 C 73.542969 17.214844 73.988281 16.6875 74.574219 16.632812 C 75.300781 16.5625 76.035156 16.5 76.765625 16.445312 C 77.355469 16.402344 77.878906 16.84375 77.921875 17.4375 C 77.96875 18.027344 77.523438 18.546875 76.933594 18.589844 C 76.214844 18.644531 75.5 18.707031 74.773438 18.777344 Z M 81.257812 18.324219 C 80.660156 18.355469 80.15625 17.898438 80.125 17.304688 C 80.097656 16.710938 80.558594 16.203125 81.152344 16.175781 C 81.878906 16.140625 82.613281 16.105469 83.335938 16.074219 C 83.933594 16.046875 84.429688 16.511719 84.460938 17.105469 C 84.480469 17.699219 84.015625 18.203125 83.429688 18.226562 C 82.707031 18.257812 81.980469 18.289062 81.257812 18.324219 Z M 87.785156 18.050781 C 87.1875 18.078125 86.6875 17.613281 86.660156 17.019531 C 86.640625 16.425781 87.101562 15.925781 87.699219 15.898438 C 88.425781 15.871094 89.152344 15.839844 89.863281 15.808594 C 90.460938 15.78125 90.96875 16.238281 90.996094 16.832031 C 91.015625 17.425781 90.5625 17.929688 89.96875 17.957031 C 89.246094 17.988281 88.519531 18.019531 87.785156 18.050781 Z M 94.351562 17.703125 C 93.757812 17.746094 93.246094 17.300781 93.195312 16.710938 C 93.15625 16.117188 93.601562 15.597656 94.195312 15.554688 C 94.914062 15.503906 95.640625 15.441406 96.34375 15.375 C 96.929688 15.320312 97.460938 15.753906 97.511719 16.347656 C 97.574219 16.9375 97.140625 17.464844 96.550781 17.519531 C 95.828125 17.585938 95.089844 17.648438 94.351562 17.703125 Z M 100.941406 16.964844 C 100.363281 17.058594 99.800781 16.660156 99.707031 16.074219 C 99.617188 15.488281 100.007812 14.933594 100.597656 14.839844 C 101.304688 14.722656 102.011719 14.589844 102.691406 14.445312 C 103.269531 14.324219 103.84375 14.695312 103.96875 15.273438 C 104.089844 15.855469 103.714844 16.429688 103.136719 16.550781 C 102.417969 16.707031 101.691406 16.839844 100.941406 16.964844 Z M 107.476562 15.34375 C 106.914062 15.542969 106.304688 15.25 106.101562 14.691406 C 105.898438 14.132812 106.199219 13.515625 106.753906 13.316406 C 107.414062 13.082031 108.058594 12.820312 108.683594 12.535156 C 109.226562 12.285156 109.867188 12.523438 110.109375 13.0625 C 110.359375 13.601562 110.121094 14.242188 109.582031 14.488281 C 108.902344 14.804688 108.199219 15.085938 107.476562 15.34375 Z M 113.53125 12.140625 C 113.058594 12.5 112.382812 12.410156 112.023438 11.9375 C 111.652344 11.46875 111.75 10.792969 112.222656 10.429688 C 112.757812 10.019531 113.269531 9.574219 113.757812 9.089844 C 114.183594 8.671875 114.863281 8.675781 115.285156 9.097656 C 115.703125 9.519531 115.695312 10.203125 115.273438 10.621094 C 114.726562 11.167969 114.136719 11.671875 113.53125 12.140625 Z M 118.113281 6.976562 C 117.816406 7.484375 117.15625 7.652344 116.640625 7.347656 C 116.128906 7.046875 115.960938 6.386719 116.269531 5.875 C 116.613281 5.300781 116.921875 4.691406 117.214844 4.046875 C 117.460938 3.507812 118.097656 3.265625 118.636719 3.511719 C 119.1875 3.753906 119.425781 4.390625 119.179688 4.933594 C 118.855469 5.652344 118.503906 6.332031 118.113281 6.976562 Z M 120.695312 0.691406 C 120.53125 1.257812 119.929688 1.585938 119.359375 1.417969 C 118.792969 1.25 118.46875 0.652344 118.628906 0.0820312 C 118.835938 -0.59375 119.015625 -1.277344 119.191406 -1.976562 C 119.328125 -2.550781 119.914062 -2.90625 120.484375 -2.761719 C 121.066406 -2.621094 121.417969 -2.039062 121.28125 -1.464844 C 121.09375 -0.730469 120.902344 -0.0117188 120.695312 0.691406 Z M 122.167969 -5.820312 C 122.066406 -5.230469 121.515625 -4.835938 120.925781 -4.929688 C 120.335938 -5.023438 119.941406 -5.578125 120.042969 -6.167969 C 120.15625 -6.863281 120.261719 -7.574219 120.347656 -8.285156 C 120.425781 -8.878906 120.96875 -9.292969 121.554688 -9.214844 C 122.148438 -9.140625 122.5625 -8.601562 122.484375 -8.011719 C 122.386719 -7.269531 122.285156 -6.539062 122.167969 -5.820312 Z M 122.925781 -12.417969 C 122.878906 -11.824219 122.367188 -11.375 121.769531 -11.417969 C 121.175781 -11.457031 120.726562 -11.96875 120.773438 -12.566406 C 120.816406 -13.273438 120.855469 -13.988281 120.894531 -14.714844 C 120.921875 -15.308594 121.417969 -15.765625 122.007812 -15.742188 C 122.609375 -15.71875 123.066406 -15.214844 123.039062 -14.621094 C 123.007812 -13.878906 122.972656 -13.144531 122.925781 -12.417969 Z M 123.125 -19.035156 C 123.121094 -18.4375 122.640625 -17.953125 122.050781 -17.949219 C 121.457031 -17.949219 120.976562 -18.429688 120.96875 -19.019531 C 120.964844 -19.738281 120.953125 -20.457031 120.9375 -21.179688 C 120.917969 -21.773438 121.382812 -22.265625 121.980469 -22.285156 C 122.570312 -22.300781 123.070312 -21.832031 123.089844 -21.238281 C 123.109375 -20.5 123.117188 -19.765625 123.125 -19.035156 Z M 122.871094 -25.636719 C 122.914062 -25.046875 122.464844 -24.53125 121.871094 -24.492188 C 121.28125 -24.449219 120.765625 -24.898438 120.726562 -25.492188 C 120.671875 -26.203125 120.613281 -26.921875 120.554688 -27.644531 C 120.503906 -28.234375 120.941406 -28.757812 121.527344 -28.808594 C 122.128906 -28.863281 122.648438 -28.425781 122.699219 -27.832031 C 122.761719 -27.097656 122.824219 -26.367188 122.871094 -25.636719 Z M 122.234375 -32.207031 C 122.304688 -31.617188 121.886719 -31.082031 121.300781 -31.007812 C 120.710938 -30.933594 120.171875 -31.351562 120.101562 -31.941406 C 120.011719 -32.65625 119.914062 -33.371094 119.8125 -34.085938 C 119.722656 -34.671875 120.140625 -35.21875 120.730469 -35.304688 C 121.308594 -35.382812 121.855469 -34.976562 121.9375 -34.386719 C 122.050781 -33.664062 122.140625 -32.933594 122.234375 -32.207031 Z M 121.25 -38.730469 C 121.355469 -38.148438 120.960938 -37.585938 120.378906 -37.484375 C 119.792969 -37.382812 119.230469 -37.769531 119.128906 -38.355469 C 119 -39.066406 118.871094 -39.773438 118.730469 -40.480469 C 118.617188 -41.066406 119.007812 -41.632812 119.589844 -41.746094 C 120.167969 -41.855469 120.738281 -41.476562 120.851562 -40.894531 C 120.984375 -40.171875 121.117188 -39.453125 121.25 -38.730469 Z M 119.941406 -45.195312 C 120.074219 -44.617188 119.710938 -44.039062 119.136719 -43.90625 C 118.550781 -43.773438 117.972656 -44.136719 117.839844 -44.714844 C 117.679688 -45.421875 117.519531 -46.125 117.339844 -46.820312 C 117.207031 -47.398438 117.558594 -47.980469 118.132812 -48.121094 C 118.714844 -48.265625 119.296875 -47.910156 119.441406 -47.335938 C 119.613281 -46.625 119.777344 -45.910156 119.941406 -45.195312 Z M 118.320312 -51.585938 C 118.484375 -51.015625 118.144531 -50.417969 117.578125 -50.261719 C 117 -50.101562 116.414062 -50.4375 116.25 -51.007812 C 116.058594 -51.707031 115.859375 -52.398438 115.648438 -53.085938 C 115.476562 -53.652344 115.800781 -54.253906 116.375 -54.425781 C 116.941406 -54.59375 117.546875 -54.269531 117.707031 -53.699219 C 117.921875 -53 118.125 -52.296875 118.320312 -51.585938 Z M 116.386719 -57.894531 C 116.570312 -57.328125 116.269531 -56.71875 115.703125 -56.527344 C 115.144531 -56.339844 114.535156 -56.644531 114.339844 -57.207031 C 114.109375 -57.894531 113.878906 -58.574219 113.632812 -59.25 C 113.441406 -59.808594 113.726562 -60.425781 114.292969 -60.625 C 114.847656 -60.824219 115.464844 -60.53125 115.667969 -59.972656 C 115.910156 -59.285156 116.152344 -58.59375 116.386719 -57.894531 Z M 114.101562 -64.089844 C 114.324219 -63.539062 114.0625 -62.914062 113.511719 -62.691406 C 112.953125 -62.46875 112.332031 -62.738281 112.109375 -63.289062 C 111.976562 -63.625 111.84375 -63.957031 111.699219 -64.289062 C 111.476562 -64.839844 111.738281 -65.46875 112.285156 -65.695312 C 112.832031 -65.921875 113.460938 -65.660156 113.695312 -65.113281 C 113.828125 -64.773438 113.964844 -64.433594 114.101562 -64.089844 Z M 114.101562 -64.089844 " fill-opacity="1" fill-rule="evenodd"/></g></g></g></g></g></g></g></g></svg>