<svg xmlns="http://www.w3.org/2000/svg" xmlns:xlink="http://www.w3.org/1999/xlink" width="1366" zoomAndPan="magnify" viewBox="0 0 1024.5 576" height="768" preserveAspectRatio="xMidYMid meet" version="1.0"><defs><clipPath id="3d3bc57d1a"><path d="M 385 220 L 625 220 L 625 301 L 385 301 Z M 385 220 " clip-rule="nonzero"/></clipPath><clipPath id="d0b3606673"><path d="M 505.199219 366.507812 L 385.933594 247.242188 L 509.96875 123.203125 L 629.238281 242.46875 Z M 505.199219 366.507812 " clip-rule="nonzero"/></clipPath><clipPath id="8e2f83b223"><path d="M 458.382812 413.324219 L 330.105469 285.046875 L 500.789062 114.363281 L 629.066406 242.640625 Z M 458.382812 413.324219 " clip-rule="nonzero"/></clipPath></defs><g clip-path="url(#3d3bc57d1a)"><g clip-path="url(#d0b3606673)"><g clip-path="url(#8e2f83b223)"><path fill="#5100f9" d="M 622.460938 237.71875 C 622.746094 237.199219 623.398438 237 623.921875 237.28125 C 624.441406 237.5625 624.636719 238.214844 624.359375 238.742188 C 624.1875 239.058594 624.015625 239.378906 623.839844 239.699219 C 623.5625 240.226562 622.90625 240.417969 622.382812 240.136719 C 621.859375 239.855469 621.664062 239.203125 621.949219 238.683594 C 622.117188 238.355469 622.289062 238.035156 622.460938 237.71875 Z M 619.886719 242.527344 C 620.164062 242 620.816406 241.800781 621.339844 242.082031 C 621.867188 242.371094 622.0625 243.023438 621.78125 243.542969 C 621.433594 244.179688 621.09375 244.828125 620.742188 245.46875 C 620.457031 245.988281 619.800781 246.179688 619.28125 245.898438 C 618.757812 245.613281 618.566406 244.960938 618.851562 244.441406 C 619.199219 243.800781 619.542969 243.164062 619.886719 242.527344 Z M 616.742188 248.230469 C 617.035156 247.714844 617.695312 247.539062 618.207031 247.828125 C 618.71875 248.121094 618.90625 248.785156 618.609375 249.300781 C 618.246094 249.941406 617.875 250.574219 617.5 251.195312 C 617.195312 251.707031 616.539062 251.878906 616.027344 251.574219 C 615.515625 251.269531 615.34375 250.605469 615.648438 250.097656 C 616.015625 249.480469 616.378906 248.855469 616.742188 248.230469 Z M 613.375 253.761719 C 613.695312 253.261719 614.363281 253.121094 614.863281 253.453125 C 615.359375 253.777344 615.496094 254.445312 615.171875 254.941406 C 614.757812 255.5625 614.34375 256.175781 613.925781 256.773438 C 613.582031 257.261719 612.914062 257.378906 612.425781 257.035156 C 611.9375 256.6875 611.820312 256.015625 612.160156 255.527344 C 612.570312 254.957031 612.976562 254.363281 613.375 253.761719 Z M 609.5625 258.914062 C 609.953125 258.464844 610.628906 258.40625 611.078125 258.785156 C 611.539062 259.175781 611.59375 259.851562 611.210938 260.304688 C 610.71875 260.886719 610.21875 261.445312 609.710938 261.980469 C 609.300781 262.40625 608.621094 262.425781 608.1875 262.011719 C 607.761719 261.605469 607.746094 260.921875 608.160156 260.496094 C 608.632812 259.992188 609.101562 259.464844 609.5625 258.914062 Z M 605.046875 263.273438 C 605.527344 262.921875 606.199219 263.023438 606.554688 263.5 C 606.902344 263.972656 606.804688 264.652344 606.324219 265.003906 C 605.695312 265.472656 605.050781 265.898438 604.390625 266.265625 C 603.875 266.558594 603.214844 266.375 602.925781 265.859375 C 602.628906 265.339844 602.8125 264.683594 603.328125 264.390625 C 603.917969 264.066406 604.484375 263.6875 605.046875 263.273438 Z M 599.589844 265.804688 C 600.179688 265.699219 600.738281 266.074219 600.855469 266.660156 C 600.96875 267.246094 600.585938 267.804688 600.003906 267.921875 C 599.234375 268.074219 598.441406 268.152344 597.644531 268.160156 C 597.042969 268.160156 596.558594 267.683594 596.554688 267.089844 C 596.546875 266.496094 597.03125 266.011719 597.621094 266.003906 C 598.296875 266.003906 598.949219 265.933594 599.589844 265.804688 Z M 593.695312 265.34375 C 594.253906 265.53125 594.558594 266.144531 594.367188 266.703125 C 594.179688 267.269531 593.570312 267.574219 593.003906 267.378906 C 592.675781 267.269531 592.34375 267.148438 592.003906 267.003906 C 591.796875 266.921875 591.402344 266.757812 590.886719 266.53125 C 590.351562 266.292969 590.101562 265.652344 590.347656 265.113281 C 590.585938 264.566406 591.222656 264.324219 591.769531 264.570312 C 592.253906 264.785156 592.617188 264.929688 592.824219 265.015625 C 593.117188 265.136719 593.410156 265.25 593.695312 265.34375 Z M 588 262.625 C 588.515625 262.929688 588.6875 263.589844 588.382812 264.097656 C 588.078125 264.609375 587.421875 264.78125 586.90625 264.476562 C 586.289062 264.113281 585.652344 263.714844 585.007812 263.28125 C 584.515625 262.949219 584.386719 262.277344 584.71875 261.785156 C 585.050781 261.292969 585.71875 261.164062 586.207031 261.492188 C 586.820312 261.90625 587.421875 262.28125 588 262.625 Z M 582.902344 258.910156 C 583.339844 259.308594 583.371094 259.992188 582.972656 260.433594 C 582.570312 260.867188 581.890625 260.902344 581.449219 260.496094 C 580.898438 259.996094 580.355469 259.457031 579.839844 258.890625 C 579.433594 258.449219 579.46875 257.773438 579.902344 257.367188 C 580.34375 256.96875 581.027344 257 581.425781 257.4375 C 581.898438 257.957031 582.390625 258.445312 582.902344 258.910156 Z M 578.996094 254.125 C 579.292969 254.644531 579.105469 255.300781 578.59375 255.59375 C 578.070312 255.882812 577.417969 255.703125 577.121094 255.179688 C 576.742188 254.507812 576.40625 253.808594 576.121094 253.082031 C 575.902344 252.527344 576.175781 251.90625 576.730469 251.6875 C 577.28125 251.46875 577.90625 251.738281 578.125 252.292969 C 578.378906 252.933594 578.671875 253.542969 578.996094 254.125 Z M 577.222656 248.375 C 577.269531 248.96875 576.820312 249.480469 576.230469 249.527344 C 575.636719 249.566406 575.117188 249.121094 575.078125 248.53125 C 575.027344 247.808594 575.015625 247.058594 575.070312 246.289062 L 575.082031 246.207031 C 575.121094 245.613281 575.628906 245.160156 576.21875 245.199219 C 576.820312 245.242188 577.261719 245.75 577.222656 246.34375 L 577.21875 246.4375 C 577.175781 247.105469 577.175781 247.746094 577.222656 248.375 Z M 577.324219 241.890625 C 577.332031 242.476562 576.867188 242.972656 576.269531 242.988281 C 575.679688 243.007812 575.183594 242.539062 575.167969 241.941406 C 575.148438 241.214844 575.109375 240.507812 575.050781 239.820312 C 575.007812 239.234375 575.445312 238.710938 576.035156 238.660156 C 576.632812 238.617188 577.15625 239.0625 577.199219 239.648438 C 577.257812 240.375 577.300781 241.121094 577.324219 241.890625 Z M 576.550781 235.195312 C 576.683594 235.78125 576.3125 236.355469 575.726562 236.472656 C 575.148438 236.597656 574.578125 236.234375 574.449219 235.648438 C 574.300781 234.949219 574.128906 234.273438 573.929688 233.621094 C 573.757812 233.050781 574.082031 232.449219 574.65625 232.285156 C 575.222656 232.113281 575.820312 232.433594 575.996094 233.003906 C 576.203125 233.703125 576.390625 234.433594 576.550781 235.195312 Z M 574.28125 228.769531 C 574.5625 229.296875 574.359375 229.949219 573.835938 230.226562 C 573.308594 230.503906 572.652344 230.296875 572.375 229.769531 C 572.050781 229.148438 571.699219 228.5625 571.324219 228.015625 C 570.984375 227.523438 571.113281 226.855469 571.597656 226.515625 C 572.089844 226.183594 572.757812 226.304688 573.097656 226.796875 C 573.519531 227.414062 573.917969 228.070312 574.28125 228.769531 Z M 569.980469 223.355469 C 570.4375 223.734375 570.5 224.414062 570.121094 224.867188 C 569.738281 225.324219 569.058594 225.386719 568.605469 225.011719 C 568.078125 224.574219 567.527344 224.1875 566.960938 223.851562 C 566.453125 223.554688 566.28125 222.890625 566.585938 222.382812 C 566.886719 221.863281 567.546875 221.699219 568.0625 222.003906 C 568.722656 222.394531 569.367188 222.847656 569.980469 223.355469 Z M 563.683594 220.304688 C 564.265625 220.421875 564.640625 220.996094 564.515625 221.574219 C 564.398438 222.160156 563.824219 222.53125 563.242188 222.410156 C 562.589844 222.273438 561.925781 222.191406 561.253906 222.160156 C 560.664062 222.136719 560.203125 221.636719 560.226562 221.039062 C 560.253906 220.445312 560.757812 219.988281 561.347656 220.011719 C 562.132812 220.042969 562.914062 220.140625 563.683594 220.304688 Z M 556.707031 220.511719 C 557.28125 220.363281 557.871094 220.710938 558.023438 221.285156 C 558.167969 221.859375 557.828125 222.449219 557.253906 222.597656 C 556.605469 222.765625 555.960938 222.984375 555.324219 223.242188 C 554.773438 223.46875 554.140625 223.199219 553.914062 222.648438 C 553.691406 222.101562 553.953125 221.472656 554.507812 221.25 C 555.234375 220.949219 555.972656 220.707031 556.707031 220.511719 Z M 550.488281 223.503906 C 550.96875 223.15625 551.640625 223.257812 551.992188 223.742188 C 552.339844 224.222656 552.226562 224.894531 551.746094 225.242188 C 551.203125 225.640625 550.667969 226.074219 550.148438 226.546875 C 549.707031 226.945312 549.027344 226.910156 548.625 226.464844 C 548.230469 226.027344 548.265625 225.347656 548.707031 224.949219 C 549.28125 224.421875 549.878906 223.941406 550.488281 223.503906 Z M 545.632812 228.316406 C 545.988281 227.84375 546.667969 227.75 547.140625 228.109375 C 547.609375 228.457031 547.707031 229.136719 547.347656 229.609375 C 546.9375 230.152344 546.546875 230.734375 546.167969 231.332031 C 545.851562 231.835938 545.1875 231.988281 544.6875 231.675781 C 544.183594 231.359375 544.03125 230.691406 544.34375 230.1875 C 544.753906 229.53125 545.1875 228.910156 545.632812 228.316406 Z M 542.25 234.199219 C 542.480469 233.648438 543.121094 233.402344 543.664062 233.632812 C 544.207031 233.863281 544.460938 234.5 544.222656 235.042969 C 543.953125 235.679688 543.695312 236.332031 543.460938 237.007812 C 543.265625 237.566406 542.65625 237.867188 542.09375 237.671875 C 541.53125 237.472656 541.238281 236.863281 541.433594 236.300781 C 541.679688 235.570312 541.957031 234.871094 542.25 234.199219 Z M 540.21875 240.625 C 540.347656 240.046875 540.921875 239.675781 541.5 239.796875 C 542.078125 239.921875 542.453125 240.496094 542.324219 241.078125 C 542.175781 241.75 542.050781 242.449219 541.9375 243.160156 C 541.847656 243.746094 541.296875 244.148438 540.714844 244.0625 C 540.125 243.964844 539.722656 243.417969 539.8125 242.828125 C 539.933594 242.078125 540.070312 241.34375 540.21875 240.625 Z M 539.355469 247.261719 C 539.390625 246.671875 539.902344 246.21875 540.492188 246.253906 C 541.09375 246.296875 541.542969 246.8125 541.507812 247.402344 C 541.453125 248.144531 541.402344 248.882812 541.34375 249.597656 C 541.292969 250.1875 540.777344 250.632812 540.183594 250.582031 C 539.589844 250.53125 539.148438 250.011719 539.199219 249.417969 C 539.257812 248.71875 539.304688 247.996094 539.355469 247.261719 Z M 538.742188 253.703125 C 538.820312 253.113281 539.363281 252.703125 539.949219 252.773438 C 540.542969 252.855469 540.957031 253.390625 540.878906 253.980469 C 540.78125 254.730469 540.679688 255.460938 540.570312 256.171875 C 540.480469 256.757812 539.921875 257.15625 539.339844 257.066406 C 538.75 256.96875 538.347656 256.421875 538.4375 255.832031 C 538.554688 255.148438 538.652344 254.4375 538.742188 253.703125 Z M 537.640625 260.050781 C 537.769531 259.46875 538.351562 259.105469 538.925781 259.234375 C 539.507812 259.367188 539.867188 259.945312 539.738281 260.527344 C 539.570312 261.277344 539.382812 261.992188 539.195312 262.6875 C 539.035156 263.257812 538.445312 263.597656 537.875 263.441406 C 537.300781 263.285156 536.960938 262.6875 537.121094 262.117188 C 537.300781 261.453125 537.472656 260.761719 537.640625 260.050781 Z M 535.78125 266.132812 C 536.003906 265.585938 536.628906 265.316406 537.179688 265.535156 C 537.734375 265.757812 538 266.382812 537.78125 266.9375 C 537.488281 267.667969 537.179688 268.355469 536.863281 269.007812 C 536.597656 269.539062 535.953125 269.757812 535.421875 269.5 C 534.886719 269.234375 534.667969 268.589844 534.929688 268.050781 C 535.222656 267.449219 535.507812 266.8125 535.78125 266.132812 Z M 532.757812 271.566406 C 533.125 271.097656 533.800781 271.019531 534.269531 271.386719 C 534.734375 271.75 534.816406 272.429688 534.449219 272.898438 C 533.945312 273.535156 533.425781 274.109375 532.886719 274.625 C 532.457031 275.035156 531.78125 275.027344 531.367188 274.59375 C 530.960938 274.167969 530.972656 273.484375 531.398438 273.070312 C 531.863281 272.621094 532.320312 272.121094 532.757812 271.566406 Z M 528.113281 275.304688 C 528.660156 275.066406 529.292969 275.308594 529.539062 275.851562 C 529.785156 276.394531 529.539062 277.035156 528.996094 277.273438 C 528.261719 277.59375 527.519531 277.855469 526.75 278.039062 C 526.179688 278.1875 525.597656 277.835938 525.449219 277.253906 C 525.308594 276.679688 525.660156 276.09375 526.238281 275.953125 C 526.878906 275.792969 527.503906 275.578125 528.113281 275.304688 Z M 522.222656 276.300781 C 522.820312 276.332031 523.277344 276.839844 523.242188 277.429688 C 523.214844 278.027344 522.703125 278.480469 522.109375 278.445312 C 521.355469 278.410156 520.59375 278.324219 519.828125 278.199219 C 519.238281 278.101562 518.839844 277.550781 518.941406 276.96875 C 519.035156 276.378906 519.589844 275.984375 520.171875 276.074219 C 520.859375 276.1875 521.542969 276.261719 522.222656 276.300781 Z M 516.105469 275.054688 C 516.675781 275.242188 516.980469 275.847656 516.792969 276.414062 C 516.609375 276.976562 516.003906 277.289062 515.433594 277.097656 C 514.730469 276.867188 514.03125 276.617188 513.332031 276.339844 C 512.773438 276.121094 512.503906 275.5 512.722656 274.945312 C 512.9375 274.394531 513.5625 274.121094 514.117188 274.339844 C 514.78125 274.597656 515.445312 274.839844 516.105469 275.054688 Z M 510.207031 272.613281 C 510.738281 272.871094 510.957031 273.511719 510.699219 274.046875 C 510.441406 274.582031 509.796875 274.804688 509.261719 274.546875 C 508.597656 274.222656 507.941406 273.894531 507.289062 273.554688 C 506.761719 273.28125 506.558594 272.636719 506.828125 272.105469 C 507.101562 271.578125 507.75 271.371094 508.28125 271.644531 C 508.914062 271.972656 509.554688 272.296875 510.207031 272.613281 Z M 504.46875 269.582031 C 504.996094 269.875 505.175781 270.527344 504.886719 271.046875 C 504.601562 271.570312 503.9375 271.75 503.421875 271.460938 C 502.777344 271.101562 502.140625 270.742188 501.515625 270.386719 C 501 270.097656 500.820312 269.445312 501.109375 268.925781 C 501.40625 268.410156 502.058594 268.222656 502.578125 268.519531 C 503.195312 268.867188 503.824219 269.21875 504.46875 269.582031 Z M 498.730469 266.390625 C 499.257812 266.671875 499.457031 267.320312 499.179688 267.84375 C 498.902344 268.371094 498.257812 268.578125 497.730469 268.300781 C 497.0625 267.945312 496.421875 267.621094 495.832031 267.351562 C 495.292969 267.101562 495.054688 266.460938 495.304688 265.917969 C 495.550781 265.378906 496.195312 265.144531 496.734375 265.394531 C 497.363281 265.6875 498.027344 266.019531 498.730469 266.390625 Z M 492.058594 264.195312 C 492.648438 264.164062 493.15625 264.621094 493.1875 265.21875 C 493.210938 265.804688 492.761719 266.316406 492.164062 266.34375 C 491.457031 266.378906 490.773438 266.449219 490.109375 266.554688 C 489.53125 266.652344 488.976562 266.257812 488.878906 265.667969 C 488.78125 265.078125 489.1875 264.527344 489.773438 264.4375 C 490.507812 264.316406 491.265625 264.230469 492.058594 264.195312 Z M 485.34375 265.695312 C 485.886719 265.460938 486.519531 265.71875 486.753906 266.273438 C 486.980469 266.820312 486.71875 267.449219 486.167969 267.675781 C 485.535156 267.945312 484.921875 268.25 484.328125 268.582031 C 483.804688 268.871094 483.148438 268.683594 482.859375 268.167969 C 482.570312 267.652344 482.75 266.988281 483.273438 266.703125 C 483.9375 266.328125 484.625 265.988281 485.34375 265.695312 Z M 479.535156 269.328125 C 479.992188 268.945312 480.667969 268.996094 481.054688 269.445312 C 481.445312 269.902344 481.382812 270.578125 480.9375 270.964844 C 480.410156 271.417969 479.894531 271.890625 479.394531 272.390625 C 478.976562 272.808594 478.292969 272.804688 477.875 272.390625 C 477.453125 271.964844 477.457031 271.289062 477.878906 270.867188 C 478.414062 270.332031 478.96875 269.820312 479.535156 269.328125 Z M 474.90625 274.222656 C 475.269531 273.753906 475.953125 273.683594 476.417969 274.050781 C 476.882812 274.421875 476.953125 275.09375 476.589844 275.5625 C 476.148438 276.117188 475.714844 276.683594 475.296875 277.265625 C 474.9375 277.738281 474.265625 277.84375 473.792969 277.496094 C 473.3125 277.144531 473.203125 276.464844 473.558594 275.992188 C 474 275.390625 474.445312 274.796875 474.90625 274.222656 Z M 471.042969 279.617188 C 471.375 279.125 472.039062 278.984375 472.539062 279.316406 C 473.035156 279.644531 473.171875 280.308594 472.847656 280.808594 C 472.449219 281.414062 472.050781 282.015625 471.660156 282.625 C 471.335938 283.121094 470.667969 283.265625 470.171875 282.945312 C 469.671875 282.625 469.523438 281.953125 469.847656 281.457031 C 470.242188 280.839844 470.648438 280.234375 471.042969 279.617188 Z M 467.496094 285.125 C 467.816406 284.625 468.484375 284.484375 468.980469 284.804688 C 469.476562 285.128906 469.621094 285.800781 469.292969 286.292969 C 468.890625 286.914062 468.484375 287.523438 468.082031 288.128906 C 467.75 288.621094 467.082031 288.75 466.585938 288.414062 C 466.097656 288.085938 465.964844 287.414062 466.296875 286.921875 C 466.695312 286.332031 467.09375 285.726562 467.496094 285.125 Z M 463.792969 290.402344 C 464.160156 289.933594 464.839844 289.855469 465.304688 290.21875 C 465.773438 290.585938 465.859375 291.261719 465.492188 291.730469 C 465.027344 292.328125 464.550781 292.902344 464.070312 293.457031 C 463.679688 293.90625 462.992188 293.949219 462.550781 293.5625 C 462.097656 293.164062 462.058594 292.488281 462.445312 292.042969 C 462.902344 291.515625 463.355469 290.972656 463.792969 290.402344 Z M 459.460938 294.953125 C 459.921875 294.582031 460.605469 294.65625 460.976562 295.117188 C 461.351562 295.578125 461.28125 296.257812 460.820312 296.632812 C 460.214844 297.125 459.589844 297.574219 458.9375 297.976562 C 458.433594 298.289062 457.769531 298.136719 457.457031 297.632812 C 457.140625 297.128906 457.292969 296.464844 457.796875 296.148438 C 458.375 295.792969 458.921875 295.390625 459.460938 294.953125 Z M 454.117188 297.757812 C 454.691406 297.605469 455.277344 297.953125 455.421875 298.523438 C 455.578125 299.101562 455.234375 299.691406 454.660156 299.84375 C 453.914062 300.035156 453.144531 300.171875 452.34375 300.246094 C 451.753906 300.308594 451.226562 299.871094 451.164062 299.277344 C 451.113281 298.6875 451.546875 298.164062 452.132812 298.101562 C 452.824219 298.042969 453.480469 297.921875 454.117188 297.757812 Z M 448.0625 297.921875 C 448.644531 298.011719 449.046875 298.558594 448.957031 299.148438 C 448.867188 299.734375 448.316406 300.136719 447.730469 300.050781 C 446.976562 299.929688 446.238281 299.792969 445.511719 299.625 C 444.9375 299.496094 444.570312 298.917969 444.707031 298.34375 C 444.835938 297.761719 445.414062 297.398438 445.988281 297.527344 C 446.667969 297.683594 447.355469 297.8125 448.0625 297.921875 Z M 441.972656 296.300781 C 442.527344 296.515625 442.808594 297.144531 442.589844 297.695312 C 442.375 298.25 441.75 298.523438 441.199219 298.3125 C 440.484375 298.03125 439.792969 297.734375 439.121094 297.414062 C 438.585938 297.160156 438.355469 296.511719 438.609375 295.976562 C 438.867188 295.445312 439.507812 295.210938 440.042969 295.46875 C 440.675781 295.769531 441.316406 296.046875 441.972656 296.300781 Z M 436.390625 293.394531 C 436.882812 293.71875 437.015625 294.386719 436.691406 294.886719 C 436.359375 295.378906 435.695312 295.519531 435.195312 295.183594 C 434.574219 294.769531 433.960938 294.332031 433.363281 293.875 C 432.890625 293.515625 432.804688 292.84375 433.160156 292.367188 C 433.527344 291.902344 434.203125 291.8125 434.675781 292.171875 C 435.230469 292.59375 435.800781 293.003906 436.390625 293.394531 Z M 431.464844 289.402344 C 431.890625 289.8125 431.90625 290.5 431.492188 290.925781 C 431.082031 291.351562 430.398438 291.363281 429.972656 290.953125 C 429.441406 290.4375 428.917969 289.90625 428.402344 289.355469 C 428 288.925781 428.019531 288.246094 428.457031 287.84375 C 428.882812 287.429688 429.5625 287.449219 429.972656 287.886719 C 430.460938 288.40625 430.953125 288.910156 431.464844 289.402344 Z M 427.191406 284.652344 C 427.558594 285.117188 427.480469 285.792969 427.011719 286.160156 C 426.550781 286.53125 425.871094 286.453125 425.503906 285.988281 C 425.042969 285.410156 424.59375 284.824219 424.152344 284.226562 C 423.796875 283.75 423.898438 283.074219 424.375 282.71875 C 424.855469 282.371094 425.527344 282.46875 425.882812 282.949219 C 426.304688 283.519531 426.742188 284.089844 427.191406 284.652344 Z M 423.417969 279.421875 C 423.746094 279.914062 423.605469 280.578125 423.113281 280.910156 C 422.621094 281.242188 421.945312 281.097656 421.621094 280.605469 C 421.21875 280 420.816406 279.378906 420.425781 278.761719 C 420.109375 278.261719 420.253906 277.589844 420.757812 277.277344 C 421.253906 276.953125 421.921875 277.105469 422.242188 277.605469 C 422.625 278.214844 423.015625 278.816406 423.417969 279.421875 Z M 419.972656 273.914062 C 420.277344 274.425781 420.113281 275.085938 419.601562 275.390625 C 419.09375 275.699219 418.429688 275.527344 418.121094 275.019531 C 417.75 274.394531 417.375 273.761719 417.007812 273.136719 C 416.703125 272.621094 416.878906 271.964844 417.386719 271.660156 C 417.902344 271.363281 418.5625 271.535156 418.859375 272.042969 C 419.230469 272.667969 419.597656 273.292969 419.972656 273.914062 Z M 416.660156 268.285156 C 416.964844 268.800781 416.789062 269.457031 416.277344 269.761719 C 415.761719 270.058594 415.101562 269.882812 414.800781 269.371094 C 414.433594 268.742188 414.0625 268.117188 413.703125 267.503906 C 413.394531 266.988281 413.5625 266.328125 414.070312 266.023438 C 414.585938 265.726562 415.242188 265.886719 415.546875 266.402344 C 415.917969 267.023438 416.285156 267.648438 416.660156 268.285156 Z M 413.261719 262.652344 C 413.578125 263.152344 413.425781 263.816406 412.929688 264.140625 C 412.425781 264.453125 411.757812 264.300781 411.441406 263.800781 C 411.058594 263.191406 410.660156 262.578125 410.273438 261.988281 C 409.945312 261.496094 410.078125 260.824219 410.578125 260.5 C 411.070312 260.167969 411.738281 260.304688 412.0625 260.796875 C 412.464844 261.402344 412.867188 262.023438 413.261719 262.652344 Z M 409.507812 257.1875 C 409.863281 257.648438 409.777344 258.332031 409.304688 258.691406 C 408.828125 259.046875 408.15625 258.960938 407.796875 258.488281 C 407.359375 257.917969 406.914062 257.355469 406.464844 256.824219 C 406.085938 256.375 406.140625 255.691406 406.59375 255.308594 C 407.050781 254.925781 407.734375 254.988281 408.113281 255.441406 C 408.585938 256.003906 409.046875 256.582031 409.507812 257.1875 Z M 405.003906 252.179688 C 405.449219 252.582031 405.472656 253.257812 405.074219 253.699219 C 404.679688 254.140625 403.992188 254.167969 403.558594 253.773438 C 403.035156 253.300781 402.503906 252.851562 401.957031 252.4375 C 401.484375 252.074219 401.390625 251.398438 401.753906 250.929688 C 402.113281 250.453125 402.789062 250.363281 403.261719 250.722656 C 403.859375 251.179688 404.4375 251.664062 405.003906 252.179688 Z M 399.328125 248.34375 C 399.871094 248.59375 400.109375 249.230469 399.859375 249.769531 C 399.621094 250.316406 398.976562 250.550781 398.433594 250.304688 C 397.824219 250.023438 397.1875 249.78125 396.53125 249.578125 C 395.964844 249.402344 395.644531 248.796875 395.820312 248.230469 C 395.996094 247.660156 396.601562 247.347656 397.167969 247.523438 C 397.910156 247.75 398.632812 248.03125 399.328125 248.34375 Z M 392.613281 246.730469 C 393.203125 246.753906 393.664062 247.257812 393.636719 247.855469 C 393.613281 248.449219 393.109375 248.910156 392.511719 248.878906 C 391.84375 248.84375 391.160156 248.855469 390.457031 248.902344 C 389.863281 248.941406 389.347656 248.492188 389.3125 247.898438 C 389.269531 247.300781 389.71875 246.789062 390.3125 246.753906 C 391.097656 246.699219 391.867188 246.691406 392.613281 246.730469 Z M 385.855469 247.410156 C 386.433594 247.285156 387.007812 247.664062 387.125 248.246094 C 387.246094 248.828125 386.867188 249.394531 386.289062 249.519531 C 385.597656 249.65625 384.910156 249.820312 384.210938 249.992188 C 383.636719 250.140625 383.050781 249.792969 382.90625 249.21875 C 382.757812 248.640625 383.105469 248.058594 383.679688 247.90625 C 384.414062 247.726562 385.136719 247.558594 385.855469 247.410156 Z M 379.417969 249.171875 C 379.984375 248.988281 380.59375 249.285156 380.785156 249.851562 C 380.980469 250.417969 380.675781 251.027344 380.109375 251.214844 C 379.441406 251.441406 378.765625 251.679688 378.097656 251.941406 C 377.539062 252.148438 376.917969 251.867188 376.710938 251.3125 C 376.496094 250.753906 376.777344 250.132812 377.335938 249.925781 C 378.035156 249.664062 378.726562 249.410156 379.417969 249.171875 Z M 373.242188 251.609375 C 373.785156 251.371094 374.421875 251.613281 374.667969 252.15625 C 374.910156 252.703125 374.667969 253.339844 374.121094 253.578125 C 373.476562 253.871094 372.824219 254.175781 372.167969 254.480469 C 371.632812 254.738281 370.992188 254.515625 370.738281 253.980469 C 370.476562 253.441406 370.707031 252.800781 371.242188 252.542969 C 371.910156 252.222656 372.574219 251.910156 373.242188 251.609375 Z M 367.308594 254.546875 C 367.835938 254.269531 368.488281 254.464844 368.769531 254.984375 C 369.050781 255.507812 368.855469 256.160156 368.335938 256.445312 C 367.703125 256.78125 367.074219 257.132812 366.445312 257.488281 C 365.929688 257.78125 365.273438 257.605469 364.976562 257.085938 C 364.6875 256.570312 364.863281 255.910156 365.378906 255.617188 C 366.019531 255.25 366.667969 254.898438 367.308594 254.546875 Z M 361.597656 257.875 C 362.101562 257.5625 362.765625 257.714844 363.082031 258.21875 C 363.394531 258.722656 363.242188 259.386719 362.738281 259.703125 C 362.136719 260.085938 361.527344 260.472656 360.917969 260.863281 C 360.421875 261.1875 359.753906 261.050781 359.433594 260.554688 C 359.101562 260.050781 359.242188 259.382812 359.742188 259.058594 C 360.363281 258.660156 360.976562 258.261719 361.597656 257.875 Z M 356.101562 261.53125 C 356.589844 261.191406 357.261719 261.308594 357.597656 261.789062 C 357.941406 262.277344 357.828125 262.949219 357.339844 263.289062 C 356.75 263.703125 356.167969 264.125 355.582031 264.550781 C 355.109375 264.90625 354.429688 264.796875 354.078125 264.316406 C 353.734375 263.839844 353.839844 263.167969 354.320312 262.816406 C 354.90625 262.378906 355.503906 261.953125 356.101562 261.53125 Z M 350.808594 265.46875 C 351.277344 265.101562 351.953125 265.183594 352.320312 265.652344 C 352.683594 266.117188 352.605469 266.796875 352.136719 267.164062 C 351.574219 267.609375 351.007812 268.058594 350.449219 268.515625 C 349.988281 268.886719 349.304688 268.8125 348.929688 268.351562 C 348.558594 267.890625 348.625 267.210938 349.085938 266.835938 C 349.660156 266.378906 350.234375 265.921875 350.808594 265.46875 Z M 345.722656 269.664062 C 346.167969 269.273438 346.851562 269.324219 347.234375 269.769531 C 347.628906 270.222656 347.578125 270.902344 347.132812 271.292969 C 346.585938 271.765625 346.039062 272.238281 345.507812 272.722656 C 345.0625 273.113281 344.382812 273.078125 343.988281 272.636719 C 343.589844 272.191406 343.625 271.507812 344.066406 271.113281 C 344.613281 270.625 345.167969 270.144531 345.722656 269.664062 Z M 340.84375 274.101562 C 341.269531 273.6875 341.953125 273.707031 342.363281 274.132812 C 342.777344 274.566406 342.753906 275.242188 342.328125 275.65625 C 341.800781 276.152344 341.285156 276.65625 340.777344 277.164062 C 340.359375 277.582031 339.675781 277.578125 339.253906 277.152344 C 338.839844 276.734375 338.839844 276.046875 339.265625 275.632812 C 339.785156 275.117188 340.308594 274.605469 340.84375 274.101562 Z M 336.1875 278.773438 C 336.597656 278.347656 337.277344 278.324219 337.714844 278.734375 C 338.144531 279.140625 338.160156 279.824219 337.757812 280.257812 C 337.257812 280.785156 336.765625 281.308594 336.289062 281.84375 C 335.882812 282.277344 335.207031 282.3125 334.761719 281.90625 C 334.324219 281.511719 334.292969 280.828125 334.691406 280.386719 C 335.183594 279.851562 335.679688 279.308594 336.1875 278.773438 Z M 331.796875 283.707031 C 332.175781 283.25 332.851562 283.1875 333.304688 283.570312 C 333.765625 283.957031 333.820312 284.632812 333.4375 285.085938 C 333.207031 285.363281 332.972656 285.640625 332.75 285.921875 C 332.371094 286.375 331.691406 286.441406 331.234375 286.0625 C 330.777344 285.6875 330.710938 285.007812 331.085938 284.546875 C 331.320312 284.269531 331.558594 283.988281 331.796875 283.707031 Z M 331.796875 283.707031 " fill-opacity="1" fill-rule="evenodd"/></g></g></g></svg>