<svg xmlns="http://www.w3.org/2000/svg" xmlns:xlink="http://www.w3.org/1999/xlink" width="1366" zoomAndPan="magnify" viewBox="0 0 1024.5 576" height="768" preserveAspectRatio="xMidYMid meet" version="1.0"><defs><clipPath id="135372f35a"><path d="M 360 125 L 663 125 L 663 418 L 360 418 Z M 360 125 " clip-rule="nonzero"/></clipPath><clipPath id="7810e18c2e"><path d="M 360.867188 268.25 L 472.957031 125.609375 L 662.75 274.757812 L 550.660156 417.394531 Z M 360.867188 268.25 " clip-rule="nonzero"/></clipPath><clipPath id="df30fb0bb0"><path d="M 5 112 L 302.796875 112 L 302.796875 180 L 5 180 Z M 5 112 " clip-rule="nonzero"/></clipPath><clipPath id="3f26825019"><path d="M 0.867188 143.25 L 112.957031 0.609375 L 302.75 149.757812 L 190.660156 292.394531 Z M 0.867188 143.25 " clip-rule="nonzero"/></clipPath><clipPath id="79c4c686fd"><path d="M 190.925781 292.605469 L 303.015625 149.964844 L 113.222656 0.820312 L 1.132812 143.460938 Z M 190.925781 292.605469 " clip-rule="nonzero"/></clipPath><clipPath id="5c0b7ef6f9"><path d="M 190.925781 292.605469 L 303.015625 149.964844 L 113.222656 0.820312 L 1.132812 143.460938 Z M 190.925781 292.605469 " clip-rule="nonzero"/></clipPath><clipPath id="0b92f76927"><rect x="0" width="303" y="0" height="293"/></clipPath></defs><g clip-path="url(#135372f35a)"><g clip-path="url(#7810e18c2e)"><g transform="matrix(1, 0, 0, 1, 360, 125)"><g clip-path="url(#0b92f76927)"><g clip-path="url(#df30fb0bb0)"><g clip-path="url(#3f26825019)"><g clip-path="url(#79c4c686fd)"><g clip-path="url(#5c0b7ef6f9)"><path fill="#5100f9" d="M 7.105469 137.785156 C 6.757812 137.304688 6.089844 137.183594 5.605469 137.527344 C 5.121094 137.867188 5.003906 138.539062 5.34375 139.027344 C 5.550781 139.324219 5.761719 139.621094 5.972656 139.917969 C 6.308594 140.40625 6.984375 140.515625 7.472656 140.175781 C 7.957031 139.835938 8.074219 139.164062 7.730469 138.683594 C 7.523438 138.378906 7.3125 138.082031 7.105469 137.785156 Z M 10.234375 142.253906 C 9.894531 141.765625 9.222656 141.644531 8.738281 141.984375 C 8.246094 142.335938 8.132812 143.007812 8.476562 143.488281 C 8.894531 144.078125 9.3125 144.683594 9.734375 145.277344 C 10.078125 145.757812 10.753906 145.871094 11.238281 145.527344 C 11.722656 145.183594 11.835938 144.511719 11.488281 144.027344 C 11.070312 143.4375 10.648438 142.84375 10.234375 142.253906 Z M 14.035156 147.542969 C 13.679688 147.066406 13.003906 146.96875 12.53125 147.320312 C 12.058594 147.667969 11.953125 148.347656 12.308594 148.824219 C 12.746094 149.417969 13.1875 150.003906 13.636719 150.578125 C 14 151.046875 14.671875 151.140625 15.144531 150.777344 C 15.617188 150.414062 15.707031 149.734375 15.34375 149.265625 C 14.90625 148.695312 14.46875 148.121094 14.035156 147.542969 Z M 18.039062 152.632812 C 17.65625 152.175781 16.980469 152.117188 16.523438 152.503906 C 16.070312 152.882812 16.011719 153.5625 16.394531 154.019531 C 16.878906 154.585938 17.359375 155.148438 17.847656 155.6875 C 18.246094 156.132812 18.925781 156.167969 19.371094 155.769531 C 19.816406 155.367188 19.851562 154.6875 19.453125 154.242188 C 18.976562 153.722656 18.507812 153.183594 18.039062 152.632812 Z M 22.433594 157.292969 C 21.996094 156.894531 21.316406 156.914062 20.914062 157.347656 C 20.503906 157.789062 20.53125 158.464844 20.964844 158.871094 C 21.523438 159.390625 22.085938 159.886719 22.652344 160.355469 C 23.113281 160.730469 23.785156 160.671875 24.167969 160.207031 C 24.542969 159.753906 24.480469 159.070312 24.019531 158.695312 C 23.488281 158.253906 22.960938 157.785156 22.433594 157.292969 Z M 27.441406 161.082031 C 26.921875 160.792969 26.261719 160.972656 25.96875 161.492188 C 25.679688 162 25.855469 162.664062 26.375 162.953125 C 27.058594 163.347656 27.746094 163.691406 28.449219 163.976562 C 28.992188 164.210938 29.628906 163.945312 29.851562 163.402344 C 30.085938 162.847656 29.824219 162.222656 29.277344 161.988281 C 28.65625 161.738281 28.046875 161.429688 27.441406 161.082031 Z M 33.160156 162.949219 C 32.558594 162.914062 32.050781 163.351562 32.003906 163.949219 C 31.960938 164.542969 32.40625 165.054688 33 165.097656 C 33.78125 165.160156 34.578125 165.140625 35.371094 165.058594 C 35.96875 164.984375 36.390625 164.453125 36.324219 163.863281 C 36.261719 163.273438 35.722656 162.851562 35.136719 162.914062 C 34.464844 162.992188 33.808594 163 33.160156 162.949219 Z M 38.953125 161.789062 C 38.421875 162.039062 38.191406 162.6875 38.449219 163.21875 C 38.703125 163.761719 39.347656 163.988281 39.886719 163.730469 C 40.199219 163.578125 40.511719 163.417969 40.832031 163.238281 C 41.03125 163.132812 41.398438 162.921875 41.882812 162.632812 C 42.390625 162.332031 42.5625 161.667969 42.253906 161.160156 C 41.949219 160.648438 41.289062 160.484375 40.777344 160.789062 C 40.320312 161.0625 39.976562 161.25 39.78125 161.359375 C 39.507812 161.511719 39.226562 161.660156 38.953125 161.789062 Z M 44.289062 158.410156 C 43.8125 158.773438 43.722656 159.449219 44.085938 159.921875 C 44.445312 160.390625 45.117188 160.484375 45.59375 160.121094 C 46.160156 159.6875 46.746094 159.214844 47.335938 158.707031 C 47.785156 158.320312 47.832031 157.636719 47.445312 157.1875 C 47.058594 156.738281 46.375 156.691406 45.929688 157.074219 C 45.375 157.558594 44.820312 158.003906 44.289062 158.410156 Z M 48.90625 154.117188 C 48.519531 154.5625 48.566406 155.246094 49.015625 155.636719 C 49.46875 156.019531 50.148438 155.972656 50.539062 155.519531 C 51.023438 154.957031 51.5 154.355469 51.945312 153.734375 C 52.292969 153.246094 52.179688 152.578125 51.699219 152.226562 C 51.214844 151.882812 50.539062 152 50.195312 152.476562 C 49.789062 153.050781 49.359375 153.59375 48.90625 154.117188 Z M 52.214844 148.898438 C 51.980469 149.453125 52.246094 150.078125 52.789062 150.3125 C 53.34375 150.535156 53.96875 150.277344 54.199219 149.726562 C 54.496094 149.011719 54.75 148.277344 54.945312 147.523438 C 55.097656 146.945312 54.75 146.359375 54.175781 146.210938 C 53.601562 146.058594 53.015625 146.402344 52.863281 146.976562 C 52.6875 147.640625 52.46875 148.285156 52.214844 148.898438 Z M 53.289062 142.976562 C 53.3125 143.574219 53.824219 144.027344 54.414062 144.003906 C 55.007812 143.972656 55.46875 143.46875 55.4375 142.878906 C 55.40625 142.15625 55.324219 141.410156 55.179688 140.652344 L 55.160156 140.570312 C 55.050781 139.984375 54.488281 139.597656 53.90625 139.707031 C 53.320312 139.820312 52.9375 140.375 53.046875 140.960938 L 53.066406 141.054688 C 53.183594 141.710938 53.261719 142.351562 53.289062 142.976562 Z M 52.417969 136.550781 C 52.476562 137.136719 53 137.574219 53.597656 137.515625 C 54.183594 137.464844 54.621094 136.941406 54.566406 136.347656 C 54.5 135.625 54.453125 134.917969 54.429688 134.226562 C 54.398438 133.640625 53.902344 133.171875 53.3125 133.191406 C 52.714844 133.222656 52.25 133.722656 52.277344 134.3125 C 52.300781 135.039062 52.347656 135.789062 52.417969 136.550781 Z M 52.386719 129.8125 C 52.328125 130.410156 52.761719 130.933594 53.359375 130.984375 C 53.949219 131.039062 54.472656 130.609375 54.53125 130.011719 C 54.59375 129.300781 54.683594 128.609375 54.800781 127.9375 C 54.90625 127.351562 54.511719 126.792969 53.925781 126.699219 C 53.339844 126.59375 52.785156 126.984375 52.679688 127.574219 C 52.558594 128.289062 52.457031 129.039062 52.386719 129.8125 Z M 53.875 123.164062 C 53.664062 123.71875 53.941406 124.34375 54.492188 124.558594 C 55.046875 124.769531 55.675781 124.484375 55.886719 123.929688 C 56.136719 123.273438 56.417969 122.652344 56.722656 122.0625 C 57 121.535156 56.796875 120.886719 56.273438 120.605469 C 55.742188 120.335938 55.09375 120.535156 54.816406 121.066406 C 54.472656 121.726562 54.15625 122.425781 53.875 123.164062 Z M 57.5 117.277344 C 57.09375 117.707031 57.109375 118.386719 57.542969 118.792969 C 57.976562 119.199219 58.65625 119.183594 59.066406 118.753906 C 59.539062 118.257812 60.035156 117.808594 60.5625 117.40625 C 61.027344 117.050781 61.117188 116.375 60.753906 115.90625 C 60.398438 115.425781 59.71875 115.339844 59.246094 115.703125 C 58.636719 116.171875 58.050781 116.695312 57.5 117.277344 Z M 63.390625 113.496094 C 62.828125 113.683594 62.523438 114.296875 62.714844 114.855469 C 62.902344 115.425781 63.515625 115.722656 64.078125 115.535156 C 64.710938 115.320312 65.359375 115.160156 66.023438 115.050781 C 66.605469 114.957031 67.003906 114.402344 66.910156 113.816406 C 66.816406 113.230469 66.257812 112.832031 65.675781 112.925781 C 64.902344 113.050781 64.136719 113.242188 63.390625 113.496094 Z M 70.339844 112.875 C 69.753906 112.792969 69.210938 113.207031 69.125 113.796875 C 69.050781 114.382812 69.460938 114.929688 70.050781 115.007812 C 70.714844 115.097656 71.375 115.238281 72.042969 115.417969 C 72.613281 115.578125 73.210938 115.234375 73.371094 114.664062 C 73.527344 114.089844 73.191406 113.496094 72.613281 113.34375 C 71.855469 113.132812 71.09375 112.980469 70.339844 112.875 Z M 76.871094 115.101562 C 76.355469 114.8125 75.703125 114.996094 75.410156 115.515625 C 75.121094 116.039062 75.3125 116.6875 75.832031 116.976562 C 76.417969 117.308594 77.003906 117.675781 77.574219 118.082031 C 78.058594 118.425781 78.730469 118.308594 79.078125 117.820312 C 79.417969 117.339844 79.300781 116.667969 78.8125 116.324219 C 78.179688 115.867188 77.53125 115.460938 76.871094 115.101562 Z M 82.269531 119.300781 C 81.855469 118.875 81.171875 118.863281 80.742188 119.273438 C 80.320312 119.679688 80.304688 120.363281 80.71875 120.792969 C 81.191406 121.28125 81.648438 121.8125 82.09375 122.359375 C 82.46875 122.824219 83.144531 122.898438 83.605469 122.523438 C 84.070312 122.148438 84.140625 121.472656 83.769531 121.007812 C 83.285156 120.402344 82.78125 119.839844 82.269531 119.300781 Z M 86.328125 124.738281 C 86.035156 124.21875 85.367188 124.050781 84.855469 124.347656 C 84.34375 124.640625 84.167969 125.300781 84.46875 125.8125 C 84.8125 126.414062 85.144531 127.027344 85.460938 127.671875 C 85.722656 128.207031 86.363281 128.433594 86.894531 128.167969 C 87.429688 127.90625 87.648438 127.261719 87.386719 126.730469 C 87.054688 126.035156 86.699219 125.375 86.328125 124.738281 Z M 89.105469 130.878906 C 88.914062 130.320312 88.300781 130.019531 87.738281 130.210938 C 87.179688 130.402344 86.875 131.019531 87.070312 131.578125 C 87.296875 132.230469 87.507812 132.90625 87.703125 133.597656 C 87.863281 134.171875 88.457031 134.507812 89.027344 134.351562 C 89.601562 134.183594 89.933594 133.589844 89.773438 133.019531 C 89.5625 132.289062 89.339844 131.574219 89.105469 130.878906 Z M 90.757812 137.367188 C 90.648438 136.78125 90.089844 136.394531 89.507812 136.5 C 88.917969 136.617188 88.527344 137.179688 88.636719 137.761719 C 88.78125 138.492188 88.917969 139.21875 89.058594 139.921875 C 89.179688 140.5 89.746094 140.882812 90.328125 140.761719 C 90.910156 140.640625 91.289062 140.070312 91.167969 139.488281 C 91.027344 138.800781 90.890625 138.089844 90.757812 137.367188 Z M 92.128906 143.6875 C 91.984375 143.113281 91.394531 142.769531 90.824219 142.910156 C 90.242188 143.058594 89.898438 143.640625 90.042969 144.214844 C 90.226562 144.953125 90.417969 145.664062 90.613281 146.355469 C 90.769531 146.929688 91.371094 147.257812 91.941406 147.097656 C 92.515625 146.933594 92.847656 146.339844 92.6875 145.765625 C 92.492188 145.101562 92.308594 144.40625 92.128906 143.6875 Z M 93.980469 149.859375 C 93.78125 149.296875 93.164062 149.007812 92.609375 149.203125 C 92.046875 149.402344 91.761719 150.019531 91.957031 150.582031 C 92.214844 151.308594 92.484375 151.992188 92.75 152.664062 C 92.976562 153.210938 93.601562 153.476562 94.152344 153.253906 C 94.703125 153.027344 94.96875 152.398438 94.742188 151.851562 C 94.484375 151.214844 94.234375 150.542969 93.980469 149.859375 Z M 96.554688 155.675781 C 96.265625 155.160156 95.613281 154.964844 95.09375 155.25 C 94.570312 155.539062 94.378906 156.191406 94.664062 156.714844 C 95.039062 157.40625 95.425781 158.050781 95.820312 158.660156 C 96.144531 159.152344 96.8125 159.296875 97.308594 158.976562 C 97.808594 158.648438 97.949219 157.984375 97.628906 157.480469 C 97.261719 156.917969 96.902344 156.320312 96.554688 155.675781 Z M 100.199219 160.710938 C 99.78125 160.289062 99.097656 160.292969 98.679688 160.710938 C 98.257812 161.132812 98.257812 161.8125 98.679688 162.234375 C 99.253906 162.804688 99.839844 163.316406 100.4375 163.761719 C 100.910156 164.121094 101.582031 164.03125 101.941406 163.550781 C 102.296875 163.082031 102.203125 162.402344 101.730469 162.042969 C 101.214844 161.652344 100.703125 161.210938 100.199219 160.710938 Z M 105.257812 163.871094 C 104.6875 163.699219 104.085938 164.015625 103.90625 164.582031 C 103.730469 165.152344 104.046875 165.757812 104.617188 165.929688 C 105.382812 166.164062 106.148438 166.332031 106.933594 166.425781 C 107.519531 166.503906 108.058594 166.082031 108.136719 165.488281 C 108.207031 164.902344 107.789062 164.363281 107.195312 164.292969 C 106.542969 164.210938 105.894531 164.070312 105.257812 163.871094 Z M 111.222656 164.15625 C 110.636719 164.261719 110.242188 164.820312 110.347656 165.402344 C 110.445312 165.988281 111.007812 166.378906 111.59375 166.273438 C 112.335938 166.148438 113.082031 165.972656 113.828125 165.757812 C 114.402344 165.589844 114.730469 164.996094 114.5625 164.429688 C 114.402344 163.855469 113.800781 163.527344 113.234375 163.6875 C 112.5625 163.882812 111.894531 164.039062 111.222656 164.15625 Z M 117.148438 162.191406 C 116.605469 162.449219 116.378906 163.082031 116.628906 163.621094 C 116.878906 164.160156 117.515625 164.398438 118.058594 164.140625 C 118.730469 163.828125 119.394531 163.496094 120.058594 163.136719 C 120.582031 162.855469 120.777344 162.207031 120.496094 161.683594 C 120.214844 161.160156 119.5625 160.960938 119.039062 161.246094 C 118.410156 161.582031 117.78125 161.898438 117.148438 162.191406 Z M 122.71875 159.066406 C 122.21875 159.382812 122.078125 160.046875 122.398438 160.546875 C 122.71875 161.046875 123.382812 161.191406 123.882812 160.875 C 124.507812 160.472656 125.117188 160.070312 125.722656 159.65625 C 126.21875 159.320312 126.339844 158.65625 126.011719 158.160156 C 125.675781 157.671875 125.007812 157.539062 124.515625 157.875 C 123.921875 158.277344 123.324219 158.675781 122.71875 159.066406 Z M 128.050781 155.371094 C 127.566406 155.726562 127.464844 156.394531 127.8125 156.878906 C 128.15625 157.363281 128.835938 157.460938 129.3125 157.113281 C 129.914062 156.679688 130.503906 156.25 131.082031 155.820312 C 131.558594 155.472656 131.65625 154.804688 131.308594 154.320312 C 130.953125 153.84375 130.285156 153.738281 129.800781 154.09375 C 129.230469 154.511719 128.648438 154.9375 128.050781 155.371094 Z M 133.367188 151.523438 C 132.878906 151.863281 132.757812 152.527344 133.097656 153.019531 C 133.433594 153.507812 134.101562 153.636719 134.589844 153.296875 C 135.210938 152.867188 135.808594 152.46875 136.363281 152.128906 C 136.867188 151.816406 137.027344 151.152344 136.714844 150.644531 C 136.40625 150.136719 135.738281 149.984375 135.234375 150.296875 C 134.644531 150.660156 134.023438 151.066406 133.367188 151.523438 Z M 139.730469 148.546875 C 139.144531 148.585938 138.695312 149.101562 138.734375 149.695312 C 138.78125 150.285156 139.289062 150.738281 139.886719 150.691406 C 140.589844 150.640625 141.277344 150.628906 141.949219 150.65625 C 142.535156 150.6875 143.035156 150.226562 143.0625 149.628906 C 143.089844 149.03125 142.625 148.535156 142.027344 148.515625 C 141.285156 148.480469 140.523438 148.488281 139.730469 148.546875 Z M 146.578125 149.238281 C 146.011719 149.070312 145.414062 149.402344 145.246094 149.980469 C 145.085938 150.550781 145.421875 151.140625 145.992188 151.300781 C 146.65625 151.492188 147.300781 151.722656 147.933594 151.984375 C 148.484375 152.207031 149.117188 151.941406 149.339844 151.394531 C 149.5625 150.847656 149.308594 150.214844 148.753906 149.988281 C 148.050781 149.699219 147.324219 149.445312 146.578125 149.238281 Z M 152.777344 152.152344 C 152.277344 151.824219 151.613281 151.957031 151.285156 152.449219 C 150.953125 152.949219 151.089844 153.613281 151.582031 153.945312 C 152.160156 154.332031 152.726562 154.738281 153.28125 155.175781 C 153.746094 155.542969 154.425781 155.457031 154.789062 154.996094 C 155.160156 154.523438 155.074219 153.851562 154.605469 153.484375 C 154.007812 153.015625 153.398438 152.574219 152.777344 152.152344 Z M 157.957031 156.460938 C 157.539062 156.039062 156.851562 156.050781 156.433594 156.472656 C 156.019531 156.890625 156.027344 157.570312 156.445312 157.992188 C 156.949219 158.492188 157.445312 159 157.933594 159.527344 C 158.34375 159.953125 159.023438 159.976562 159.453125 159.578125 C 159.886719 159.171875 159.917969 158.484375 159.507812 158.058594 C 158.996094 157.511719 158.484375 156.976562 157.957031 156.460938 Z M 162.433594 161.355469 C 162.046875 160.90625 161.371094 160.847656 160.914062 161.238281 C 160.460938 161.621094 160.40625 162.296875 160.785156 162.753906 C 161.253906 163.304688 161.722656 163.859375 162.179688 164.417969 C 162.5625 164.871094 163.242188 164.933594 163.695312 164.554688 C 164.152344 164.179688 164.21875 163.496094 163.839844 163.039062 C 163.375 162.476562 162.902344 161.921875 162.433594 161.355469 Z M 166.613281 166.402344 C 166.234375 165.945312 165.554688 165.882812 165.101562 166.261719 C 164.644531 166.644531 164.582031 167.328125 164.96875 167.777344 C 165.441406 168.34375 165.917969 168.902344 166.386719 169.457031 C 166.777344 169.90625 167.457031 169.953125 167.910156 169.5625 C 168.355469 169.175781 168.40625 168.492188 168.019531 168.042969 C 167.550781 167.503906 167.082031 166.953125 166.613281 166.402344 Z M 170.917969 171.203125 C 170.5 170.78125 169.8125 170.78125 169.394531 171.199219 C 168.972656 171.617188 168.96875 172.300781 169.390625 172.722656 C 169.921875 173.257812 170.464844 173.777344 171.007812 174.269531 C 171.449219 174.667969 172.132812 174.628906 172.527344 174.191406 C 172.929688 173.742188 172.890625 173.066406 172.449219 172.667969 C 171.933594 172.199219 171.417969 171.714844 170.917969 171.203125 Z M 175.761719 175.207031 C 175.257812 174.890625 174.589844 175.046875 174.273438 175.546875 C 173.960938 176.050781 174.109375 176.71875 174.609375 177.035156 C 175.273438 177.449219 175.945312 177.820312 176.636719 178.144531 C 177.175781 178.394531 177.820312 178.164062 178.070312 177.625 C 178.324219 177.085938 178.09375 176.445312 177.554688 176.195312 C 176.941406 175.910156 176.347656 175.574219 175.761719 175.207031 Z M 181.402344 177.351562 C 180.8125 177.273438 180.269531 177.6875 180.195312 178.269531 C 180.113281 178.863281 180.523438 179.40625 181.109375 179.488281 C 181.871094 179.589844 182.652344 179.636719 183.457031 179.613281 C 184.050781 179.605469 184.523438 179.109375 184.511719 178.507812 C 184.496094 177.917969 184 177.449219 183.410156 177.460938 C 182.71875 177.480469 182.050781 177.441406 181.402344 177.351562 Z M 187.433594 176.796875 C 186.863281 176.953125 186.53125 177.546875 186.691406 178.117188 C 186.851562 178.691406 187.441406 179.023438 188.011719 178.867188 C 188.75 178.660156 189.464844 178.433594 190.164062 178.183594 C 190.722656 177.988281 191.015625 177.367188 190.8125 176.8125 C 190.617188 176.25 189.996094 175.960938 189.441406 176.15625 C 188.789062 176.390625 188.121094 176.601562 187.433594 176.796875 Z M 193.285156 174.460938 C 192.757812 174.742188 192.558594 175.398438 192.835938 175.917969 C 193.117188 176.441406 193.773438 176.640625 194.292969 176.367188 C 194.96875 176.003906 195.621094 175.621094 196.25 175.222656 C 196.75 174.910156 196.902344 174.238281 196.585938 173.738281 C 196.265625 173.238281 195.601562 173.085938 195.101562 173.402344 C 194.511719 173.777344 193.90625 174.132812 193.285156 174.460938 Z M 198.480469 170.910156 C 198.03125 171.292969 197.976562 171.972656 198.359375 172.429688 C 198.746094 172.878906 199.421875 172.9375 199.878906 172.546875 C 200.449219 172.058594 201.007812 171.550781 201.542969 171.027344 C 201.96875 170.613281 201.976562 169.9375 201.566406 169.507812 C 201.144531 169.085938 200.464844 169.078125 200.039062 169.492188 C 199.539062 169.976562 199.019531 170.449219 198.480469 170.910156 Z M 202.894531 166.363281 C 202.523438 166.816406 202.589844 167.5 203.050781 167.875 C 203.511719 168.25 204.191406 168.179688 204.5625 167.722656 C 205.03125 167.144531 205.484375 166.558594 205.933594 165.949219 C 206.28125 165.476562 206.179688 164.804688 205.699219 164.453125 C 205.226562 164.09375 204.554688 164.195312 204.195312 164.679688 C 203.773438 165.253906 203.34375 165.808594 202.894531 166.363281 Z M 206.574219 161.132812 C 206.265625 161.636719 206.421875 162.300781 206.933594 162.609375 C 207.433594 162.925781 208.097656 162.765625 208.410156 162.257812 C 208.796875 161.632812 209.175781 160.996094 209.542969 160.351562 C 209.835938 159.832031 209.65625 159.175781 209.140625 158.878906 C 208.621094 158.589844 207.964844 158.769531 207.671875 159.285156 C 207.320312 159.90625 206.953125 160.523438 206.574219 161.132812 Z M 209.695312 155.492188 C 209.433594 156.019531 209.648438 156.664062 210.175781 156.933594 C 210.703125 157.203125 211.359375 156.984375 211.621094 156.453125 C 211.949219 155.804688 212.273438 155.140625 212.589844 154.480469 C 212.84375 153.945312 212.621094 153.296875 212.082031 153.046875 C 211.550781 152.785156 210.90625 153.015625 210.652344 153.546875 C 210.339844 154.199219 210.023438 154.84375 209.695312 155.492188 Z M 212.464844 149.613281 C 212.21875 150.15625 212.464844 150.796875 213.007812 151.039062 C 213.546875 151.28125 214.1875 151.03125 214.429688 150.488281 C 214.726562 149.824219 215.023438 149.152344 215.316406 148.488281 C 215.554688 147.941406 215.304688 147.3125 214.761719 147.070312 C 214.214844 146.835938 213.578125 147.085938 213.34375 147.625 C 213.050781 148.289062 212.757812 148.953125 212.464844 149.613281 Z M 215.082031 143.628906 C 214.84375 144.175781 215.09375 144.808594 215.636719 145.050781 C 216.183594 145.28125 216.816406 145.03125 217.058594 144.484375 C 217.347656 143.820312 217.640625 143.15625 217.925781 142.5 C 218.167969 141.957031 217.925781 141.316406 217.382812 141.074219 C 216.835938 140.839844 216.203125 141.082031 215.960938 141.625 C 215.667969 142.289062 215.375 142.953125 215.082031 143.628906 Z M 217.785156 137.632812 C 217.53125 138.167969 217.761719 138.808594 218.292969 139.070312 C 218.832031 139.320312 219.476562 139.09375 219.730469 138.554688 C 220.039062 137.90625 220.359375 137.25 220.675781 136.617188 C 220.9375 136.089844 220.726562 135.4375 220.191406 135.175781 C 219.664062 134.90625 219.019531 135.121094 218.753906 135.648438 C 218.425781 136.296875 218.101562 136.960938 217.785156 137.632812 Z M 220.859375 131.757812 C 220.5625 132.261719 220.730469 132.929688 221.242188 133.230469 C 221.757812 133.527344 222.414062 133.359375 222.714844 132.847656 C 223.082031 132.230469 223.457031 131.621094 223.839844 131.039062 C 224.164062 130.542969 224.027344 129.871094 223.53125 129.546875 C 223.03125 129.222656 222.363281 129.363281 222.039062 129.859375 C 221.632812 130.476562 221.246094 131.101562 220.859375 131.757812 Z M 224.738281 126.25 C 224.34375 126.707031 224.398438 127.378906 224.847656 127.769531 C 225.292969 128.160156 225.976562 128.105469 226.363281 127.660156 C 226.824219 127.128906 227.300781 126.621094 227.792969 126.144531 C 228.21875 125.730469 228.234375 125.042969 227.816406 124.621094 C 227.402344 124.195312 226.722656 124.183594 226.292969 124.597656 C 225.753906 125.121094 225.238281 125.671875 224.738281 126.25 Z M 229.914062 121.769531 C 229.40625 122.078125 229.246094 122.738281 229.558594 123.246094 C 229.859375 123.761719 230.527344 123.917969 231.035156 123.605469 C 231.609375 123.257812 232.210938 122.941406 232.839844 122.660156 C 233.382812 122.417969 233.625 121.78125 233.386719 121.234375 C 233.144531 120.691406 232.503906 120.453125 231.960938 120.695312 C 231.253906 121.007812 230.570312 121.375 229.914062 121.769531 Z M 236.390625 119.367188 C 235.808594 119.460938 235.410156 120.015625 235.507812 120.605469 C 235.605469 121.191406 236.160156 121.589844 236.746094 121.484375 C 237.40625 121.375 238.085938 121.300781 238.792969 121.265625 C 239.386719 121.234375 239.839844 120.722656 239.808594 120.132812 C 239.78125 119.535156 239.269531 119.082031 238.675781 119.113281 C 237.890625 119.152344 237.128906 119.238281 236.390625 119.367188 Z M 243.179688 119.238281 C 242.59375 119.179688 242.070312 119.625 242.019531 120.214844 C 241.96875 120.808594 242.410156 121.324219 243 121.378906 C 243.703125 121.433594 244.40625 121.515625 245.125 121.601562 C 245.710938 121.683594 246.25 121.269531 246.324219 120.683594 C 246.40625 120.089844 245.988281 119.550781 245.402344 119.46875 C 244.652344 119.378906 243.910156 119.296875 243.179688 119.238281 Z M 249.78125 120.21875 C 249.199219 120.101562 248.628906 120.46875 248.503906 121.054688 C 248.378906 121.640625 248.753906 122.210938 249.339844 122.328125 C 250.027344 122.476562 250.730469 122.632812 251.425781 122.808594 C 252.003906 122.949219 252.589844 122.59375 252.726562 122.023438 C 252.875 121.441406 252.519531 120.859375 251.941406 120.71875 C 251.214844 120.542969 250.496094 120.375 249.78125 120.21875 Z M 256.207031 121.902344 C 255.636719 121.730469 255.035156 122.046875 254.855469 122.617188 C 254.679688 123.1875 254.996094 123.789062 255.566406 123.960938 C 256.242188 124.179688 256.925781 124.398438 257.613281 124.625 C 258.175781 124.816406 258.785156 124.519531 258.972656 123.960938 C 259.171875 123.390625 258.867188 122.785156 258.304688 122.59375 C 257.601562 122.355469 256.902344 122.121094 256.207031 121.902344 Z M 262.445312 124.113281 C 261.890625 123.902344 261.265625 124.171875 261.046875 124.722656 C 260.832031 125.273438 261.105469 125.898438 261.652344 126.117188 C 262.320312 126.378906 262.984375 126.652344 263.65625 126.929688 C 264.199219 127.160156 264.832031 126.90625 265.0625 126.355469 C 265.292969 125.8125 265.035156 125.175781 264.488281 124.945312 C 263.808594 124.660156 263.125 124.382812 262.445312 124.113281 Z M 268.511719 126.738281 C 267.972656 126.488281 267.332031 126.71875 267.082031 127.257812 C 266.828125 127.792969 267.058594 128.433594 267.597656 128.6875 C 268.242188 128.996094 268.890625 129.308594 269.542969 129.625 C 270.078125 129.886719 270.71875 129.671875 270.980469 129.140625 C 271.25 128.601562 271.03125 127.957031 270.496094 127.695312 C 269.832031 127.371094 269.175781 127.050781 268.511719 126.738281 Z M 274.40625 129.714844 C 273.878906 129.433594 273.226562 129.628906 272.949219 130.148438 C 272.664062 130.671875 272.859375 131.324219 273.386719 131.605469 C 274.019531 131.945312 274.648438 132.296875 275.28125 132.648438 C 275.792969 132.945312 276.453125 132.757812 276.746094 132.238281 C 277.03125 131.726562 276.847656 131.070312 276.328125 130.777344 C 275.695312 130.410156 275.046875 130.0625 274.40625 129.714844 Z M 280.128906 132.992188 C 279.621094 132.683594 278.960938 132.847656 278.652344 133.355469 C 278.34375 133.859375 278.503906 134.527344 279.011719 134.832031 C 279.625 135.210938 280.242188 135.589844 280.847656 135.972656 C 281.351562 136.289062 282.023438 136.132812 282.335938 135.632812 C 282.652344 135.128906 282.503906 134.460938 282 134.144531 C 281.375 133.761719 280.753906 133.375 280.128906 132.992188 Z M 285.679688 136.550781 C 285.1875 136.21875 284.519531 136.347656 284.1875 136.835938 C 283.851562 137.335938 283.984375 138.003906 284.472656 138.335938 C 285.074219 138.742188 285.671875 139.144531 286.253906 139.566406 C 286.746094 139.898438 287.417969 139.78125 287.753906 139.296875 C 288.097656 138.808594 287.980469 138.136719 287.496094 137.792969 C 286.894531 137.375 286.289062 136.964844 285.679688 136.550781 Z M 291.050781 140.378906 C 290.578125 140.019531 289.902344 140.117188 289.546875 140.589844 C 289.1875 141.070312 289.289062 141.738281 289.761719 142.097656 C 290.34375 142.527344 290.917969 142.964844 291.480469 143.410156 C 291.949219 143.777344 292.625 143.691406 292.992188 143.21875 C 293.355469 142.753906 293.273438 142.070312 292.800781 141.710938 C 292.226562 141.261719 291.640625 140.816406 291.050781 140.378906 Z M 296.230469 144.460938 C 295.769531 144.085938 295.09375 144.144531 294.710938 144.605469 C 294.332031 145.058594 294.394531 145.738281 294.847656 146.121094 C 295.40625 146.585938 295.960938 147.046875 296.496094 147.519531 C 296.949219 147.902344 297.628906 147.859375 298.019531 147.402344 C 298.40625 146.957031 298.355469 146.277344 297.910156 145.886719 C 297.355469 145.410156 296.800781 144.933594 296.230469 144.460938 Z M 301.179688 148.835938 C 300.746094 148.429688 300.066406 148.449219 299.664062 148.878906 C 299.253906 149.320312 299.277344 149.996094 299.710938 150.402344 C 299.976562 150.648438 300.238281 150.894531 300.492188 151.148438 C 300.925781 151.554688 301.609375 151.539062 302.015625 151.109375 C 302.425781 150.683594 302.410156 150 301.984375 149.585938 C 301.71875 149.335938 301.449219 149.085938 301.179688 148.835938 Z M 301.179688 148.835938 " fill-opacity="1" fill-rule="evenodd"/></g></g></g></g></g></g></g></g></svg>