<svg xmlns="http://www.w3.org/2000/svg" xmlns:xlink="http://www.w3.org/1999/xlink" width="1366" zoomAndPan="magnify" viewBox="0 0 1024.5 576" height="768" preserveAspectRatio="xMidYMid meet" version="1.0"><defs><clipPath id="3bf3a4679f"><path d="M 435 160 L 565 160 L 565 317 L 435 317 Z M 435 160 " clip-rule="nonzero"/></clipPath><clipPath id="a464400f29"><path d="M 588.835938 285.457031 L 467.570312 316.550781 L 435.171875 190.203125 L 556.4375 159.109375 Z M 588.835938 285.457031 " clip-rule="nonzero"/></clipPath><clipPath id="ca8aa0997b"><path d="M 616.46875 393.21875 L 440.742188 438.277344 L 380.789062 204.457031 L 556.515625 159.398438 Z M 616.46875 393.21875 " clip-rule="nonzero"/></clipPath></defs><g clip-path="url(#3bf3a4679f)"><g clip-path="url(#a464400f29)"><g clip-path="url(#ca8aa0997b)"><path fill="#5100f9" d="M 548.914062 162.574219 C 548.613281 162.066406 548.773438 161.40625 549.28125 161.097656 C 549.789062 160.792969 550.449219 160.957031 550.761719 161.464844 C 550.949219 161.773438 551.132812 162.085938 551.320312 162.398438 C 551.632812 162.90625 551.460938 163.570312 550.953125 163.875 C 550.445312 164.183594 549.785156 164.019531 549.484375 163.511719 C 549.285156 163.199219 549.101562 162.886719 548.914062 162.574219 Z M 551.742188 167.242188 C 551.429688 166.734375 551.589844 166.070312 552.097656 165.765625 C 552.617188 165.457031 553.277344 165.621094 553.578125 166.128906 C 553.953125 166.753906 554.335938 167.375 554.710938 168.003906 C 555.011719 168.515625 554.839844 169.175781 554.332031 169.480469 C 553.824219 169.785156 553.160156 169.617188 552.859375 169.105469 C 552.484375 168.480469 552.113281 167.859375 551.742188 167.242188 Z M 555.046875 172.851562 C 554.753906 172.335938 554.9375 171.679688 555.449219 171.386719 C 555.960938 171.09375 556.625 171.273438 556.917969 171.789062 C 557.285156 172.429688 557.640625 173.070312 557.984375 173.710938 C 558.269531 174.234375 558.085938 174.882812 557.5625 175.171875 C 557.035156 175.457031 556.378906 175.265625 556.097656 174.742188 C 555.753906 174.113281 555.402344 173.484375 555.046875 172.851562 Z M 558.089844 178.566406 C 557.824219 178.035156 558.046875 177.390625 558.585938 177.128906 C 559.117188 176.867188 559.757812 177.089844 560.023438 177.625 C 560.347656 178.296875 560.664062 178.960938 560.964844 179.628906 C 561.210938 180.167969 560.96875 180.808594 560.421875 181.050781 C 559.878906 181.296875 559.242188 181.054688 558.996094 180.511719 C 558.710938 179.867188 558.40625 179.21875 558.089844 178.566406 Z M 560.585938 184.472656 C 560.398438 183.90625 560.6875 183.296875 561.246094 183.101562 C 561.816406 182.902344 562.425781 183.203125 562.621094 183.761719 C 562.871094 184.484375 563.097656 185.199219 563.300781 185.90625 C 563.457031 186.476562 563.128906 187.070312 562.550781 187.234375 C 561.984375 187.390625 561.386719 187.058594 561.230469 186.484375 C 561.039062 185.820312 560.824219 185.148438 560.585938 184.472656 Z M 562.035156 190.578125 C 561.976562 189.988281 562.410156 189.457031 563 189.398438 C 563.582031 189.339844 564.121094 189.769531 564.175781 190.359375 C 564.257812 191.140625 564.296875 191.910156 564.277344 192.667969 C 564.269531 193.261719 563.773438 193.734375 563.179688 193.722656 C 562.582031 193.710938 562.113281 193.21875 562.121094 192.625 C 562.140625 191.953125 562.105469 191.273438 562.035156 190.578125 Z M 561.4375 196.566406 C 561.644531 196.003906 562.253906 195.710938 562.816406 195.910156 C 563.378906 196.109375 563.664062 196.726562 563.464844 197.285156 C 563.207031 198.027344 562.871094 198.746094 562.472656 199.441406 C 562.167969 199.957031 561.507812 200.128906 560.992188 199.832031 C 560.480469 199.53125 560.3125 198.871094 560.605469 198.359375 C 560.949219 197.78125 561.222656 197.179688 561.4375 196.566406 Z M 558.035156 201.402344 C 558.480469 201.015625 559.167969 201.066406 559.550781 201.515625 C 559.941406 201.964844 559.890625 202.644531 559.4375 203.035156 C 559.175781 203.261719 558.902344 203.480469 558.605469 203.703125 C 558.429688 203.839844 558.085938 204.09375 557.628906 204.421875 C 557.148438 204.765625 556.46875 204.652344 556.132812 204.167969 C 555.785156 203.683594 555.898438 203.011719 556.386719 202.664062 C 556.820312 202.355469 557.132812 202.117188 557.3125 201.984375 C 557.5625 201.792969 557.808594 201.597656 558.035156 201.402344 Z M 552.796875 204.917969 C 553.320312 204.628906 553.976562 204.820312 554.257812 205.339844 C 554.542969 205.863281 554.355469 206.515625 553.832031 206.804688 C 553.207031 207.148438 552.539062 207.492188 551.835938 207.828125 C 551.304688 208.082031 550.65625 207.851562 550.402344 207.316406 C 550.148438 206.78125 550.378906 206.136719 550.910156 205.882812 C 551.574219 205.570312 552.207031 205.242188 552.796875 204.917969 Z M 547.003906 207.414062 C 547.566406 207.238281 548.171875 207.558594 548.351562 208.128906 C 548.515625 208.695312 548.203125 209.296875 547.628906 209.472656 C 546.917969 209.691406 546.175781 209.882812 545.425781 210.039062 C 544.839844 210.164062 544.273438 209.789062 544.148438 209.207031 C 544.03125 208.625 544.40625 208.054688 544.984375 207.933594 C 545.671875 207.789062 546.339844 207.617188 547.003906 207.414062 Z M 540.894531 208.335938 C 541.496094 208.347656 541.960938 208.839844 541.953125 209.433594 C 541.9375 210.027344 541.449219 210.5 540.847656 210.488281 C 540.078125 210.472656 539.304688 210.40625 538.535156 210.28125 C 537.945312 210.1875 537.546875 209.632812 537.644531 209.046875 C 537.738281 208.460938 538.285156 208.0625 538.875 208.15625 C 539.554688 208.261719 540.230469 208.320312 540.894531 208.335938 Z M 535.042969 206.933594 C 535.578125 207.195312 535.789062 207.847656 535.53125 208.375 C 535.261719 208.910156 534.613281 209.128906 534.085938 208.863281 C 533.4375 208.539062 532.789062 208.164062 532.152344 207.726562 L 532.085938 207.671875 C 531.59375 207.339844 531.464844 206.667969 531.800781 206.179688 C 532.140625 205.6875 532.804688 205.5625 533.292969 205.898438 L 533.371094 205.953125 C 533.925781 206.328125 534.480469 206.65625 535.042969 206.933594 Z M 529.511719 203.546875 C 530.023438 203.835938 530.214844 204.492188 529.921875 205.011719 C 529.636719 205.527344 528.980469 205.714844 528.460938 205.429688 C 527.824219 205.074219 527.199219 204.746094 526.578125 204.449219 C 526.050781 204.183594 525.820312 203.542969 526.078125 203.007812 C 526.347656 202.472656 526.996094 202.25 527.519531 202.511719 C 528.175781 202.828125 528.84375 203.171875 529.511719 203.546875 Z M 523.359375 200.800781 C 523.929688 200.984375 524.234375 201.59375 524.039062 202.160156 C 523.851562 202.722656 523.246094 203.027344 522.675781 202.839844 C 522 202.613281 521.332031 202.414062 520.671875 202.253906 C 520.089844 202.109375 519.738281 201.527344 519.886719 200.949219 C 520.027344 200.375 520.609375 200.023438 521.191406 200.164062 C 521.898438 200.339844 522.625 200.550781 523.359375 200.800781 Z M 516.675781 199.480469 C 517.269531 199.507812 517.730469 200.015625 517.699219 200.609375 C 517.671875 201.199219 517.160156 201.660156 516.566406 201.628906 C 515.863281 201.59375 515.179688 201.597656 514.519531 201.640625 C 513.921875 201.683594 513.414062 201.234375 513.367188 200.644531 C 513.332031 200.050781 513.777344 199.535156 514.375 199.496094 C 515.121094 199.445312 515.886719 199.4375 516.675781 199.480469 Z M 509.824219 200.425781 C 510.382812 200.226562 511 200.515625 511.195312 201.074219 C 511.394531 201.636719 511.105469 202.25 510.546875 202.453125 C 509.902344 202.683594 509.289062 202.957031 508.710938 203.277344 C 508.199219 203.5625 507.539062 203.371094 507.257812 202.847656 C 506.964844 202.328125 507.160156 201.675781 507.683594 201.386719 C 508.355469 201.019531 509.074219 200.695312 509.824219 200.425781 Z M 503.988281 204.289062 C 504.390625 203.851562 505.074219 203.820312 505.507812 204.21875 C 505.953125 204.621094 505.976562 205.300781 505.578125 205.742188 C 505.128906 206.234375 504.71875 206.761719 504.351562 207.324219 C 504.03125 207.820312 503.363281 207.960938 502.863281 207.636719 C 502.367188 207.316406 502.226562 206.648438 502.546875 206.152344 C 502.976562 205.492188 503.457031 204.871094 503.988281 204.289062 Z M 500.617188 210.398438 C 500.78125 209.828125 501.378906 209.496094 501.953125 209.660156 C 502.519531 209.828125 502.851562 210.421875 502.691406 210.992188 C 502.503906 211.636719 502.363281 212.300781 502.261719 212.980469 C 502.179688 213.566406 501.621094 213.976562 501.035156 213.890625 C 500.445312 213.804688 500.039062 213.257812 500.132812 212.667969 C 500.242188 211.890625 500.410156 211.132812 500.617188 210.398438 Z M 500.023438 217.273438 C 499.96875 216.683594 500.398438 216.160156 500.992188 216.101562 C 501.585938 216.046875 502.105469 216.484375 502.160156 217.078125 C 502.226562 217.75 502.324219 218.429688 502.46875 219.117188 C 502.585938 219.699219 502.210938 220.265625 501.621094 220.386719 C 501.042969 220.503906 500.480469 220.125 500.359375 219.542969 C 500.199219 218.78125 500.089844 218.023438 500.023438 217.273438 Z M 501.691406 223.90625 C 501.464844 223.355469 501.730469 222.726562 502.28125 222.5 C 502.820312 222.277344 503.453125 222.535156 503.679688 223.085938 C 503.9375 223.71875 504.238281 224.347656 504.558594 224.980469 C 504.835938 225.507812 504.628906 226.15625 504.097656 226.429688 C 503.574219 226.703125 502.921875 226.492188 502.648438 225.964844 C 502.289062 225.28125 501.976562 224.589844 501.691406 223.90625 Z M 505.03125 229.8125 C 504.675781 229.332031 504.789062 228.65625 505.265625 228.308594 C 505.738281 227.957031 506.417969 228.0625 506.765625 228.542969 C 507.171875 229.097656 507.601562 229.652344 508.0625 230.199219 C 508.445312 230.65625 508.394531 231.332031 507.941406 231.714844 C 507.484375 232.097656 506.808594 232.039062 506.425781 231.585938 C 505.921875 231 505.460938 230.40625 505.03125 229.8125 Z M 509.527344 234.832031 C 509.09375 234.425781 509.070312 233.746094 509.46875 233.308594 C 509.867188 232.875 510.554688 232.847656 510.988281 233.25 C 511.492188 233.71875 512.027344 234.183594 512.582031 234.644531 C 513.042969 235.019531 513.109375 235.699219 512.738281 236.15625 C 512.355469 236.617188 511.675781 236.679688 511.21875 236.304688 C 510.632812 235.816406 510.070312 235.328125 509.527344 234.832031 Z M 514.800781 238.957031 C 514.308594 238.625 514.179688 237.953125 514.511719 237.464844 C 514.855469 236.96875 515.527344 236.84375 516.015625 237.175781 C 516.628906 237.601562 517.234375 238.019531 517.820312 238.433594 C 518.304688 238.777344 518.421875 239.449219 518.078125 239.933594 C 517.734375 240.417969 517.058594 240.535156 516.574219 240.1875 C 516.003906 239.78125 515.40625 239.371094 514.800781 238.957031 Z M 520.03125 242.761719 C 519.5625 242.398438 519.484375 241.71875 519.84375 241.253906 C 520.214844 240.785156 520.886719 240.699219 521.355469 241.066406 C 521.953125 241.53125 522.53125 241.992188 523.085938 242.449219 C 523.542969 242.828125 523.601562 243.507812 523.230469 243.964844 C 522.84375 244.421875 522.167969 244.488281 521.707031 244.109375 C 521.179688 243.664062 520.613281 243.214844 520.03125 242.761719 Z M 524.929688 246.945312 C 524.496094 246.535156 524.480469 245.855469 524.882812 245.425781 C 525.292969 244.992188 525.972656 244.976562 526.40625 245.382812 C 526.96875 245.910156 527.488281 246.433594 527.992188 246.949219 C 528.402344 247.378906 528.394531 248.058594 527.96875 248.472656 C 527.539062 248.882812 526.855469 248.875 526.445312 248.445312 C 525.96875 247.953125 525.457031 247.453125 524.929688 246.945312 Z M 529.21875 251.644531 C 528.863281 251.171875 528.945312 250.5 529.417969 250.136719 C 529.890625 249.773438 530.5625 249.863281 530.929688 250.335938 C 531.410156 250.957031 531.84375 251.574219 532.246094 252.175781 C 532.566406 252.675781 532.425781 253.339844 531.933594 253.664062 C 531.429688 253.992188 530.765625 253.851562 530.4375 253.355469 C 530.066406 252.792969 529.667969 252.222656 529.21875 251.644531 Z M 532.355469 257.011719 C 532.136719 256.460938 532.414062 255.835938 532.96875 255.621094 C 533.519531 255.40625 534.144531 255.679688 534.363281 256.234375 C 534.652344 256.992188 534.886719 257.734375 535.050781 258.460938 C 535.1875 259.039062 534.835938 259.613281 534.25 259.753906 C 533.679688 259.886719 533.09375 259.527344 532.957031 258.949219 C 532.808594 258.320312 532.609375 257.671875 532.355469 257.011719 Z M 533.207031 262.914062 C 533.277344 262.320312 533.808594 261.898438 534.402344 261.964844 C 534.996094 262.03125 535.421875 262.566406 535.347656 263.15625 C 535.253906 263.953125 535.101562 264.722656 534.867188 265.476562 C 534.703125 266.046875 534.101562 266.367188 533.527344 266.199219 C 532.960938 266.027344 532.636719 265.425781 532.808594 264.859375 C 533 264.226562 533.132812 263.578125 533.207031 262.914062 Z M 531.0625 268.488281 C 531.394531 267.992188 532.066406 267.859375 532.554688 268.1875 C 533.054688 268.515625 533.183594 269.1875 532.851562 269.683594 C 532.4375 270.308594 531.976562 270.921875 531.476562 271.519531 C 531.09375 271.976562 530.414062 272.035156 529.964844 271.652344 C 529.507812 271.273438 529.449219 270.59375 529.824219 270.140625 C 530.273438 269.605469 530.6875 269.054688 531.0625 268.488281 Z M 526.875 273.117188 C 527.328125 272.726562 528.003906 272.773438 528.394531 273.21875 C 528.785156 273.664062 528.746094 274.34375 528.292969 274.738281 C 527.734375 275.226562 527.164062 275.699219 526.566406 276.164062 C 526.097656 276.527344 525.425781 276.445312 525.058594 275.976562 C 524.695312 275.507812 524.777344 274.832031 525.246094 274.464844 C 525.808594 274.027344 526.351562 273.578125 526.875 273.117188 Z M 521.769531 276.953125 C 522.261719 276.628906 522.925781 276.765625 523.253906 277.257812 C 523.585938 277.753906 523.445312 278.421875 522.953125 278.75 C 522.335938 279.160156 521.722656 279.554688 521.09375 279.941406 C 520.589844 280.257812 519.929688 280.105469 519.609375 279.601562 C 519.300781 279.097656 519.449219 278.433594 519.957031 278.117188 C 520.5625 277.738281 521.167969 277.351562 521.769531 276.953125 Z M 516.238281 280.34375 C 516.757812 280.042969 517.410156 280.21875 517.714844 280.734375 C 518.015625 281.246094 517.835938 281.90625 517.324219 282.203125 C 516.683594 282.578125 516.050781 282.941406 515.429688 283.300781 C 514.917969 283.59375 514.265625 283.414062 513.960938 282.902344 C 513.671875 282.386719 513.84375 281.730469 514.363281 281.433594 C 514.976562 281.078125 515.597656 280.71875 516.238281 280.34375 Z M 510.574219 283.660156 C 511.078125 283.347656 511.738281 283.507812 512.050781 284.011719 C 512.359375 284.519531 512.210938 285.179688 511.703125 285.492188 C 511.058594 285.886719 510.453125 286.273438 509.917969 286.644531 C 509.429688 286.980469 508.757812 286.855469 508.417969 286.367188 C 508.082031 285.878906 508.207031 285.207031 508.695312 284.871094 C 509.269531 284.480469 509.890625 284.074219 510.574219 283.660156 Z M 505.285156 288.28125 C 505.554688 287.757812 506.207031 287.554688 506.738281 287.832031 C 507.253906 288.109375 507.464844 288.761719 507.183594 289.289062 C 506.855469 289.914062 506.566406 290.539062 506.320312 291.160156 C 506.109375 291.710938 505.488281 291.984375 504.929688 291.765625 C 504.371094 291.550781 504.105469 290.925781 504.328125 290.371094 C 504.597656 289.675781 504.910156 288.984375 505.285156 288.28125 Z M 503.15625 294.824219 C 503.226562 294.238281 503.773438 293.828125 504.371094 293.90625 C 504.957031 293.988281 505.363281 294.535156 505.277344 295.125 C 505.1875 295.808594 505.136719 296.488281 505.121094 297.171875 C 505.101562 297.765625 504.605469 298.238281 504.015625 298.222656 C 503.425781 298.207031 502.945312 297.71875 502.964844 297.121094 C 502.980469 296.359375 503.042969 295.59375 503.15625 294.824219 Z M 503.320312 301.675781 C 503.222656 301.085938 503.613281 300.53125 504.195312 300.429688 C 504.789062 300.324219 505.335938 300.71875 505.445312 301.304688 C 505.566406 301.988281 505.710938 302.671875 505.882812 303.351562 C 506.03125 303.929688 505.679688 304.515625 505.109375 304.660156 C 504.53125 304.808594 503.949219 304.460938 503.800781 303.886719 C 503.613281 303.148438 503.457031 302.410156 503.320312 301.675781 Z M 505.175781 308.152344 C 504.957031 307.597656 505.246094 306.972656 505.800781 306.761719 C 506.351562 306.550781 506.96875 306.832031 507.183594 307.386719 C 507.441406 308.046875 507.707031 308.707031 507.992188 309.367188 C 508.21875 309.914062 507.964844 310.546875 507.425781 310.777344 C 506.878906 311.011719 506.238281 310.761719 506.011719 310.210938 C 505.71875 309.527344 505.4375 308.839844 505.175781 308.152344 Z M 507.851562 314.222656 C 507.597656 313.6875 507.816406 313.042969 508.355469 312.78125 C 508.886719 312.523438 509.53125 312.746094 509.792969 313.277344 C 510.109375 313.929688 510.425781 314.578125 510.753906 315.222656 C 511.015625 315.757812 510.796875 316.402344 510.269531 316.667969 C 509.738281 316.933594 509.089844 316.71875 508.824219 316.1875 C 508.496094 315.535156 508.179688 314.878906 507.851562 314.222656 Z M 510.78125 320.082031 C 510.515625 319.550781 510.734375 318.902344 511.265625 318.640625 C 511.796875 318.378906 512.449219 318.59375 512.703125 319.128906 C 513.03125 319.792969 513.351562 320.453125 513.667969 321.105469 C 513.921875 321.644531 513.695312 322.285156 513.152344 322.542969 C 512.617188 322.792969 511.972656 322.566406 511.71875 322.027344 C 511.414062 321.382812 511.097656 320.734375 510.78125 320.082031 Z M 513.441406 325.957031 C 513.222656 325.402344 513.5 324.777344 514.054688 324.558594 C 514.605469 324.34375 515.230469 324.617188 515.445312 325.167969 C 515.722656 325.875 515.976562 326.578125 516.210938 327.273438 C 516.398438 327.839844 516.085938 328.449219 515.523438 328.636719 C 514.953125 328.820312 514.351562 328.511719 514.164062 327.949219 C 513.941406 327.289062 513.707031 326.621094 513.441406 325.957031 Z M 515.148438 332 C 515.0625 331.414062 515.476562 330.863281 516.0625 330.78125 C 516.648438 330.695312 517.203125 331.097656 517.289062 331.6875 C 517.402344 332.460938 517.46875 333.226562 517.484375 333.988281 C 517.496094 334.585938 517.027344 335.078125 516.433594 335.09375 C 515.839844 335.105469 515.347656 334.636719 515.332031 334.042969 C 515.320312 333.363281 515.25 332.6875 515.148438 332 Z M 514.839844 338.03125 C 515.003906 337.460938 515.601562 337.128906 516.167969 337.292969 C 516.742188 337.457031 517.074219 338.054688 516.914062 338.625 C 516.695312 339.363281 516.425781 340.09375 516.078125 340.824219 C 515.832031 341.359375 515.1875 341.59375 514.644531 341.34375 C 514.109375 341.089844 513.882812 340.445312 514.128906 339.910156 C 514.425781 339.285156 514.660156 338.660156 514.839844 338.03125 Z M 511.898438 343.324219 C 512.273438 342.867188 512.949219 342.800781 513.410156 343.175781 C 513.867188 343.554688 513.933594 344.234375 513.5625 344.691406 C 513.074219 345.28125 512.578125 345.84375 512.066406 346.382812 C 511.664062 346.8125 510.976562 346.835938 510.550781 346.425781 C 510.117188 346.015625 510.101562 345.335938 510.503906 344.90625 C 510.980469 344.402344 511.445312 343.875 511.898438 343.324219 Z M 507.398438 347.738281 C 507.871094 347.371094 508.550781 347.449219 508.917969 347.917969 C 509.285156 348.386719 509.199219 349.0625 508.738281 349.429688 C 508.136719 349.898438 507.523438 350.34375 506.90625 350.757812 C 506.414062 351.089844 505.742188 350.960938 505.414062 350.464844 C 505.082031 349.972656 505.210938 349.304688 505.703125 348.972656 C 506.285156 348.585938 506.851562 348.175781 507.398438 347.738281 Z M 502.054688 351.0625 C 502.585938 350.804688 503.230469 351.027344 503.496094 351.5625 C 503.75 352.097656 503.53125 352.742188 502.992188 353 C 502.316406 353.328125 501.625 353.632812 500.929688 353.910156 C 500.378906 354.132812 499.757812 353.867188 499.53125 353.316406 C 499.316406 352.765625 499.582031 352.136719 500.132812 351.914062 C 500.777344 351.652344 501.417969 351.367188 502.054688 351.0625 Z M 496.117188 353.265625 C 496.683594 353.109375 497.28125 353.445312 497.4375 354.019531 C 497.597656 354.589844 497.257812 355.183594 496.691406 355.339844 C 495.972656 355.539062 495.25 355.714844 494.515625 355.878906 C 493.9375 356.007812 493.367188 355.644531 493.238281 355.0625 C 493.101562 354.484375 493.464844 353.910156 494.050781 353.777344 C 494.746094 353.625 495.429688 353.457031 496.117188 353.265625 Z M 489.847656 354.527344 C 490.433594 354.445312 490.976562 354.859375 491.054688 355.449219 C 491.140625 356.035156 490.726562 356.578125 490.136719 356.660156 C 489.40625 356.761719 488.671875 356.847656 487.933594 356.925781 C 487.34375 356.988281 486.816406 356.554688 486.75 355.964844 C 486.695312 355.375 487.125 354.84375 487.714844 354.785156 C 488.421875 354.710938 489.136719 354.625 489.847656 354.527344 Z M 483.425781 355.109375 C 484.015625 355.078125 484.515625 355.535156 484.550781 356.128906 C 484.585938 356.71875 484.121094 357.230469 483.53125 357.257812 C 482.804688 357.292969 482.066406 357.324219 481.335938 357.347656 C 480.742188 357.363281 480.238281 356.898438 480.226562 356.304688 C 480.199219 355.714844 480.671875 355.214844 481.261719 355.195312 C 481.984375 355.175781 482.699219 355.144531 483.425781 355.109375 Z M 476.929688 355.269531 C 477.527344 355.265625 478.011719 355.746094 478.015625 356.339844 C 478.019531 356.933594 477.535156 357.417969 476.9375 357.421875 C 476.214844 357.425781 475.476562 357.425781 474.753906 357.425781 C 474.15625 357.425781 473.679688 356.941406 473.675781 356.347656 C 473.683594 355.75 474.167969 355.269531 474.753906 355.273438 C 475.480469 355.273438 476.207031 355.273438 476.929688 355.269531 Z M 470.398438 355.253906 C 470.996094 355.253906 471.472656 355.738281 471.476562 356.332031 C 471.46875 356.925781 470.984375 357.40625 470.386719 357.40625 C 469.660156 357.402344 468.933594 357.402344 468.21875 357.398438 C 467.621094 357.402344 467.136719 356.921875 467.132812 356.328125 C 467.140625 355.730469 467.613281 355.25 468.210938 355.25 C 468.9375 355.25 469.664062 355.25 470.398438 355.253906 Z M 463.820312 355.308594 C 464.414062 355.292969 464.910156 355.757812 464.933594 356.351562 C 464.945312 356.945312 464.476562 357.441406 463.882812 357.460938 C 463.164062 357.480469 462.433594 357.507812 461.730469 357.542969 C 461.140625 357.570312 460.628906 357.117188 460.601562 356.519531 C 460.566406 355.929688 461.023438 355.421875 461.613281 355.394531 C 462.339844 355.359375 463.082031 355.328125 463.820312 355.308594 Z M 457.207031 355.753906 C 457.785156 355.683594 458.332031 356.105469 458.398438 356.695312 C 458.464844 357.285156 458.046875 357.820312 457.457031 357.890625 C 456.742188 357.976562 456.03125 358.074219 455.347656 358.1875 C 454.761719 358.285156 454.203125 357.890625 454.105469 357.304688 C 454.007812 356.71875 454.410156 356.164062 454.992188 356.066406 C 455.71875 355.945312 456.449219 355.84375 457.207031 355.753906 Z M 450.601562 357.082031 C 451.175781 356.902344 451.773438 357.226562 451.949219 357.792969 C 452.125 358.359375 451.800781 358.964844 451.238281 359.136719 C 450.566406 359.34375 449.910156 359.574219 449.273438 359.832031 C 448.722656 360.054688 448.089844 359.792969 447.871094 359.242188 C 447.644531 358.691406 447.910156 358.0625 448.460938 357.839844 C 449.15625 357.554688 449.871094 357.304688 450.601562 357.082031 Z M 444.414062 360.011719 C 444.902344 359.671875 445.570312 359.792969 445.910156 360.28125 C 446.257812 360.765625 446.132812 361.4375 445.644531 361.777344 C 445.09375 362.164062 444.558594 362.585938 444.050781 363.046875 C 443.609375 363.445312 442.925781 363.410156 442.527344 362.972656 C 442.125 362.53125 442.164062 361.851562 442.605469 361.449219 C 443.175781 360.929688 443.789062 360.449219 444.414062 360.011719 Z M 439.605469 364.964844 C 439.925781 364.472656 440.59375 364.335938 441.09375 364.660156 C 441.589844 364.984375 441.730469 365.652344 441.398438 366.148438 C 441.03125 366.707031 440.691406 367.300781 440.375 367.929688 C 440.105469 368.460938 439.457031 368.671875 438.929688 368.40625 C 438.390625 368.136719 438.179688 367.488281 438.449219 366.960938 C 438.804688 366.253906 439.1875 365.589844 439.605469 364.964844 Z M 436.746094 371.128906 C 436.933594 370.570312 437.550781 370.269531 438.113281 370.460938 C 438.671875 370.65625 438.96875 371.269531 438.78125 371.828125 C 438.546875 372.492188 438.335938 373.171875 438.128906 373.863281 C 437.964844 374.429688 437.367188 374.757812 436.800781 374.589844 C 436.226562 374.421875 435.902344 373.824219 436.066406 373.257812 C 436.285156 372.53125 436.507812 371.824219 436.746094 371.128906 Z M 434.984375 377.566406 C 435.113281 376.984375 435.679688 376.613281 436.265625 376.734375 C 436.851562 376.855469 437.222656 377.425781 437.09375 378.011719 C 436.949219 378.703125 436.808594 379.40625 436.695312 380.113281 C 436.589844 380.699219 436.027344 381.09375 435.445312 380.988281 C 434.855469 380.886719 434.464844 380.328125 434.570312 379.742188 C 434.703125 379.007812 434.835938 378.28125 434.984375 377.566406 Z M 433.9375 384.125 C 434.007812 383.535156 434.539062 383.109375 435.132812 383.175781 C 435.726562 383.242188 436.148438 383.777344 436.078125 384.367188 C 436.003906 385.074219 435.929688 385.789062 435.859375 386.511719 C 435.808594 387.101562 435.289062 387.539062 434.703125 387.488281 C 434.101562 387.4375 433.667969 386.914062 433.722656 386.320312 C 433.785156 385.582031 433.855469 384.851562 433.9375 384.125 Z M 433.441406 390.726562 C 433.472656 390.132812 433.972656 389.667969 434.5625 389.691406 C 435.15625 389.714844 435.617188 390.21875 435.597656 390.808594 C 435.566406 391.523438 435.546875 392.242188 435.53125 392.96875 C 435.523438 393.558594 435.035156 394.035156 434.4375 394.023438 C 433.847656 394.015625 433.371094 393.523438 433.378906 392.929688 C 433.390625 392.191406 433.414062 391.457031 433.441406 390.726562 Z M 433.398438 397.335938 C 433.382812 396.742188 433.855469 396.25 434.449219 396.234375 C 435.042969 396.21875 435.535156 396.691406 435.550781 397.285156 C 435.574219 398 435.597656 398.71875 435.625 399.441406 C 435.648438 400.035156 435.191406 400.539062 434.597656 400.5625 C 434 400.589844 433.496094 400.128906 433.472656 399.535156 C 433.441406 398.800781 433.414062 398.066406 433.398438 397.335938 Z M 433.746094 403.925781 C 433.699219 403.335938 434.140625 402.816406 434.726562 402.769531 C 435.324219 402.722656 435.84375 403.164062 435.886719 403.757812 C 435.945312 404.476562 436.011719 405.191406 436.078125 405.910156 C 436.144531 406.5 435.703125 407.027344 435.109375 407.085938 C 434.527344 407.140625 434 406.707031 433.945312 406.117188 C 433.863281 405.386719 433.804688 404.65625 433.746094 403.925781 Z M 434.433594 410.488281 C 434.359375 409.898438 434.773438 409.359375 435.363281 409.28125 C 435.949219 409.203125 436.496094 409.617188 436.570312 410.207031 C 436.667969 410.921875 436.765625 411.636719 436.875 412.347656 C 436.960938 412.9375 436.546875 413.484375 435.960938 413.574219 C 435.375 413.660156 434.824219 413.253906 434.738281 412.664062 C 434.636719 411.941406 434.535156 411.214844 434.433594 410.488281 Z M 435.457031 417.003906 C 435.347656 416.417969 435.738281 415.859375 436.316406 415.753906 C 436.910156 415.644531 437.46875 416.035156 437.574219 416.617188 C 437.703125 417.328125 437.832031 418.039062 437.980469 418.742188 C 438.089844 419.328125 437.710938 419.894531 437.132812 420.007812 C 436.542969 420.125 435.976562 419.746094 435.859375 419.164062 C 435.71875 418.445312 435.585938 417.726562 435.457031 417.003906 Z M 436.792969 423.460938 C 436.652344 422.882812 437.015625 422.304688 437.589844 422.171875 C 438.175781 422.035156 438.746094 422.398438 438.882812 422.972656 C 439.042969 423.679688 439.214844 424.382812 439.390625 425.078125 C 439.539062 425.652344 439.1875 426.238281 438.605469 426.382812 C 438.035156 426.523438 437.445312 426.175781 437.308594 425.597656 C 437.125 424.890625 436.953125 424.179688 436.792969 423.460938 Z M 438.4375 429.847656 C 438.28125 429.277344 438.609375 428.679688 439.183594 428.515625 C 439.75 428.351562 440.347656 428.683594 440.515625 429.253906 C 440.714844 429.949219 440.914062 430.640625 441.132812 431.324219 C 441.300781 431.894531 440.984375 432.496094 440.410156 432.671875 C 439.847656 432.84375 439.242188 432.523438 439.066406 431.957031 C 438.855469 431.261719 438.640625 430.558594 438.4375 429.847656 Z M 440.445312 436.140625 C 440.25 435.578125 440.539062 434.964844 441.097656 434.769531 C 441.667969 434.570312 442.277344 434.867188 442.472656 435.429688 C 442.59375 435.769531 442.710938 436.109375 442.839844 436.445312 C 443.035156 437.003906 442.746094 437.621094 442.191406 437.824219 C 441.632812 438.023438 441.015625 437.734375 440.808594 437.179688 C 440.6875 436.832031 440.566406 436.488281 440.445312 436.140625 Z M 440.445312 436.140625 " fill-opacity="1" fill-rule="evenodd"/></g></g></g></svg>