<svg xmlns="http://www.w3.org/2000/svg" xmlns:xlink="http://www.w3.org/1999/xlink" width="1366" zoomAndPan="magnify" viewBox="0 0 1024.5 576" height="768" preserveAspectRatio="xMidYMid meet" version="1.0"><defs><clipPath id="7b7a7e009c"><path d="M 407 157 L 617 157 L 617 419 L 407 419 Z M 407 157 " clip-rule="nonzero"/></clipPath><clipPath id="118299958b"><path d="M 436.15625 157.230469 L 616.289062 178.71875 L 587.699219 418.402344 L 407.5625 396.914062 Z M 436.15625 157.230469 " clip-rule="nonzero"/></clipPath><clipPath id="7ca38ad75f"><path d="M 25 1 L 184 1 L 184 261.496094 L 25 261.496094 Z M 25 1 " clip-rule="nonzero"/></clipPath><clipPath id="ea5c0f2a2d"><path d="M 29.15625 0.230469 L 209.289062 21.71875 L 180.699219 261.402344 L 0.5625 239.914062 Z M 29.15625 0.230469 " clip-rule="nonzero"/></clipPath><clipPath id="d735d45e47"><path d="M 0.523438 240.25 L 180.65625 261.738281 L 209.25 22.054688 L 29.113281 0.566406 Z M 0.523438 240.25 " clip-rule="nonzero"/></clipPath><clipPath id="eb5eb7511f"><path d="M 0.523438 240.25 L 180.65625 261.738281 L 209.25 22.054688 L 29.113281 0.566406 Z M 0.523438 240.25 " clip-rule="nonzero"/></clipPath><clipPath id="53dbf9f7e3"><rect x="0" width="210" y="0" height="262"/></clipPath></defs><g clip-path="url(#7b7a7e009c)"><g clip-path="url(#118299958b)"><g transform="matrix(1, 0, 0, 1, 407, 157)"><g clip-path="url(#53dbf9f7e3)"><g clip-path="url(#7ca38ad75f)"><g clip-path="url(#ea5c0f2a2d)"><g clip-path="url(#d735d45e47)"><g clip-path="url(#eb5eb7511f)"><path fill="#5100f9" d="M 37.066406 2.714844 C 37.296875 2.167969 37.050781 1.535156 36.507812 1.296875 C 35.964844 1.0625 35.332031 1.3125 35.089844 1.855469 C 34.945312 2.1875 34.800781 2.519531 34.65625 2.855469 C 34.414062 3.398438 34.671875 4.035156 35.214844 4.273438 C 35.761719 4.507812 36.394531 4.257812 36.625 3.714844 C 36.78125 3.378906 36.921875 3.046875 37.066406 2.714844 Z M 34.878906 7.710938 C 35.121094 7.167969 34.875 6.53125 34.332031 6.296875 C 33.777344 6.058594 33.144531 6.308594 32.910156 6.851562 C 32.625 7.519531 32.324219 8.1875 32.039062 8.859375 C 31.804688 9.402344 32.0625 10.039062 32.605469 10.273438 C 33.152344 10.507812 33.785156 10.253906 34.015625 9.707031 C 34.304688 9.039062 34.59375 8.375 34.878906 7.710938 Z M 32.34375 13.710938 C 32.566406 13.160156 32.296875 12.53125 31.75 12.308594 C 31.203125 12.085938 30.570312 12.351562 30.347656 12.902344 C 30.070312 13.585938 29.800781 14.265625 29.542969 14.945312 C 29.332031 15.503906 29.597656 16.125 30.15625 16.339844 C 30.714844 16.550781 31.339844 16.277344 31.550781 15.722656 C 31.808594 15.054688 32.074219 14.382812 32.34375 13.710938 Z M 30.078125 19.777344 C 30.269531 19.214844 29.96875 18.605469 29.398438 18.414062 C 28.839844 18.226562 28.230469 18.53125 28.039062 19.09375 C 27.808594 19.804688 27.578125 20.507812 27.371094 21.207031 C 27.199219 21.777344 27.523438 22.375 28.09375 22.546875 C 28.667969 22.714844 29.269531 22.394531 29.441406 21.824219 C 29.636719 21.144531 29.851562 20.460938 30.078125 19.777344 Z M 28.386719 25.957031 C 28.496094 25.375 28.128906 24.804688 27.546875 24.6875 C 26.960938 24.566406 26.394531 24.941406 26.273438 25.523438 C 26.121094 26.269531 25.992188 27.007812 25.882812 27.734375 C 25.804688 28.324219 26.207031 28.867188 26.800781 28.953125 C 27.382812 29.035156 27.929688 28.628906 28.011719 28.039062 C 28.113281 27.355469 28.238281 26.660156 28.386719 25.957031 Z M 27.753906 32.203125 C 27.730469 31.609375 27.234375 31.140625 26.640625 31.160156 C 26.054688 31.179688 25.582031 31.671875 25.605469 32.269531 C 25.625 33.054688 25.6875 33.820312 25.808594 34.570312 C 25.894531 35.15625 26.449219 35.558594 27.03125 35.46875 C 27.625 35.382812 28.023438 34.832031 27.9375 34.242188 C 27.828125 33.582031 27.773438 32.898438 27.753906 32.203125 Z M 29.136719 38.058594 C 28.855469 37.527344 28.214844 37.320312 27.683594 37.589844 C 27.152344 37.863281 26.949219 38.511719 27.21875 39.039062 C 27.574219 39.738281 28.003906 40.410156 28.488281 41.042969 C 28.859375 41.515625 29.535156 41.601562 30.007812 41.238281 C 30.476562 40.875 30.558594 40.195312 30.195312 39.726562 C 29.78125 39.195312 29.429688 38.640625 29.136719 38.058594 Z M 33.144531 42.402344 C 32.652344 42.078125 31.980469 42.21875 31.660156 42.71875 C 31.332031 43.214844 31.46875 43.882812 31.972656 44.207031 C 32.261719 44.394531 32.5625 44.578125 32.882812 44.757812 C 33.078125 44.875 33.449219 45.078125 33.949219 45.34375 C 34.46875 45.621094 35.125 45.417969 35.394531 44.894531 C 35.675781 44.367188 35.472656 43.714844 34.945312 43.4375 C 34.476562 43.191406 34.132812 42.996094 33.941406 42.886719 C 33.667969 42.730469 33.394531 42.566406 33.144531 42.402344 Z M 38.804688 45.199219 C 38.246094 44.980469 37.621094 45.257812 37.410156 45.808594 C 37.199219 46.363281 37.464844 46.988281 38.023438 47.203125 C 38.691406 47.460938 39.398438 47.71875 40.140625 47.957031 C 40.699219 48.136719 41.308594 47.824219 41.492188 47.257812 C 41.675781 46.695312 41.359375 46.085938 40.800781 45.90625 C 40.097656 45.679688 39.429688 45.441406 38.804688 45.199219 Z M 44.875 46.90625 C 44.292969 46.808594 43.734375 47.207031 43.632812 47.792969 C 43.542969 48.378906 43.933594 48.933594 44.527344 49.03125 C 45.261719 49.152344 46.019531 49.246094 46.785156 49.300781 C 47.382812 49.347656 47.890625 48.902344 47.941406 48.308594 C 47.980469 47.714844 47.535156 47.199219 46.945312 47.15625 C 46.246094 47.105469 45.558594 47.019531 44.875 46.90625 Z M 51.050781 47.015625 C 50.457031 47.105469 50.058594 47.65625 50.144531 48.242188 C 50.242188 48.832031 50.785156 49.234375 51.378906 49.144531 C 52.144531 49.027344 52.902344 48.859375 53.648438 48.632812 C 54.21875 48.460938 54.539062 47.863281 54.367188 47.292969 C 54.195312 46.722656 53.601562 46.402344 53.03125 46.570312 C 52.371094 46.765625 51.707031 46.914062 51.050781 47.015625 Z M 56.667969 44.855469 C 56.171875 45.1875 56.046875 45.855469 56.375 46.347656 C 56.710938 46.839844 57.382812 46.972656 57.871094 46.640625 C 58.46875 46.234375 59.066406 45.777344 59.636719 45.261719 L 59.695312 45.199219 C 60.136719 44.800781 60.179688 44.121094 59.78125 43.679688 C 59.378906 43.238281 58.707031 43.203125 58.261719 43.597656 L 58.191406 43.660156 C 57.691406 44.105469 57.1875 44.503906 56.667969 44.855469 Z M 61.703125 40.765625 C 61.234375 41.121094 61.132812 41.796875 61.492188 42.273438 C 61.839844 42.75 62.515625 42.847656 62.992188 42.492188 C 63.578125 42.058594 64.15625 41.652344 64.730469 41.273438 C 65.21875 40.945312 65.359375 40.277344 65.035156 39.78125 C 64.699219 39.285156 64.027344 39.148438 63.539062 39.480469 C 62.929688 39.878906 62.316406 40.308594 61.703125 40.765625 Z M 67.441406 37.234375 C 66.898438 37.492188 66.675781 38.136719 66.945312 38.671875 C 67.203125 39.207031 67.84375 39.425781 68.382812 39.167969 C 69.027344 38.851562 69.664062 38.566406 70.296875 38.320312 C 70.851562 38.101562 71.125 37.476562 70.898438 36.921875 C 70.683594 36.371094 70.0625 36.097656 69.503906 36.316406 C 68.828125 36.585938 68.136719 36.890625 67.441406 37.234375 Z M 73.890625 35.042969 C 73.304688 35.152344 72.917969 35.710938 73.023438 36.296875 C 73.132812 36.878906 73.699219 37.269531 74.285156 37.160156 C 74.976562 37.03125 75.652344 36.945312 76.3125 36.902344 C 76.910156 36.863281 77.355469 36.351562 77.324219 35.761719 C 77.277344 35.167969 76.769531 34.71875 76.171875 34.753906 C 75.429688 34.804688 74.667969 34.898438 73.890625 35.042969 Z M 80.804688 35.078125 C 80.226562 34.953125 79.652344 35.320312 79.53125 35.902344 C 79.410156 36.484375 79.78125 37.054688 80.359375 37.179688 C 81.027344 37.324219 81.671875 37.515625 82.285156 37.757812 C 82.832031 37.96875 83.460938 37.695312 83.671875 37.140625 C 83.894531 36.585938 83.613281 35.964844 83.058594 35.75 C 82.339844 35.472656 81.585938 35.246094 80.804688 35.078125 Z M 87.101562 38.136719 C 86.644531 37.753906 85.964844 37.8125 85.585938 38.269531 C 85.199219 38.722656 85.261719 39.402344 85.71875 39.785156 C 86.226562 40.214844 86.703125 40.6875 87.140625 41.195312 C 87.523438 41.644531 88.207031 41.695312 88.65625 41.308594 C 89.109375 40.921875 89.160156 40.242188 88.773438 39.792969 C 88.265625 39.195312 87.707031 38.640625 87.101562 38.136719 Z M 91.246094 43.75 C 91.011719 43.203125 90.375 42.957031 89.824219 43.191406 C 89.289062 43.433594 89.035156 44.066406 89.273438 44.609375 C 89.542969 45.222656 89.769531 45.863281 89.960938 46.527344 C 90.121094 47.097656 90.726562 47.429688 91.296875 47.265625 C 91.867188 47.101562 92.199219 46.507812 92.027344 45.933594 C 91.816406 45.175781 91.550781 44.449219 91.246094 43.75 Z M 92.742188 50.484375 C 92.71875 49.890625 92.222656 49.429688 91.628906 49.453125 C 91.03125 49.476562 90.578125 49.980469 90.601562 50.570312 C 90.625 51.246094 90.613281 51.933594 90.5625 52.636719 C 90.523438 53.226562 90.972656 53.742188 91.570312 53.78125 C 92.160156 53.820312 92.667969 53.371094 92.710938 52.78125 C 92.769531 52.003906 92.777344 51.234375 92.742188 50.484375 Z M 91.964844 57.277344 C 92.117188 56.703125 91.769531 56.113281 91.195312 55.964844 C 90.632812 55.8125 90.039062 56.15625 89.886719 56.730469 C 89.714844 57.390625 89.5 58.054688 89.265625 58.722656 C 89.0625 59.28125 89.351562 59.898438 89.910156 60.097656 C 90.46875 60.296875 91.085938 60.007812 91.289062 59.449219 C 91.554688 58.71875 91.773438 57.996094 91.964844 57.277344 Z M 89.433594 63.574219 C 89.726562 63.054688 89.523438 62.398438 89.003906 62.113281 C 88.488281 61.832031 87.828125 62.023438 87.550781 62.546875 C 87.214844 63.152344 86.863281 63.753906 86.480469 64.359375 C 86.160156 64.859375 86.300781 65.527344 86.800781 65.84375 C 87.304688 66.164062 87.96875 66.015625 88.285156 65.515625 C 88.707031 64.871094 89.085938 64.222656 89.433594 63.574219 Z M 85.636719 69.144531 C 86.015625 68.6875 85.949219 68.007812 85.496094 67.628906 C 85.042969 67.25 84.359375 67.308594 83.980469 67.769531 C 83.542969 68.300781 83.074219 68.832031 82.585938 69.359375 C 82.179688 69.796875 82.203125 70.476562 82.632812 70.878906 C 83.074219 71.285156 83.753906 71.261719 84.15625 70.824219 C 84.671875 70.265625 85.164062 69.707031 85.636719 69.144531 Z M 80.957031 73.929688 C 81.398438 73.53125 81.441406 72.851562 81.046875 72.410156 C 80.640625 71.964844 79.957031 71.929688 79.515625 72.324219 C 78.96875 72.828125 78.417969 73.320312 77.894531 73.808594 C 77.460938 74.214844 77.429688 74.894531 77.835938 75.328125 C 78.242188 75.765625 78.925781 75.789062 79.359375 75.382812 C 79.875 74.90625 80.410156 74.421875 80.957031 73.929688 Z M 76.273438 78.390625 C 76.6875 77.96875 76.675781 77.285156 76.257812 76.867188 C 75.828125 76.453125 75.152344 76.460938 74.738281 76.882812 C 74.203125 77.425781 73.695312 77.957031 73.203125 78.484375 C 72.796875 78.917969 72.832031 79.597656 73.261719 80.003906 C 73.703125 80.40625 74.382812 80.382812 74.789062 79.945312 C 75.253906 79.433594 75.753906 78.914062 76.273438 78.390625 Z M 71.96875 83.179688 C 72.34375 82.71875 72.269531 82.042969 71.816406 81.667969 C 71.351562 81.296875 70.675781 81.367188 70.296875 81.828125 C 69.808594 82.425781 69.367188 83.015625 68.933594 83.589844 C 68.585938 84.070312 68.679688 84.742188 69.160156 85.097656 C 69.636719 85.449219 70.316406 85.347656 70.664062 84.871094 C 71.074219 84.316406 71.515625 83.753906 71.96875 83.179688 Z M 68.335938 88.40625 C 68.628906 87.890625 68.457031 87.234375 67.941406 86.9375 C 67.425781 86.640625 66.769531 86.820312 66.46875 87.332031 C 66.074219 88.015625 65.722656 88.679688 65.40625 89.332031 C 65.15625 89.867188 65.382812 90.511719 65.914062 90.769531 C 66.453125 91.023438 67.09375 90.796875 67.355469 90.261719 C 67.648438 89.660156 67.96875 89.039062 68.335938 88.40625 Z M 65.9375 94.140625 C 66.078125 93.566406 65.722656 92.980469 65.144531 92.84375 C 64.570312 92.703125 63.984375 93.058594 63.84375 93.632812 C 63.65625 94.425781 63.523438 95.1875 63.453125 95.929688 C 63.394531 96.523438 63.820312 97.046875 64.417969 97.105469 C 65.003906 97.164062 65.535156 96.730469 65.59375 96.140625 C 65.660156 95.496094 65.769531 94.828125 65.9375 94.140625 Z M 65.871094 100.101562 C 65.722656 99.527344 65.136719 99.175781 64.558594 99.320312 C 63.980469 99.464844 63.628906 100.050781 63.777344 100.628906 C 63.976562 101.402344 64.234375 102.148438 64.5625 102.863281 C 64.800781 103.40625 65.4375 103.644531 65.988281 103.402344 C 66.527344 103.15625 66.769531 102.519531 66.519531 101.976562 C 66.25 101.375 66.03125 100.753906 65.871094 100.101562 Z M 68.730469 105.347656 C 68.335938 104.898438 67.65625 104.855469 67.214844 105.246094 C 66.761719 105.636719 66.722656 106.316406 67.113281 106.765625 C 67.609375 107.332031 68.148438 107.878906 68.71875 108.40625 C 69.160156 108.808594 69.839844 108.777344 70.234375 108.339844 C 70.640625 107.902344 70.609375 107.222656 70.179688 106.820312 C 69.660156 106.347656 69.179688 105.859375 68.730469 105.347656 Z M 73.492188 109.382812 C 72.992188 109.054688 72.328125 109.191406 72 109.683594 C 71.671875 110.179688 71.800781 110.847656 72.300781 111.175781 C 72.917969 111.585938 73.546875 111.980469 74.199219 112.359375 C 74.714844 112.660156 75.371094 112.492188 75.667969 111.976562 C 75.96875 111.464844 75.800781 110.804688 75.285156 110.503906 C 74.671875 110.144531 74.070312 109.769531 73.492188 109.382812 Z M 79.058594 112.511719 C 78.53125 112.253906 77.890625 112.476562 77.628906 113.011719 C 77.367188 113.542969 77.589844 114.1875 78.121094 114.449219 C 78.789062 114.773438 79.449219 115.085938 80.121094 115.386719 C 80.664062 115.632812 81.296875 115.394531 81.550781 114.851562 C 81.789062 114.3125 81.554688 113.671875 81.011719 113.425781 C 80.359375 113.132812 79.710938 112.828125 79.058594 112.511719 Z M 84.988281 115.144531 C 84.433594 114.914062 83.808594 115.175781 83.578125 115.722656 C 83.347656 116.273438 83.613281 116.902344 84.160156 117.128906 C 84.84375 117.414062 85.515625 117.695312 86.183594 117.964844 C 86.726562 118.191406 87.351562 117.925781 87.582031 117.378906 C 87.804688 116.828125 87.546875 116.199219 86.992188 115.972656 C 86.335938 115.703125 85.671875 115.429688 84.988281 115.144531 Z M 91.042969 117.683594 C 90.5 117.441406 89.867188 117.683594 89.625 118.226562 C 89.382812 118.769531 89.621094 119.40625 90.164062 119.648438 C 90.855469 119.953125 91.507812 120.257812 92.085938 120.554688 C 92.613281 120.824219 93.261719 120.613281 93.535156 120.082031 C 93.804688 119.554688 93.59375 118.90625 93.0625 118.636719 C 92.445312 118.324219 91.773438 118.003906 91.042969 117.683594 Z M 96.894531 121.566406 C 96.558594 121.085938 95.882812 120.96875 95.394531 121.3125 C 94.917969 121.65625 94.796875 122.328125 95.144531 122.816406 C 95.554688 123.390625 95.921875 123.972656 96.246094 124.558594 C 96.527344 125.078125 97.183594 125.261719 97.707031 124.976562 C 98.230469 124.6875 98.410156 124.03125 98.121094 123.511719 C 97.761719 122.859375 97.359375 122.210938 96.894531 121.566406 Z M 99.871094 127.773438 C 99.71875 127.203125 99.125 126.867188 98.542969 127.023438 C 97.972656 127.183594 97.640625 127.777344 97.804688 128.347656 C 97.984375 129.015625 98.121094 129.683594 98.230469 130.359375 C 98.324219 130.945312 98.882812 131.347656 99.464844 131.253906 C 100.046875 131.160156 100.457031 130.613281 100.359375 130.023438 C 100.242188 129.269531 100.082031 128.519531 99.871094 127.773438 Z M 100.605469 134.582031 C 100.625 133.988281 100.164062 133.488281 99.574219 133.464844 C 98.976562 133.441406 98.484375 133.902344 98.453125 134.496094 C 98.421875 135.191406 98.371094 135.886719 98.289062 136.585938 C 98.21875 137.175781 98.640625 137.710938 99.226562 137.78125 C 99.820312 137.851562 100.351562 137.429688 100.421875 136.839844 C 100.511719 136.085938 100.570312 135.332031 100.605469 134.582031 Z M 99.625 141.25 C 99.765625 140.671875 99.398438 140.089844 98.820312 139.953125 C 98.246094 139.816406 97.671875 140.175781 97.53125 140.753906 C 97.363281 141.445312 97.1875 142.136719 96.992188 142.824219 C 96.839844 143.398438 97.175781 143.992188 97.738281 144.148438 C 98.3125 144.308594 98.914062 143.976562 99.066406 143.402344 C 99.265625 142.683594 99.457031 141.96875 99.625 141.25 Z M 97.773438 147.621094 C 97.953125 147.054688 97.652344 146.445312 97.082031 146.257812 C 96.519531 146.070312 95.914062 146.378906 95.71875 146.941406 C 95.492188 147.625 95.265625 148.3125 95.027344 148.996094 C 94.835938 149.558594 95.136719 150.167969 95.695312 150.363281 C 96.257812 150.554688 96.875 150.257812 97.066406 149.695312 C 97.304688 149.007812 97.535156 148.3125 97.773438 147.621094 Z M 95.640625 153.8125 C 95.832031 153.25 95.53125 152.640625 94.96875 152.449219 C 94.410156 152.257812 93.792969 152.558594 93.609375 153.125 C 93.371094 153.824219 93.140625 154.519531 92.914062 155.210938 C 92.730469 155.777344 93.042969 156.382812 93.617188 156.566406 C 94.175781 156.746094 94.785156 156.433594 94.96875 155.867188 C 95.183594 155.1875 95.410156 154.503906 95.640625 153.8125 Z M 93.78125 159.988281 C 93.921875 159.410156 93.5625 158.828125 92.988281 158.683594 C 92.410156 158.542969 91.828125 158.894531 91.6875 159.472656 C 91.503906 160.207031 91.347656 160.9375 91.207031 161.660156 C 91.097656 162.246094 91.488281 162.808594 92.066406 162.917969 C 92.65625 163.027344 93.210938 162.644531 93.324219 162.058594 C 93.457031 161.375 93.601562 160.683594 93.78125 159.988281 Z M 92.882812 166.207031 C 92.890625 165.613281 92.40625 165.121094 91.816406 165.117188 C 91.222656 165.109375 90.730469 165.582031 90.722656 166.175781 C 90.710938 166.957031 90.742188 167.726562 90.832031 168.484375 C 90.894531 169.074219 91.425781 169.503906 92.015625 169.4375 C 92.609375 169.375 93.035156 168.84375 92.96875 168.253906 C 92.894531 167.578125 92.871094 166.898438 92.882812 166.207031 Z M 93.984375 172.140625 C 93.746094 171.597656 93.109375 171.347656 92.574219 171.585938 C 92.023438 171.824219 91.773438 172.460938 92.007812 173.003906 C 92.320312 173.707031 92.683594 174.398438 93.125 175.074219 C 93.4375 175.574219 94.109375 175.71875 94.613281 175.398438 C 95.109375 175.078125 95.253906 174.410156 94.9375 173.910156 C 94.558594 173.332031 94.246094 172.742188 93.984375 172.140625 Z M 97.597656 177 C 97.167969 176.597656 96.488281 176.621094 96.082031 177.054688 C 95.675781 177.488281 95.699219 178.171875 96.128906 178.574219 C 96.691406 179.097656 97.257812 179.589844 97.835938 180.054688 C 98.292969 180.429688 98.976562 180.359375 99.34375 179.898438 C 99.71875 179.433594 99.644531 178.757812 99.191406 178.382812 C 98.648438 177.949219 98.121094 177.488281 97.597656 177 Z M 102.640625 180.785156 C 102.125 180.480469 101.460938 180.648438 101.160156 181.160156 C 100.859375 181.671875 101.03125 182.332031 101.535156 182.632812 C 102.195312 183.023438 102.859375 183.382812 103.527344 183.710938 C 104.058594 183.976562 104.707031 183.757812 104.96875 183.226562 C 105.230469 182.691406 105.015625 182.046875 104.484375 181.785156 C 103.859375 181.476562 103.242188 181.140625 102.640625 180.785156 Z M 108.375 183.371094 C 107.816406 183.1875 107.207031 183.496094 107.015625 184.058594 C 106.832031 184.625 107.132812 185.230469 107.703125 185.417969 C 108.414062 185.652344 109.140625 185.863281 109.867188 186.050781 C 110.441406 186.199219 111.023438 185.851562 111.175781 185.277344 C 111.316406 184.699219 110.972656 184.113281 110.394531 183.964844 C 109.71875 183.789062 109.046875 183.59375 108.375 183.371094 Z M 114.554688 184.773438 C 113.972656 184.695312 113.421875 185.105469 113.34375 185.695312 C 113.261719 186.28125 113.675781 186.828125 114.257812 186.90625 C 114.996094 187.007812 115.734375 187.089844 116.488281 187.15625 C 117.074219 187.207031 117.59375 186.765625 117.644531 186.175781 C 117.703125 185.585938 117.265625 185.0625 116.667969 185.011719 C 115.960938 184.949219 115.261719 184.871094 114.554688 184.773438 Z M 120.933594 185.199219 C 120.339844 185.195312 119.855469 185.675781 119.859375 186.269531 C 119.851562 186.863281 120.335938 187.347656 120.925781 187.347656 C 121.664062 187.351562 122.40625 187.34375 123.144531 187.320312 C 123.742188 187.304688 124.207031 186.808594 124.195312 186.214844 C 124.171875 185.621094 123.675781 185.152344 123.082031 185.171875 C 122.371094 185.191406 121.652344 185.199219 120.933594 185.199219 Z M 127.375 184.925781 C 126.785156 184.976562 126.351562 185.496094 126.394531 186.085938 C 126.4375 186.679688 126.96875 187.121094 127.554688 187.070312 C 128.28125 187.011719 129.019531 186.945312 129.746094 186.871094 C 130.335938 186.808594 130.773438 186.28125 130.707031 185.691406 C 130.652344 185.101562 130.121094 184.667969 129.53125 184.730469 C 128.816406 184.800781 128.101562 184.867188 127.375 184.925781 Z M 133.835938 184.230469 C 133.246094 184.304688 132.828125 184.84375 132.902344 185.433594 C 132.976562 186.023438 133.519531 186.441406 134.113281 186.367188 C 134.832031 186.269531 135.558594 186.175781 136.277344 186.078125 C 136.871094 186 137.28125 185.457031 137.203125 184.867188 C 137.117188 184.277344 136.574219 183.867188 135.992188 183.945312 C 135.273438 184.042969 134.554688 184.136719 133.835938 184.230469 Z M 140.308594 183.351562 C 139.714844 183.429688 139.308594 183.976562 139.382812 184.5625 C 139.46875 185.152344 140.011719 185.5625 140.605469 185.484375 C 141.324219 185.382812 142.042969 185.289062 142.753906 185.191406 C 143.34375 185.117188 143.761719 184.574219 143.6875 183.988281 C 143.601562 183.398438 143.066406 182.984375 142.476562 183.058594 C 141.757812 183.15625 141.039062 183.25 140.308594 183.351562 Z M 146.835938 182.539062 C 146.246094 182.601562 145.816406 183.128906 145.871094 183.71875 C 145.9375 184.3125 146.46875 184.742188 147.058594 184.679688 C 147.773438 184.605469 148.5 184.539062 149.207031 184.480469 C 149.792969 184.429688 150.238281 183.910156 150.1875 183.316406 C 150.144531 182.726562 149.625 182.285156 149.035156 182.332031 C 148.308594 182.394531 147.574219 182.460938 146.835938 182.539062 Z M 153.453125 182.109375 C 152.867188 182.117188 152.382812 182.605469 152.394531 183.199219 C 152.410156 183.792969 152.890625 184.269531 153.488281 184.257812 C 154.207031 184.25 154.921875 184.253906 155.617188 184.277344 C 156.207031 184.296875 156.710938 183.832031 156.730469 183.238281 C 156.75 182.644531 156.277344 182.144531 155.6875 182.125 C 154.949219 182.101562 154.210938 182.097656 153.453125 182.109375 Z M 160.171875 182.550781 C 159.582031 182.453125 159.035156 182.851562 158.933594 183.4375 C 158.832031 184.023438 159.234375 184.578125 159.816406 184.675781 C 160.507812 184.789062 161.1875 184.933594 161.855469 185.105469 C 162.429688 185.253906 163.023438 184.910156 163.164062 184.332031 C 163.316406 183.757812 162.96875 183.171875 162.394531 183.023438 C 161.667969 182.832031 160.925781 182.679688 160.171875 182.550781 Z M 166.695312 184.640625 C 166.167969 184.371094 165.519531 184.578125 165.246094 185.105469 C 164.964844 185.632812 165.179688 186.28125 165.707031 186.554688 C 166.304688 186.863281 166.886719 187.210938 167.457031 187.601562 C 167.945312 187.941406 168.617188 187.816406 168.957031 187.328125 C 169.292969 186.839844 169.167969 186.167969 168.675781 185.828125 C 168.042969 185.390625 167.371094 184.992188 166.695312 184.640625 Z M 172.117188 188.917969 C 171.734375 188.472656 171.050781 188.421875 170.597656 188.8125 C 170.148438 189.199219 170.097656 189.878906 170.492188 190.328125 C 170.929688 190.832031 171.34375 191.375 171.742188 191.960938 C 172.082031 192.449219 172.75 192.574219 173.238281 192.238281 C 173.738281 191.902344 173.859375 191.230469 173.523438 190.742188 C 173.078125 190.089844 172.609375 189.484375 172.117188 188.917969 Z M 175.761719 194.652344 C 175.5 194.121094 174.851562 193.90625 174.320312 194.167969 C 173.789062 194.433594 173.578125 195.082031 173.835938 195.613281 C 174.15625 196.242188 174.453125 196.882812 174.75 197.542969 C 174.988281 198.085938 175.625 198.328125 176.164062 198.089844 C 176.710938 197.847656 176.953125 197.210938 176.714844 196.667969 C 176.402344 195.980469 176.085938 195.308594 175.761719 194.652344 Z M 178.355469 200.800781 C 178.152344 200.238281 177.542969 199.945312 176.976562 200.144531 C 176.414062 200.339844 176.121094 200.957031 176.324219 201.519531 C 176.558594 202.183594 176.789062 202.863281 177 203.550781 C 177.179688 204.117188 177.789062 204.433594 178.351562 204.253906 C 178.921875 204.074219 179.234375 203.46875 179.050781 202.902344 C 178.824219 202.191406 178.597656 201.492188 178.355469 200.800781 Z M 180.261719 207.164062 C 180.109375 206.585938 179.527344 206.234375 178.949219 206.378906 C 178.371094 206.523438 178.019531 207.109375 178.171875 207.6875 C 178.335938 208.375 178.503906 209.074219 178.667969 209.78125 C 178.796875 210.359375 179.367188 210.726562 179.945312 210.597656 C 180.53125 210.46875 180.894531 209.890625 180.765625 209.3125 C 180.601562 208.585938 180.4375 207.871094 180.261719 207.164062 Z M 181.621094 213.640625 C 181.515625 213.054688 180.957031 212.664062 180.375 212.765625 C 179.789062 212.867188 179.398438 213.421875 179.496094 214.007812 C 179.621094 214.710938 179.734375 215.421875 179.84375 216.136719 C 179.933594 216.726562 180.476562 217.128906 181.070312 217.042969 C 181.652344 216.953125 182.0625 216.40625 181.976562 215.820312 C 181.863281 215.085938 181.742188 214.363281 181.621094 213.640625 Z M 182.535156 220.1875 C 182.472656 219.597656 181.941406 219.167969 181.347656 219.234375 C 180.757812 219.296875 180.332031 219.828125 180.398438 220.417969 C 180.46875 221.132812 180.539062 221.847656 180.609375 222.570312 C 180.664062 223.160156 181.183594 223.597656 181.769531 223.542969 C 182.371094 223.492188 182.808594 222.96875 182.753906 222.378906 C 182.683594 221.644531 182.617188 220.914062 182.535156 220.1875 Z M 183.0625 226.765625 C 183.027344 226.171875 182.523438 225.71875 181.933594 225.75 C 181.339844 225.78125 180.882812 226.289062 180.914062 226.882812 C 180.953125 227.597656 180.984375 228.320312 181.011719 229.042969 C 181.023438 229.632812 181.53125 230.097656 182.125 230.078125 C 182.710938 230.054688 183.175781 229.558594 183.152344 228.964844 C 183.136719 228.230469 183.101562 227.496094 183.0625 226.765625 Z M 183.242188 233.363281 C 183.242188 232.765625 182.757812 232.285156 182.164062 232.289062 C 181.570312 232.289062 181.085938 232.769531 181.089844 233.367188 C 181.085938 234.085938 181.082031 234.808594 181.070312 235.527344 C 181.0625 236.121094 181.542969 236.613281 182.136719 236.621094 C 182.730469 236.628906 183.222656 236.152344 183.230469 235.558594 C 183.234375 234.828125 183.238281 234.09375 183.242188 233.363281 Z M 183.089844 239.953125 C 183.121094 239.359375 182.660156 238.855469 182.070312 238.828125 C 181.472656 238.800781 180.96875 239.257812 180.941406 239.851562 C 180.90625 240.574219 180.871094 241.292969 180.816406 242.011719 C 180.789062 242.605469 181.238281 243.117188 181.824219 243.152344 C 182.425781 243.191406 182.9375 242.742188 182.976562 242.148438 C 183.019531 241.417969 183.054688 240.6875 183.089844 239.953125 Z M 182.617188 246.53125 C 182.679688 245.941406 182.242188 245.414062 181.65625 245.359375 C 181.058594 245.300781 180.539062 245.734375 180.480469 246.324219 C 180.414062 247.046875 180.339844 247.761719 180.253906 248.476562 C 180.183594 249.066406 180.609375 249.597656 181.203125 249.667969 C 181.789062 249.734375 182.328125 249.308594 182.390625 248.71875 C 182.476562 247.992188 182.550781 247.265625 182.617188 246.53125 Z M 181.828125 253.082031 C 181.90625 252.492188 181.503906 251.945312 180.914062 251.855469 C 180.328125 251.769531 179.78125 252.175781 179.691406 252.761719 C 179.585938 253.480469 179.480469 254.191406 179.351562 254.898438 C 179.261719 255.484375 179.652344 256.039062 180.246094 256.136719 C 180.828125 256.234375 181.382812 255.839844 181.484375 255.253906 C 181.601562 254.535156 181.71875 253.808594 181.828125 253.082031 Z M 180.667969 259.582031 C 180.789062 259 180.417969 258.429688 179.839844 258.308594 C 179.25 258.1875 178.6875 258.5625 178.566406 259.144531 C 178.492188 259.5 178.417969 259.851562 178.335938 260.199219 C 178.214844 260.78125 178.582031 261.355469 179.160156 261.480469 C 179.738281 261.605469 180.3125 261.238281 180.445312 260.660156 C 180.519531 260.300781 180.59375 259.941406 180.667969 259.582031 Z M 180.667969 259.582031 " fill-opacity="1" fill-rule="evenodd"/></g></g></g></g></g></g></g></g></svg>